  0
SECTION
  2
HEADER
  9
$ACADVER
  1
AC1014
  9
$EXTMIN
 10
70.16401489310567
 20
112.369642808922
 30
0.0
  9
$EXTMAX
 10
277.0834797641999
 20
227.1366601424358
 30
0.0
  9
$HANDSEED
  5
56
  9
$MEASUREMENT
 70
1
  0
ENDSEC
  0
SECTION
  2
TABLES
  0
TABLE
  2
VPORT
  5
8
330
0
100
AcDbSymbolTable
 70
     4
  0
VPORT
  5
2E
330
8
100
AcDbSymbolTableRecord
100
AcDbViewportTableRecord
  2
*ACTIVE
 70
     0
 10
0.0
 20
0.0
 11
1.0
 21
1.0
 12
209.9999999999999
 22
148.4999999999999
 13
0.0
 23
0.0
 14
10.0
 24
10.0
 15
10.0
 25
10.0
 16
0.0
 26
0.0
 36
1.0
 17
0.0
 27
0.0
 37
0.0
 40
340.9950045922664
 41
1.239944521497919
 42
50.0
 43
0.0
 44
0.0
 50
0.0
 51
0.0
 71
     0
 72
   100
 73
     1
 74
     3
 75
     0
 76
     0
 77
     0
 78
     0
  0
ENDTAB
  0
TABLE
  2
LTYPE
  5
5
330
0
100
AcDbSymbolTable
 70
     1
  0
LTYPE
  5
14
330
5
100
AcDbSymbolTableRecord
100
AcDbLinetypeTableRecord
  2
BYBLOCK
 70
     0
  3

 72
    65
 73
     0
 40
0.0
  0
LTYPE
  5
15
330
5
100
AcDbSymbolTableRecord
100
AcDbLinetypeTableRecord
  2
BYLAYER
 70
     0
  3

 72
    65
 73
     0
 40
0.0
  0
LTYPE
  5
16
330
5
100
AcDbSymbolTableRecord
100
AcDbLinetypeTableRecord
  2
CONTINUOUS
 70
     0
  3
Solid line
 72
    65
 73
     0
 40
0.0
  0
ENDTAB
  0
TABLE
  2
LAYER
  5
2
330
0
100
AcDbSymbolTable
 70
1
  0
LAYER
  5
10
330
2
100
AcDbSymbolTableRecord
100
AcDbLayerTableRecord
  2
0
 70
     0
 62
     7
  6
CONTINUOUS
  0
ENDTAB
  0
TABLE
  2
STYLE
  5
3
330
0
100
AcDbSymbolTable
 70
     1
  0
STYLE
  5
11
330
3
100
AcDbSymbolTableRecord
100
AcDbTextStyleTableRecord
  2
STANDARD
 70
     0
 40
0.0
 41
1.0
 50
0.0
 71
     0
 42
2.5
  3
txt
  4

  0
ENDTAB
  0
TABLE
  2
VIEW
  5
6
330
0
100
AcDbSymbolTable
 70
     0
  0
ENDTAB
  0
TABLE
  2
UCS
  5
7
330
0
100
AcDbSymbolTable
 70
     0
  0
ENDTAB
  0
TABLE
  2
APPID
  5
9
330
0
100
AcDbSymbolTable
 70
     2
  0
APPID
  5
12
330
9
100
AcDbSymbolTableRecord
100
AcDbRegAppTableRecord
  2
ACAD
 70
     0
  0
APPID
  5
2B
330
9
100
AcDbSymbolTableRecord
100
AcDbRegAppTableRecord
  2
URBANX
 70
     0
  0
ENDTAB
  0
TABLE
  2
DIMSTYLE
  5
A
330
0
100
AcDbSymbolTable
 70
     1
  0
DIMSTYLE
105
27
330
A
100
AcDbSymbolTableRecord
100
AcDbDimStyleTableRecord
  2
ISO-25
 70
     0
  3

  4

  5

  6

  7

 40
1.0
 41
2.5
 42
0.625
 43
3.75
 44
1.25
 45
0.0
 46
0.0
 47
0.0
 48
0.0
140
2.5
141
2.5
142
0.0
143
0.03937007874016
144
1.0
145
0.0
146
1.0
147
0.625
 71
     0
 72
     0
 73
     0
 74
     0
 75
     0
 76
     0
 77
     1
 78
     8
170
     0
171
     3
172
     1
173
     0
174
     0
175
     0
176
     0
177
     0
178
     0
270
     2
271
     2
272
     2
273
     2
274
     3
340
11
275
     0
280
     0
281
     0
282
     0
283
     0
284
     8
285
     0
286
     0
287
     3
288
     0
  0
ENDTAB
  0
TABLE
  2
BLOCK_RECORD
  5
1
330
0
100
AcDbSymbolTable
 70
     1
  0
BLOCK_RECORD
  5
1F
102
{ACAD_XDICTIONARY
360
52
102
}
330
1
100
AcDbSymbolTableRecord
100
AcDbBlockTableRecord
  2
*MODEL_SPACE
  0
BLOCK_RECORD
  5
1B
102
{ACAD_XDICTIONARY
360
50
102
}
330
1
100
AcDbSymbolTableRecord
100
AcDbBlockTableRecord
  2
*PAPER_SPACE
  0
ENDTAB
  0
ENDSEC
  0
SECTION
  2
BLOCKS
  0
BLOCK
  5
20
330
1F
100
AcDbEntity
  8
0
100
AcDbBlockBegin
  2
*MODEL_SPACE
 70
     0
 10
0.0
 20
0.0
 30
0.0
  3
*MODEL_SPACE
  1

  0
ENDBLK
  5
21
330
1F
100
AcDbEntity
  8
0
100
AcDbBlockEnd
  0
BLOCK
  5
1C
330
1B
100
AcDbEntity
 67
     1
  8
0
100
AcDbBlockBegin
  2
*PAPER_SPACE
  1

  0
ENDBLK
  5
1D
330
1B
100
AcDbEntity
 67
     1
  8
0
100
AcDbBlockEnd
  0
ENDSEC
  0
SECTION
  2
ENTITIES
  0
SPLINE
  5
ff
100
AcDbEntity
  8
0
100
AcDbSpline
210
0.0
220
0.0
230
1.0
 62
     242
 70
     0
 71
     3
 72
     8
 73
4
 40
0.0
 40
0.0
 40
0.0
 40
0.0
 40
1.0
 40
1.0
 40
1.0
 40
1.0
 10
148.598
 20
37.925
 30
0.0
 10
148.598
 20
37.3447
 30
0.0
 10
149.068
 20
36.8748
 30
0.0
 10
149.648
 20
36.8748
 30
0.0
  0
SPLINE
  5
100
100
AcDbEntity
  8
0
100
AcDbSpline
210
0.0
220
0.0
230
1.0
 62
     242
 70
     0
 71
     3
 72
     8
 73
4
 40
0.0
 40
0.0
 40
0.0
 40
0.0
 40
1.0
 40
1.0
 40
1.0
 40
1.0
 10
149.648
 20
36.8748
 30
0.0
 10
150.228
 20
36.8748
 30
0.0
 10
150.698
 20
37.3447
 30
0.0
 10
150.698
 20
37.925
 30
0.0
  0
SPLINE
  5
101
100
AcDbEntity
  8
0
100
AcDbSpline
210
0.0
220
0.0
230
1.0
 62
     242
 70
     0
 71
     3
 72
     8
 73
4
 40
0.0
 40
0.0
 40
0.0
 40
0.0
 40
1.0
 40
1.0
 40
1.0
 40
1.0
 10
150.698
 20
37.925
 30
0.0
 10
150.698
 20
38.505
 30
0.0
 10
150.228
 20
38.9749
 30
0.0
 10
149.648
 20
38.9749
 30
0.0
  0
SPLINE
  5
102
100
AcDbEntity
  8
0
100
AcDbSpline
210
0.0
220
0.0
230
1.0
 62
     242
 70
     0
 71
     3
 72
     8
 73
4
 40
0.0
 40
0.0
 40
0.0
 40
0.0
 40
1.0
 40
1.0
 40
1.0
 40
1.0
 10
149.648
 20
38.9749
 30
0.0
 10
149.068
 20
38.9749
 30
0.0
 10
148.598
 20
38.505
 30
0.0
 10
148.598
 20
37.925
 30
0.0
  0
LINE
  5
103
100
AcDbEntity
  8
0
100
AcDbLine
 62
     242
 10
148.598
 20
37.925
 30
0.0
 11
148.598
 21
37.925
 31
0.0
  0
SPLINE
  5
104
100
AcDbEntity
  8
0
100
AcDbSpline
210
0.0
220
0.0
230
1.0
 62
     242
 70
     0
 71
     3
 72
     8
 73
4
 40
0.0
 40
0.0
 40
0.0
 40
0.0
 40
1.0
 40
1.0
 40
1.0
 40
1.0
 10
82.8269
 20
19.0583
 30
0.0
 10
82.8269
 20
18.4781
 30
0.0
 10
83.2968
 20
18.0082
 30
0.0
 10
83.8771
 20
18.0082
 30
0.0
  0
SPLINE
  5
105
100
AcDbEntity
  8
0
100
AcDbSpline
210
0.0
220
0.0
230
1.0
 62
     242
 70
     0
 71
     3
 72
     8
 73
4
 40
0.0
 40
0.0
 40
0.0
 40
0.0
 40
1.0
 40
1.0
 40
1.0
 40
1.0
 10
83.8771
 20
18.0082
 30
0.0
 10
84.4571
 20
18.0082
 30
0.0
 10
84.927
 20
18.4781
 30
0.0
 10
84.927
 20
19.0583
 30
0.0
  0
SPLINE
  5
106
100
AcDbEntity
  8
0
100
AcDbSpline
210
0.0
220
0.0
230
1.0
 62
     242
 70
     0
 71
     3
 72
     8
 73
4
 40
0.0
 40
0.0
 40
0.0
 40
0.0
 40
1.0
 40
1.0
 40
1.0
 40
1.0
 10
84.927
 20
19.0583
 30
0.0
 10
84.927
 20
19.6384
 30
0.0
 10
84.4571
 20
20.1083
 30
0.0
 10
83.8771
 20
20.1083
 30
0.0
  0
SPLINE
  5
107
100
AcDbEntity
  8
0
100
AcDbSpline
210
0.0
220
0.0
230
1.0
 62
     242
 70
     0
 71
     3
 72
     8
 73
4
 40
0.0
 40
0.0
 40
0.0
 40
0.0
 40
1.0
 40
1.0
 40
1.0
 40
1.0
 10
83.8771
 20
20.1083
 30
0.0
 10
83.2968
 20
20.1083
 30
0.0
 10
82.8269
 20
19.6384
 30
0.0
 10
82.8269
 20
19.0583
 30
0.0
  0
LINE
  5
108
100
AcDbEntity
  8
0
100
AcDbLine
 62
     242
 10
82.8269
 20
19.0583
 30
0.0
 11
82.8269
 21
19.0583
 31
0.0
  0
SPLINE
  5
109
100
AcDbEntity
  8
0
100
AcDbSpline
210
0.0
220
0.0
230
1.0
 62
     242
 70
     0
 71
     3
 72
     8
 73
4
 40
0.0
 40
0.0
 40
0.0
 40
0.0
 40
1.0
 40
1.0
 40
1.0
 40
1.0
 10
26.8015
 20
4.30085
 30
0.0
 10
26.8015
 20
3.72071
 30
0.0
 10
27.2714
 20
3.25079
 30
0.0
 10
27.8515
 20
3.25079
 30
0.0
  0
SPLINE
  5
10a
100
AcDbEntity
  8
0
100
AcDbSpline
210
0.0
220
0.0
230
1.0
 62
     242
 70
     0
 71
     3
 72
     8
 73
4
 40
0.0
 40
0.0
 40
0.0
 40
0.0
 40
1.0
 40
1.0
 40
1.0
 40
1.0
 10
27.8515
 20
3.25079
 30
0.0
 10
28.4317
 20
3.25079
 30
0.0
 10
28.9016
 20
3.72071
 30
0.0
 10
28.9016
 20
4.30085
 30
0.0
  0
SPLINE
  5
10b
100
AcDbEntity
  8
0
100
AcDbSpline
210
0.0
220
0.0
230
1.0
 62
     242
 70
     0
 71
     3
 72
     8
 73
4
 40
0.0
 40
0.0
 40
0.0
 40
0.0
 40
1.0
 40
1.0
 40
1.0
 40
1.0
 10
28.9016
 20
4.30085
 30
0.0
 10
28.9016
 20
4.881
 30
0.0
 10
28.4317
 20
5.35093
 30
0.0
 10
27.8515
 20
5.35093
 30
0.0
  0
SPLINE
  5
10c
100
AcDbEntity
  8
0
100
AcDbSpline
210
0.0
220
0.0
230
1.0
 62
     242
 70
     0
 71
     3
 72
     8
 73
4
 40
0.0
 40
0.0
 40
0.0
 40
0.0
 40
1.0
 40
1.0
 40
1.0
 40
1.0
 10
27.8515
 20
5.35093
 30
0.0
 10
27.2714
 20
5.35093
 30
0.0
 10
26.8015
 20
4.881
 30
0.0
 10
26.8015
 20
4.30085
 30
0.0
  0
LINE
  5
10d
100
AcDbEntity
  8
0
100
AcDbLine
 62
     242
 10
26.8015
 20
4.30085
 30
0.0
 11
26.8015
 21
4.30085
 31
0.0
  0
SPLINE
  5
10e
100
AcDbEntity
  8
0
100
AcDbSpline
210
0.0
220
0.0
230
1.0
 62
     242
 70
     0
 71
     3
 72
     8
 73
4
 40
0.0
 40
0.0
 40
0.0
 40
0.0
 40
1.0
 40
1.0
 40
1.0
 40
1.0
 10
3.26044
 20
45.1926
 30
0.0
 10
3.26044
 20
44.614
 30
0.0
 10
3.73172
 20
44.1441
 30
0.0
 10
4.31052
 20
44.1441
 30
0.0
  0
SPLINE
  5
10f
100
AcDbEntity
  8
0
100
AcDbSpline
210
0.0
220
0.0
230
1.0
 62
     242
 70
     0
 71
     3
 72
     8
 73
4
 40
0.0
 40
0.0
 40
0.0
 40
0.0
 40
1.0
 40
1.0
 40
1.0
 40
1.0
 10
4.31052
 20
44.1441
 30
0.0
 10
4.89066
 20
44.1441
 30
0.0
 10
5.36056
 20
44.614
 30
0.0
 10
5.36056
 20
45.1926
 30
0.0
  0
SPLINE
  5
110
100
AcDbEntity
  8
0
100
AcDbSpline
210
0.0
220
0.0
230
1.0
 62
     242
 70
     0
 71
     3
 72
     8
 73
4
 40
0.0
 40
0.0
 40
0.0
 40
0.0
 40
1.0
 40
1.0
 40
1.0
 40
1.0
 10
5.36056
 20
45.1926
 30
0.0
 10
5.36056
 20
45.7729
 30
0.0
 10
4.89066
 20
46.2428
 30
0.0
 10
4.31052
 20
46.2428
 30
0.0
  0
SPLINE
  5
111
100
AcDbEntity
  8
0
100
AcDbSpline
210
0.0
220
0.0
230
1.0
 62
     242
 70
     0
 71
     3
 72
     8
 73
4
 40
0.0
 40
0.0
 40
0.0
 40
0.0
 40
1.0
 40
1.0
 40
1.0
 40
1.0
 10
4.31052
 20
46.2428
 30
0.0
 10
3.73172
 20
46.2428
 30
0.0
 10
3.26044
 20
45.7729
 30
0.0
 10
3.26044
 20
45.1926
 30
0.0
  0
LINE
  5
112
100
AcDbEntity
  8
0
100
AcDbLine
 62
     242
 10
3.26044
 20
45.1926
 30
0.0
 11
3.26044
 21
45.1926
 31
0.0
  0
SPLINE
  5
113
100
AcDbEntity
  8
0
100
AcDbSpline
210
0.0
220
0.0
230
1.0
 62
     242
 70
     0
 71
     3
 72
     8
 73
4
 40
0.0
 40
0.0
 40
0.0
 40
0.0
 40
1.0
 40
1.0
 40
1.0
 40
1.0
 10
29.6458
 20
120.177
 30
0.0
 10
29.6458
 20
119.597
 30
0.0
 10
30.1157
 20
119.127
 30
0.0
 10
30.6958
 20
119.127
 30
0.0
  0
SPLINE
  5
114
100
AcDbEntity
  8
0
100
AcDbSpline
210
0.0
220
0.0
230
1.0
 62
     242
 70
     0
 71
     3
 72
     8
 73
4
 40
0.0
 40
0.0
 40
0.0
 40
0.0
 40
1.0
 40
1.0
 40
1.0
 40
1.0
 10
30.6958
 20
119.127
 30
0.0
 10
31.276
 20
119.127
 30
0.0
 10
31.7459
 20
119.597
 30
0.0
 10
31.7459
 20
120.177
 30
0.0
  0
SPLINE
  5
115
100
AcDbEntity
  8
0
100
AcDbSpline
210
0.0
220
0.0
230
1.0
 62
     242
 70
     0
 71
     3
 72
     8
 73
4
 40
0.0
 40
0.0
 40
0.0
 40
0.0
 40
1.0
 40
1.0
 40
1.0
 40
1.0
 10
31.7459
 20
120.177
 30
0.0
 10
31.7459
 20
120.758
 30
0.0
 10
31.276
 20
121.227
 30
0.0
 10
30.6958
 20
121.227
 30
0.0
  0
SPLINE
  5
116
100
AcDbEntity
  8
0
100
AcDbSpline
210
0.0
220
0.0
230
1.0
 62
     242
 70
     0
 71
     3
 72
     8
 73
4
 40
0.0
 40
0.0
 40
0.0
 40
0.0
 40
1.0
 40
1.0
 40
1.0
 40
1.0
 10
30.6958
 20
121.227
 30
0.0
 10
30.1157
 20
121.227
 30
0.0
 10
29.6458
 20
120.758
 30
0.0
 10
29.6458
 20
120.177
 30
0.0
  0
LINE
  5
117
100
AcDbEntity
  8
0
100
AcDbLine
 62
     242
 10
29.6458
 20
120.177
 30
0.0
 11
29.6458
 21
120.177
 31
0.0
  0
SPLINE
  5
118
100
AcDbEntity
  8
0
100
AcDbSpline
210
0.0
220
0.0
230
1.0
 62
     242
 70
     0
 71
     3
 72
     8
 73
4
 40
0.0
 40
0.0
 40
0.0
 40
0.0
 40
1.0
 40
1.0
 40
1.0
 40
1.0
 10
50.2035
 20
128.363
 30
0.0
 10
50.2035
 20
127.783
 30
0.0
 10
50.6734
 20
127.313
 30
0.0
 10
51.2533
 20
127.313
 30
0.0
  0
SPLINE
  5
119
100
AcDbEntity
  8
0
100
AcDbSpline
210
0.0
220
0.0
230
1.0
 62
     242
 70
     0
 71
     3
 72
     8
 73
4
 40
0.0
 40
0.0
 40
0.0
 40
0.0
 40
1.0
 40
1.0
 40
1.0
 40
1.0
 10
51.2533
 20
127.313
 30
0.0
 10
51.8336
 20
127.313
 30
0.0
 10
52.3035
 20
127.783
 30
0.0
 10
52.3035
 20
128.363
 30
0.0
  0
SPLINE
  5
11a
100
AcDbEntity
  8
0
100
AcDbSpline
210
0.0
220
0.0
230
1.0
 62
     242
 70
     0
 71
     3
 72
     8
 73
4
 40
0.0
 40
0.0
 40
0.0
 40
0.0
 40
1.0
 40
1.0
 40
1.0
 40
1.0
 10
52.3035
 20
128.363
 30
0.0
 10
52.3035
 20
128.943
 30
0.0
 10
51.8336
 20
129.413
 30
0.0
 10
51.2533
 20
129.413
 30
0.0
  0
SPLINE
  5
11b
100
AcDbEntity
  8
0
100
AcDbSpline
210
0.0
220
0.0
230
1.0
 62
     242
 70
     0
 71
     3
 72
     8
 73
4
 40
0.0
 40
0.0
 40
0.0
 40
0.0
 40
1.0
 40
1.0
 40
1.0
 40
1.0
 10
51.2533
 20
129.413
 30
0.0
 10
50.6734
 20
129.413
 30
0.0
 10
50.2035
 20
128.943
 30
0.0
 10
50.2035
 20
128.363
 30
0.0
  0
LINE
  5
11c
100
AcDbEntity
  8
0
100
AcDbLine
 62
     242
 10
50.2035
 20
128.363
 30
0.0
 11
50.2035
 21
128.363
 31
0.0
  0
SPLINE
  5
11d
100
AcDbEntity
  8
0
100
AcDbSpline
210
0.0
220
0.0
230
1.0
 62
     242
 70
     0
 71
     3
 72
     8
 73
4
 40
0.0
 40
0.0
 40
0.0
 40
0.0
 40
1.0
 40
1.0
 40
1.0
 40
1.0
 10
100.084
 20
128.992
 30
0.0
 10
100.084
 20
128.413
 30
0.0
 10
100.554
 20
127.943
 30
0.0
 10
101.134
 20
127.943
 30
0.0
  0
SPLINE
  5
11e
100
AcDbEntity
  8
0
100
AcDbSpline
210
0.0
220
0.0
230
1.0
 62
     242
 70
     0
 71
     3
 72
     8
 73
4
 40
0.0
 40
0.0
 40
0.0
 40
0.0
 40
1.0
 40
1.0
 40
1.0
 40
1.0
 10
101.134
 20
127.943
 30
0.0
 10
101.714
 20
127.943
 30
0.0
 10
102.184
 20
128.413
 30
0.0
 10
102.184
 20
128.992
 30
0.0
  0
SPLINE
  5
11f
100
AcDbEntity
  8
0
100
AcDbSpline
210
0.0
220
0.0
230
1.0
 62
     242
 70
     0
 71
     3
 72
     8
 73
4
 40
0.0
 40
0.0
 40
0.0
 40
0.0
 40
1.0
 40
1.0
 40
1.0
 40
1.0
 10
102.184
 20
128.992
 30
0.0
 10
102.184
 20
129.573
 30
0.0
 10
101.714
 20
130.043
 30
0.0
 10
101.134
 20
130.043
 30
0.0
  0
SPLINE
  5
120
100
AcDbEntity
  8
0
100
AcDbSpline
210
0.0
220
0.0
230
1.0
 62
     242
 70
     0
 71
     3
 72
     8
 73
4
 40
0.0
 40
0.0
 40
0.0
 40
0.0
 40
1.0
 40
1.0
 40
1.0
 40
1.0
 10
101.134
 20
130.043
 30
0.0
 10
100.554
 20
130.043
 30
0.0
 10
100.084
 20
129.573
 30
0.0
 10
100.084
 20
128.992
 30
0.0
  0
LINE
  5
121
100
AcDbEntity
  8
0
100
AcDbLine
 62
     242
 10
100.084
 20
128.992
 30
0.0
 11
100.084
 21
128.992
 31
0.0
  0
SPLINE
  5
122
100
AcDbEntity
  8
0
100
AcDbSpline
210
0.0
220
0.0
230
1.0
 62
     242
 70
     0
 71
     3
 72
     8
 73
4
 40
0.0
 40
0.0
 40
0.0
 40
0.0
 40
1.0
 40
1.0
 40
1.0
 40
1.0
 10
148.796
 20
118.204
 30
0.0
 10
148.796
 20
117.624
 30
0.0
 10
149.266
 20
117.154
 30
0.0
 10
149.847
 20
117.154
 30
0.0
  0
SPLINE
  5
123
100
AcDbEntity
  8
0
100
AcDbSpline
210
0.0
220
0.0
230
1.0
 62
     242
 70
     0
 71
     3
 72
     8
 73
4
 40
0.0
 40
0.0
 40
0.0
 40
0.0
 40
1.0
 40
1.0
 40
1.0
 40
1.0
 10
149.847
 20
117.154
 30
0.0
 10
150.427
 20
117.154
 30
0.0
 10
150.896
 20
117.624
 30
0.0
 10
150.896
 20
118.204
 30
0.0
  0
SPLINE
  5
124
100
AcDbEntity
  8
0
100
AcDbSpline
210
0.0
220
0.0
230
1.0
 62
     242
 70
     0
 71
     3
 72
     8
 73
4
 40
0.0
 40
0.0
 40
0.0
 40
0.0
 40
1.0
 40
1.0
 40
1.0
 40
1.0
 10
150.896
 20
118.204
 30
0.0
 10
150.896
 20
118.784
 30
0.0
 10
150.427
 20
119.254
 30
0.0
 10
149.847
 20
119.254
 30
0.0
  0
SPLINE
  5
125
100
AcDbEntity
  8
0
100
AcDbSpline
210
0.0
220
0.0
230
1.0
 62
     242
 70
     0
 71
     3
 72
     8
 73
4
 40
0.0
 40
0.0
 40
0.0
 40
0.0
 40
1.0
 40
1.0
 40
1.0
 40
1.0
 10
149.847
 20
119.254
 30
0.0
 10
149.266
 20
119.254
 30
0.0
 10
148.796
 20
118.784
 30
0.0
 10
148.796
 20
118.204
 30
0.0
  0
LINE
  5
126
100
AcDbEntity
  8
0
100
AcDbLine
 62
     242
 10
148.796
 20
118.204
 30
0.0
 11
148.796
 21
118.204
 31
0.0
  0
SPLINE
  5
127
100
AcDbEntity
  8
0
100
AcDbSpline
210
0.0
220
0.0
230
1.0
 62
     242
 70
     0
 71
     3
 72
     8
 73
4
 40
0.0
 40
0.0
 40
0.0
 40
0.0
 40
1.0
 40
1.0
 40
1.0
 40
1.0
 10
127.453
 20
97.2069
 30
0.0
 10
127.453
 20
96.6265
 30
0.0
 10
127.923
 20
96.1566
 30
0.0
 10
128.504
 20
96.1566
 30
0.0
  0
SPLINE
  5
128
100
AcDbEntity
  8
0
100
AcDbSpline
210
0.0
220
0.0
230
1.0
 62
     242
 70
     0
 71
     3
 72
     8
 73
4
 40
0.0
 40
0.0
 40
0.0
 40
0.0
 40
1.0
 40
1.0
 40
1.0
 40
1.0
 10
128.504
 20
96.1566
 30
0.0
 10
129.084
 20
96.1566
 30
0.0
 10
129.553
 20
96.6265
 30
0.0
 10
129.553
 20
97.2069
 30
0.0
  0
SPLINE
  5
129
100
AcDbEntity
  8
0
100
AcDbSpline
210
0.0
220
0.0
230
1.0
 62
     242
 70
     0
 71
     3
 72
     8
 73
4
 40
0.0
 40
0.0
 40
0.0
 40
0.0
 40
1.0
 40
1.0
 40
1.0
 40
1.0
 10
129.553
 20
97.2069
 30
0.0
 10
129.553
 20
97.7868
 30
0.0
 10
129.084
 20
98.2567
 30
0.0
 10
128.504
 20
98.2567
 30
0.0
  0
SPLINE
  5
12a
100
AcDbEntity
  8
0
100
AcDbSpline
210
0.0
220
0.0
230
1.0
 62
     242
 70
     0
 71
     3
 72
     8
 73
4
 40
0.0
 40
0.0
 40
0.0
 40
0.0
 40
1.0
 40
1.0
 40
1.0
 40
1.0
 10
128.504
 20
98.2567
 30
0.0
 10
127.923
 20
98.2567
 30
0.0
 10
127.453
 20
97.7868
 30
0.0
 10
127.453
 20
97.2069
 30
0.0
  0
LINE
  5
12b
100
AcDbEntity
  8
0
100
AcDbLine
 62
     242
 10
127.453
 20
97.2069
 30
0.0
 11
127.453
 21
97.2069
 31
0.0
  0
SPLINE
  5
12c
100
AcDbEntity
  8
0
100
AcDbSpline
210
0.0
220
0.0
230
1.0
 62
     242
 70
     0
 71
     3
 72
     8
 73
4
 40
0.0
 40
0.0
 40
0.0
 40
0.0
 40
1.0
 40
1.0
 40
1.0
 40
1.0
 10
127.453
 20
59.1069
 30
0.0
 10
127.453
 20
58.5265
 30
0.0
 10
127.923
 20
58.0566
 30
0.0
 10
128.504
 20
58.0566
 30
0.0
  0
SPLINE
  5
12d
100
AcDbEntity
  8
0
100
AcDbSpline
210
0.0
220
0.0
230
1.0
 62
     242
 70
     0
 71
     3
 72
     8
 73
4
 40
0.0
 40
0.0
 40
0.0
 40
0.0
 40
1.0
 40
1.0
 40
1.0
 40
1.0
 10
128.504
 20
58.0566
 30
0.0
 10
129.084
 20
58.0566
 30
0.0
 10
129.553
 20
58.5265
 30
0.0
 10
129.553
 20
59.1069
 30
0.0
  0
SPLINE
  5
12e
100
AcDbEntity
  8
0
100
AcDbSpline
210
0.0
220
0.0
230
1.0
 62
     242
 70
     0
 71
     3
 72
     8
 73
4
 40
0.0
 40
0.0
 40
0.0
 40
0.0
 40
1.0
 40
1.0
 40
1.0
 40
1.0
 10
129.553
 20
59.1069
 30
0.0
 10
129.553
 20
59.6868
 30
0.0
 10
129.084
 20
60.1567
 30
0.0
 10
128.504
 20
60.1567
 30
0.0
  0
SPLINE
  5
12f
100
AcDbEntity
  8
0
100
AcDbSpline
210
0.0
220
0.0
230
1.0
 62
     242
 70
     0
 71
     3
 72
     8
 73
4
 40
0.0
 40
0.0
 40
0.0
 40
0.0
 40
1.0
 40
1.0
 40
1.0
 40
1.0
 10
128.504
 20
60.1567
 30
0.0
 10
127.923
 20
60.1567
 30
0.0
 10
127.453
 20
59.6868
 30
0.0
 10
127.453
 20
59.1069
 30
0.0
  0
LINE
  5
130
100
AcDbEntity
  8
0
100
AcDbLine
 62
     242
 10
127.453
 20
59.1069
 30
0.0
 11
127.453
 21
59.1069
 31
0.0
  0
SPLINE
  5
131
100
AcDbEntity
  8
0
100
AcDbSpline
210
0.0
220
0.0
230
1.0
 62
     242
 70
     0
 71
     3
 72
     8
 73
4
 40
0.0
 40
0.0
 40
0.0
 40
0.0
 40
1.0
 40
1.0
 40
1.0
 40
1.0
 10
51.2533
 20
62.6787
 30
0.0
 10
51.2533
 20
62.0984
 30
0.0
 10
51.7232
 20
61.6285
 30
0.0
 10
52.3035
 20
61.6285
 30
0.0
  0
SPLINE
  5
132
100
AcDbEntity
  8
0
100
AcDbSpline
210
0.0
220
0.0
230
1.0
 62
     242
 70
     0
 71
     3
 72
     8
 73
4
 40
0.0
 40
0.0
 40
0.0
 40
0.0
 40
1.0
 40
1.0
 40
1.0
 40
1.0
 10
52.3035
 20
61.6285
 30
0.0
 10
52.8835
 20
61.6285
 30
0.0
 10
53.3534
 20
62.0984
 30
0.0
 10
53.3534
 20
62.6787
 30
0.0
  0
SPLINE
  5
133
100
AcDbEntity
  8
0
100
AcDbSpline
210
0.0
220
0.0
230
1.0
 62
     242
 70
     0
 71
     3
 72
     8
 73
4
 40
0.0
 40
0.0
 40
0.0
 40
0.0
 40
1.0
 40
1.0
 40
1.0
 40
1.0
 10
53.3534
 20
62.6787
 30
0.0
 10
53.3534
 20
63.2576
 30
0.0
 10
52.8835
 20
63.7275
 30
0.0
 10
52.3035
 20
63.7275
 30
0.0
  0
SPLINE
  5
134
100
AcDbEntity
  8
0
100
AcDbSpline
210
0.0
220
0.0
230
1.0
 62
     242
 70
     0
 71
     3
 72
     8
 73
4
 40
0.0
 40
0.0
 40
0.0
 40
0.0
 40
1.0
 40
1.0
 40
1.0
 40
1.0
 10
52.3035
 20
63.7275
 30
0.0
 10
51.7232
 20
63.7275
 30
0.0
 10
51.2533
 20
63.2576
 30
0.0
 10
51.2533
 20
62.6787
 30
0.0
  0
LINE
  5
135
100
AcDbEntity
  8
0
100
AcDbLine
 62
     242
 10
51.2533
 20
62.6787
 30
0.0
 11
51.2533
 21
62.6787
 31
0.0
  0
SPLINE
  5
136
100
AcDbEntity
  8
0
100
AcDbSpline
210
0.0
220
0.0
230
1.0
 62
     242
 70
     0
 71
     3
 72
     8
 73
4
 40
0.0
 40
0.0
 40
0.0
 40
0.0
 40
1.0
 40
1.0
 40
1.0
 40
1.0
 10
51.2533
 20
100.779
 30
0.0
 10
51.2533
 20
100.198
 30
0.0
 10
51.7232
 20
99.7285
 30
0.0
 10
52.3035
 20
99.7285
 30
0.0
  0
SPLINE
  5
137
100
AcDbEntity
  8
0
100
AcDbSpline
210
0.0
220
0.0
230
1.0
 62
     242
 70
     0
 71
     3
 72
     8
 73
4
 40
0.0
 40
0.0
 40
0.0
 40
0.0
 40
1.0
 40
1.0
 40
1.0
 40
1.0
 10
52.3035
 20
99.7285
 30
0.0
 10
52.8835
 20
99.7285
 30
0.0
 10
53.3534
 20
100.198
 30
0.0
 10
53.3534
 20
100.779
 30
0.0
  0
SPLINE
  5
138
100
AcDbEntity
  8
0
100
AcDbSpline
210
0.0
220
0.0
230
1.0
 62
     242
 70
     0
 71
     3
 72
     8
 73
4
 40
0.0
 40
0.0
 40
0.0
 40
0.0
 40
1.0
 40
1.0
 40
1.0
 40
1.0
 10
53.3534
 20
100.779
 30
0.0
 10
53.3534
 20
101.358
 30
0.0
 10
52.8835
 20
101.828
 30
0.0
 10
52.3035
 20
101.828
 30
0.0
  0
SPLINE
  5
139
100
AcDbEntity
  8
0
100
AcDbSpline
210
0.0
220
0.0
230
1.0
 62
     242
 70
     0
 71
     3
 72
     8
 73
4
 40
0.0
 40
0.0
 40
0.0
 40
0.0
 40
1.0
 40
1.0
 40
1.0
 40
1.0
 10
52.3035
 20
101.828
 30
0.0
 10
51.7232
 20
101.828
 30
0.0
 10
51.2533
 20
101.358
 30
0.0
 10
51.2533
 20
100.779
 30
0.0
  0
LINE
  5
13a
100
AcDbEntity
  8
0
100
AcDbLine
 62
     242
 10
51.2533
 20
100.779
 30
0.0
 11
51.2533
 21
100.779
 31
0.0
  0
SPLINE
  5
13b
100
AcDbEntity
  8
0
100
AcDbSpline
210
0.0
220
0.0
230
1.0
 62
     242
 70
     0
 71
     3
 72
     8
 73
4
 40
0.0
 40
0.0
 40
0.0
 40
0.0
 40
1.0
 40
1.0
 40
1.0
 40
1.0
 10
17.0243
 20
54.6446
 30
0.0
 10
17.0243
 20
54.0646
 30
0.0
 10
17.4956
 20
53.5947
 30
0.0
 10
18.0744
 20
53.5947
 30
0.0
  0
SPLINE
  5
13c
100
AcDbEntity
  8
0
100
AcDbSpline
210
0.0
220
0.0
230
1.0
 62
     242
 70
     0
 71
     3
 72
     8
 73
4
 40
0.0
 40
0.0
 40
0.0
 40
0.0
 40
1.0
 40
1.0
 40
1.0
 40
1.0
 10
18.0744
 20
53.5947
 30
0.0
 10
18.6545
 20
53.5947
 30
0.0
 10
19.1244
 20
54.0646
 30
0.0
 10
19.1244
 20
54.6446
 30
0.0
  0
SPLINE
  5
13d
100
AcDbEntity
  8
0
100
AcDbSpline
210
0.0
220
0.0
230
1.0
 62
     242
 70
     0
 71
     3
 72
     8
 73
4
 40
0.0
 40
0.0
 40
0.0
 40
0.0
 40
1.0
 40
1.0
 40
1.0
 40
1.0
 10
19.1244
 20
54.6446
 30
0.0
 10
19.1244
 20
55.2249
 30
0.0
 10
18.6545
 20
55.6948
 30
0.0
 10
18.0744
 20
55.6948
 30
0.0
  0
SPLINE
  5
13e
100
AcDbEntity
  8
0
100
AcDbSpline
210
0.0
220
0.0
230
1.0
 62
     242
 70
     0
 71
     3
 72
     8
 73
4
 40
0.0
 40
0.0
 40
0.0
 40
0.0
 40
1.0
 40
1.0
 40
1.0
 40
1.0
 10
18.0744
 20
55.6948
 30
0.0
 10
17.4956
 20
55.6948
 30
0.0
 10
17.0243
 20
55.2249
 30
0.0
 10
17.0243
 20
54.6446
 30
0.0
  0
LINE
  5
13f
100
AcDbEntity
  8
0
100
AcDbLine
 62
     242
 10
17.0243
 20
54.6446
 30
0.0
 11
17.0243
 21
54.6446
 31
0.0
  0
SPLINE
  5
140
100
AcDbEntity
  8
0
100
AcDbSpline
210
0.0
220
0.0
230
1.0
 62
     242
 70
     0
 71
     3
 72
     8
 73
4
 40
0.0
 40
0.0
 40
0.0
 40
0.0
 40
1.0
 40
1.0
 40
1.0
 40
1.0
 10
29.2048
 20
72.1953
 30
0.0
 10
29.2048
 20
71.6153
 30
0.0
 10
29.6747
 20
71.1454
 30
0.0
 10
30.2548
 20
71.1454
 30
0.0
  0
SPLINE
  5
141
100
AcDbEntity
  8
0
100
AcDbSpline
210
0.0
220
0.0
230
1.0
 62
     242
 70
     0
 71
     3
 72
     8
 73
4
 40
0.0
 40
0.0
 40
0.0
 40
0.0
 40
1.0
 40
1.0
 40
1.0
 40
1.0
 10
30.2548
 20
71.1454
 30
0.0
 10
30.835
 20
71.1454
 30
0.0
 10
31.3049
 20
71.6153
 30
0.0
 10
31.3049
 20
72.1953
 30
0.0
  0
SPLINE
  5
142
100
AcDbEntity
  8
0
100
AcDbSpline
210
0.0
220
0.0
230
1.0
 62
     242
 70
     0
 71
     3
 72
     8
 73
4
 40
0.0
 40
0.0
 40
0.0
 40
0.0
 40
1.0
 40
1.0
 40
1.0
 40
1.0
 10
31.3049
 20
72.1953
 30
0.0
 10
31.3049
 20
72.7756
 30
0.0
 10
30.835
 20
73.2455
 30
0.0
 10
30.2548
 20
73.2455
 30
0.0
  0
SPLINE
  5
143
100
AcDbEntity
  8
0
100
AcDbSpline
210
0.0
220
0.0
230
1.0
 62
     242
 70
     0
 71
     3
 72
     8
 73
4
 40
0.0
 40
0.0
 40
0.0
 40
0.0
 40
1.0
 40
1.0
 40
1.0
 40
1.0
 10
30.2548
 20
73.2455
 30
0.0
 10
29.6747
 20
73.2455
 30
0.0
 10
29.2048
 20
72.7756
 30
0.0
 10
29.2048
 20
72.1953
 30
0.0
  0
LINE
  5
144
100
AcDbEntity
  8
0
100
AcDbLine
 62
     242
 10
29.2048
 20
72.1953
 30
0.0
 11
29.2048
 21
72.1953
 31
0.0
  0
SPLINE
  5
145
100
AcDbEntity
  8
0
100
AcDbSpline
210
0.0
220
0.0
230
1.0
 62
     242
 70
     0
 71
     3
 72
     8
 73
4
 40
0.0
 40
0.0
 40
0.0
 40
0.0
 40
1.0
 40
1.0
 40
1.0
 40
1.0
 10
34.6149
 20
35.9131
 30
0.0
 10
34.6149
 20
35.3328
 30
0.0
 10
35.0862
 20
34.863
 30
0.0
 10
35.6651
 20
34.863
 30
0.0
  0
SPLINE
  5
146
100
AcDbEntity
  8
0
100
AcDbSpline
210
0.0
220
0.0
230
1.0
 62
     242
 70
     0
 71
     3
 72
     8
 73
4
 40
0.0
 40
0.0
 40
0.0
 40
0.0
 40
1.0
 40
1.0
 40
1.0
 40
1.0
 10
35.6651
 20
34.863
 30
0.0
 10
36.2451
 20
34.863
 30
0.0
 10
36.715
 20
35.3328
 30
0.0
 10
36.715
 20
35.9131
 30
0.0
  0
SPLINE
  5
147
100
AcDbEntity
  8
0
100
AcDbSpline
210
0.0
220
0.0
230
1.0
 62
     242
 70
     0
 71
     3
 72
     8
 73
4
 40
0.0
 40
0.0
 40
0.0
 40
0.0
 40
1.0
 40
1.0
 40
1.0
 40
1.0
 10
36.715
 20
35.9131
 30
0.0
 10
36.715
 20
36.4931
 30
0.0
 10
36.2451
 20
36.963
 30
0.0
 10
35.6651
 20
36.963
 30
0.0
  0
SPLINE
  5
148
100
AcDbEntity
  8
0
100
AcDbSpline
210
0.0
220
0.0
230
1.0
 62
     242
 70
     0
 71
     3
 72
     8
 73
4
 40
0.0
 40
0.0
 40
0.0
 40
0.0
 40
1.0
 40
1.0
 40
1.0
 40
1.0
 10
35.6651
 20
36.963
 30
0.0
 10
35.0862
 20
36.963
 30
0.0
 10
34.6149
 20
36.4931
 30
0.0
 10
34.6149
 20
35.9131
 30
0.0
  0
LINE
  5
149
100
AcDbEntity
  8
0
100
AcDbLine
 62
     242
 10
34.6149
 20
35.9131
 30
0.0
 11
34.6149
 21
35.9131
 31
0.0
  0
LINE
  5
14a
100
AcDbEntity
  8
0
100
AcDbLine
 62
     140
 10
1.60128
 20
48.1281
 30
0.0
 11
4.19887
 21
49.6274
 31
0.0
  0
SPLINE
  5
14b
100
AcDbEntity
  8
0
100
AcDbSpline
210
0.0
220
0.0
230
1.0
 62
     140
 70
     0
 71
     3
 72
     8
 73
4
 40
0.0
 40
0.0
 40
0.0
 40
0.0
 40
1.0
 40
1.0
 40
1.0
 40
1.0
 10
4.19887
 20
49.6274
 30
0.0
 10
11.3716
 20
53.7683
 30
0.0
 10
16.7528
 20
57.113
 30
0.0
 10
20.5066
 20
60.1694
 30
0.0
  0
SPLINE
  5
14c
100
AcDbEntity
  8
0
100
AcDbSpline
210
0.0
220
0.0
230
1.0
 62
     140
 70
     0
 71
     3
 72
     8
 73
4
 40
0.0
 40
0.0
 40
0.0
 40
0.0
 40
1.0
 40
1.0
 40
1.0
 40
1.0
 10
20.5066
 20
60.1694
 30
0.0
 10
20.9848
 20
60.5592
 30
0.0
 10
21.6972
 20
60.4326
 30
0.0
 10
22.0059
 20
59.8964
 30
0.0
  0
LINE
  5
14d
100
AcDbEntity
  8
0
100
AcDbLine
 62
     140
 10
22.0059
 20
59.8964
 30
0.0
 11
24.558
 21
55.4785
 31
0.0
  0
SPLINE
  5
14e
100
AcDbEntity
  8
0
100
AcDbSpline
210
0.0
220
0.0
230
1.0
 62
     140
 70
     0
 71
     3
 72
     8
 73
4
 40
0.0
 40
0.0
 40
0.0
 40
0.0
 40
1.0
 40
1.0
 40
1.0
 40
1.0
 10
24.558
 20
55.4785
 30
0.0
 10
24.8336
 20
54.9988
 30
0.0
 10
25.4455
 20
54.8361
 30
0.0
 10
25.9237
 20
55.112
 30
0.0
  0
LINE
  5
14f
100
AcDbEntity
  8
0
100
AcDbLine
 62
     140
 10
25.9237
 20
55.112
 30
0.0
 11
31.3958
 21
58.2718
 31
0.0
  0
SPLINE
  5
150
100
AcDbEntity
  8
0
100
AcDbSpline
210
0.0
220
0.0
230
1.0
 62
     140
 70
     0
 71
     3
 72
     8
 73
4
 40
0.0
 40
0.0
 40
0.0
 40
0.0
 40
1.0
 40
1.0
 40
1.0
 40
1.0
 10
31.3958
 20
58.2718
 30
0.0
 10
31.874
 20
58.5488
 30
0.0
 10
32.0394
 20
59.1605
 30
0.0
 10
31.7624
 20
59.6403
 30
0.0
  0
LINE
  5
151
100
AcDbEntity
  8
0
100
AcDbLine
 62
     140
 10
31.7624
 20
59.6403
 30
0.0
 11
27.0371
 21
67.8229
 31
0.0
  0
SPLINE
  5
152
100
AcDbEntity
  8
0
100
AcDbSpline
210
0.0
220
0.0
230
1.0
 62
     140
 70
     0
 71
     3
 72
     8
 73
4
 40
0.0
 40
0.0
 40
0.0
 40
0.0
 40
1.0
 40
1.0
 40
1.0
 40
1.0
 10
27.0371
 20
67.8229
 30
0.0
 10
26.9021
 20
68.0572
 30
0.0
 10
26.8731
 20
68.3341
 30
0.0
 10
26.942
 20
68.5959
 30
0.0
  0
SPLINE
  5
153
100
AcDbEntity
  8
0
100
AcDbSpline
210
0.0
220
0.0
230
1.0
 62
     140
 70
     0
 71
     3
 72
     8
 73
4
 40
0.0
 40
0.0
 40
0.0
 40
0.0
 40
1.0
 40
1.0
 40
1.0
 40
1.0
 10
26.942
 20
68.5959
 30
0.0
 10
27.1487
 20
69.3857
 30
0.0
 10
27.2548
 20
70.1876
 30
0.0
 10
27.2548
 20
71.0145
 30
0.0
  0
LINE
  5
154
100
AcDbEntity
  8
0
100
AcDbLine
 62
     140
 10
27.2548
 20
71.0145
 30
0.0
 11
27.2548
 21
120.425
 31
0.0
  0
SPLINE
  5
155
100
AcDbEntity
  8
0
100
AcDbSpline
210
0.0
220
0.0
230
1.0
 62
     140
 70
     0
 71
     3
 72
     8
 73
4
 40
0.0
 40
0.0
 40
0.0
 40
0.0
 40
1.0
 40
1.0
 40
1.0
 40
1.0
 10
27.2548
 20
120.425
 30
0.0
 10
27.2548
 20
121.526
 30
0.0
 10
27.857
 20
122.538
 30
0.0
 10
28.8258
 20
123.063
 30
0.0
  0
LINE
  5
156
100
AcDbEntity
  8
0
100
AcDbLine
 62
     140
 10
28.8258
 20
123.063
 30
0.0
 11
30.3968
 21
123.915
 31
0.0
  0
SPLINE
  5
157
100
AcDbEntity
  8
0
100
AcDbSpline
210
0.0
220
0.0
230
1.0
 62
     140
 70
     0
 71
     3
 72
     8
 73
4
 40
0.0
 40
0.0
 40
0.0
 40
0.0
 40
1.0
 40
1.0
 40
1.0
 40
1.0
 10
30.3968
 20
123.915
 30
0.0
 10
42.1019
 20
130.258
 30
0.0
 10
56.2282
 20
133.49
 30
0.0
 10
73.5143
 20
133.774
 30
0.0
  0
SPLINE
  5
158
100
AcDbEntity
  8
0
100
AcDbSpline
210
0.0
220
0.0
230
1.0
 62
     140
 70
     0
 71
     3
 72
     8
 73
4
 40
0.0
 40
0.0
 40
0.0
 40
0.0
 40
1.0
 40
1.0
 40
1.0
 40
1.0
 10
73.5143
 20
133.774
 30
0.0
 10
74.071
 20
133.784
 30
0.0
 10
74.53
 20
133.332
 30
0.0
 10
74.53
 20
132.775
 30
0.0
  0
LINE
  5
159
100
AcDbEntity
  8
0
100
AcDbLine
 62
     140
 10
74.53
 20
132.775
 30
0.0
 11
74.53
 21
129.095
 31
0.0
  0
SPLINE
  5
15a
100
AcDbEntity
  8
0
100
AcDbSpline
210
0.0
220
0.0
230
1.0
 62
     140
 70
     0
 71
     3
 72
     8
 73
4
 40
0.0
 40
0.0
 40
0.0
 40
0.0
 40
1.0
 40
1.0
 40
1.0
 40
1.0
 10
74.53
 20
129.095
 30
0.0
 10
74.53
 20
128.539
 30
0.0
 10
74.979
 20
128.09
 30
0.0
 10
75.5343
 20
128.09
 30
0.0
  0
LINE
  5
15b
100
AcDbEntity
  8
0
100
AcDbLine
 62
     140
 10
75.5343
 20
128.09
 30
0.0
 11
86.2252
 21
128.09
 31
0.0
  0
SPLINE
  5
15c
100
AcDbEntity
  8
0
100
AcDbSpline
210
0.0
220
0.0
230
1.0
 62
     140
 70
     0
 71
     3
 72
     8
 73
4
 40
0.0
 40
0.0
 40
0.0
 40
0.0
 40
1.0
 40
1.0
 40
1.0
 40
1.0
 10
86.2252
 20
128.09
 30
0.0
 10
86.7805
 20
128.09
 30
0.0
 10
87.23
 20
128.539
 30
0.0
 10
87.23
 20
129.095
 30
0.0
  0
LINE
  5
15d
100
AcDbEntity
  8
0
100
AcDbLine
 62
     140
 10
87.23
 20
129.095
 30
0.0
 11
87.23
 21
132.343
 31
0.0
  0
SPLINE
  5
15e
100
AcDbEntity
  8
0
100
AcDbSpline
210
0.0
220
0.0
230
1.0
 62
     140
 70
     0
 71
     3
 72
     8
 73
4
 40
0.0
 40
0.0
 40
0.0
 40
0.0
 40
1.0
 40
1.0
 40
1.0
 40
1.0
 10
87.23
 20
132.343
 30
0.0
 10
87.23
 20
132.923
 30
0.0
 10
87.7189
 20
133.383
 30
0.0
 10
88.2964
 20
133.342
 30
0.0
  0
SPLINE
  5
15f
100
AcDbEntity
  8
0
100
AcDbSpline
210
0.0
220
0.0
230
1.0
 62
     140
 70
     0
 71
     3
 72
     8
 73
4
 40
0.0
 40
0.0
 40
0.0
 40
0.0
 40
1.0
 40
1.0
 40
1.0
 40
1.0
 10
88.2964
 20
133.342
 30
0.0
 10
105.525
 20
132.115
 30
0.0
 10
125.56
 20
128.39
 30
0.0
 10
149.115
 20
122.052
 30
0.0
  0
LINE
  5
160
100
AcDbEntity
  8
0
100
AcDbLine
 62
     140
 10
149.115
 20
122.052
 30
0.0
 11
151.335
 21
121.453
 31
0.0
  0
SPLINE
  5
161
100
AcDbEntity
  8
0
100
AcDbSpline
210
0.0
220
0.0
230
1.0
 62
     140
 70
     0
 71
     3
 72
     8
 73
4
 40
0.0
 40
0.0
 40
0.0
 40
0.0
 40
1.0
 40
1.0
 40
1.0
 40
1.0
 10
151.335
 20
121.453
 30
0.0
 10
152.644
 20
121.101
 30
0.0
 10
153.555
 20
119.914
 30
0.0
 10
153.555
 20
118.557
 30
0.0
  0
LINE
  5
162
100
AcDbEntity
  8
0
100
AcDbLine
 62
     140
 10
153.555
 20
118.557
 30
0.0
 11
153.555
 21
37.0582
 31
0.0
  0
SPLINE
  5
163
100
AcDbEntity
  8
0
100
AcDbSpline
210
0.0
220
0.0
230
1.0
 62
     140
 70
     0
 71
     3
 72
     8
 73
4
 40
0.0
 40
0.0
 40
0.0
 40
0.0
 40
1.0
 40
1.0
 40
1.0
 40
1.0
 10
153.555
 20
37.0582
 30
0.0
 10
153.555
 20
35.4005
 30
0.0
 10
152.211
 20
34.0582
 30
0.0
 10
150.555
 20
34.0582
 30
0.0
  0
LINE
  5
164
100
AcDbEntity
  8
0
100
AcDbLine
 62
     140
 10
150.555
 20
34.0582
 30
0.0
 11
90.5838
 21
34.0582
 31
0.0
  0
SPLINE
  5
165
100
AcDbEntity
  8
0
100
AcDbSpline
210
0.0
220
0.0
230
1.0
 62
     140
 70
     0
 71
     3
 72
     8
 73
4
 40
0.0
 40
0.0
 40
0.0
 40
0.0
 40
1.0
 40
1.0
 40
1.0
 40
1.0
 10
90.5838
 20
34.0582
 30
0.0
 10
88.9275
 20
34.0582
 30
0.0
 10
87.5852
 20
32.7146
 30
0.0
 10
87.5852
 20
31.0596
 30
0.0
  0
LINE
  5
166
100
AcDbEntity
  8
0
100
AcDbLine
 62
     140
 10
87.5852
 20
31.0596
 30
0.0
 11
87.5852
 21
18.4285
 31
0.0
  0
SPLINE
  5
167
100
AcDbEntity
  8
0
100
AcDbSpline
210
0.0
220
0.0
230
1.0
 62
     140
 70
     0
 71
     3
 72
     8
 73
4
 40
0.0
 40
0.0
 40
0.0
 40
0.0
 40
1.0
 40
1.0
 40
1.0
 40
1.0
 10
87.5852
 20
18.4285
 30
0.0
 10
87.5852
 20
16.9458
 30
0.0
 10
86.5022
 20
15.6848
 30
0.0
 10
85.036
 20
15.463
 30
0.0
  0
LINE
  5
168
100
AcDbEntity
  8
0
100
AcDbLine
 62
     140
 10
85.036
 20
15.463
 30
0.0
 11
82.4851
 21
15.0744
 31
0.0
  0
SPLINE
  5
169
100
AcDbEntity
  8
0
100
AcDbSpline
210
0.0
220
0.0
230
1.0
 62
     140
 70
     0
 71
     3
 72
     8
 73
4
 40
0.0
 40
0.0
 40
0.0
 40
0.0
 40
1.0
 40
1.0
 40
1.0
 40
1.0
 10
82.4851
 20
15.0744
 30
0.0
 10
79.1891
 20
14.5755
 30
0.0
 10
75.8444
 20
14.2021
 30
0.0
 10
72.6006
 20
13.841
 30
0.0
  0
SPLINE
  5
16a
100
AcDbEntity
  8
0
100
AcDbSpline
210
0.0
220
0.0
230
1.0
 62
     140
 70
     0
 71
     3
 72
     8
 73
4
 40
0.0
 40
0.0
 40
0.0
 40
0.0
 40
1.0
 40
1.0
 40
1.0
 40
1.0
 10
72.6006
 20
13.841
 30
0.0
 10
60.1595
 20
12.4533
 30
0.0
 10
47.2944
 20
11.0188
 30
0.0
 10
31.6714
 20
2.00367
 30
0.0
  0
LINE
  5
16b
100
AcDbEntity
  8
0
100
AcDbLine
 62
     140
 10
31.6714
 20
2.00367
 30
0.0
 11
29.0725
 21
0.502984
 31
0.0
  0
SPLINE
  5
16c
100
AcDbEntity
  8
0
100
AcDbSpline
210
0.0
220
0.0
230
1.0
 62
     140
 70
     0
 71
     3
 72
     8
 73
4
 40
0.0
 40
0.0
 40
0.0
 40
0.0
 40
1.0
 40
1.0
 40
1.0
 40
1.0
 10
29.0725
 20
0.502984
 30
0.0
 10
28.6122
 20
0.237023
 30
0.0
 10
28.0941
 20
0.100597
 30
0.0
 10
27.5732
 20
0.100597
 30
0.0
  0
SPLINE
  5
16d
100
AcDbEntity
  8
0
100
AcDbSpline
210
0.0
220
0.0
230
1.0
 62
     140
 70
     0
 71
     3
 72
     8
 73
4
 40
0.0
 40
0.0
 40
0.0
 40
0.0
 40
1.0
 40
1.0
 40
1.0
 40
1.0
 10
27.5732
 20
0.100597
 30
0.0
 10
27.3127
 20
0.100597
 30
0.0
 10
27.0509
 20
0.135048
 30
0.0
 10
26.7959
 20
0.20395
 30
0.0
  0
SPLINE
  5
16e
100
AcDbEntity
  8
0
100
AcDbSpline
210
0.0
220
0.0
230
1.0
 62
     140
 70
     0
 71
     3
 72
     8
 73
4
 40
0.0
 40
0.0
 40
0.0
 40
0.0
 40
1.0
 40
1.0
 40
1.0
 40
1.0
 10
26.7959
 20
0.20395
 30
0.0
 10
26.027
 20
0.409279
 30
0.0
 10
25.3711
 20
0.913638
 30
0.0
 10
24.9742
 20
1.60266
 30
0.0
  0
LINE
  5
16f
100
AcDbEntity
  8
0
100
AcDbLine
 62
     140
 10
24.9742
 20
1.60266
 30
0.0
 11
0.502984
 21
44.0313
 31
0.0
  0
SPLINE
  5
170
100
AcDbEntity
  8
0
100
AcDbSpline
210
0.0
220
0.0
230
1.0
 62
     140
 70
     0
 71
     3
 72
     8
 73
4
 40
0.0
 40
0.0
 40
0.0
 40
0.0
 40
1.0
 40
1.0
 40
1.0
 40
1.0
 10
0.502984
 20
44.0313
 30
0.0
 10
-0.325217
 20
45.4656
 30
0.0
 10
0.166743
 20
47.2983
 30
0.0
 10
1.60128
 20
48.1281
 30
0.0
  0
LINE
  5
171
100
AcDbEntity
  8
0
100
AcDbLine
 62
     140
 10
1.60128
 20
48.1281
 30
0.0
 11
1.60128
 21
48.1281
 31
0.0
  0
ENDSEC
  0
SECTION
  2
OBJECTS
  0
DICTIONARY
  5
C
330
0
100
AcDbDictionary
  3
ACAD_GROUP
350
D
  3
ACAD_LAYOUT
350
1A
  3
ACAD_MLINESTYLE
350
17
  3
ACAD_PLOTSETTINGS
350
19
  3
ACAD_PLOTSTYLENAME
350
E
  3
ACDBHEADERROUNDTRIPXREC
350
2F
  0
DICTIONARY
  5
52
330
1F
100
AcDbDictionary
280
     1
  3
ACAD_LAYOUTSELFREF
360
53
  0
DICTIONARY
  5
50
330
1B
100
AcDbDictionary
280
     1
  3
ACAD_LAYOUTSELFREF
360
51
  0
DICTIONARY
  5
D
102
{ACAD_REACTORS
330
C
102
}
330
C
100
AcDbDictionary
  0
DICTIONARY
  5
1A
102
{ACAD_REACTORS
330
C
102
}
330
C
100
AcDbDictionary
  0
DICTIONARY
  5
17
102
{ACAD_REACTORS
330
C
102
}
330
C
100
AcDbDictionary
  3
STANDARD
350
18
  0
DICTIONARY
  5
19
102
{ACAD_REACTORS
330
C
102
}
330
C
100
AcDbDictionary
  0
ACDBDICTIONARYWDFLT
  5
E
102
{ACAD_REACTORS
330
C
102
}
330
C
100
AcDbDictionary
281
     1
  3
Normal
350
F
100
AcDbDictionaryWithDefault
340
F
  0
DICTIONARY
  5
2F
102
{ACAD_REACTORS
330
C
102
}
330
C
100
AcDbDictionary
  3
CEPSNTYPE
350
39
  3
DIMSTYLEDATA
350
3D
  3
FINGERPRINTGUID
350
3A
  3
HYPERLINKBASE
350
32
  3
INSUNITS
350
38
  3
LAYOUTDICT
350
34
  3
LWETCUNION
350
37
  3
PLOTSETDICT
350
35
  3
PLOTSTYLNAMDICT
350
36
  3
PSVPSCALE
350
3C
  3
PUCSBASE
350
40
  3
PUCSORGBACK
350
46
  3
PUCSORGBOTTOM
350
42
  3
PUCSORGFRONT
350
45
  3
PUCSORGLEFT
350
43
  3
PUCSORGRIGHT
350
44
  3
PUCSORGTOP
350
41
  3
PUCSORTHOREF
350
3E
  3
PUCSORTHOVIEW
350
3F
  3
STYLESHEET
350
33
  3
TSTACKALIGN
350
30
  3
TSTACKSIZE
350
31
  3
UCSBASE
350
49
  3
UCSORGBACK
350
4F
  3
UCSORGBOTTOM
350
4B
  3
UCSORGFRONT
350
4E
  3
UCSORGLEFT
350
4C
  3
UCSORGRIGHT
350
4D
  3
UCSORGTOP
350
4A
  3
UCSORTHOREF
350
47
  3
UCSORTHOVIEW
350
48
  3
VERSIONGUID
350
3B
  0
XRECORD
  5
53
102
{ACAD_REACTORS
330
52
102
}
330
52
100
AcDbXrecord
340
1F
  0
XRECORD
  5
51
102
{ACAD_REACTORS
330
50
102
}
330
50
100
AcDbXrecord
340
1B
  0
MLINESTYLE
  5
18
102
{ACAD_REACTORS
330
17
102
}
330
17
100
AcDbMlineStyle
  2
STANDARD
 70
     0
  3

 62
   256
 51
90.0
 52
90.0
 71
     2
 49
0.5
 62
   256
  6
BYLAYER
 49
-0.5
 62
   256
  6
BYLAYER
  0
ACDBPLACEHOLDER
  5
F
102
{ACAD_REACTORS
330
E
102
}
330
E
100
AcDbPlaceHolder
280
     0
  0
XRECORD
  5
39
102
{ACAD_REACTORS
330
2F
102
}
330
2F
100
AcDbXrecord
 90
        0
  0
XRECORD
  5
3D
102
{ACAD_REACTORS
330
2F
102
}
330
2F
100
AcDbXrecord
1000
DSTYLE
1002
{
1070
   278
 70
    44
1002
}
  0
XRECORD
  5
3A
102
{ACAD_REACTORS
330
2F
102
}
330
2F
100
AcDbXrecord
  1
{705446A6-11D0-4548-8F8C-A97DCA50327D}
  0
XRECORD
  5
32
102
{ACAD_REACTORS
330
2F
102
}
330
2F
100
AcDbXrecord
  1

  0
XRECORD
  5
38
102
{ACAD_REACTORS
330
2F
102
}
330
2F
100
AcDbXrecord
 90
        4
  0
XRECORD
  5
34
102
{ACAD_REACTORS
330
2F
102
}
330
2F
100
AcDbXrecord
340
1A
  0
XRECORD
  5
37
102
{ACAD_REACTORS
330
2F
102
}
330
2F
100
AcDbXrecord
 90
    10781
  0
XRECORD
  5
35
102
{ACAD_REACTORS
330
2F
102
}
330
2F
100
AcDbXrecord
340
19
  0
XRECORD
  5
36
102
{ACAD_REACTORS
330
2F
102
}
330
2F
100
AcDbXrecord
340
E
  0
XRECORD
  5
3C
102
{ACAD_REACTORS
330
2F
102
}
330
2F
100
AcDbXrecord
 40
0.0
  0
XRECORD
  5
40
102
{ACAD_REACTORS
330
2F
102
}
330
2F
100
AcDbXrecord
340
0
  0
XRECORD
  5
46
102
{ACAD_REACTORS
330
2F
102
}
330
2F
100
AcDbXrecord
 10
0.0
 20
0.0
 30
0.0
  0
XRECORD
  5
42
102
{ACAD_REACTORS
330
2F
102
}
330
2F
100
AcDbXrecord
 10
0.0
 20
0.0
 30
0.0
  0
XRECORD
  5
45
102
{ACAD_REACTORS
330
2F
102
}
330
2F
100
AcDbXrecord
 10
0.0
 20
0.0
 30
0.0
  0
XRECORD
  5
43
102
{ACAD_REACTORS
330
2F
102
}
330
2F
100
AcDbXrecord
 10
0.0
 20
0.0
 30
0.0
  0
XRECORD
  5
44
102
{ACAD_REACTORS
330
2F
102
}
330
2F
100
AcDbXrecord
 10
0.0
 20
0.0
 30
0.0
  0
XRECORD
  5
41
102
{ACAD_REACTORS
330
2F
102
}
330
2F
100
AcDbXrecord
 10
0.0
 20
0.0
 30
0.0
  0
XRECORD
  5
3E
102
{ACAD_REACTORS
330
2F
102
}
330
2F
100
AcDbXrecord
340
0
  0
XRECORD
  5
3F
102
{ACAD_REACTORS
330
2F
102
}
330
2F
100
AcDbXrecord
 70
     0
  0
XRECORD
  5
33
102
{ACAD_REACTORS
330
2F
102
}
330
2F
100
AcDbXrecord
  1

  0
XRECORD
  5
30
102
{ACAD_REACTORS
330
2F
102
}
330
2F
100
AcDbXrecord
 90
        1
  0
XRECORD
  5
31
102
{ACAD_REACTORS
330
2F
102
}
330
2F
100
AcDbXrecord
 90
       70
  0
XRECORD
  5
49
102
{ACAD_REACTORS
330
2F
102
}
330
2F
100
AcDbXrecord
340
0
  0
XRECORD
  5
4F
102
{ACAD_REACTORS
330
2F
102
}
330
2F
100
AcDbXrecord
 10
0.0
 20
0.0
 30
0.0
  0
XRECORD
  5
4B
102
{ACAD_REACTORS
330
2F
102
}
330
2F
100
AcDbXrecord
 10
0.0
 20
0.0
 30
0.0
  0
XRECORD
  5
4E
102
{ACAD_REACTORS
330
2F
102
}
330
2F
100
AcDbXrecord
 10
0.0
 20
0.0
 30
0.0
  0
XRECORD
  5
4C
102
{ACAD_REACTORS
330
2F
102
}
330
2F
100
AcDbXrecord
 10
0.0
 20
0.0
 30
0.0
  0
XRECORD
  5
4D
102
{ACAD_REACTORS
330
2F
102
}
330
2F
100
AcDbXrecord
 10
0.0
 20
0.0
 30
0.0
  0
XRECORD
  5
4A
102
{ACAD_REACTORS
330
2F
102
}
330
2F
100
AcDbXrecord
 10
0.0
 20
0.0
 30
0.0
  0
XRECORD
  5
47
102
{ACAD_REACTORS
330
2F
102
}
330
2F
100
AcDbXrecord
340
0
  0
XRECORD
  5
48
102
{ACAD_REACTORS
330
2F
102
}
330
2F
100
AcDbXrecord
 70
     0
  0
XRECORD
  5
3B
102
{ACAD_REACTORS
330
2F
102
}
330
2F
100
AcDbXrecord
  1
{33328E3A-B6B8-4979-86B7-D70DEC2867C2}
  0
ENDSEC
  0
EOF
