  0
SECTION
  2
HEADER
  9
$ACADVER
  1
AC1014
  9
$EXTMIN
 10
70.16401489310567
 20
112.369642808922
 30
0.0
  9
$EXTMAX
 10
277.0834797641999
 20
227.1366601424358
 30
0.0
  9
$HANDSEED
  5
56
  9
$MEASUREMENT
 70
0
  0
ENDSEC
  0
SECTION
  2
TABLES
  0
TABLE
  2
VPORT
  5
8
330
0
100
AcDbSymbolTable
 70
     4
  0
VPORT
  5
2E
330
8
100
AcDbSymbolTableRecord
100
AcDbViewportTableRecord
  2
*ACTIVE
 70
     0
 10
0.0
 20
0.0
 11
1.0
 21
1.0
 12
209.9999999999999
 22
148.4999999999999
 13
0.0
 23
0.0
 14
10.0
 24
10.0
 15
10.0
 25
10.0
 16
0.0
 26
0.0
 36
1.0
 17
0.0
 27
0.0
 37
0.0
 40
340.9950045922664
 41
1.239944521497919
 42
50.0
 43
0.0
 44
0.0
 50
0.0
 51
0.0
 71
     0
 72
   100
 73
     1
 74
     3
 75
     0
 76
     0
 77
     0
 78
     0
  0
ENDTAB
  0
TABLE
  2
LTYPE
  5
5
330
0
100
AcDbSymbolTable
 70
     1
  0
LTYPE
  5
14
330
5
100
AcDbSymbolTableRecord
100
AcDbLinetypeTableRecord
  2
BYBLOCK
 70
     0
  3

 72
    65
 73
     0
 40
0.0
  0
LTYPE
  5
15
330
5
100
AcDbSymbolTableRecord
100
AcDbLinetypeTableRecord
  2
BYLAYER
 70
     0
  3

 72
    65
 73
     0
 40
0.0
  0
LTYPE
  5
16
330
5
100
AcDbSymbolTableRecord
100
AcDbLinetypeTableRecord
  2
CONTINUOUS
 70
     0
  3
Solid line
 72
    65
 73
     0
 40
0.0
  0
ENDTAB
  0
TABLE
  2
LAYER
  5
2
330
0
100
AcDbSymbolTable
 70
1
  0
LAYER
  5
10
330
2
100
AcDbSymbolTableRecord
100
AcDbLayerTableRecord
  2
0
 70
     0
 62
     7
  6
CONTINUOUS
  0
ENDTAB
  0
TABLE
  2
STYLE
  5
3
330
0
100
AcDbSymbolTable
 70
     1
  0
STYLE
  5
11
330
3
100
AcDbSymbolTableRecord
100
AcDbTextStyleTableRecord
  2
STANDARD
 70
     0
 40
0.0
 41
1.0
 50
0.0
 71
     0
 42
2.5
  3
txt
  4

  0
ENDTAB
  0
TABLE
  2
VIEW
  5
6
330
0
100
AcDbSymbolTable
 70
     0
  0
ENDTAB
  0
TABLE
  2
UCS
  5
7
330
0
100
AcDbSymbolTable
 70
     0
  0
ENDTAB
  0
TABLE
  2
APPID
  5
9
330
0
100
AcDbSymbolTable
 70
     2
  0
APPID
  5
12
330
9
100
AcDbSymbolTableRecord
100
AcDbRegAppTableRecord
  2
ACAD
 70
     0
  0
APPID
  5
2B
330
9
100
AcDbSymbolTableRecord
100
AcDbRegAppTableRecord
  2
URBANX
 70
     0
  0
ENDTAB
  0
TABLE
  2
DIMSTYLE
  5
A
330
0
100
AcDbSymbolTable
 70
     1
  0
DIMSTYLE
105
27
330
A
100
AcDbSymbolTableRecord
100
AcDbDimStyleTableRecord
  2
ISO-25
 70
     0
  3

  4

  5

  6

  7

 40
1.0
 41
2.5
 42
0.625
 43
3.75
 44
1.25
 45
0.0
 46
0.0
 47
0.0
 48
0.0
140
2.5
141
2.5
142
0.0
143
0.03937007874016
144
1.0
145
0.0
146
1.0
147
0.625
 71
     0
 72
     0
 73
     0
 74
     0
 75
     0
 76
     0
 77
     1
 78
     8
170
     0
171
     3
172
     1
173
     0
174
     0
175
     0
176
     0
177
     0
178
     0
270
     2
271
     2
272
     2
273
     2
274
     3
340
11
275
     0
280
     0
281
     0
282
     0
283
     0
284
     8
285
     0
286
     0
287
     3
288
     0
  0
ENDTAB
  0
TABLE
  2
BLOCK_RECORD
  5
1
330
0
100
AcDbSymbolTable
 70
     1
  0
BLOCK_RECORD
  5
1F
102
{ACAD_XDICTIONARY
360
52
102
}
330
1
100
AcDbSymbolTableRecord
100
AcDbBlockTableRecord
  2
*MODEL_SPACE
  0
BLOCK_RECORD
  5
1B
102
{ACAD_XDICTIONARY
360
50
102
}
330
1
100
AcDbSymbolTableRecord
100
AcDbBlockTableRecord
  2
*PAPER_SPACE
  0
ENDTAB
  0
ENDSEC
  0
SECTION
  2
BLOCKS
  0
BLOCK
  5
20
330
1F
100
AcDbEntity
  8
0
100
AcDbBlockBegin
  2
*MODEL_SPACE
 70
     0
 10
0.0
 20
0.0
 30
0.0
  3
*MODEL_SPACE
  1

  0
ENDBLK
  5
21
330
1F
100
AcDbEntity
  8
0
100
AcDbBlockEnd
  0
BLOCK
  5
1C
330
1B
100
AcDbEntity
 67
     1
  8
0
100
AcDbBlockBegin
  2
*PAPER_SPACE
  1

  0
ENDBLK
  5
1D
330
1B
100
AcDbEntity
 67
     1
  8
0
100
AcDbBlockEnd
  0
ENDSEC
  0
SECTION
  2
ENTITIES
  0
SPLINE
  5
ff
100
AcDbEntity
  8
0
100
AcDbSpline
210
0.0
220
0.0
230
1.0
 62
     12
 70
     0
 71
     3
 72
     8
 73
4
 40
0.0
 40
0.0
 40
0.0
 40
0.0
 40
1.0
 40
1.0
 40
1.0
 40
1.0
 10
0.199164
 20
1.49311
 30
0.0
 10
0.199164
 20
1.47026
 30
0.0
 10
0.18061
 20
1.45176
 30
0.0
 10
0.157824
 20
1.45176
 30
0.0
  0
SPLINE
  5
100
100
AcDbEntity
  8
0
100
AcDbSpline
210
0.0
220
0.0
230
1.0
 62
     12
 70
     0
 71
     3
 72
     8
 73
4
 40
0.0
 40
0.0
 40
0.0
 40
0.0
 40
1.0
 40
1.0
 40
1.0
 40
1.0
 10
0.157824
 20
1.45176
 30
0.0
 10
0.134983
 20
1.45176
 30
0.0
 10
0.116482
 20
1.47026
 30
0.0
 10
0.116482
 20
1.49311
 30
0.0
  0
SPLINE
  5
101
100
AcDbEntity
  8
0
100
AcDbSpline
210
0.0
220
0.0
230
1.0
 62
     12
 70
     0
 71
     3
 72
     8
 73
4
 40
0.0
 40
0.0
 40
0.0
 40
0.0
 40
1.0
 40
1.0
 40
1.0
 40
1.0
 10
0.116482
 20
1.49311
 30
0.0
 10
0.116482
 20
1.51594
 30
0.0
 10
0.134983
 20
1.53444
 30
0.0
 10
0.157824
 20
1.53444
 30
0.0
  0
SPLINE
  5
102
100
AcDbEntity
  8
0
100
AcDbSpline
210
0.0
220
0.0
230
1.0
 62
     12
 70
     0
 71
     3
 72
     8
 73
4
 40
0.0
 40
0.0
 40
0.0
 40
0.0
 40
1.0
 40
1.0
 40
1.0
 40
1.0
 10
0.157824
 20
1.53444
 30
0.0
 10
0.18061
 20
1.53444
 30
0.0
 10
0.199164
 20
1.51594
 30
0.0
 10
0.199164
 20
1.49311
 30
0.0
  0
LINE
  5
103
100
AcDbEntity
  8
0
100
AcDbLine
 62
     12
 10
0.199164
 20
1.49311
 30
0.0
 11
0.199164
 21
1.49311
 31
0.0
  0
SPLINE
  5
104
100
AcDbEntity
  8
0
100
AcDbSpline
210
0.0
220
0.0
230
1.0
 62
     12
 70
     0
 71
     3
 72
     8
 73
4
 40
0.0
 40
0.0
 40
0.0
 40
0.0
 40
1.0
 40
1.0
 40
1.0
 40
1.0
 10
2.78857
 20
0.750325
 30
0.0
 10
2.78857
 20
0.727485
 30
0.0
 10
2.77001
 20
0.708985
 30
0.0
 10
2.74724
 20
0.708985
 30
0.0
  0
SPLINE
  5
105
100
AcDbEntity
  8
0
100
AcDbSpline
210
0.0
220
0.0
230
1.0
 62
     12
 70
     0
 71
     3
 72
     8
 73
4
 40
0.0
 40
0.0
 40
0.0
 40
0.0
 40
1.0
 40
1.0
 40
1.0
 40
1.0
 10
2.74724
 20
0.708985
 30
0.0
 10
2.72439
 20
0.708985
 30
0.0
 10
2.70589
 20
0.727485
 30
0.0
 10
2.70589
 20
0.750325
 30
0.0
  0
SPLINE
  5
106
100
AcDbEntity
  8
0
100
AcDbSpline
210
0.0
220
0.0
230
1.0
 62
     12
 70
     0
 71
     3
 72
     8
 73
4
 40
0.0
 40
0.0
 40
0.0
 40
0.0
 40
1.0
 40
1.0
 40
1.0
 40
1.0
 10
2.70589
 20
0.750325
 30
0.0
 10
2.70589
 20
0.773167
 30
0.0
 10
2.72439
 20
0.791667
 30
0.0
 10
2.74724
 20
0.791667
 30
0.0
  0
SPLINE
  5
107
100
AcDbEntity
  8
0
100
AcDbSpline
210
0.0
220
0.0
230
1.0
 62
     12
 70
     0
 71
     3
 72
     8
 73
4
 40
0.0
 40
0.0
 40
0.0
 40
0.0
 40
1.0
 40
1.0
 40
1.0
 40
1.0
 10
2.74724
 20
0.791667
 30
0.0
 10
2.77001
 20
0.791667
 30
0.0
 10
2.78857
 20
0.773167
 30
0.0
 10
2.78857
 20
0.750325
 30
0.0
  0
LINE
  5
108
100
AcDbEntity
  8
0
100
AcDbLine
 62
     12
 10
2.78857
 20
0.750325
 30
0.0
 11
2.78857
 21
0.750325
 31
0.0
  0
SPLINE
  5
109
100
AcDbEntity
  8
0
100
AcDbSpline
210
0.0
220
0.0
230
1.0
 62
     12
 70
     0
 71
     3
 72
     8
 73
4
 40
0.0
 40
0.0
 40
0.0
 40
0.0
 40
1.0
 40
1.0
 40
1.0
 40
1.0
 10
4.99431
 20
0.169325
 30
0.0
 10
4.99431
 20
0.146485
 30
0.0
 10
4.97575
 20
0.127984
 30
0.0
 10
4.95296
 20
0.127984
 30
0.0
  0
SPLINE
  5
10a
100
AcDbEntity
  8
0
100
AcDbSpline
210
0.0
220
0.0
230
1.0
 62
     12
 70
     0
 71
     3
 72
     8
 73
4
 40
0.0
 40
0.0
 40
0.0
 40
0.0
 40
1.0
 40
1.0
 40
1.0
 40
1.0
 10
4.95296
 20
0.127984
 30
0.0
 10
4.93012
 20
0.127984
 30
0.0
 10
4.91162
 20
0.146485
 30
0.0
 10
4.91162
 20
0.169325
 30
0.0
  0
SPLINE
  5
10b
100
AcDbEntity
  8
0
100
AcDbSpline
210
0.0
220
0.0
230
1.0
 62
     12
 70
     0
 71
     3
 72
     8
 73
4
 40
0.0
 40
0.0
 40
0.0
 40
0.0
 40
1.0
 40
1.0
 40
1.0
 40
1.0
 10
4.91162
 20
0.169325
 30
0.0
 10
4.91162
 20
0.192165
 30
0.0
 10
4.93012
 20
0.210667
 30
0.0
 10
4.95296
 20
0.210667
 30
0.0
  0
SPLINE
  5
10c
100
AcDbEntity
  8
0
100
AcDbSpline
210
0.0
220
0.0
230
1.0
 62
     12
 70
     0
 71
     3
 72
     8
 73
4
 40
0.0
 40
0.0
 40
0.0
 40
0.0
 40
1.0
 40
1.0
 40
1.0
 40
1.0
 10
4.95296
 20
0.210667
 30
0.0
 10
4.97575
 20
0.210667
 30
0.0
 10
4.99431
 20
0.192165
 30
0.0
 10
4.99431
 20
0.169325
 30
0.0
  0
LINE
  5
10d
100
AcDbEntity
  8
0
100
AcDbLine
 62
     12
 10
4.99431
 20
0.169325
 30
0.0
 11
4.99431
 21
0.169325
 31
0.0
  0
SPLINE
  5
10e
100
AcDbEntity
  8
0
100
AcDbSpline
210
0.0
220
0.0
230
1.0
 62
     12
 70
     0
 71
     3
 72
     8
 73
4
 40
0.0
 40
0.0
 40
0.0
 40
0.0
 40
1.0
 40
1.0
 40
1.0
 40
1.0
 10
5.92106
 20
1.77929
 30
0.0
 10
5.92106
 20
1.75646
 30
0.0
 10
5.90256
 20
1.73796
 30
0.0
 10
5.87972
 20
1.73796
 30
0.0
  0
SPLINE
  5
10f
100
AcDbEntity
  8
0
100
AcDbSpline
210
0.0
220
0.0
230
1.0
 62
     12
 70
     0
 71
     3
 72
     8
 73
4
 40
0.0
 40
0.0
 40
0.0
 40
0.0
 40
1.0
 40
1.0
 40
1.0
 40
1.0
 10
5.87972
 20
1.73796
 30
0.0
 10
5.85693
 20
1.73796
 30
0.0
 10
5.83838
 20
1.75646
 30
0.0
 10
5.83838
 20
1.77929
 30
0.0
  0
SPLINE
  5
110
100
AcDbEntity
  8
0
100
AcDbSpline
210
0.0
220
0.0
230
1.0
 62
     12
 70
     0
 71
     3
 72
     8
 73
4
 40
0.0
 40
0.0
 40
0.0
 40
0.0
 40
1.0
 40
1.0
 40
1.0
 40
1.0
 10
5.83838
 20
1.77929
 30
0.0
 10
5.83838
 20
1.80214
 30
0.0
 10
5.85693
 20
1.82064
 30
0.0
 10
5.87972
 20
1.82064
 30
0.0
  0
SPLINE
  5
111
100
AcDbEntity
  8
0
100
AcDbSpline
210
0.0
220
0.0
230
1.0
 62
     12
 70
     0
 71
     3
 72
     8
 73
4
 40
0.0
 40
0.0
 40
0.0
 40
0.0
 40
1.0
 40
1.0
 40
1.0
 40
1.0
 10
5.87972
 20
1.82064
 30
0.0
 10
5.90256
 20
1.82064
 30
0.0
 10
5.92106
 20
1.80214
 30
0.0
 10
5.92106
 20
1.77929
 30
0.0
  0
LINE
  5
112
100
AcDbEntity
  8
0
100
AcDbLine
 62
     12
 10
5.92106
 20
1.77929
 30
0.0
 11
5.92106
 21
1.77929
 31
0.0
  0
SPLINE
  5
113
100
AcDbEntity
  8
0
100
AcDbSpline
210
0.0
220
0.0
230
1.0
 62
     12
 70
     0
 71
     3
 72
     8
 73
4
 40
0.0
 40
0.0
 40
0.0
 40
0.0
 40
1.0
 40
1.0
 40
1.0
 40
1.0
 10
4.88232
 20
4.73139
 30
0.0
 10
4.88232
 20
4.70856
 30
0.0
 10
4.86376
 20
4.69006
 30
0.0
 10
4.84099
 20
4.69006
 30
0.0
  0
SPLINE
  5
114
100
AcDbEntity
  8
0
100
AcDbSpline
210
0.0
220
0.0
230
1.0
 62
     12
 70
     0
 71
     3
 72
     8
 73
4
 40
0.0
 40
0.0
 40
0.0
 40
0.0
 40
1.0
 40
1.0
 40
1.0
 40
1.0
 10
4.84099
 20
4.69006
 30
0.0
 10
4.81814
 20
4.69006
 30
0.0
 10
4.79964
 20
4.70856
 30
0.0
 10
4.79964
 20
4.73139
 30
0.0
  0
SPLINE
  5
115
100
AcDbEntity
  8
0
100
AcDbSpline
210
0.0
220
0.0
230
1.0
 62
     12
 70
     0
 71
     3
 72
     8
 73
4
 40
0.0
 40
0.0
 40
0.0
 40
0.0
 40
1.0
 40
1.0
 40
1.0
 40
1.0
 10
4.79964
 20
4.73139
 30
0.0
 10
4.79964
 20
4.75424
 30
0.0
 10
4.81814
 20
4.77274
 30
0.0
 10
4.84099
 20
4.77274
 30
0.0
  0
SPLINE
  5
116
100
AcDbEntity
  8
0
100
AcDbSpline
210
0.0
220
0.0
230
1.0
 62
     12
 70
     0
 71
     3
 72
     8
 73
4
 40
0.0
 40
0.0
 40
0.0
 40
0.0
 40
1.0
 40
1.0
 40
1.0
 40
1.0
 10
4.84099
 20
4.77274
 30
0.0
 10
4.86376
 20
4.77274
 30
0.0
 10
4.88232
 20
4.75424
 30
0.0
 10
4.88232
 20
4.73139
 30
0.0
  0
LINE
  5
117
100
AcDbEntity
  8
0
100
AcDbLine
 62
     12
 10
4.88232
 20
4.73139
 30
0.0
 11
4.88232
 21
4.73139
 31
0.0
  0
SPLINE
  5
118
100
AcDbEntity
  8
0
100
AcDbSpline
210
0.0
220
0.0
230
1.0
 62
     12
 70
     0
 71
     3
 72
     8
 73
4
 40
0.0
 40
0.0
 40
0.0
 40
0.0
 40
1.0
 40
1.0
 40
1.0
 40
1.0
 10
4.07297
 20
5.05365
 30
0.0
 10
4.07297
 20
5.03082
 30
0.0
 10
4.05442
 20
5.01232
 30
0.0
 10
4.03163
 20
5.01232
 30
0.0
  0
SPLINE
  5
119
100
AcDbEntity
  8
0
100
AcDbSpline
210
0.0
220
0.0
230
1.0
 62
     12
 70
     0
 71
     3
 72
     8
 73
4
 40
0.0
 40
0.0
 40
0.0
 40
0.0
 40
1.0
 40
1.0
 40
1.0
 40
1.0
 10
4.03163
 20
5.01232
 30
0.0
 10
4.00879
 20
5.01232
 30
0.0
 10
3.99029
 20
5.03082
 30
0.0
 10
3.99029
 20
5.05365
 30
0.0
  0
SPLINE
  5
11a
100
AcDbEntity
  8
0
100
AcDbSpline
210
0.0
220
0.0
230
1.0
 62
     12
 70
     0
 71
     3
 72
     8
 73
4
 40
0.0
 40
0.0
 40
0.0
 40
0.0
 40
1.0
 40
1.0
 40
1.0
 40
1.0
 10
3.99029
 20
5.05365
 30
0.0
 10
3.99029
 20
5.0765
 30
0.0
 10
4.00879
 20
5.095
 30
0.0
 10
4.03163
 20
5.095
 30
0.0
  0
SPLINE
  5
11b
100
AcDbEntity
  8
0
100
AcDbSpline
210
0.0
220
0.0
230
1.0
 62
     12
 70
     0
 71
     3
 72
     8
 73
4
 40
0.0
 40
0.0
 40
0.0
 40
0.0
 40
1.0
 40
1.0
 40
1.0
 40
1.0
 10
4.03163
 20
5.095
 30
0.0
 10
4.05442
 20
5.095
 30
0.0
 10
4.07297
 20
5.0765
 30
0.0
 10
4.07297
 20
5.05365
 30
0.0
  0
LINE
  5
11c
100
AcDbEntity
  8
0
100
AcDbLine
 62
     12
 10
4.07297
 20
5.05365
 30
0.0
 11
4.07297
 21
5.05365
 31
0.0
  0
SPLINE
  5
11d
100
AcDbEntity
  8
0
100
AcDbSpline
210
0.0
220
0.0
230
1.0
 62
     12
 70
     0
 71
     3
 72
     8
 73
4
 40
0.0
 40
0.0
 40
0.0
 40
0.0
 40
1.0
 40
1.0
 40
1.0
 40
1.0
 10
2.10915
 20
5.07844
 30
0.0
 10
2.10915
 20
5.05561
 30
0.0
 10
2.09065
 20
5.03711
 30
0.0
 10
2.06782
 20
5.03711
 30
0.0
  0
SPLINE
  5
11e
100
AcDbEntity
  8
0
100
AcDbSpline
210
0.0
220
0.0
230
1.0
 62
     12
 70
     0
 71
     3
 72
     8
 73
4
 40
0.0
 40
0.0
 40
0.0
 40
0.0
 40
1.0
 40
1.0
 40
1.0
 40
1.0
 10
2.06782
 20
5.03711
 30
0.0
 10
2.04497
 20
5.03711
 30
0.0
 10
2.02647
 20
5.05561
 30
0.0
 10
2.02647
 20
5.07844
 30
0.0
  0
SPLINE
  5
11f
100
AcDbEntity
  8
0
100
AcDbSpline
210
0.0
220
0.0
230
1.0
 62
     12
 70
     0
 71
     3
 72
     8
 73
4
 40
0.0
 40
0.0
 40
0.0
 40
0.0
 40
1.0
 40
1.0
 40
1.0
 40
1.0
 10
2.02647
 20
5.07844
 30
0.0
 10
2.02647
 20
5.10129
 30
0.0
 10
2.04497
 20
5.11979
 30
0.0
 10
2.06782
 20
5.11979
 30
0.0
  0
SPLINE
  5
120
100
AcDbEntity
  8
0
100
AcDbSpline
210
0.0
220
0.0
230
1.0
 62
     12
 70
     0
 71
     3
 72
     8
 73
4
 40
0.0
 40
0.0
 40
0.0
 40
0.0
 40
1.0
 40
1.0
 40
1.0
 40
1.0
 10
2.06782
 20
5.11979
 30
0.0
 10
2.09065
 20
5.11979
 30
0.0
 10
2.10915
 20
5.10129
 30
0.0
 10
2.10915
 20
5.07844
 30
0.0
  0
LINE
  5
121
100
AcDbEntity
  8
0
100
AcDbLine
 62
     12
 10
2.10915
 20
5.07844
 30
0.0
 11
2.10915
 21
5.07844
 31
0.0
  0
SPLINE
  5
122
100
AcDbEntity
  8
0
100
AcDbSpline
210
0.0
220
0.0
230
1.0
 62
     12
 70
     0
 71
     3
 72
     8
 73
4
 40
0.0
 40
0.0
 40
0.0
 40
0.0
 40
1.0
 40
1.0
 40
1.0
 40
1.0
 10
0.191351
 20
4.65369
 30
0.0
 10
0.191351
 20
4.63086
 30
0.0
 10
0.172797
 20
4.61236
 30
0.0
 10
0.150011
 20
4.61236
 30
0.0
  0
SPLINE
  5
123
100
AcDbEntity
  8
0
100
AcDbSpline
210
0.0
220
0.0
230
1.0
 62
     12
 70
     0
 71
     3
 72
     8
 73
4
 40
0.0
 40
0.0
 40
0.0
 40
0.0
 40
1.0
 40
1.0
 40
1.0
 40
1.0
 10
0.150011
 20
4.61236
 30
0.0
 10
0.12717
 20
4.61236
 30
0.0
 10
0.10867
 20
4.63086
 30
0.0
 10
0.10867
 20
4.65369
 30
0.0
  0
SPLINE
  5
124
100
AcDbEntity
  8
0
100
AcDbSpline
210
0.0
220
0.0
230
1.0
 62
     12
 70
     0
 71
     3
 72
     8
 73
4
 40
0.0
 40
0.0
 40
0.0
 40
0.0
 40
1.0
 40
1.0
 40
1.0
 40
1.0
 10
0.10867
 20
4.65369
 30
0.0
 10
0.10867
 20
4.67654
 30
0.0
 10
0.12717
 20
4.69504
 30
0.0
 10
0.150011
 20
4.69504
 30
0.0
  0
SPLINE
  5
125
100
AcDbEntity
  8
0
100
AcDbSpline
210
0.0
220
0.0
230
1.0
 62
     12
 70
     0
 71
     3
 72
     8
 73
4
 40
0.0
 40
0.0
 40
0.0
 40
0.0
 40
1.0
 40
1.0
 40
1.0
 40
1.0
 10
0.150011
 20
4.69504
 30
0.0
 10
0.172797
 20
4.69504
 30
0.0
 10
0.191351
 20
4.67654
 30
0.0
 10
0.191351
 20
4.65369
 30
0.0
  0
LINE
  5
126
100
AcDbEntity
  8
0
100
AcDbLine
 62
     12
 10
0.191351
 20
4.65369
 30
0.0
 11
0.191351
 21
4.65369
 31
0.0
  0
SPLINE
  5
127
100
AcDbEntity
  8
0
100
AcDbSpline
210
0.0
220
0.0
230
1.0
 62
     12
 70
     0
 71
     3
 72
     8
 73
4
 40
0.0
 40
0.0
 40
0.0
 40
0.0
 40
1.0
 40
1.0
 40
1.0
 40
1.0
 10
1.03163
 20
3.82704
 30
0.0
 10
1.03163
 20
3.80419
 30
0.0
 10
1.01307
 20
3.78569
 30
0.0
 10
0.990289
 20
3.78569
 30
0.0
  0
SPLINE
  5
128
100
AcDbEntity
  8
0
100
AcDbSpline
210
0.0
220
0.0
230
1.0
 62
     12
 70
     0
 71
     3
 72
     8
 73
4
 40
0.0
 40
0.0
 40
0.0
 40
0.0
 40
1.0
 40
1.0
 40
1.0
 40
1.0
 10
0.990289
 20
3.78569
 30
0.0
 10
0.967449
 20
3.78569
 30
0.0
 10
0.948947
 20
3.80419
 30
0.0
 10
0.948947
 20
3.82704
 30
0.0
  0
SPLINE
  5
129
100
AcDbEntity
  8
0
100
AcDbSpline
210
0.0
220
0.0
230
1.0
 62
     12
 70
     0
 71
     3
 72
     8
 73
4
 40
0.0
 40
0.0
 40
0.0
 40
0.0
 40
1.0
 40
1.0
 40
1.0
 40
1.0
 10
0.948947
 20
3.82704
 30
0.0
 10
0.948947
 20
3.84988
 30
0.0
 10
0.967449
 20
3.86838
 30
0.0
 10
0.990289
 20
3.86838
 30
0.0
  0
SPLINE
  5
12a
100
AcDbEntity
  8
0
100
AcDbSpline
210
0.0
220
0.0
230
1.0
 62
     12
 70
     0
 71
     3
 72
     8
 73
4
 40
0.0
 40
0.0
 40
0.0
 40
0.0
 40
1.0
 40
1.0
 40
1.0
 40
1.0
 10
0.990289
 20
3.86838
 30
0.0
 10
1.01307
 20
3.86838
 30
0.0
 10
1.03163
 20
3.84988
 30
0.0
 10
1.03163
 20
3.82704
 30
0.0
  0
LINE
  5
12b
100
AcDbEntity
  8
0
100
AcDbLine
 62
     12
 10
1.03163
 20
3.82704
 30
0.0
 11
1.03163
 21
3.82704
 31
0.0
  0
SPLINE
  5
12c
100
AcDbEntity
  8
0
100
AcDbSpline
210
0.0
220
0.0
230
1.0
 62
     12
 70
     0
 71
     3
 72
     8
 73
4
 40
0.0
 40
0.0
 40
0.0
 40
0.0
 40
1.0
 40
1.0
 40
1.0
 40
1.0
 10
1.03163
 20
2.32704
 30
0.0
 10
1.03163
 20
2.30419
 30
0.0
 10
1.01307
 20
2.28569
 30
0.0
 10
0.990289
 20
2.28569
 30
0.0
  0
SPLINE
  5
12d
100
AcDbEntity
  8
0
100
AcDbSpline
210
0.0
220
0.0
230
1.0
 62
     12
 70
     0
 71
     3
 72
     8
 73
4
 40
0.0
 40
0.0
 40
0.0
 40
0.0
 40
1.0
 40
1.0
 40
1.0
 40
1.0
 10
0.990289
 20
2.28569
 30
0.0
 10
0.967449
 20
2.28569
 30
0.0
 10
0.948947
 20
2.30419
 30
0.0
 10
0.948947
 20
2.32704
 30
0.0
  0
SPLINE
  5
12e
100
AcDbEntity
  8
0
100
AcDbSpline
210
0.0
220
0.0
230
1.0
 62
     12
 70
     0
 71
     3
 72
     8
 73
4
 40
0.0
 40
0.0
 40
0.0
 40
0.0
 40
1.0
 40
1.0
 40
1.0
 40
1.0
 10
0.948947
 20
2.32704
 30
0.0
 10
0.948947
 20
2.34987
 30
0.0
 10
0.967449
 20
2.36837
 30
0.0
 10
0.990289
 20
2.36837
 30
0.0
  0
SPLINE
  5
12f
100
AcDbEntity
  8
0
100
AcDbSpline
210
0.0
220
0.0
230
1.0
 62
     12
 70
     0
 71
     3
 72
     8
 73
4
 40
0.0
 40
0.0
 40
0.0
 40
0.0
 40
1.0
 40
1.0
 40
1.0
 40
1.0
 10
0.990289
 20
2.36837
 30
0.0
 10
1.01307
 20
2.36837
 30
0.0
 10
1.03163
 20
2.34987
 30
0.0
 10
1.03163
 20
2.32704
 30
0.0
  0
LINE
  5
130
100
AcDbEntity
  8
0
100
AcDbLine
 62
     12
 10
1.03163
 20
2.32704
 30
0.0
 11
1.03163
 21
2.32704
 31
0.0
  0
SPLINE
  5
131
100
AcDbEntity
  8
0
100
AcDbSpline
210
0.0
220
0.0
230
1.0
 62
     12
 70
     0
 71
     3
 72
     8
 73
4
 40
0.0
 40
0.0
 40
0.0
 40
0.0
 40
1.0
 40
1.0
 40
1.0
 40
1.0
 10
4.03163
 20
2.46767
 30
0.0
 10
4.03163
 20
2.44482
 30
0.0
 10
4.01307
 20
2.42632
 30
0.0
 10
3.99029
 20
2.42632
 30
0.0
  0
SPLINE
  5
132
100
AcDbEntity
  8
0
100
AcDbSpline
210
0.0
220
0.0
230
1.0
 62
     12
 70
     0
 71
     3
 72
     8
 73
4
 40
0.0
 40
0.0
 40
0.0
 40
0.0
 40
1.0
 40
1.0
 40
1.0
 40
1.0
 10
3.99029
 20
2.42632
 30
0.0
 10
3.96744
 20
2.42632
 30
0.0
 10
3.94894
 20
2.44482
 30
0.0
 10
3.94894
 20
2.46767
 30
0.0
  0
SPLINE
  5
133
100
AcDbEntity
  8
0
100
AcDbSpline
210
0.0
220
0.0
230
1.0
 62
     12
 70
     0
 71
     3
 72
     8
 73
4
 40
0.0
 40
0.0
 40
0.0
 40
0.0
 40
1.0
 40
1.0
 40
1.0
 40
1.0
 10
3.94894
 20
2.46767
 30
0.0
 10
3.94894
 20
2.4905
 30
0.0
 10
3.96744
 20
2.509
 30
0.0
 10
3.99029
 20
2.509
 30
0.0
  0
SPLINE
  5
134
100
AcDbEntity
  8
0
100
AcDbSpline
210
0.0
220
0.0
230
1.0
 62
     12
 70
     0
 71
     3
 72
     8
 73
4
 40
0.0
 40
0.0
 40
0.0
 40
0.0
 40
1.0
 40
1.0
 40
1.0
 40
1.0
 10
3.99029
 20
2.509
 30
0.0
 10
4.01307
 20
2.509
 30
0.0
 10
4.03163
 20
2.4905
 30
0.0
 10
4.03163
 20
2.46767
 30
0.0
  0
LINE
  5
135
100
AcDbEntity
  8
0
100
AcDbLine
 62
     12
 10
4.03163
 20
2.46767
 30
0.0
 11
4.03163
 21
2.46767
 31
0.0
  0
SPLINE
  5
136
100
AcDbEntity
  8
0
100
AcDbSpline
210
0.0
220
0.0
230
1.0
 62
     12
 70
     0
 71
     3
 72
     8
 73
4
 40
0.0
 40
0.0
 40
0.0
 40
0.0
 40
1.0
 40
1.0
 40
1.0
 40
1.0
 10
4.03163
 20
3.96767
 30
0.0
 10
4.03163
 20
3.94482
 30
0.0
 10
4.01307
 20
3.92632
 30
0.0
 10
3.99029
 20
3.92632
 30
0.0
  0
SPLINE
  5
137
100
AcDbEntity
  8
0
100
AcDbSpline
210
0.0
220
0.0
230
1.0
 62
     12
 70
     0
 71
     3
 72
     8
 73
4
 40
0.0
 40
0.0
 40
0.0
 40
0.0
 40
1.0
 40
1.0
 40
1.0
 40
1.0
 10
3.99029
 20
3.92632
 30
0.0
 10
3.96744
 20
3.92632
 30
0.0
 10
3.94894
 20
3.94482
 30
0.0
 10
3.94894
 20
3.96767
 30
0.0
  0
SPLINE
  5
138
100
AcDbEntity
  8
0
100
AcDbSpline
210
0.0
220
0.0
230
1.0
 62
     12
 70
     0
 71
     3
 72
     8
 73
4
 40
0.0
 40
0.0
 40
0.0
 40
0.0
 40
1.0
 40
1.0
 40
1.0
 40
1.0
 10
3.94894
 20
3.96767
 30
0.0
 10
3.94894
 20
3.9905
 30
0.0
 10
3.96744
 20
4.009
 30
0.0
 10
3.99029
 20
4.009
 30
0.0
  0
SPLINE
  5
139
100
AcDbEntity
  8
0
100
AcDbSpline
210
0.0
220
0.0
230
1.0
 62
     12
 70
     0
 71
     3
 72
     8
 73
4
 40
0.0
 40
0.0
 40
0.0
 40
0.0
 40
1.0
 40
1.0
 40
1.0
 40
1.0
 10
3.99029
 20
4.009
 30
0.0
 10
4.01307
 20
4.009
 30
0.0
 10
4.03163
 20
3.9905
 30
0.0
 10
4.03163
 20
3.96767
 30
0.0
  0
LINE
  5
13a
100
AcDbEntity
  8
0
100
AcDbLine
 62
     12
 10
4.03163
 20
3.96767
 30
0.0
 11
4.03163
 21
3.96767
 31
0.0
  0
SPLINE
  5
13b
100
AcDbEntity
  8
0
100
AcDbSpline
210
0.0
220
0.0
230
1.0
 62
     12
 70
     0
 71
     3
 72
     8
 73
4
 40
0.0
 40
0.0
 40
0.0
 40
0.0
 40
1.0
 40
1.0
 40
1.0
 40
1.0
 10
5.37918
 20
2.15142
 30
0.0
 10
5.37918
 20
2.12858
 30
0.0
 10
5.36068
 20
2.11008
 30
0.0
 10
5.33783
 20
2.11008
 30
0.0
  0
SPLINE
  5
13c
100
AcDbEntity
  8
0
100
AcDbSpline
210
0.0
220
0.0
230
1.0
 62
     12
 70
     0
 71
     3
 72
     8
 73
4
 40
0.0
 40
0.0
 40
0.0
 40
0.0
 40
1.0
 40
1.0
 40
1.0
 40
1.0
 10
5.33783
 20
2.11008
 30
0.0
 10
5.315
 20
2.11008
 30
0.0
 10
5.2965
 20
2.12858
 30
0.0
 10
5.2965
 20
2.15142
 30
0.0
  0
SPLINE
  5
13d
100
AcDbEntity
  8
0
100
AcDbSpline
210
0.0
220
0.0
230
1.0
 62
     12
 70
     0
 71
     3
 72
     8
 73
4
 40
0.0
 40
0.0
 40
0.0
 40
0.0
 40
1.0
 40
1.0
 40
1.0
 40
1.0
 10
5.2965
 20
2.15142
 30
0.0
 10
5.2965
 20
2.17421
 30
0.0
 10
5.315
 20
2.19271
 30
0.0
 10
5.33783
 20
2.19271
 30
0.0
  0
SPLINE
  5
13e
100
AcDbEntity
  8
0
100
AcDbSpline
210
0.0
220
0.0
230
1.0
 62
     12
 70
     0
 71
     3
 72
     8
 73
4
 40
0.0
 40
0.0
 40
0.0
 40
0.0
 40
1.0
 40
1.0
 40
1.0
 40
1.0
 10
5.33783
 20
2.19271
 30
0.0
 10
5.36068
 20
2.19271
 30
0.0
 10
5.37918
 20
2.17421
 30
0.0
 10
5.37918
 20
2.15142
 30
0.0
  0
LINE
  5
13f
100
AcDbEntity
  8
0
100
AcDbLine
 62
     12
 10
5.37918
 20
2.15142
 30
0.0
 11
5.37918
 21
2.15142
 31
0.0
  0
SPLINE
  5
140
100
AcDbEntity
  8
0
100
AcDbSpline
210
0.0
220
0.0
230
1.0
 62
     12
 70
     0
 71
     3
 72
     8
 73
4
 40
0.0
 40
0.0
 40
0.0
 40
0.0
 40
1.0
 40
1.0
 40
1.0
 40
1.0
 10
4.89968
 20
2.84233
 30
0.0
 10
4.89968
 20
2.8195
 30
0.0
 10
4.88113
 20
2.801
 30
0.0
 10
4.85835
 20
2.801
 30
0.0
  0
SPLINE
  5
141
100
AcDbEntity
  8
0
100
AcDbSpline
210
0.0
220
0.0
230
1.0
 62
     12
 70
     0
 71
     3
 72
     8
 73
4
 40
0.0
 40
0.0
 40
0.0
 40
0.0
 40
1.0
 40
1.0
 40
1.0
 40
1.0
 10
4.85835
 20
2.801
 30
0.0
 10
4.8355
 20
2.801
 30
0.0
 10
4.817
 20
2.8195
 30
0.0
 10
4.817
 20
2.84233
 30
0.0
  0
SPLINE
  5
142
100
AcDbEntity
  8
0
100
AcDbSpline
210
0.0
220
0.0
230
1.0
 62
     12
 70
     0
 71
     3
 72
     8
 73
4
 40
0.0
 40
0.0
 40
0.0
 40
0.0
 40
1.0
 40
1.0
 40
1.0
 40
1.0
 10
4.817
 20
2.84233
 30
0.0
 10
4.817
 20
2.86518
 30
0.0
 10
4.8355
 20
2.88368
 30
0.0
 10
4.85835
 20
2.88368
 30
0.0
  0
SPLINE
  5
143
100
AcDbEntity
  8
0
100
AcDbSpline
210
0.0
220
0.0
230
1.0
 62
     12
 70
     0
 71
     3
 72
     8
 73
4
 40
0.0
 40
0.0
 40
0.0
 40
0.0
 40
1.0
 40
1.0
 40
1.0
 40
1.0
 10
4.85835
 20
2.88368
 30
0.0
 10
4.88113
 20
2.88368
 30
0.0
 10
4.89968
 20
2.86518
 30
0.0
 10
4.89968
 20
2.84233
 30
0.0
  0
LINE
  5
144
100
AcDbEntity
  8
0
100
AcDbLine
 62
     12
 10
4.89968
 20
2.84233
 30
0.0
 11
4.89968
 21
2.84233
 31
0.0
  0
SPLINE
  5
145
100
AcDbEntity
  8
0
100
AcDbSpline
210
0.0
220
0.0
230
1.0
 62
     12
 70
     0
 71
     3
 72
     8
 73
4
 40
0.0
 40
0.0
 40
0.0
 40
0.0
 40
1.0
 40
1.0
 40
1.0
 40
1.0
 10
4.68664
 20
1.4139
 30
0.0
 10
4.68664
 20
1.39106
 30
0.0
 10
4.66813
 20
1.37256
 30
0.0
 10
4.64529
 20
1.37256
 30
0.0
  0
SPLINE
  5
146
100
AcDbEntity
  8
0
100
AcDbSpline
210
0.0
220
0.0
230
1.0
 62
     12
 70
     0
 71
     3
 72
     8
 73
4
 40
0.0
 40
0.0
 40
0.0
 40
0.0
 40
1.0
 40
1.0
 40
1.0
 40
1.0
 10
4.64529
 20
1.37256
 30
0.0
 10
4.6225
 20
1.37256
 30
0.0
 10
4.60394
 20
1.39106
 30
0.0
 10
4.60394
 20
1.4139
 30
0.0
  0
SPLINE
  5
147
100
AcDbEntity
  8
0
100
AcDbSpline
210
0.0
220
0.0
230
1.0
 62
     12
 70
     0
 71
     3
 72
     8
 73
4
 40
0.0
 40
0.0
 40
0.0
 40
0.0
 40
1.0
 40
1.0
 40
1.0
 40
1.0
 10
4.60394
 20
1.4139
 30
0.0
 10
4.60394
 20
1.43674
 30
0.0
 10
4.6225
 20
1.45524
 30
0.0
 10
4.64529
 20
1.45524
 30
0.0
  0
SPLINE
  5
148
100
AcDbEntity
  8
0
100
AcDbSpline
210
0.0
220
0.0
230
1.0
 62
     12
 70
     0
 71
     3
 72
     8
 73
4
 40
0.0
 40
0.0
 40
0.0
 40
0.0
 40
1.0
 40
1.0
 40
1.0
 40
1.0
 10
4.64529
 20
1.45524
 30
0.0
 10
4.66813
 20
1.45524
 30
0.0
 10
4.68664
 20
1.43674
 30
0.0
 10
4.68664
 20
1.4139
 30
0.0
  0
LINE
  5
149
100
AcDbEntity
  8
0
100
AcDbLine
 62
     12
 10
4.68664
 20
1.4139
 30
0.0
 11
4.68664
 21
1.4139
 31
0.0
  0
LINE
  5
14a
100
AcDbEntity
  8
0
100
AcDbLine
 62
     160
 10
3.71799
 20
1.47493
 30
0.0
 11
3.71799
 21
1.45128
 31
0.0
  0
LINE
  5
14b
100
AcDbEntity
  8
0
100
AcDbLine
 62
     160
 10
3.71799
 20
1.45128
 30
0.0
 11
3.68653
 21
1.45128
 31
0.0
  0
LINE
  5
14c
100
AcDbEntity
  8
0
100
AcDbLine
 62
     160
 10
3.68653
 20
1.45128
 30
0.0
 11
3.68653
 21
0.953288
 31
0.0
  0
LINE
  5
14d
100
AcDbEntity
  8
0
100
AcDbLine
 62
     160
 10
3.68653
 20
0.953288
 30
0.0
 11
3.71799
 21
0.953288
 31
0.0
  0
LINE
  5
14e
100
AcDbEntity
  8
0
100
AcDbLine
 62
     160
 10
3.71799
 20
0.953288
 30
0.0
 11
3.71799
 21
0.929633
 31
0.0
  0
LINE
  5
14f
100
AcDbEntity
  8
0
100
AcDbLine
 62
     160
 10
3.71799
 20
0.929633
 30
0.0
 11
4.26329
 21
0.929633
 31
0.0
  0
LINE
  5
150
100
AcDbEntity
  8
0
100
AcDbLine
 62
     160
 10
4.26329
 20
0.929633
 30
0.0
 11
4.26329
 21
0.953288
 31
0.0
  0
LINE
  5
151
100
AcDbEntity
  8
0
100
AcDbLine
 62
     160
 10
4.26329
 20
0.953288
 30
0.0
 11
4.29476
 21
0.953288
 31
0.0
  0
LINE
  5
152
100
AcDbEntity
  8
0
100
AcDbLine
 62
     160
 10
4.29476
 20
0.953288
 30
0.0
 11
4.29476
 21
1.45128
 31
0.0
  0
LINE
  5
153
100
AcDbEntity
  8
0
100
AcDbLine
 62
     160
 10
4.29476
 20
1.45128
 30
0.0
 11
4.26329
 21
1.45128
 31
0.0
  0
LINE
  5
154
100
AcDbEntity
  8
0
100
AcDbLine
 62
     160
 10
4.26329
 20
1.45128
 30
0.0
 11
4.26329
 21
1.47493
 31
0.0
  0
LINE
  5
155
100
AcDbEntity
  8
0
100
AcDbLine
 62
     160
 10
4.26329
 20
1.47493
 30
0.0
 11
3.71799
 21
1.47493
 31
0.0
  0
LINE
  5
156
100
AcDbEntity
  8
0
100
AcDbLine
 62
     160
 10
2.96799
 20
1.56868
 30
0.0
 11
2.96799
 21
1.54503
 31
0.0
  0
LINE
  5
157
100
AcDbEntity
  8
0
100
AcDbLine
 62
     160
 10
2.96799
 20
1.54503
 30
0.0
 11
2.93653
 21
1.54503
 31
0.0
  0
LINE
  5
158
100
AcDbEntity
  8
0
100
AcDbLine
 62
     160
 10
2.93653
 20
1.54503
 30
0.0
 11
2.93653
 21
1.04704
 31
0.0
  0
LINE
  5
159
100
AcDbEntity
  8
0
100
AcDbLine
 62
     160
 10
2.93653
 20
1.04704
 30
0.0
 11
2.96799
 21
1.04704
 31
0.0
  0
LINE
  5
15a
100
AcDbEntity
  8
0
100
AcDbLine
 62
     160
 10
2.96799
 20
1.04704
 30
0.0
 11
2.96799
 21
1.02338
 31
0.0
  0
LINE
  5
15b
100
AcDbEntity
  8
0
100
AcDbLine
 62
     160
 10
2.96799
 20
1.02338
 30
0.0
 11
3.51329
 21
1.02338
 31
0.0
  0
LINE
  5
15c
100
AcDbEntity
  8
0
100
AcDbLine
 62
     160
 10
3.51329
 20
1.02338
 30
0.0
 11
3.51329
 21
1.04704
 31
0.0
  0
LINE
  5
15d
100
AcDbEntity
  8
0
100
AcDbLine
 62
     160
 10
3.51329
 20
1.04704
 30
0.0
 11
3.54476
 21
1.04704
 31
0.0
  0
LINE
  5
15e
100
AcDbEntity
  8
0
100
AcDbLine
 62
     160
 10
3.54476
 20
1.04704
 30
0.0
 11
3.54476
 21
1.54503
 31
0.0
  0
LINE
  5
15f
100
AcDbEntity
  8
0
100
AcDbLine
 62
     160
 10
3.54476
 20
1.54503
 30
0.0
 11
3.51329
 21
1.54503
 31
0.0
  0
LINE
  5
160
100
AcDbEntity
  8
0
100
AcDbLine
 62
     160
 10
3.51329
 20
1.54503
 30
0.0
 11
3.51329
 21
1.56868
 31
0.0
  0
LINE
  5
161
100
AcDbEntity
  8
0
100
AcDbLine
 62
     160
 10
3.51329
 20
1.56868
 30
0.0
 11
2.96799
 21
1.56868
 31
0.0
  0
LINE
  5
162
100
AcDbEntity
  8
0
100
AcDbLine
 62
     160
 10
0.34299
 20
2.22493
 30
0.0
 11
0.34299
 21
2.20128
 31
0.0
  0
LINE
  5
163
100
AcDbEntity
  8
0
100
AcDbLine
 62
     160
 10
0.34299
 20
2.20128
 30
0.0
 11
0.311524
 21
2.20128
 31
0.0
  0
LINE
  5
164
100
AcDbEntity
  8
0
100
AcDbLine
 62
     160
 10
0.311524
 20
2.20128
 30
0.0
 11
0.311524
 21
1.70329
 31
0.0
  0
LINE
  5
165
100
AcDbEntity
  8
0
100
AcDbLine
 62
     160
 10
0.311524
 20
1.70329
 30
0.0
 11
0.34299
 21
1.70329
 31
0.0
  0
LINE
  5
166
100
AcDbEntity
  8
0
100
AcDbLine
 62
     160
 10
0.34299
 20
1.70329
 30
0.0
 11
0.34299
 21
1.67964
 31
0.0
  0
LINE
  5
167
100
AcDbEntity
  8
0
100
AcDbLine
 62
     160
 10
0.34299
 20
1.67964
 30
0.0
 11
0.888292
 21
1.67964
 31
0.0
  0
LINE
  5
168
100
AcDbEntity
  8
0
100
AcDbLine
 62
     160
 10
0.888292
 20
1.67964
 30
0.0
 11
0.888292
 21
1.70329
 31
0.0
  0
LINE
  5
169
100
AcDbEntity
  8
0
100
AcDbLine
 62
     160
 10
0.888292
 20
1.70329
 30
0.0
 11
0.91976
 21
1.70329
 31
0.0
  0
LINE
  5
16a
100
AcDbEntity
  8
0
100
AcDbLine
 62
     160
 10
0.91976
 20
1.70329
 30
0.0
 11
0.91976
 21
2.20128
 31
0.0
  0
LINE
  5
16b
100
AcDbEntity
  8
0
100
AcDbLine
 62
     160
 10
0.91976
 20
2.20128
 30
0.0
 11
0.888292
 21
2.20128
 31
0.0
  0
LINE
  5
16c
100
AcDbEntity
  8
0
100
AcDbLine
 62
     160
 10
0.888292
 20
2.20128
 30
0.0
 11
0.888292
 21
2.22493
 31
0.0
  0
LINE
  5
16d
100
AcDbEntity
  8
0
100
AcDbLine
 62
     160
 10
0.888292
 20
2.22493
 30
0.0
 11
0.34299
 21
2.22493
 31
0.0
  0
LINE
  5
16e
100
AcDbEntity
  8
0
100
AcDbLine
 62
     160
 10
1.09299
 20
2.22493
 30
0.0
 11
1.09299
 21
2.20128
 31
0.0
  0
LINE
  5
16f
100
AcDbEntity
  8
0
100
AcDbLine
 62
     160
 10
1.09299
 20
2.20128
 30
0.0
 11
1.06152
 21
2.20128
 31
0.0
  0
LINE
  5
170
100
AcDbEntity
  8
0
100
AcDbLine
 62
     160
 10
1.06152
 20
2.20128
 30
0.0
 11
1.06152
 21
1.70329
 31
0.0
  0
LINE
  5
171
100
AcDbEntity
  8
0
100
AcDbLine
 62
     160
 10
1.06152
 20
1.70329
 30
0.0
 11
1.09299
 21
1.70329
 31
0.0
  0
LINE
  5
172
100
AcDbEntity
  8
0
100
AcDbLine
 62
     160
 10
1.09299
 20
1.70329
 30
0.0
 11
1.09299
 21
1.67964
 31
0.0
  0
LINE
  5
173
100
AcDbEntity
  8
0
100
AcDbLine
 62
     160
 10
1.09299
 20
1.67964
 30
0.0
 11
1.63829
 21
1.67964
 31
0.0
  0
LINE
  5
174
100
AcDbEntity
  8
0
100
AcDbLine
 62
     160
 10
1.63829
 20
1.67964
 30
0.0
 11
1.63829
 21
1.70329
 31
0.0
  0
LINE
  5
175
100
AcDbEntity
  8
0
100
AcDbLine
 62
     160
 10
1.63829
 20
1.70329
 30
0.0
 11
1.66976
 21
1.70329
 31
0.0
  0
LINE
  5
176
100
AcDbEntity
  8
0
100
AcDbLine
 62
     160
 10
1.66976
 20
1.70329
 30
0.0
 11
1.66976
 21
2.20128
 31
0.0
  0
LINE
  5
177
100
AcDbEntity
  8
0
100
AcDbLine
 62
     160
 10
1.66976
 20
2.20128
 30
0.0
 11
1.63829
 21
2.20128
 31
0.0
  0
LINE
  5
178
100
AcDbEntity
  8
0
100
AcDbLine
 62
     160
 10
1.63829
 20
2.20128
 30
0.0
 11
1.63829
 21
2.22493
 31
0.0
  0
LINE
  5
179
100
AcDbEntity
  8
0
100
AcDbLine
 62
     160
 10
1.63829
 20
2.22493
 30
0.0
 11
1.09299
 21
2.22493
 31
0.0
  0
LINE
  5
17a
100
AcDbEntity
  8
0
100
AcDbLine
 62
     160
 10
4.09299
 20
2.31868
 30
0.0
 11
4.09299
 21
2.29503
 31
0.0
  0
LINE
  5
17b
100
AcDbEntity
  8
0
100
AcDbLine
 62
     160
 10
4.09299
 20
2.29503
 30
0.0
 11
4.06153
 21
2.29503
 31
0.0
  0
LINE
  5
17c
100
AcDbEntity
  8
0
100
AcDbLine
 62
     160
 10
4.06153
 20
2.29503
 30
0.0
 11
4.06153
 21
1.79704
 31
0.0
  0
LINE
  5
17d
100
AcDbEntity
  8
0
100
AcDbLine
 62
     160
 10
4.06153
 20
1.79704
 30
0.0
 11
4.09299
 21
1.79704
 31
0.0
  0
LINE
  5
17e
100
AcDbEntity
  8
0
100
AcDbLine
 62
     160
 10
4.09299
 20
1.79704
 30
0.0
 11
4.09299
 21
1.77339
 31
0.0
  0
LINE
  5
17f
100
AcDbEntity
  8
0
100
AcDbLine
 62
     160
 10
4.09299
 20
1.77339
 30
0.0
 11
4.63829
 21
1.77339
 31
0.0
  0
LINE
  5
180
100
AcDbEntity
  8
0
100
AcDbLine
 62
     160
 10
4.63829
 20
1.77339
 30
0.0
 11
4.63829
 21
1.79704
 31
0.0
  0
LINE
  5
181
100
AcDbEntity
  8
0
100
AcDbLine
 62
     160
 10
4.63829
 20
1.79704
 30
0.0
 11
4.66976
 21
1.79704
 31
0.0
  0
LINE
  5
182
100
AcDbEntity
  8
0
100
AcDbLine
 62
     160
 10
4.66976
 20
1.79704
 30
0.0
 11
4.66976
 21
2.29503
 31
0.0
  0
LINE
  5
183
100
AcDbEntity
  8
0
100
AcDbLine
 62
     160
 10
4.66976
 20
2.29503
 30
0.0
 11
4.63829
 21
2.29503
 31
0.0
  0
LINE
  5
184
100
AcDbEntity
  8
0
100
AcDbLine
 62
     160
 10
4.63829
 20
2.29503
 30
0.0
 11
4.63829
 21
2.31868
 31
0.0
  0
LINE
  5
185
100
AcDbEntity
  8
0
100
AcDbLine
 62
     160
 10
4.63829
 20
2.31868
 30
0.0
 11
4.09299
 21
2.31868
 31
0.0
  0
LINE
  5
186
100
AcDbEntity
  8
0
100
AcDbLine
 62
     160
 10
1.84299
 20
2.41243
 30
0.0
 11
1.84299
 21
2.38878
 31
0.0
  0
LINE
  5
187
100
AcDbEntity
  8
0
100
AcDbLine
 62
     160
 10
1.84299
 20
2.38878
 30
0.0
 11
1.81153
 21
2.38878
 31
0.0
  0
LINE
  5
188
100
AcDbEntity
  8
0
100
AcDbLine
 62
     160
 10
1.81153
 20
2.38878
 30
0.0
 11
1.81153
 21
1.89074
 31
0.0
  0
LINE
  5
189
100
AcDbEntity
  8
0
100
AcDbLine
 62
     160
 10
1.81153
 20
1.89074
 30
0.0
 11
1.84299
 21
1.89074
 31
0.0
  0
LINE
  5
18a
100
AcDbEntity
  8
0
100
AcDbLine
 62
     160
 10
1.84299
 20
1.89074
 30
0.0
 11
1.84299
 21
1.86714
 31
0.0
  0
LINE
  5
18b
100
AcDbEntity
  8
0
100
AcDbLine
 62
     160
 10
1.84299
 20
1.86714
 30
0.0
 11
2.38829
 21
1.86714
 31
0.0
  0
LINE
  5
18c
100
AcDbEntity
  8
0
100
AcDbLine
 62
     160
 10
2.38829
 20
1.86714
 30
0.0
 11
2.38829
 21
1.89074
 31
0.0
  0
LINE
  5
18d
100
AcDbEntity
  8
0
100
AcDbLine
 62
     160
 10
2.38829
 20
1.89074
 30
0.0
 11
2.41976
 21
1.89074
 31
0.0
  0
LINE
  5
18e
100
AcDbEntity
  8
0
100
AcDbLine
 62
     160
 10
2.41976
 20
1.89074
 30
0.0
 11
2.41976
 21
2.38878
 31
0.0
  0
LINE
  5
18f
100
AcDbEntity
  8
0
100
AcDbLine
 62
     160
 10
2.41976
 20
2.38878
 30
0.0
 11
2.38829
 21
2.38878
 31
0.0
  0
LINE
  5
190
100
AcDbEntity
  8
0
100
AcDbLine
 62
     160
 10
2.38829
 20
2.38878
 30
0.0
 11
2.38829
 21
2.41243
 31
0.0
  0
LINE
  5
191
100
AcDbEntity
  8
0
100
AcDbLine
 62
     160
 10
2.38829
 20
2.41243
 30
0.0
 11
1.84299
 21
2.41243
 31
0.0
  0
LINE
  5
192
100
AcDbEntity
  8
0
100
AcDbLine
 62
     160
 10
3.34299
 20
2.41243
 30
0.0
 11
3.34299
 21
2.38878
 31
0.0
  0
LINE
  5
193
100
AcDbEntity
  8
0
100
AcDbLine
 62
     160
 10
3.34299
 20
2.38878
 30
0.0
 11
3.31153
 21
2.38878
 31
0.0
  0
LINE
  5
194
100
AcDbEntity
  8
0
100
AcDbLine
 62
     160
 10
3.31153
 20
2.38878
 30
0.0
 11
3.31153
 21
1.89074
 31
0.0
  0
LINE
  5
195
100
AcDbEntity
  8
0
100
AcDbLine
 62
     160
 10
3.31153
 20
1.89074
 30
0.0
 11
3.34299
 21
1.89074
 31
0.0
  0
LINE
  5
196
100
AcDbEntity
  8
0
100
AcDbLine
 62
     160
 10
3.34299
 20
1.89074
 30
0.0
 11
3.34299
 21
1.86714
 31
0.0
  0
LINE
  5
197
100
AcDbEntity
  8
0
100
AcDbLine
 62
     160
 10
3.34299
 20
1.86714
 30
0.0
 11
3.88829
 21
1.86714
 31
0.0
  0
LINE
  5
198
100
AcDbEntity
  8
0
100
AcDbLine
 62
     160
 10
3.88829
 20
1.86714
 30
0.0
 11
3.88829
 21
1.89074
 31
0.0
  0
LINE
  5
199
100
AcDbEntity
  8
0
100
AcDbLine
 62
     160
 10
3.88829
 20
1.89074
 30
0.0
 11
3.91976
 21
1.89074
 31
0.0
  0
LINE
  5
19a
100
AcDbEntity
  8
0
100
AcDbLine
 62
     160
 10
3.91976
 20
1.89074
 30
0.0
 11
3.91976
 21
2.38878
 31
0.0
  0
LINE
  5
19b
100
AcDbEntity
  8
0
100
AcDbLine
 62
     160
 10
3.91976
 20
2.38878
 30
0.0
 11
3.88829
 21
2.38878
 31
0.0
  0
LINE
  5
19c
100
AcDbEntity
  8
0
100
AcDbLine
 62
     160
 10
3.88829
 20
2.38878
 30
0.0
 11
3.88829
 21
2.41243
 31
0.0
  0
LINE
  5
19d
100
AcDbEntity
  8
0
100
AcDbLine
 62
     160
 10
3.88829
 20
2.41243
 30
0.0
 11
3.34299
 21
2.41243
 31
0.0
  0
LINE
  5
19e
100
AcDbEntity
  8
0
100
AcDbLine
 62
     160
 10
2.59299
 20
2.50612
 30
0.0
 11
2.59299
 21
2.48253
 31
0.0
  0
LINE
  5
19f
100
AcDbEntity
  8
0
100
AcDbLine
 62
     160
 10
2.59299
 20
2.48253
 30
0.0
 11
2.56153
 21
2.48253
 31
0.0
  0
LINE
  5
1a0
100
AcDbEntity
  8
0
100
AcDbLine
 62
     160
 10
2.56153
 20
2.48253
 30
0.0
 11
2.56153
 21
1.98449
 31
0.0
  0
LINE
  5
1a1
100
AcDbEntity
  8
0
100
AcDbLine
 62
     160
 10
2.56153
 20
1.98449
 30
0.0
 11
2.59299
 21
1.98449
 31
0.0
  0
LINE
  5
1a2
100
AcDbEntity
  8
0
100
AcDbLine
 62
     160
 10
2.59299
 20
1.98449
 30
0.0
 11
2.59299
 21
1.96089
 31
0.0
  0
LINE
  5
1a3
100
AcDbEntity
  8
0
100
AcDbLine
 62
     160
 10
2.59299
 20
1.96089
 30
0.0
 11
3.13829
 21
1.96089
 31
0.0
  0
LINE
  5
1a4
100
AcDbEntity
  8
0
100
AcDbLine
 62
     160
 10
3.13829
 20
1.96089
 30
0.0
 11
3.13829
 21
1.98449
 31
0.0
  0
LINE
  5
1a5
100
AcDbEntity
  8
0
100
AcDbLine
 62
     160
 10
3.13829
 20
1.98449
 30
0.0
 11
3.16976
 21
1.98449
 31
0.0
  0
LINE
  5
1a6
100
AcDbEntity
  8
0
100
AcDbLine
 62
     160
 10
3.16976
 20
1.98449
 30
0.0
 11
3.16976
 21
2.48253
 31
0.0
  0
LINE
  5
1a7
100
AcDbEntity
  8
0
100
AcDbLine
 62
     160
 10
3.16976
 20
2.48253
 30
0.0
 11
3.13829
 21
2.48253
 31
0.0
  0
LINE
  5
1a8
100
AcDbEntity
  8
0
100
AcDbLine
 62
     160
 10
3.13829
 20
2.48253
 30
0.0
 11
3.13829
 21
2.50612
 31
0.0
  0
LINE
  5
1a9
100
AcDbEntity
  8
0
100
AcDbLine
 62
     160
 10
3.13829
 20
2.50612
 30
0.0
 11
2.59299
 21
2.50612
 31
0.0
  0
LINE
  5
1aa
100
AcDbEntity
  8
0
100
AcDbLine
 62
     160
 10
0.34299
 20
2.97493
 30
0.0
 11
0.34299
 21
2.95128
 31
0.0
  0
LINE
  5
1ab
100
AcDbEntity
  8
0
100
AcDbLine
 62
     160
 10
0.34299
 20
2.95128
 30
0.0
 11
0.311524
 21
2.95128
 31
0.0
  0
LINE
  5
1ac
100
AcDbEntity
  8
0
100
AcDbLine
 62
     160
 10
0.311524
 20
2.95128
 30
0.0
 11
0.311524
 21
2.45329
 31
0.0
  0
LINE
  5
1ad
100
AcDbEntity
  8
0
100
AcDbLine
 62
     160
 10
0.311524
 20
2.45329
 30
0.0
 11
0.34299
 21
2.45329
 31
0.0
  0
LINE
  5
1ae
100
AcDbEntity
  8
0
100
AcDbLine
 62
     160
 10
0.34299
 20
2.45329
 30
0.0
 11
0.34299
 21
2.42964
 31
0.0
  0
LINE
  5
1af
100
AcDbEntity
  8
0
100
AcDbLine
 62
     160
 10
0.34299
 20
2.42964
 30
0.0
 11
0.888292
 21
2.42964
 31
0.0
  0
LINE
  5
1b0
100
AcDbEntity
  8
0
100
AcDbLine
 62
     160
 10
0.888292
 20
2.42964
 30
0.0
 11
0.888292
 21
2.45329
 31
0.0
  0
LINE
  5
1b1
100
AcDbEntity
  8
0
100
AcDbLine
 62
     160
 10
0.888292
 20
2.45329
 30
0.0
 11
0.91976
 21
2.45329
 31
0.0
  0
LINE
  5
1b2
100
AcDbEntity
  8
0
100
AcDbLine
 62
     160
 10
0.91976
 20
2.45329
 30
0.0
 11
0.91976
 21
2.95128
 31
0.0
  0
LINE
  5
1b3
100
AcDbEntity
  8
0
100
AcDbLine
 62
     160
 10
0.91976
 20
2.95128
 30
0.0
 11
0.888292
 21
2.95128
 31
0.0
  0
LINE
  5
1b4
100
AcDbEntity
  8
0
100
AcDbLine
 62
     160
 10
0.888292
 20
2.95128
 30
0.0
 11
0.888292
 21
2.97493
 31
0.0
  0
LINE
  5
1b5
100
AcDbEntity
  8
0
100
AcDbLine
 62
     160
 10
0.888292
 20
2.97493
 30
0.0
 11
0.34299
 21
2.97493
 31
0.0
  0
LINE
  5
1b6
100
AcDbEntity
  8
0
100
AcDbLine
 62
     160
 10
1.09299
 20
2.97493
 30
0.0
 11
1.09299
 21
2.95128
 31
0.0
  0
LINE
  5
1b7
100
AcDbEntity
  8
0
100
AcDbLine
 62
     160
 10
1.09299
 20
2.95128
 30
0.0
 11
1.06152
 21
2.95128
 31
0.0
  0
LINE
  5
1b8
100
AcDbEntity
  8
0
100
AcDbLine
 62
     160
 10
1.06152
 20
2.95128
 30
0.0
 11
1.06152
 21
2.45329
 31
0.0
  0
LINE
  5
1b9
100
AcDbEntity
  8
0
100
AcDbLine
 62
     160
 10
1.06152
 20
2.45329
 30
0.0
 11
1.09299
 21
2.45329
 31
0.0
  0
LINE
  5
1ba
100
AcDbEntity
  8
0
100
AcDbLine
 62
     160
 10
1.09299
 20
2.45329
 30
0.0
 11
1.09299
 21
2.42964
 31
0.0
  0
LINE
  5
1bb
100
AcDbEntity
  8
0
100
AcDbLine
 62
     160
 10
1.09299
 20
2.42964
 30
0.0
 11
1.63829
 21
2.42964
 31
0.0
  0
LINE
  5
1bc
100
AcDbEntity
  8
0
100
AcDbLine
 62
     160
 10
1.63829
 20
2.42964
 30
0.0
 11
1.63829
 21
2.45329
 31
0.0
  0
LINE
  5
1bd
100
AcDbEntity
  8
0
100
AcDbLine
 62
     160
 10
1.63829
 20
2.45329
 30
0.0
 11
1.66976
 21
2.45329
 31
0.0
  0
LINE
  5
1be
100
AcDbEntity
  8
0
100
AcDbLine
 62
     160
 10
1.66976
 20
2.45329
 30
0.0
 11
1.66976
 21
2.95128
 31
0.0
  0
LINE
  5
1bf
100
AcDbEntity
  8
0
100
AcDbLine
 62
     160
 10
1.66976
 20
2.95128
 30
0.0
 11
1.63829
 21
2.95128
 31
0.0
  0
LINE
  5
1c0
100
AcDbEntity
  8
0
100
AcDbLine
 62
     160
 10
1.63829
 20
2.95128
 30
0.0
 11
1.63829
 21
2.97493
 31
0.0
  0
LINE
  5
1c1
100
AcDbEntity
  8
0
100
AcDbLine
 62
     160
 10
1.63829
 20
2.97493
 30
0.0
 11
1.09299
 21
2.97493
 31
0.0
  0
LINE
  5
1c2
100
AcDbEntity
  8
0
100
AcDbLine
 62
     160
 10
4.09299
 20
3.06868
 30
0.0
 11
4.09299
 21
3.04503
 31
0.0
  0
LINE
  5
1c3
100
AcDbEntity
  8
0
100
AcDbLine
 62
     160
 10
4.09299
 20
3.04503
 30
0.0
 11
4.06153
 21
3.04503
 31
0.0
  0
LINE
  5
1c4
100
AcDbEntity
  8
0
100
AcDbLine
 62
     160
 10
4.06153
 20
3.04503
 30
0.0
 11
4.06153
 21
2.54704
 31
0.0
  0
LINE
  5
1c5
100
AcDbEntity
  8
0
100
AcDbLine
 62
     160
 10
4.06153
 20
2.54704
 30
0.0
 11
4.09299
 21
2.54704
 31
0.0
  0
LINE
  5
1c6
100
AcDbEntity
  8
0
100
AcDbLine
 62
     160
 10
4.09299
 20
2.54704
 30
0.0
 11
4.09299
 21
2.52339
 31
0.0
  0
LINE
  5
1c7
100
AcDbEntity
  8
0
100
AcDbLine
 62
     160
 10
4.09299
 20
2.52339
 30
0.0
 11
4.63829
 21
2.52339
 31
0.0
  0
LINE
  5
1c8
100
AcDbEntity
  8
0
100
AcDbLine
 62
     160
 10
4.63829
 20
2.52339
 30
0.0
 11
4.63829
 21
2.54704
 31
0.0
  0
LINE
  5
1c9
100
AcDbEntity
  8
0
100
AcDbLine
 62
     160
 10
4.63829
 20
2.54704
 30
0.0
 11
4.66976
 21
2.54704
 31
0.0
  0
LINE
  5
1ca
100
AcDbEntity
  8
0
100
AcDbLine
 62
     160
 10
4.66976
 20
2.54704
 30
0.0
 11
4.66976
 21
3.04503
 31
0.0
  0
LINE
  5
1cb
100
AcDbEntity
  8
0
100
AcDbLine
 62
     160
 10
4.66976
 20
3.04503
 30
0.0
 11
4.63829
 21
3.04503
 31
0.0
  0
LINE
  5
1cc
100
AcDbEntity
  8
0
100
AcDbLine
 62
     160
 10
4.63829
 20
3.04503
 30
0.0
 11
4.63829
 21
3.06868
 31
0.0
  0
LINE
  5
1cd
100
AcDbEntity
  8
0
100
AcDbLine
 62
     160
 10
4.63829
 20
3.06868
 30
0.0
 11
4.09299
 21
3.06868
 31
0.0
  0
LINE
  5
1ce
100
AcDbEntity
  8
0
100
AcDbLine
 62
     160
 10
1.84299
 20
3.16243
 30
0.0
 11
1.84299
 21
3.13878
 31
0.0
  0
LINE
  5
1cf
100
AcDbEntity
  8
0
100
AcDbLine
 62
     160
 10
1.84299
 20
3.13878
 30
0.0
 11
1.81153
 21
3.13878
 31
0.0
  0
LINE
  5
1d0
100
AcDbEntity
  8
0
100
AcDbLine
 62
     160
 10
1.81153
 20
3.13878
 30
0.0
 11
1.81153
 21
2.64074
 31
0.0
  0
LINE
  5
1d1
100
AcDbEntity
  8
0
100
AcDbLine
 62
     160
 10
1.81153
 20
2.64074
 30
0.0
 11
1.84299
 21
2.64074
 31
0.0
  0
LINE
  5
1d2
100
AcDbEntity
  8
0
100
AcDbLine
 62
     160
 10
1.84299
 20
2.64074
 30
0.0
 11
1.84299
 21
2.61714
 31
0.0
  0
LINE
  5
1d3
100
AcDbEntity
  8
0
100
AcDbLine
 62
     160
 10
1.84299
 20
2.61714
 30
0.0
 11
2.38829
 21
2.61714
 31
0.0
  0
LINE
  5
1d4
100
AcDbEntity
  8
0
100
AcDbLine
 62
     160
 10
2.38829
 20
2.61714
 30
0.0
 11
2.38829
 21
2.64074
 31
0.0
  0
LINE
  5
1d5
100
AcDbEntity
  8
0
100
AcDbLine
 62
     160
 10
2.38829
 20
2.64074
 30
0.0
 11
2.41976
 21
2.64074
 31
0.0
  0
LINE
  5
1d6
100
AcDbEntity
  8
0
100
AcDbLine
 62
     160
 10
2.41976
 20
2.64074
 30
0.0
 11
2.41976
 21
3.13878
 31
0.0
  0
LINE
  5
1d7
100
AcDbEntity
  8
0
100
AcDbLine
 62
     160
 10
2.41976
 20
3.13878
 30
0.0
 11
2.38829
 21
3.13878
 31
0.0
  0
LINE
  5
1d8
100
AcDbEntity
  8
0
100
AcDbLine
 62
     160
 10
2.38829
 20
3.13878
 30
0.0
 11
2.38829
 21
3.16243
 31
0.0
  0
LINE
  5
1d9
100
AcDbEntity
  8
0
100
AcDbLine
 62
     160
 10
2.38829
 20
3.16243
 30
0.0
 11
1.84299
 21
3.16243
 31
0.0
  0
LINE
  5
1da
100
AcDbEntity
  8
0
100
AcDbLine
 62
     160
 10
3.34299
 20
3.16243
 30
0.0
 11
3.34299
 21
3.13878
 31
0.0
  0
LINE
  5
1db
100
AcDbEntity
  8
0
100
AcDbLine
 62
     160
 10
3.34299
 20
3.13878
 30
0.0
 11
3.31153
 21
3.13878
 31
0.0
  0
LINE
  5
1dc
100
AcDbEntity
  8
0
100
AcDbLine
 62
     160
 10
3.31153
 20
3.13878
 30
0.0
 11
3.31153
 21
2.64074
 31
0.0
  0
LINE
  5
1dd
100
AcDbEntity
  8
0
100
AcDbLine
 62
     160
 10
3.31153
 20
2.64074
 30
0.0
 11
3.34299
 21
2.64074
 31
0.0
  0
LINE
  5
1de
100
AcDbEntity
  8
0
100
AcDbLine
 62
     160
 10
3.34299
 20
2.64074
 30
0.0
 11
3.34299
 21
2.61714
 31
0.0
  0
LINE
  5
1df
100
AcDbEntity
  8
0
100
AcDbLine
 62
     160
 10
3.34299
 20
2.61714
 30
0.0
 11
3.88829
 21
2.61714
 31
0.0
  0
LINE
  5
1e0
100
AcDbEntity
  8
0
100
AcDbLine
 62
     160
 10
3.88829
 20
2.61714
 30
0.0
 11
3.88829
 21
2.64074
 31
0.0
  0
LINE
  5
1e1
100
AcDbEntity
  8
0
100
AcDbLine
 62
     160
 10
3.88829
 20
2.64074
 30
0.0
 11
3.91976
 21
2.64074
 31
0.0
  0
LINE
  5
1e2
100
AcDbEntity
  8
0
100
AcDbLine
 62
     160
 10
3.91976
 20
2.64074
 30
0.0
 11
3.91976
 21
3.13878
 31
0.0
  0
LINE
  5
1e3
100
AcDbEntity
  8
0
100
AcDbLine
 62
     160
 10
3.91976
 20
3.13878
 30
0.0
 11
3.88829
 21
3.13878
 31
0.0
  0
LINE
  5
1e4
100
AcDbEntity
  8
0
100
AcDbLine
 62
     160
 10
3.88829
 20
3.13878
 30
0.0
 11
3.88829
 21
3.16243
 31
0.0
  0
LINE
  5
1e5
100
AcDbEntity
  8
0
100
AcDbLine
 62
     160
 10
3.88829
 20
3.16243
 30
0.0
 11
3.34299
 21
3.16243
 31
0.0
  0
LINE
  5
1e6
100
AcDbEntity
  8
0
100
AcDbLine
 62
     160
 10
2.59299
 20
3.25612
 30
0.0
 11
2.59299
 21
3.23253
 31
0.0
  0
LINE
  5
1e7
100
AcDbEntity
  8
0
100
AcDbLine
 62
     160
 10
2.59299
 20
3.23253
 30
0.0
 11
2.56153
 21
3.23253
 31
0.0
  0
LINE
  5
1e8
100
AcDbEntity
  8
0
100
AcDbLine
 62
     160
 10
2.56153
 20
3.23253
 30
0.0
 11
2.56153
 21
2.73449
 31
0.0
  0
LINE
  5
1e9
100
AcDbEntity
  8
0
100
AcDbLine
 62
     160
 10
2.56153
 20
2.73449
 30
0.0
 11
2.59299
 21
2.73449
 31
0.0
  0
LINE
  5
1ea
100
AcDbEntity
  8
0
100
AcDbLine
 62
     160
 10
2.59299
 20
2.73449
 30
0.0
 11
2.59299
 21
2.71089
 31
0.0
  0
LINE
  5
1eb
100
AcDbEntity
  8
0
100
AcDbLine
 62
     160
 10
2.59299
 20
2.71089
 30
0.0
 11
3.13829
 21
2.71089
 31
0.0
  0
LINE
  5
1ec
100
AcDbEntity
  8
0
100
AcDbLine
 62
     160
 10
3.13829
 20
2.71089
 30
0.0
 11
3.13829
 21
2.73449
 31
0.0
  0
LINE
  5
1ed
100
AcDbEntity
  8
0
100
AcDbLine
 62
     160
 10
3.13829
 20
2.73449
 30
0.0
 11
3.16976
 21
2.73449
 31
0.0
  0
LINE
  5
1ee
100
AcDbEntity
  8
0
100
AcDbLine
 62
     160
 10
3.16976
 20
2.73449
 30
0.0
 11
3.16976
 21
3.23253
 31
0.0
  0
LINE
  5
1ef
100
AcDbEntity
  8
0
100
AcDbLine
 62
     160
 10
3.16976
 20
3.23253
 30
0.0
 11
3.13829
 21
3.23253
 31
0.0
  0
LINE
  5
1f0
100
AcDbEntity
  8
0
100
AcDbLine
 62
     160
 10
3.13829
 20
3.23253
 30
0.0
 11
3.13829
 21
3.25612
 31
0.0
  0
LINE
  5
1f1
100
AcDbEntity
  8
0
100
AcDbLine
 62
     160
 10
3.13829
 20
3.25612
 30
0.0
 11
2.59299
 21
3.25612
 31
0.0
  0
LINE
  5
1f2
100
AcDbEntity
  8
0
100
AcDbLine
 62
     160
 10
0.34299
 20
3.72493
 30
0.0
 11
0.34299
 21
3.70128
 31
0.0
  0
LINE
  5
1f3
100
AcDbEntity
  8
0
100
AcDbLine
 62
     160
 10
0.34299
 20
3.70128
 30
0.0
 11
0.311524
 21
3.70128
 31
0.0
  0
LINE
  5
1f4
100
AcDbEntity
  8
0
100
AcDbLine
 62
     160
 10
0.311524
 20
3.70128
 30
0.0
 11
0.311524
 21
3.20329
 31
0.0
  0
LINE
  5
1f5
100
AcDbEntity
  8
0
100
AcDbLine
 62
     160
 10
0.311524
 20
3.20329
 30
0.0
 11
0.34299
 21
3.20329
 31
0.0
  0
LINE
  5
1f6
100
AcDbEntity
  8
0
100
AcDbLine
 62
     160
 10
0.34299
 20
3.20329
 30
0.0
 11
0.34299
 21
3.17964
 31
0.0
  0
LINE
  5
1f7
100
AcDbEntity
  8
0
100
AcDbLine
 62
     160
 10
0.34299
 20
3.17964
 30
0.0
 11
0.888292
 21
3.17964
 31
0.0
  0
LINE
  5
1f8
100
AcDbEntity
  8
0
100
AcDbLine
 62
     160
 10
0.888292
 20
3.17964
 30
0.0
 11
0.888292
 21
3.20329
 31
0.0
  0
LINE
  5
1f9
100
AcDbEntity
  8
0
100
AcDbLine
 62
     160
 10
0.888292
 20
3.20329
 30
0.0
 11
0.91976
 21
3.20329
 31
0.0
  0
LINE
  5
1fa
100
AcDbEntity
  8
0
100
AcDbLine
 62
     160
 10
0.91976
 20
3.20329
 30
0.0
 11
0.91976
 21
3.70128
 31
0.0
  0
LINE
  5
1fb
100
AcDbEntity
  8
0
100
AcDbLine
 62
     160
 10
0.91976
 20
3.70128
 30
0.0
 11
0.888292
 21
3.70128
 31
0.0
  0
LINE
  5
1fc
100
AcDbEntity
  8
0
100
AcDbLine
 62
     160
 10
0.888292
 20
3.70128
 30
0.0
 11
0.888292
 21
3.72493
 31
0.0
  0
LINE
  5
1fd
100
AcDbEntity
  8
0
100
AcDbLine
 62
     160
 10
0.888292
 20
3.72493
 30
0.0
 11
0.34299
 21
3.72493
 31
0.0
  0
LINE
  5
1fe
100
AcDbEntity
  8
0
100
AcDbLine
 62
     160
 10
1.09299
 20
3.72493
 30
0.0
 11
1.09299
 21
3.70128
 31
0.0
  0
LINE
  5
1ff
100
AcDbEntity
  8
0
100
AcDbLine
 62
     160
 10
1.09299
 20
3.70128
 30
0.0
 11
1.06152
 21
3.70128
 31
0.0
  0
LINE
  5
200
100
AcDbEntity
  8
0
100
AcDbLine
 62
     160
 10
1.06152
 20
3.70128
 30
0.0
 11
1.06152
 21
3.20329
 31
0.0
  0
LINE
  5
201
100
AcDbEntity
  8
0
100
AcDbLine
 62
     160
 10
1.06152
 20
3.20329
 30
0.0
 11
1.09299
 21
3.20329
 31
0.0
  0
LINE
  5
202
100
AcDbEntity
  8
0
100
AcDbLine
 62
     160
 10
1.09299
 20
3.20329
 30
0.0
 11
1.09299
 21
3.17964
 31
0.0
  0
LINE
  5
203
100
AcDbEntity
  8
0
100
AcDbLine
 62
     160
 10
1.09299
 20
3.17964
 30
0.0
 11
1.63829
 21
3.17964
 31
0.0
  0
LINE
  5
204
100
AcDbEntity
  8
0
100
AcDbLine
 62
     160
 10
1.63829
 20
3.17964
 30
0.0
 11
1.63829
 21
3.20329
 31
0.0
  0
LINE
  5
205
100
AcDbEntity
  8
0
100
AcDbLine
 62
     160
 10
1.63829
 20
3.20329
 30
0.0
 11
1.66976
 21
3.20329
 31
0.0
  0
LINE
  5
206
100
AcDbEntity
  8
0
100
AcDbLine
 62
     160
 10
1.66976
 20
3.20329
 30
0.0
 11
1.66976
 21
3.70128
 31
0.0
  0
LINE
  5
207
100
AcDbEntity
  8
0
100
AcDbLine
 62
     160
 10
1.66976
 20
3.70128
 30
0.0
 11
1.63829
 21
3.70128
 31
0.0
  0
LINE
  5
208
100
AcDbEntity
  8
0
100
AcDbLine
 62
     160
 10
1.63829
 20
3.70128
 30
0.0
 11
1.63829
 21
3.72493
 31
0.0
  0
LINE
  5
209
100
AcDbEntity
  8
0
100
AcDbLine
 62
     160
 10
1.63829
 20
3.72493
 30
0.0
 11
1.09299
 21
3.72493
 31
0.0
  0
LINE
  5
20a
100
AcDbEntity
  8
0
100
AcDbLine
 62
     160
 10
4.09299
 20
3.81868
 30
0.0
 11
4.09299
 21
3.79503
 31
0.0
  0
LINE
  5
20b
100
AcDbEntity
  8
0
100
AcDbLine
 62
     160
 10
4.09299
 20
3.79503
 30
0.0
 11
4.06153
 21
3.79503
 31
0.0
  0
LINE
  5
20c
100
AcDbEntity
  8
0
100
AcDbLine
 62
     160
 10
4.06153
 20
3.79503
 30
0.0
 11
4.06153
 21
3.29704
 31
0.0
  0
LINE
  5
20d
100
AcDbEntity
  8
0
100
AcDbLine
 62
     160
 10
4.06153
 20
3.29704
 30
0.0
 11
4.09299
 21
3.29704
 31
0.0
  0
LINE
  5
20e
100
AcDbEntity
  8
0
100
AcDbLine
 62
     160
 10
4.09299
 20
3.29704
 30
0.0
 11
4.09299
 21
3.27339
 31
0.0
  0
LINE
  5
20f
100
AcDbEntity
  8
0
100
AcDbLine
 62
     160
 10
4.09299
 20
3.27339
 30
0.0
 11
4.63829
 21
3.27339
 31
0.0
  0
LINE
  5
210
100
AcDbEntity
  8
0
100
AcDbLine
 62
     160
 10
4.63829
 20
3.27339
 30
0.0
 11
4.63829
 21
3.29704
 31
0.0
  0
LINE
  5
211
100
AcDbEntity
  8
0
100
AcDbLine
 62
     160
 10
4.63829
 20
3.29704
 30
0.0
 11
4.66976
 21
3.29704
 31
0.0
  0
LINE
  5
212
100
AcDbEntity
  8
0
100
AcDbLine
 62
     160
 10
4.66976
 20
3.29704
 30
0.0
 11
4.66976
 21
3.79503
 31
0.0
  0
LINE
  5
213
100
AcDbEntity
  8
0
100
AcDbLine
 62
     160
 10
4.66976
 20
3.79503
 30
0.0
 11
4.63829
 21
3.79503
 31
0.0
  0
LINE
  5
214
100
AcDbEntity
  8
0
100
AcDbLine
 62
     160
 10
4.63829
 20
3.79503
 30
0.0
 11
4.63829
 21
3.81868
 31
0.0
  0
LINE
  5
215
100
AcDbEntity
  8
0
100
AcDbLine
 62
     160
 10
4.63829
 20
3.81868
 30
0.0
 11
4.09299
 21
3.81868
 31
0.0
  0
LINE
  5
216
100
AcDbEntity
  8
0
100
AcDbLine
 62
     160
 10
1.84299
 20
3.91243
 30
0.0
 11
1.84299
 21
3.88878
 31
0.0
  0
LINE
  5
217
100
AcDbEntity
  8
0
100
AcDbLine
 62
     160
 10
1.84299
 20
3.88878
 30
0.0
 11
1.81153
 21
3.88878
 31
0.0
  0
LINE
  5
218
100
AcDbEntity
  8
0
100
AcDbLine
 62
     160
 10
1.81153
 20
3.88878
 30
0.0
 11
1.81153
 21
3.39074
 31
0.0
  0
LINE
  5
219
100
AcDbEntity
  8
0
100
AcDbLine
 62
     160
 10
1.81153
 20
3.39074
 30
0.0
 11
1.84299
 21
3.39074
 31
0.0
  0
LINE
  5
21a
100
AcDbEntity
  8
0
100
AcDbLine
 62
     160
 10
1.84299
 20
3.39074
 30
0.0
 11
1.84299
 21
3.36714
 31
0.0
  0
LINE
  5
21b
100
AcDbEntity
  8
0
100
AcDbLine
 62
     160
 10
1.84299
 20
3.36714
 30
0.0
 11
2.38829
 21
3.36714
 31
0.0
  0
LINE
  5
21c
100
AcDbEntity
  8
0
100
AcDbLine
 62
     160
 10
2.38829
 20
3.36714
 30
0.0
 11
2.38829
 21
3.39074
 31
0.0
  0
LINE
  5
21d
100
AcDbEntity
  8
0
100
AcDbLine
 62
     160
 10
2.38829
 20
3.39074
 30
0.0
 11
2.41976
 21
3.39074
 31
0.0
  0
LINE
  5
21e
100
AcDbEntity
  8
0
100
AcDbLine
 62
     160
 10
2.41976
 20
3.39074
 30
0.0
 11
2.41976
 21
3.88878
 31
0.0
  0
LINE
  5
21f
100
AcDbEntity
  8
0
100
AcDbLine
 62
     160
 10
2.41976
 20
3.88878
 30
0.0
 11
2.38829
 21
3.88878
 31
0.0
  0
LINE
  5
220
100
AcDbEntity
  8
0
100
AcDbLine
 62
     160
 10
2.38829
 20
3.88878
 30
0.0
 11
2.38829
 21
3.91243
 31
0.0
  0
LINE
  5
221
100
AcDbEntity
  8
0
100
AcDbLine
 62
     160
 10
2.38829
 20
3.91243
 30
0.0
 11
1.84299
 21
3.91243
 31
0.0
  0
LINE
  5
222
100
AcDbEntity
  8
0
100
AcDbLine
 62
     160
 10
3.34299
 20
3.91243
 30
0.0
 11
3.34299
 21
3.88878
 31
0.0
  0
LINE
  5
223
100
AcDbEntity
  8
0
100
AcDbLine
 62
     160
 10
3.34299
 20
3.88878
 30
0.0
 11
3.31153
 21
3.88878
 31
0.0
  0
LINE
  5
224
100
AcDbEntity
  8
0
100
AcDbLine
 62
     160
 10
3.31153
 20
3.88878
 30
0.0
 11
3.31153
 21
3.39074
 31
0.0
  0
LINE
  5
225
100
AcDbEntity
  8
0
100
AcDbLine
 62
     160
 10
3.31153
 20
3.39074
 30
0.0
 11
3.34299
 21
3.39074
 31
0.0
  0
LINE
  5
226
100
AcDbEntity
  8
0
100
AcDbLine
 62
     160
 10
3.34299
 20
3.39074
 30
0.0
 11
3.34299
 21
3.36714
 31
0.0
  0
LINE
  5
227
100
AcDbEntity
  8
0
100
AcDbLine
 62
     160
 10
3.34299
 20
3.36714
 30
0.0
 11
3.88829
 21
3.36714
 31
0.0
  0
LINE
  5
228
100
AcDbEntity
  8
0
100
AcDbLine
 62
     160
 10
3.88829
 20
3.36714
 30
0.0
 11
3.88829
 21
3.39074
 31
0.0
  0
LINE
  5
229
100
AcDbEntity
  8
0
100
AcDbLine
 62
     160
 10
3.88829
 20
3.39074
 30
0.0
 11
3.91976
 21
3.39074
 31
0.0
  0
LINE
  5
22a
100
AcDbEntity
  8
0
100
AcDbLine
 62
     160
 10
3.91976
 20
3.39074
 30
0.0
 11
3.91976
 21
3.88878
 31
0.0
  0
LINE
  5
22b
100
AcDbEntity
  8
0
100
AcDbLine
 62
     160
 10
3.91976
 20
3.88878
 30
0.0
 11
3.88829
 21
3.88878
 31
0.0
  0
LINE
  5
22c
100
AcDbEntity
  8
0
100
AcDbLine
 62
     160
 10
3.88829
 20
3.88878
 30
0.0
 11
3.88829
 21
3.91243
 31
0.0
  0
LINE
  5
22d
100
AcDbEntity
  8
0
100
AcDbLine
 62
     160
 10
3.88829
 20
3.91243
 30
0.0
 11
3.34299
 21
3.91243
 31
0.0
  0
LINE
  5
22e
100
AcDbEntity
  8
0
100
AcDbLine
 62
     160
 10
2.59299
 20
4.00613
 30
0.0
 11
2.59299
 21
3.98253
 31
0.0
  0
LINE
  5
22f
100
AcDbEntity
  8
0
100
AcDbLine
 62
     160
 10
2.59299
 20
3.98253
 30
0.0
 11
2.56153
 21
3.98253
 31
0.0
  0
LINE
  5
230
100
AcDbEntity
  8
0
100
AcDbLine
 62
     160
 10
2.56153
 20
3.98253
 30
0.0
 11
2.56153
 21
3.48449
 31
0.0
  0
LINE
  5
231
100
AcDbEntity
  8
0
100
AcDbLine
 62
     160
 10
2.56153
 20
3.48449
 30
0.0
 11
2.59299
 21
3.48449
 31
0.0
  0
LINE
  5
232
100
AcDbEntity
  8
0
100
AcDbLine
 62
     160
 10
2.59299
 20
3.48449
 30
0.0
 11
2.59299
 21
3.46089
 31
0.0
  0
LINE
  5
233
100
AcDbEntity
  8
0
100
AcDbLine
 62
     160
 10
2.59299
 20
3.46089
 30
0.0
 11
3.13829
 21
3.46089
 31
0.0
  0
LINE
  5
234
100
AcDbEntity
  8
0
100
AcDbLine
 62
     160
 10
3.13829
 20
3.46089
 30
0.0
 11
3.13829
 21
3.48449
 31
0.0
  0
LINE
  5
235
100
AcDbEntity
  8
0
100
AcDbLine
 62
     160
 10
3.13829
 20
3.48449
 30
0.0
 11
3.16976
 21
3.48449
 31
0.0
  0
LINE
  5
236
100
AcDbEntity
  8
0
100
AcDbLine
 62
     160
 10
3.16976
 20
3.48449
 30
0.0
 11
3.16976
 21
3.98253
 31
0.0
  0
LINE
  5
237
100
AcDbEntity
  8
0
100
AcDbLine
 62
     160
 10
3.16976
 20
3.98253
 30
0.0
 11
3.13829
 21
3.98253
 31
0.0
  0
LINE
  5
238
100
AcDbEntity
  8
0
100
AcDbLine
 62
     160
 10
3.13829
 20
3.98253
 30
0.0
 11
3.13829
 21
4.00613
 31
0.0
  0
LINE
  5
239
100
AcDbEntity
  8
0
100
AcDbLine
 62
     160
 10
3.13829
 20
4.00613
 30
0.0
 11
2.59299
 21
4.00613
 31
0.0
  0
LINE
  5
23a
100
AcDbEntity
  8
0
100
AcDbLine
 62
     160
 10
0.34299
 20
4.47493
 30
0.0
 11
0.34299
 21
4.45128
 31
0.0
  0
LINE
  5
23b
100
AcDbEntity
  8
0
100
AcDbLine
 62
     160
 10
0.34299
 20
4.45128
 30
0.0
 11
0.311524
 21
4.45128
 31
0.0
  0
LINE
  5
23c
100
AcDbEntity
  8
0
100
AcDbLine
 62
     160
 10
0.311524
 20
4.45128
 30
0.0
 11
0.311524
 21
3.95329
 31
0.0
  0
LINE
  5
23d
100
AcDbEntity
  8
0
100
AcDbLine
 62
     160
 10
0.311524
 20
3.95329
 30
0.0
 11
0.34299
 21
3.95329
 31
0.0
  0
LINE
  5
23e
100
AcDbEntity
  8
0
100
AcDbLine
 62
     160
 10
0.34299
 20
3.95329
 30
0.0
 11
0.34299
 21
3.92964
 31
0.0
  0
LINE
  5
23f
100
AcDbEntity
  8
0
100
AcDbLine
 62
     160
 10
0.34299
 20
3.92964
 30
0.0
 11
0.888292
 21
3.92964
 31
0.0
  0
LINE
  5
240
100
AcDbEntity
  8
0
100
AcDbLine
 62
     160
 10
0.888292
 20
3.92964
 30
0.0
 11
0.888292
 21
3.95329
 31
0.0
  0
LINE
  5
241
100
AcDbEntity
  8
0
100
AcDbLine
 62
     160
 10
0.888292
 20
3.95329
 30
0.0
 11
0.91976
 21
3.95329
 31
0.0
  0
LINE
  5
242
100
AcDbEntity
  8
0
100
AcDbLine
 62
     160
 10
0.91976
 20
3.95329
 30
0.0
 11
0.91976
 21
4.45128
 31
0.0
  0
LINE
  5
243
100
AcDbEntity
  8
0
100
AcDbLine
 62
     160
 10
0.91976
 20
4.45128
 30
0.0
 11
0.888292
 21
4.45128
 31
0.0
  0
LINE
  5
244
100
AcDbEntity
  8
0
100
AcDbLine
 62
     160
 10
0.888292
 20
4.45128
 30
0.0
 11
0.888292
 21
4.47493
 31
0.0
  0
LINE
  5
245
100
AcDbEntity
  8
0
100
AcDbLine
 62
     160
 10
0.888292
 20
4.47493
 30
0.0
 11
0.34299
 21
4.47493
 31
0.0
  0
LINE
  5
246
100
AcDbEntity
  8
0
100
AcDbLine
 62
     160
 10
1.09299
 20
4.47493
 30
0.0
 11
1.09299
 21
4.45128
 31
0.0
  0
LINE
  5
247
100
AcDbEntity
  8
0
100
AcDbLine
 62
     160
 10
1.09299
 20
4.45128
 30
0.0
 11
1.06152
 21
4.45128
 31
0.0
  0
LINE
  5
248
100
AcDbEntity
  8
0
100
AcDbLine
 62
     160
 10
1.06152
 20
4.45128
 30
0.0
 11
1.06152
 21
3.95329
 31
0.0
  0
LINE
  5
249
100
AcDbEntity
  8
0
100
AcDbLine
 62
     160
 10
1.06152
 20
3.95329
 30
0.0
 11
1.09299
 21
3.95329
 31
0.0
  0
LINE
  5
24a
100
AcDbEntity
  8
0
100
AcDbLine
 62
     160
 10
1.09299
 20
3.95329
 30
0.0
 11
1.09299
 21
3.92964
 31
0.0
  0
LINE
  5
24b
100
AcDbEntity
  8
0
100
AcDbLine
 62
     160
 10
1.09299
 20
3.92964
 30
0.0
 11
1.63829
 21
3.92964
 31
0.0
  0
LINE
  5
24c
100
AcDbEntity
  8
0
100
AcDbLine
 62
     160
 10
1.63829
 20
3.92964
 30
0.0
 11
1.63829
 21
3.95329
 31
0.0
  0
LINE
  5
24d
100
AcDbEntity
  8
0
100
AcDbLine
 62
     160
 10
1.63829
 20
3.95329
 30
0.0
 11
1.66976
 21
3.95329
 31
0.0
  0
LINE
  5
24e
100
AcDbEntity
  8
0
100
AcDbLine
 62
     160
 10
1.66976
 20
3.95329
 30
0.0
 11
1.66976
 21
4.45128
 31
0.0
  0
LINE
  5
24f
100
AcDbEntity
  8
0
100
AcDbLine
 62
     160
 10
1.66976
 20
4.45128
 30
0.0
 11
1.63829
 21
4.45128
 31
0.0
  0
LINE
  5
250
100
AcDbEntity
  8
0
100
AcDbLine
 62
     160
 10
1.63829
 20
4.45128
 30
0.0
 11
1.63829
 21
4.47493
 31
0.0
  0
LINE
  5
251
100
AcDbEntity
  8
0
100
AcDbLine
 62
     160
 10
1.63829
 20
4.47493
 30
0.0
 11
1.09299
 21
4.47493
 31
0.0
  0
LINE
  5
252
100
AcDbEntity
  8
0
100
AcDbLine
 62
     160
 10
4.09299
 20
4.56868
 30
0.0
 11
4.09299
 21
4.54503
 31
0.0
  0
LINE
  5
253
100
AcDbEntity
  8
0
100
AcDbLine
 62
     160
 10
4.09299
 20
4.54503
 30
0.0
 11
4.06153
 21
4.54503
 31
0.0
  0
LINE
  5
254
100
AcDbEntity
  8
0
100
AcDbLine
 62
     160
 10
4.06153
 20
4.54503
 30
0.0
 11
4.06153
 21
4.04704
 31
0.0
  0
LINE
  5
255
100
AcDbEntity
  8
0
100
AcDbLine
 62
     160
 10
4.06153
 20
4.04704
 30
0.0
 11
4.09299
 21
4.04704
 31
0.0
  0
LINE
  5
256
100
AcDbEntity
  8
0
100
AcDbLine
 62
     160
 10
4.09299
 20
4.04704
 30
0.0
 11
4.09299
 21
4.02339
 31
0.0
  0
LINE
  5
257
100
AcDbEntity
  8
0
100
AcDbLine
 62
     160
 10
4.09299
 20
4.02339
 30
0.0
 11
4.63829
 21
4.02339
 31
0.0
  0
LINE
  5
258
100
AcDbEntity
  8
0
100
AcDbLine
 62
     160
 10
4.63829
 20
4.02339
 30
0.0
 11
4.63829
 21
4.04704
 31
0.0
  0
LINE
  5
259
100
AcDbEntity
  8
0
100
AcDbLine
 62
     160
 10
4.63829
 20
4.04704
 30
0.0
 11
4.66976
 21
4.04704
 31
0.0
  0
LINE
  5
25a
100
AcDbEntity
  8
0
100
AcDbLine
 62
     160
 10
4.66976
 20
4.04704
 30
0.0
 11
4.66976
 21
4.54503
 31
0.0
  0
LINE
  5
25b
100
AcDbEntity
  8
0
100
AcDbLine
 62
     160
 10
4.66976
 20
4.54503
 30
0.0
 11
4.63829
 21
4.54503
 31
0.0
  0
LINE
  5
25c
100
AcDbEntity
  8
0
100
AcDbLine
 62
     160
 10
4.63829
 20
4.54503
 30
0.0
 11
4.63829
 21
4.56868
 31
0.0
  0
LINE
  5
25d
100
AcDbEntity
  8
0
100
AcDbLine
 62
     160
 10
4.63829
 20
4.56868
 30
0.0
 11
4.09299
 21
4.56868
 31
0.0
  0
LINE
  5
25e
100
AcDbEntity
  8
0
100
AcDbLine
 62
     160
 10
1.84299
 20
4.66243
 30
0.0
 11
1.84299
 21
4.63878
 31
0.0
  0
LINE
  5
25f
100
AcDbEntity
  8
0
100
AcDbLine
 62
     160
 10
1.84299
 20
4.63878
 30
0.0
 11
1.81153
 21
4.63878
 31
0.0
  0
LINE
  5
260
100
AcDbEntity
  8
0
100
AcDbLine
 62
     160
 10
1.81153
 20
4.63878
 30
0.0
 11
1.81153
 21
4.14074
 31
0.0
  0
LINE
  5
261
100
AcDbEntity
  8
0
100
AcDbLine
 62
     160
 10
1.81153
 20
4.14074
 30
0.0
 11
1.84299
 21
4.14074
 31
0.0
  0
LINE
  5
262
100
AcDbEntity
  8
0
100
AcDbLine
 62
     160
 10
1.84299
 20
4.14074
 30
0.0
 11
1.84299
 21
4.11714
 31
0.0
  0
LINE
  5
263
100
AcDbEntity
  8
0
100
AcDbLine
 62
     160
 10
1.84299
 20
4.11714
 30
0.0
 11
2.38829
 21
4.11714
 31
0.0
  0
LINE
  5
264
100
AcDbEntity
  8
0
100
AcDbLine
 62
     160
 10
2.38829
 20
4.11714
 30
0.0
 11
2.38829
 21
4.14074
 31
0.0
  0
LINE
  5
265
100
AcDbEntity
  8
0
100
AcDbLine
 62
     160
 10
2.38829
 20
4.14074
 30
0.0
 11
2.41976
 21
4.14074
 31
0.0
  0
LINE
  5
266
100
AcDbEntity
  8
0
100
AcDbLine
 62
     160
 10
2.41976
 20
4.14074
 30
0.0
 11
2.41976
 21
4.63878
 31
0.0
  0
LINE
  5
267
100
AcDbEntity
  8
0
100
AcDbLine
 62
     160
 10
2.41976
 20
4.63878
 30
0.0
 11
2.38829
 21
4.63878
 31
0.0
  0
LINE
  5
268
100
AcDbEntity
  8
0
100
AcDbLine
 62
     160
 10
2.38829
 20
4.63878
 30
0.0
 11
2.38829
 21
4.66243
 31
0.0
  0
LINE
  5
269
100
AcDbEntity
  8
0
100
AcDbLine
 62
     160
 10
2.38829
 20
4.66243
 30
0.0
 11
1.84299
 21
4.66243
 31
0.0
  0
LINE
  5
26a
100
AcDbEntity
  8
0
100
AcDbLine
 62
     160
 10
3.34299
 20
4.66243
 30
0.0
 11
3.34299
 21
4.63878
 31
0.0
  0
LINE
  5
26b
100
AcDbEntity
  8
0
100
AcDbLine
 62
     160
 10
3.34299
 20
4.63878
 30
0.0
 11
3.31153
 21
4.63878
 31
0.0
  0
LINE
  5
26c
100
AcDbEntity
  8
0
100
AcDbLine
 62
     160
 10
3.31153
 20
4.63878
 30
0.0
 11
3.31153
 21
4.14074
 31
0.0
  0
LINE
  5
26d
100
AcDbEntity
  8
0
100
AcDbLine
 62
     160
 10
3.31153
 20
4.14074
 30
0.0
 11
3.34299
 21
4.14074
 31
0.0
  0
LINE
  5
26e
100
AcDbEntity
  8
0
100
AcDbLine
 62
     160
 10
3.34299
 20
4.14074
 30
0.0
 11
3.34299
 21
4.11714
 31
0.0
  0
LINE
  5
26f
100
AcDbEntity
  8
0
100
AcDbLine
 62
     160
 10
3.34299
 20
4.11714
 30
0.0
 11
3.88829
 21
4.11714
 31
0.0
  0
LINE
  5
270
100
AcDbEntity
  8
0
100
AcDbLine
 62
     160
 10
3.88829
 20
4.11714
 30
0.0
 11
3.88829
 21
4.14074
 31
0.0
  0
LINE
  5
271
100
AcDbEntity
  8
0
100
AcDbLine
 62
     160
 10
3.88829
 20
4.14074
 30
0.0
 11
3.91976
 21
4.14074
 31
0.0
  0
LINE
  5
272
100
AcDbEntity
  8
0
100
AcDbLine
 62
     160
 10
3.91976
 20
4.14074
 30
0.0
 11
3.91976
 21
4.63878
 31
0.0
  0
LINE
  5
273
100
AcDbEntity
  8
0
100
AcDbLine
 62
     160
 10
3.91976
 20
4.63878
 30
0.0
 11
3.88829
 21
4.63878
 31
0.0
  0
LINE
  5
274
100
AcDbEntity
  8
0
100
AcDbLine
 62
     160
 10
3.88829
 20
4.63878
 30
0.0
 11
3.88829
 21
4.66243
 31
0.0
  0
LINE
  5
275
100
AcDbEntity
  8
0
100
AcDbLine
 62
     160
 10
3.88829
 20
4.66243
 30
0.0
 11
3.34299
 21
4.66243
 31
0.0
  0
LINE
  5
276
100
AcDbEntity
  8
0
100
AcDbLine
 62
     160
 10
2.59299
 20
4.75613
 30
0.0
 11
2.59299
 21
4.73253
 31
0.0
  0
LINE
  5
277
100
AcDbEntity
  8
0
100
AcDbLine
 62
     160
 10
2.59299
 20
4.73253
 30
0.0
 11
2.56153
 21
4.73253
 31
0.0
  0
LINE
  5
278
100
AcDbEntity
  8
0
100
AcDbLine
 62
     160
 10
2.56153
 20
4.73253
 30
0.0
 11
2.56153
 21
4.23449
 31
0.0
  0
LINE
  5
279
100
AcDbEntity
  8
0
100
AcDbLine
 62
     160
 10
2.56153
 20
4.23449
 30
0.0
 11
2.59299
 21
4.23449
 31
0.0
  0
LINE
  5
27a
100
AcDbEntity
  8
0
100
AcDbLine
 62
     160
 10
2.59299
 20
4.23449
 30
0.0
 11
2.59299
 21
4.21089
 31
0.0
  0
LINE
  5
27b
100
AcDbEntity
  8
0
100
AcDbLine
 62
     160
 10
2.59299
 20
4.21089
 30
0.0
 11
3.13829
 21
4.21089
 31
0.0
  0
LINE
  5
27c
100
AcDbEntity
  8
0
100
AcDbLine
 62
     160
 10
3.13829
 20
4.21089
 30
0.0
 11
3.13829
 21
4.23449
 31
0.0
  0
LINE
  5
27d
100
AcDbEntity
  8
0
100
AcDbLine
 62
     160
 10
3.13829
 20
4.23449
 30
0.0
 11
3.16976
 21
4.23449
 31
0.0
  0
LINE
  5
27e
100
AcDbEntity
  8
0
100
AcDbLine
 62
     160
 10
3.16976
 20
4.23449
 30
0.0
 11
3.16976
 21
4.73253
 31
0.0
  0
LINE
  5
27f
100
AcDbEntity
  8
0
100
AcDbLine
 62
     160
 10
3.16976
 20
4.73253
 30
0.0
 11
3.13829
 21
4.73253
 31
0.0
  0
LINE
  5
280
100
AcDbEntity
  8
0
100
AcDbLine
 62
     160
 10
3.13829
 20
4.73253
 30
0.0
 11
3.13829
 21
4.75613
 31
0.0
  0
LINE
  5
281
100
AcDbEntity
  8
0
100
AcDbLine
 62
     160
 10
3.13829
 20
4.75613
 30
0.0
 11
2.59299
 21
4.75613
 31
0.0
  0
LINE
  5
282
100
AcDbEntity
  8
0
100
AcDbLine
 62
     160
 10
5.58122
 20
1.62614
 30
0.0
 11
5.56076
 21
1.63797
 31
0.0
  0
LINE
  5
283
100
AcDbEntity
  8
0
100
AcDbLine
 62
     160
 10
5.56076
 20
1.63797
 30
0.0
 11
5.57671
 21
1.66558
 31
0.0
  0
LINE
  5
284
100
AcDbEntity
  8
0
100
AcDbLine
 62
     160
 10
5.57671
 20
1.66558
 30
0.0
 11
5.14492
 21
1.91493
 31
0.0
  0
LINE
  5
285
100
AcDbEntity
  8
0
100
AcDbLine
 62
     160
 10
5.14492
 20
1.91493
 30
0.0
 11
5.12896
 21
1.88726
 31
0.0
  0
LINE
  5
286
100
AcDbEntity
  8
0
100
AcDbLine
 62
     160
 10
5.12896
 20
1.88726
 30
0.0
 11
5.10851
 21
1.89903
 31
0.0
  0
LINE
  5
287
100
AcDbEntity
  8
0
100
AcDbLine
 62
     160
 10
5.10851
 20
1.89903
 30
0.0
 11
5.05018
 21
1.79801
 31
0.0
  0
LINE
  5
288
100
AcDbEntity
  8
0
100
AcDbLine
 62
     160
 10
5.05018
 20
1.79801
 30
0.0
 11
5.0249
 21
1.81261
 31
0.0
  0
LINE
  5
289
100
AcDbEntity
  8
0
100
AcDbLine
 62
     160
 10
5.0249
 20
1.81261
 30
0.0
 11
4.96311
 21
1.70557
 31
0.0
  0
LINE
  5
28a
100
AcDbEntity
  8
0
100
AcDbLine
 62
     160
 10
4.96311
 20
1.70557
 30
0.0
 11
4.98833
 21
1.69097
 31
0.0
  0
LINE
  5
28b
100
AcDbEntity
  8
0
100
AcDbLine
 62
     160
 10
4.98833
 20
1.69097
 30
0.0
 11
4.58143
 21
0.986111
 31
0.0
  0
LINE
  5
28c
100
AcDbEntity
  8
0
100
AcDbLine
 62
     160
 10
4.58143
 20
0.986111
 30
0.0
 11
4.55615
 21
1.00071
 31
0.0
  0
LINE
  5
28d
100
AcDbEntity
  8
0
100
AcDbLine
 62
     160
 10
4.55615
 20
1.00071
 30
0.0
 11
4.49436
 21
0.893664
 31
0.0
  0
LINE
  5
28e
100
AcDbEntity
  8
0
100
AcDbLine
 62
     160
 10
4.49436
 20
0.893664
 30
0.0
 11
4.51958
 21
0.879069
 31
0.0
  0
LINE
  5
28f
100
AcDbEntity
  8
0
100
AcDbLine
 62
     160
 10
4.51958
 20
0.879069
 30
0.0
 11
4.46126
 21
0.778049
 31
0.0
  0
LINE
  5
290
100
AcDbEntity
  8
0
100
AcDbLine
 62
     160
 10
4.46126
 20
0.778049
 30
0.0
 11
4.48172
 21
0.766222
 31
0.0
  0
LINE
  5
291
100
AcDbEntity
  8
0
100
AcDbLine
 62
     160
 10
4.48172
 20
0.766222
 30
0.0
 11
4.46576
 21
0.738553
 31
0.0
  0
LINE
  5
292
100
AcDbEntity
  8
0
100
AcDbLine
 62
     160
 10
4.46576
 20
0.738553
 30
0.0
 11
4.89757
 21
0.489258
 31
0.0
  0
LINE
  5
293
100
AcDbEntity
  8
0
100
AcDbLine
 62
     160
 10
4.89757
 20
0.489258
 30
0.0
 11
4.91351
 21
0.516928
 31
0.0
  0
LINE
  5
294
100
AcDbEntity
  8
0
100
AcDbLine
 62
     160
 10
4.91351
 20
0.516928
 30
0.0
 11
4.93397
 21
0.5051
 31
0.0
  0
LINE
  5
295
100
AcDbEntity
  8
0
100
AcDbLine
 62
     160
 10
4.93397
 20
0.5051
 30
0.0
 11
5.58122
 21
1.62614
 31
0.0
  0
SPLINE
  5
296
100
AcDbEntity
  8
0
100
AcDbSpline
210
0.0
220
0.0
230
1.0
 62
     1
 70
     0
 71
     3
 72
     8
 73
4
 40
0.0
 40
0.0
 40
0.0
 40
0.0
 40
1.0
 40
1.0
 40
1.0
 40
1.0
 10
4.96392
 20
0.00401476
 30
0.0
 10
4.94336
 20
0.00401476
 30
0.0
 10
4.92301
 20
0.00938585
 30
0.0
 10
4.90489
 20
0.0198025
 30
0.0
  0
LINE
  5
297
100
AcDbEntity
  8
0
100
AcDbLine
 62
     1
 10
4.90489
 20
0.0198025
 30
0.0
 11
4.80257
 21
0.0788846
 31
0.0
  0
SPLINE
  5
298
100
AcDbEntity
  8
0
100
AcDbSpline
210
0.0
220
0.0
230
1.0
 62
     1
 70
     0
 71
     3
 72
     8
 73
4
 40
0.0
 40
0.0
 40
0.0
 40
0.0
 40
1.0
 40
1.0
 40
1.0
 40
1.0
 10
4.80257
 20
0.0788846
 30
0.0
 10
4.18744
 20
0.433811
 30
0.0
 10
3.68099
 20
0.490289
 30
0.0
 10
3.19114
 20
0.544922
 30
0.0
  0
SPLINE
  5
299
100
AcDbEntity
  8
0
100
AcDbSpline
210
0.0
220
0.0
230
1.0
 62
     1
 70
     0
 71
     3
 72
     8
 73
4
 40
0.0
 40
0.0
 40
0.0
 40
0.0
 40
1.0
 40
1.0
 40
1.0
 40
1.0
 10
3.19114
 20
0.544922
 30
0.0
 10
3.06342
 20
0.55919
 30
0.0
 10
2.93181
 20
0.573839
 30
0.0
 10
2.80203
 20
0.593533
 30
0.0
  0
LINE
  5
29a
100
AcDbEntity
  8
0
100
AcDbLine
 62
     1
 10
2.80203
 20
0.593533
 30
0.0
 11
2.70161
 21
0.608778
 31
0.0
  0
SPLINE
  5
29b
100
AcDbEntity
  8
0
100
AcDbSpline
210
0.0
220
0.0
230
1.0
 62
     1
 70
     0
 71
     3
 72
     8
 73
4
 40
0.0
 40
0.0
 40
0.0
 40
0.0
 40
1.0
 40
1.0
 40
1.0
 40
1.0
 10
2.70161
 20
0.608778
 30
0.0
 10
2.64387
 20
0.617512
 30
0.0
 10
2.60124
 20
0.667156
 30
0.0
 10
2.60124
 20
0.725532
 30
0.0
  0
LINE
  5
29c
100
AcDbEntity
  8
0
100
AcDbLine
 62
     1
 10
2.60124
 20
0.725532
 30
0.0
 11
2.60124
 21
1.22282
 31
0.0
  0
SPLINE
  5
29d
100
AcDbEntity
  8
0
100
AcDbSpline
210
0.0
220
0.0
230
1.0
 62
     1
 70
     0
 71
     3
 72
     8
 73
4
 40
0.0
 40
0.0
 40
0.0
 40
0.0
 40
1.0
 40
1.0
 40
1.0
 40
1.0
 10
2.60124
 20
1.22282
 30
0.0
 10
2.60124
 20
1.28798
 30
0.0
 10
2.54839
 20
1.34087
 30
0.0
 10
2.48318
 20
1.34087
 30
0.0
  0
LINE
  5
29e
100
AcDbEntity
  8
0
100
AcDbLine
 62
     1
 10
2.48318
 20
1.34087
 30
0.0
 11
0.122125
 21
1.34087
 31
0.0
  0
SPLINE
  5
29f
100
AcDbEntity
  8
0
100
AcDbSpline
210
0.0
220
0.0
230
1.0
 62
     1
 70
     0
 71
     3
 72
     8
 73
4
 40
0.0
 40
0.0
 40
0.0
 40
0.0
 40
1.0
 40
1.0
 40
1.0
 40
1.0
 10
0.122125
 20
1.34087
 30
0.0
 10
0.0569119
 20
1.34087
 30
0.0
 10
0.00401476
 20
1.39372
 30
0.0
 10
0.00401476
 20
1.45899
 30
0.0
  0
LINE
  5
2a0
100
AcDbEntity
  8
0
100
AcDbLine
 62
     1
 10
0.00401476
 20
1.45899
 30
0.0
 11
0.00401476
 21
4.66758
 31
0.0
  0
SPLINE
  5
2a1
100
AcDbEntity
  8
0
100
AcDbSpline
210
0.0
220
0.0
230
1.0
 62
     1
 70
     0
 71
     3
 72
     8
 73
4
 40
0.0
 40
0.0
 40
0.0
 40
0.0
 40
1.0
 40
1.0
 40
1.0
 40
1.0
 10
0.00401476
 20
4.66758
 30
0.0
 10
0.00401476
 20
4.72103
 30
0.0
 10
0.0398221
 20
4.76779
 30
0.0
 10
0.0914171
 20
4.78168
 30
0.0
  0
LINE
  5
2a2
100
AcDbEntity
  8
0
100
AcDbLine
 62
     1
 10
0.0914171
 20
4.78168
 30
0.0
 11
0.178819
 21
4.80518
 31
0.0
  0
SPLINE
  5
2a3
100
AcDbEntity
  8
0
100
AcDbSpline
210
0.0
220
0.0
230
1.0
 62
     1
 70
     0
 71
     3
 72
     8
 73
4
 40
0.0
 40
0.0
 40
0.0
 40
0.0
 40
1.0
 40
1.0
 40
1.0
 40
1.0
 10
0.178819
 20
4.80518
 30
0.0
 10
1.33496
 20
5.11632
 30
0.0
 10
2.27593
 20
5.26758
 30
0.0
 10
3.05561
 20
5.26758
 30
0.0
  0
SPLINE
  5
2a4
100
AcDbEntity
  8
0
100
AcDbSpline
210
0.0
220
0.0
230
1.0
 62
     1
 70
     0
 71
     3
 72
     8
 73
4
 40
0.0
 40
0.0
 40
0.0
 40
0.0
 40
1.0
 40
1.0
 40
1.0
 40
1.0
 10
3.05561
 20
5.26758
 30
0.0
 10
3.78179
 20
5.26758
 30
0.0
 10
4.36963
 20
5.14031
 30
0.0
 10
4.85275
 20
4.87853
 30
0.0
  0
LINE
  5
2a5
100
AcDbEntity
  8
0
100
AcDbLine
 62
     1
 10
4.85275
 20
4.87853
 30
0.0
 11
4.91461
 21
4.845
 31
0.0
  0
SPLINE
  5
2a6
100
AcDbEntity
  8
0
100
AcDbSpline
210
0.0
220
0.0
230
1.0
 62
     1
 70
     0
 71
     3
 72
     8
 73
4
 40
0.0
 40
0.0
 40
0.0
 40
0.0
 40
1.0
 40
1.0
 40
1.0
 40
1.0
 10
4.91461
 20
4.845
 30
0.0
 10
4.95269
 20
4.82438
 30
0.0
 10
4.9764
 20
4.7845
 30
0.0
 10
4.9764
 20
4.74115
 30
0.0
  0
LINE
  5
2a7
100
AcDbEntity
  8
0
100
AcDbLine
 62
     1
 10
4.9764
 20
4.74115
 30
0.0
 11
4.9764
 21
2.79585
 31
0.0
  0
SPLINE
  5
2a8
100
AcDbEntity
  8
0
100
AcDbSpline
210
0.0
220
0.0
230
1.0
 62
     1
 70
     0
 71
     3
 72
     8
 73
4
 40
0.0
 40
0.0
 40
0.0
 40
0.0
 40
1.0
 40
1.0
 40
1.0
 40
1.0
 10
4.9764
 20
2.79585
 30
0.0
 10
4.9764
 20
2.52382
 30
0.0
 10
5.25646
 20
2.31619
 30
0.0
 10
5.88417
 20
1.95383
 30
0.0
  0
LINE
  5
2a9
100
AcDbEntity
  8
0
100
AcDbLine
 62
     1
 10
5.88417
 20
1.95383
 30
0.0
 11
5.98643
 21
1.89481
 31
0.0
  0
SPLINE
  5
2aa
100
AcDbEntity
  8
0
100
AcDbSpline
210
0.0
220
0.0
230
1.0
 62
     1
 70
     0
 71
     3
 72
     8
 73
4
 40
0.0
 40
0.0
 40
0.0
 40
0.0
 40
1.0
 40
1.0
 40
1.0
 40
1.0
 10
5.98643
 20
1.89481
 30
0.0
 10
6.04286
 20
1.86219
 30
0.0
 10
6.06222
 20
1.78999
 30
0.0
 10
6.02968
 20
1.73351
 30
0.0
  0
LINE
  5
2ab
100
AcDbEntity
  8
0
100
AcDbLine
 62
     1
 10
6.02968
 20
1.73351
 30
0.0
 11
5.06625
 21
0.0630968
 31
0.0
  0
SPLINE
  5
2ac
100
AcDbEntity
  8
0
100
AcDbSpline
210
0.0
220
0.0
230
1.0
 62
     1
 70
     0
 71
     3
 72
     8
 73
4
 40
0.0
 40
0.0
 40
0.0
 40
0.0
 40
1.0
 40
1.0
 40
1.0
 40
1.0
 10
5.06625
 20
0.0630968
 30
0.0
 10
5.05057
 20
0.03597
 30
0.0
 10
5.02479
 20
0.0161675
 30
0.0
 10
4.99451
 20
0.00802951
 30
0.0
  0
SPLINE
  5
2ad
100
AcDbEntity
  8
0
100
AcDbSpline
210
0.0
220
0.0
230
1.0
 62
     1
 70
     0
 71
     3
 72
     8
 73
4
 40
0.0
 40
0.0
 40
0.0
 40
0.0
 40
1.0
 40
1.0
 40
1.0
 40
1.0
 10
4.99451
 20
0.00802951
 30
0.0
 10
4.98449
 20
0.00531685
 30
0.0
 10
4.97418
 20
0.00401476
 30
0.0
 10
4.96392
 20
0.00401476
 30
0.0
  0
LINE
  5
2ae
100
AcDbEntity
  8
0
100
AcDbLine
 62
     1
 10
4.96392
 20
0.00401476
 30
0.0
 11
4.96392
 21
0.00401476
 31
0.0
  0
ENDSEC
  0
SECTION
  2
OBJECTS
  0
DICTIONARY
  5
C
330
0
100
AcDbDictionary
  3
ACAD_GROUP
350
D
  3
ACAD_LAYOUT
350
1A
  3
ACAD_MLINESTYLE
350
17
  3
ACAD_PLOTSETTINGS
350
19
  3
ACAD_PLOTSTYLENAME
350
E
  3
ACDBHEADERROUNDTRIPXREC
350
2F
  0
DICTIONARY
  5
52
330
1F
100
AcDbDictionary
280
     1
  3
ACAD_LAYOUTSELFREF
360
53
  0
DICTIONARY
  5
50
330
1B
100
AcDbDictionary
280
     1
  3
ACAD_LAYOUTSELFREF
360
51
  0
DICTIONARY
  5
D
102
{ACAD_REACTORS
330
C
102
}
330
C
100
AcDbDictionary
  0
DICTIONARY
  5
1A
102
{ACAD_REACTORS
330
C
102
}
330
C
100
AcDbDictionary
  0
DICTIONARY
  5
17
102
{ACAD_REACTORS
330
C
102
}
330
C
100
AcDbDictionary
  3
STANDARD
350
18
  0
DICTIONARY
  5
19
102
{ACAD_REACTORS
330
C
102
}
330
C
100
AcDbDictionary
  0
ACDBDICTIONARYWDFLT
  5
E
102
{ACAD_REACTORS
330
C
102
}
330
C
100
AcDbDictionary
281
     1
  3
Normal
350
F
100
AcDbDictionaryWithDefault
340
F
  0
DICTIONARY
  5
2F
102
{ACAD_REACTORS
330
C
102
}
330
C
100
AcDbDictionary
  3
CEPSNTYPE
350
39
  3
DIMSTYLEDATA
350
3D
  3
FINGERPRINTGUID
350
3A
  3
HYPERLINKBASE
350
32
  3
INSUNITS
350
38
  3
LAYOUTDICT
350
34
  3
LWETCUNION
350
37
  3
PLOTSETDICT
350
35
  3
PLOTSTYLNAMDICT
350
36
  3
PSVPSCALE
350
3C
  3
PUCSBASE
350
40
  3
PUCSORGBACK
350
46
  3
PUCSORGBOTTOM
350
42
  3
PUCSORGFRONT
350
45
  3
PUCSORGLEFT
350
43
  3
PUCSORGRIGHT
350
44
  3
PUCSORGTOP
350
41
  3
PUCSORTHOREF
350
3E
  3
PUCSORTHOVIEW
350
3F
  3
STYLESHEET
350
33
  3
TSTACKALIGN
350
30
  3
TSTACKSIZE
350
31
  3
UCSBASE
350
49
  3
UCSORGBACK
350
4F
  3
UCSORGBOTTOM
350
4B
  3
UCSORGFRONT
350
4E
  3
UCSORGLEFT
350
4C
  3
UCSORGRIGHT
350
4D
  3
UCSORGTOP
350
4A
  3
UCSORTHOREF
350
47
  3
UCSORTHOVIEW
350
48
  3
VERSIONGUID
350
3B
  0
XRECORD
  5
53
102
{ACAD_REACTORS
330
52
102
}
330
52
100
AcDbXrecord
340
1F
  0
XRECORD
  5
51
102
{ACAD_REACTORS
330
50
102
}
330
50
100
AcDbXrecord
340
1B
  0
MLINESTYLE
  5
18
102
{ACAD_REACTORS
330
17
102
}
330
17
100
AcDbMlineStyle
  2
STANDARD
 70
     0
  3

 62
   256
 51
90.0
 52
90.0
 71
     2
 49
0.5
 62
   256
  6
BYLAYER
 49
-0.5
 62
   256
  6
BYLAYER
  0
ACDBPLACEHOLDER
  5
F
102
{ACAD_REACTORS
330
E
102
}
330
E
100
AcDbPlaceHolder
280
     0
  0
XRECORD
  5
39
102
{ACAD_REACTORS
330
2F
102
}
330
2F
100
AcDbXrecord
 90
        0
  0
XRECORD
  5
3D
102
{ACAD_REACTORS
330
2F
102
}
330
2F
100
AcDbXrecord
1000
DSTYLE
1002
{
1070
   278
 70
    44
1002
}
  0
XRECORD
  5
3A
102
{ACAD_REACTORS
330
2F
102
}
330
2F
100
AcDbXrecord
  1
{705446A6-11D0-4548-8F8C-A97DCA50327D}
  0
XRECORD
  5
32
102
{ACAD_REACTORS
330
2F
102
}
330
2F
100
AcDbXrecord
  1

  0
XRECORD
  5
38
102
{ACAD_REACTORS
330
2F
102
}
330
2F
100
AcDbXrecord
 90
        4
  0
XRECORD
  5
34
102
{ACAD_REACTORS
330
2F
102
}
330
2F
100
AcDbXrecord
340
1A
  0
XRECORD
  5
37
102
{ACAD_REACTORS
330
2F
102
}
330
2F
100
AcDbXrecord
 90
    10781
  0
XRECORD
  5
35
102
{ACAD_REACTORS
330
2F
102
}
330
2F
100
AcDbXrecord
340
19
  0
XRECORD
  5
36
102
{ACAD_REACTORS
330
2F
102
}
330
2F
100
AcDbXrecord
340
E
  0
XRECORD
  5
3C
102
{ACAD_REACTORS
330
2F
102
}
330
2F
100
AcDbXrecord
 40
0.0
  0
XRECORD
  5
40
102
{ACAD_REACTORS
330
2F
102
}
330
2F
100
AcDbXrecord
340
0
  0
XRECORD
  5
46
102
{ACAD_REACTORS
330
2F
102
}
330
2F
100
AcDbXrecord
 10
0.0
 20
0.0
 30
0.0
  0
XRECORD
  5
42
102
{ACAD_REACTORS
330
2F
102
}
330
2F
100
AcDbXrecord
 10
0.0
 20
0.0
 30
0.0
  0
XRECORD
  5
45
102
{ACAD_REACTORS
330
2F
102
}
330
2F
100
AcDbXrecord
 10
0.0
 20
0.0
 30
0.0
  0
XRECORD
  5
43
102
{ACAD_REACTORS
330
2F
102
}
330
2F
100
AcDbXrecord
 10
0.0
 20
0.0
 30
0.0
  0
XRECORD
  5
44
102
{ACAD_REACTORS
330
2F
102
}
330
2F
100
AcDbXrecord
 10
0.0
 20
0.0
 30
0.0
  0
XRECORD
  5
41
102
{ACAD_REACTORS
330
2F
102
}
330
2F
100
AcDbXrecord
 10
0.0
 20
0.0
 30
0.0
  0
XRECORD
  5
3E
102
{ACAD_REACTORS
330
2F
102
}
330
2F
100
AcDbXrecord
340
0
  0
XRECORD
  5
3F
102
{ACAD_REACTORS
330
2F
102
}
330
2F
100
AcDbXrecord
 70
     0
  0
XRECORD
  5
33
102
{ACAD_REACTORS
330
2F
102
}
330
2F
100
AcDbXrecord
  1

  0
XRECORD
  5
30
102
{ACAD_REACTORS
330
2F
102
}
330
2F
100
AcDbXrecord
 90
        1
  0
XRECORD
  5
31
102
{ACAD_REACTORS
330
2F
102
}
330
2F
100
AcDbXrecord
 90
       70
  0
XRECORD
  5
49
102
{ACAD_REACTORS
330
2F
102
}
330
2F
100
AcDbXrecord
340
0
  0
XRECORD
  5
4F
102
{ACAD_REACTORS
330
2F
102
}
330
2F
100
AcDbXrecord
 10
0.0
 20
0.0
 30
0.0
  0
XRECORD
  5
4B
102
{ACAD_REACTORS
330
2F
102
}
330
2F
100
AcDbXrecord
 10
0.0
 20
0.0
 30
0.0
  0
XRECORD
  5
4E
102
{ACAD_REACTORS
330
2F
102
}
330
2F
100
AcDbXrecord
 10
0.0
 20
0.0
 30
0.0
  0
XRECORD
  5
4C
102
{ACAD_REACTORS
330
2F
102
}
330
2F
100
AcDbXrecord
 10
0.0
 20
0.0
 30
0.0
  0
XRECORD
  5
4D
102
{ACAD_REACTORS
330
2F
102
}
330
2F
100
AcDbXrecord
 10
0.0
 20
0.0
 30
0.0
  0
XRECORD
  5
4A
102
{ACAD_REACTORS
330
2F
102
}
330
2F
100
AcDbXrecord
 10
0.0
 20
0.0
 30
0.0
  0
XRECORD
  5
47
102
{ACAD_REACTORS
330
2F
102
}
330
2F
100
AcDbXrecord
340
0
  0
XRECORD
  5
48
102
{ACAD_REACTORS
330
2F
102
}
330
2F
100
AcDbXrecord
 70
     0
  0
XRECORD
  5
3B
102
{ACAD_REACTORS
330
2F
102
}
330
2F
100
AcDbXrecord
  1
{33328E3A-B6B8-4979-86B7-D70DEC2867C2}
  0
ENDSEC
  0
EOF
