  0
SECTION
  2
HEADER
  9
$ACADVER
  1
AC1014
  9
$EXTMIN
 10
70.16401489310567
 20
112.369642808922
 30
0.0
  9
$EXTMAX
 10
277.0834797641999
 20
227.1366601424358
 30
0.0
  9
$HANDSEED
  5
56
  9
$MEASUREMENT
 70
1
  0
ENDSEC
  0
SECTION
  2
TABLES
  0
TABLE
  2
VPORT
  5
8
330
0
100
AcDbSymbolTable
 70
     4
  0
VPORT
  5
2E
330
8
100
AcDbSymbolTableRecord
100
AcDbViewportTableRecord
  2
*ACTIVE
 70
     0
 10
0.0
 20
0.0
 11
1.0
 21
1.0
 12
209.9999999999999
 22
148.4999999999999
 13
0.0
 23
0.0
 14
10.0
 24
10.0
 15
10.0
 25
10.0
 16
0.0
 26
0.0
 36
1.0
 17
0.0
 27
0.0
 37
0.0
 40
340.9950045922664
 41
1.239944521497919
 42
50.0
 43
0.0
 44
0.0
 50
0.0
 51
0.0
 71
     0
 72
   100
 73
     1
 74
     3
 75
     0
 76
     0
 77
     0
 78
     0
  0
ENDTAB
  0
TABLE
  2
LTYPE
  5
5
330
0
100
AcDbSymbolTable
 70
     1
  0
LTYPE
  5
14
330
5
100
AcDbSymbolTableRecord
100
AcDbLinetypeTableRecord
  2
BYBLOCK
 70
     0
  3

 72
    65
 73
     0
 40
0.0
  0
LTYPE
  5
15
330
5
100
AcDbSymbolTableRecord
100
AcDbLinetypeTableRecord
  2
BYLAYER
 70
     0
  3

 72
    65
 73
     0
 40
0.0
  0
LTYPE
  5
16
330
5
100
AcDbSymbolTableRecord
100
AcDbLinetypeTableRecord
  2
CONTINUOUS
 70
     0
  3
Solid line
 72
    65
 73
     0
 40
0.0
  0
ENDTAB
  0
TABLE
  2
LAYER
  5
2
330
0
100
AcDbSymbolTable
 70
1
  0
LAYER
  5
10
330
2
100
AcDbSymbolTableRecord
100
AcDbLayerTableRecord
  2
0
 70
     0
 62
     7
  6
CONTINUOUS
  0
ENDTAB
  0
TABLE
  2
STYLE
  5
3
330
0
100
AcDbSymbolTable
 70
     1
  0
STYLE
  5
11
330
3
100
AcDbSymbolTableRecord
100
AcDbTextStyleTableRecord
  2
STANDARD
 70
     0
 40
0.0
 41
1.0
 50
0.0
 71
     0
 42
2.5
  3
txt
  4

  0
ENDTAB
  0
TABLE
  2
VIEW
  5
6
330
0
100
AcDbSymbolTable
 70
     0
  0
ENDTAB
  0
TABLE
  2
UCS
  5
7
330
0
100
AcDbSymbolTable
 70
     0
  0
ENDTAB
  0
TABLE
  2
APPID
  5
9
330
0
100
AcDbSymbolTable
 70
     2
  0
APPID
  5
12
330
9
100
AcDbSymbolTableRecord
100
AcDbRegAppTableRecord
  2
ACAD
 70
     0
  0
APPID
  5
2B
330
9
100
AcDbSymbolTableRecord
100
AcDbRegAppTableRecord
  2
URBANX
 70
     0
  0
ENDTAB
  0
TABLE
  2
DIMSTYLE
  5
A
330
0
100
AcDbSymbolTable
 70
     1
  0
DIMSTYLE
105
27
330
A
100
AcDbSymbolTableRecord
100
AcDbDimStyleTableRecord
  2
ISO-25
 70
     0
  3

  4

  5

  6

  7

 40
1.0
 41
2.5
 42
0.625
 43
3.75
 44
1.25
 45
0.0
 46
0.0
 47
0.0
 48
0.0
140
2.5
141
2.5
142
0.0
143
0.03937007874016
144
1.0
145
0.0
146
1.0
147
0.625
 71
     0
 72
     0
 73
     0
 74
     0
 75
     0
 76
     0
 77
     1
 78
     8
170
     0
171
     3
172
     1
173
     0
174
     0
175
     0
176
     0
177
     0
178
     0
270
     2
271
     2
272
     2
273
     2
274
     3
340
11
275
     0
280
     0
281
     0
282
     0
283
     0
284
     8
285
     0
286
     0
287
     3
288
     0
  0
ENDTAB
  0
TABLE
  2
BLOCK_RECORD
  5
1
330
0
100
AcDbSymbolTable
 70
     1
  0
BLOCK_RECORD
  5
1F
102
{ACAD_XDICTIONARY
360
52
102
}
330
1
100
AcDbSymbolTableRecord
100
AcDbBlockTableRecord
  2
*MODEL_SPACE
  0
BLOCK_RECORD
  5
1B
102
{ACAD_XDICTIONARY
360
50
102
}
330
1
100
AcDbSymbolTableRecord
100
AcDbBlockTableRecord
  2
*PAPER_SPACE
  0
ENDTAB
  0
ENDSEC
  0
SECTION
  2
BLOCKS
  0
BLOCK
  5
20
330
1F
100
AcDbEntity
  8
0
100
AcDbBlockBegin
  2
*MODEL_SPACE
 70
     0
 10
0.0
 20
0.0
 30
0.0
  3
*MODEL_SPACE
  1

  0
ENDBLK
  5
21
330
1F
100
AcDbEntity
  8
0
100
AcDbBlockEnd
  0
BLOCK
  5
1C
330
1B
100
AcDbEntity
 67
     1
  8
0
100
AcDbBlockBegin
  2
*PAPER_SPACE
  1

  0
ENDBLK
  5
1D
330
1B
100
AcDbEntity
 67
     1
  8
0
100
AcDbBlockEnd
  0
ENDSEC
  0
SECTION
  2
ENTITIES
  0
LINE
  5
ff
100
AcDbEntity
  8
0
100
AcDbLine
 62
     7
 10
0
 20
134.056
 30
0.0
 11
153.635
 21
134.056
 31
0.0
  0
LINE
  5
100
100
AcDbEntity
  8
0
100
AcDbLine
 62
     7
 10
153.635
 20
134.056
 30
0.0
 11
153.635
 21
0.176389
 31
0.0
  0
LINE
  5
101
100
AcDbEntity
  8
0
100
AcDbLine
 62
     7
 10
153.635
 20
0.176389
 30
0.0
 11
0
 21
0.176389
 31
0.0
  0
LINE
  5
102
100
AcDbEntity
  8
0
100
AcDbLine
 62
     7
 10
0
 20
0.176389
 30
0.0
 11
0
 21
134.056
 31
0.0
  0
SPLINE
  5
103
100
AcDbEntity
  8
0
100
AcDbSpline
210
0.0
220
0.0
230
1.0
 62
     242
 70
     0
 71
     3
 72
     8
 73
4
 40
0.0
 40
0.0
 40
0.0
 40
0.0
 40
1.0
 40
1.0
 40
1.0
 40
1.0
 10
148.59
 20
38.064
 30
0.0
 10
148.59
 20
37.5006
 30
0.0
 10
149.085
 20
37.0417
 30
0.0
 10
149.648
 20
37.0417
 30
0.0
  0
SPLINE
  5
104
100
AcDbEntity
  8
0
100
AcDbSpline
210
0.0
220
0.0
230
1.0
 62
     242
 70
     0
 71
     3
 72
     8
 73
4
 40
0.0
 40
0.0
 40
0.0
 40
0.0
 40
1.0
 40
1.0
 40
1.0
 40
1.0
 10
149.648
 20
37.0417
 30
0.0
 10
150.213
 20
37.0417
 30
0.0
 10
150.706
 20
37.5006
 30
0.0
 10
150.706
 20
38.064
 30
0.0
  0
SPLINE
  5
105
100
AcDbEntity
  8
0
100
AcDbSpline
210
0.0
220
0.0
230
1.0
 62
     242
 70
     0
 71
     3
 72
     8
 73
4
 40
0.0
 40
0.0
 40
0.0
 40
0.0
 40
1.0
 40
1.0
 40
1.0
 40
1.0
 10
150.706
 20
38.064
 30
0.0
 10
150.706
 20
38.6651
 30
0.0
 10
150.213
 20
39.1224
 30
0.0
 10
149.648
 20
39.1224
 30
0.0
  0
SPLINE
  5
106
100
AcDbEntity
  8
0
100
AcDbSpline
210
0.0
220
0.0
230
1.0
 62
     242
 70
     0
 71
     3
 72
     8
 73
4
 40
0.0
 40
0.0
 40
0.0
 40
0.0
 40
1.0
 40
1.0
 40
1.0
 40
1.0
 10
149.648
 20
39.1224
 30
0.0
 10
149.085
 20
39.1224
 30
0.0
 10
148.59
 20
38.6651
 30
0.0
 10
148.59
 20
38.064
 30
0.0
  0
LINE
  5
107
100
AcDbEntity
  8
0
100
AcDbLine
 62
     242
 10
148.59
 20
38.064
 30
0.0
 11
148.59
 21
38.064
 31
0.0
  0
SPLINE
  5
108
100
AcDbEntity
  8
0
100
AcDbSpline
210
0.0
220
0.0
230
1.0
 62
     242
 70
     0
 71
     3
 72
     8
 73
4
 40
0.0
 40
0.0
 40
0.0
 40
0.0
 40
1.0
 40
1.0
 40
1.0
 40
1.0
 10
82.8326
 20
19.2264
 30
0.0
 10
82.8326
 20
18.6269
 30
0.0
 10
83.3258
 20
18.1681
 30
0.0
 10
83.8909
 20
18.1681
 30
0.0
  0
SPLINE
  5
109
100
AcDbEntity
  8
0
100
AcDbSpline
210
0.0
220
0.0
230
1.0
 62
     242
 70
     0
 71
     3
 72
     8
 73
4
 40
0.0
 40
0.0
 40
0.0
 40
0.0
 40
1.0
 40
1.0
 40
1.0
 40
1.0
 10
83.8909
 20
18.1681
 30
0.0
 10
84.4543
 20
18.1681
 30
0.0
 10
84.9492
 20
18.6269
 30
0.0
 10
84.9492
 20
19.2264
 30
0.0
  0
SPLINE
  5
10a
100
AcDbEntity
  8
0
100
AcDbSpline
210
0.0
220
0.0
230
1.0
 62
     242
 70
     0
 71
     3
 72
     8
 73
4
 40
0.0
 40
0.0
 40
0.0
 40
0.0
 40
1.0
 40
1.0
 40
1.0
 40
1.0
 10
84.9492
 20
19.2264
 30
0.0
 10
84.9492
 20
19.7914
 30
0.0
 10
84.4543
 20
20.2847
 30
0.0
 10
83.8909
 20
20.2847
 30
0.0
  0
SPLINE
  5
10b
100
AcDbEntity
  8
0
100
AcDbSpline
210
0.0
220
0.0
230
1.0
 62
     242
 70
     0
 71
     3
 72
     8
 73
4
 40
0.0
 40
0.0
 40
0.0
 40
0.0
 40
1.0
 40
1.0
 40
1.0
 40
1.0
 10
83.8909
 20
20.2847
 30
0.0
 10
83.3258
 20
20.2847
 30
0.0
 10
82.8326
 20
19.7914
 30
0.0
 10
82.8326
 20
19.2264
 30
0.0
  0
LINE
  5
10c
100
AcDbEntity
  8
0
100
AcDbLine
 62
     242
 10
82.8326
 20
19.2264
 30
0.0
 11
82.8326
 21
19.2264
 31
0.0
  0
SPLINE
  5
10d
100
AcDbEntity
  8
0
100
AcDbSpline
210
0.0
220
0.0
230
1.0
 62
     242
 70
     0
 71
     3
 72
     8
 73
4
 40
0.0
 40
0.0
 40
0.0
 40
0.0
 40
1.0
 40
1.0
 40
1.0
 40
1.0
 10
26.8111
 20
4.48
 30
0.0
 10
26.8111
 20
3.88056
 30
0.0
 10
27.27
 20
3.42167
 30
0.0
 10
27.8336
 20
3.42167
 30
0.0
  0
SPLINE
  5
10e
100
AcDbEntity
  8
0
100
AcDbSpline
210
0.0
220
0.0
230
1.0
 62
     242
 70
     0
 71
     3
 72
     8
 73
4
 40
0.0
 40
0.0
 40
0.0
 40
0.0
 40
1.0
 40
1.0
 40
1.0
 40
1.0
 10
27.8336
 20
3.42167
 30
0.0
 10
28.4345
 20
3.42167
 30
0.0
 10
28.8919
 20
3.88056
 30
0.0
 10
28.8919
 20
4.48
 30
0.0
  0
SPLINE
  5
10f
100
AcDbEntity
  8
0
100
AcDbSpline
210
0.0
220
0.0
230
1.0
 62
     242
 70
     0
 71
     3
 72
     8
 73
4
 40
0.0
 40
0.0
 40
0.0
 40
0.0
 40
1.0
 40
1.0
 40
1.0
 40
1.0
 10
28.8919
 20
4.48
 30
0.0
 10
28.8919
 20
5.045
 30
0.0
 10
28.4345
 20
5.5039
 30
0.0
 10
27.8336
 20
5.5039
 30
0.0
  0
SPLINE
  5
110
100
AcDbEntity
  8
0
100
AcDbSpline
210
0.0
220
0.0
230
1.0
 62
     242
 70
     0
 71
     3
 72
     8
 73
4
 40
0.0
 40
0.0
 40
0.0
 40
0.0
 40
1.0
 40
1.0
 40
1.0
 40
1.0
 10
27.8336
 20
5.5039
 30
0.0
 10
27.27
 20
5.5039
 30
0.0
 10
26.8111
 20
5.045
 30
0.0
 10
26.8111
 20
4.48
 30
0.0
  0
LINE
  5
111
100
AcDbEntity
  8
0
100
AcDbLine
 62
     242
 10
26.8111
 20
4.48
 30
0.0
 11
26.8111
 21
4.48
 31
0.0
  0
SPLINE
  5
112
100
AcDbEntity
  8
0
100
AcDbSpline
210
0.0
220
0.0
230
1.0
 62
     242
 70
     0
 71
     3
 72
     8
 73
4
 40
0.0
 40
0.0
 40
0.0
 40
0.0
 40
1.0
 40
1.0
 40
1.0
 40
1.0
 10
3.24528
 20
45.3679
 30
0.0
 10
3.24528
 20
44.7668
 30
0.0
 10
3.74001
 20
44.3096
 30
0.0
 10
4.30361
 20
44.3096
 30
0.0
  0
SPLINE
  5
113
100
AcDbEntity
  8
0
100
AcDbSpline
210
0.0
220
0.0
230
1.0
 62
     242
 70
     0
 71
     3
 72
     8
 73
4
 40
0.0
 40
0.0
 40
0.0
 40
0.0
 40
1.0
 40
1.0
 40
1.0
 40
1.0
 10
4.30361
 20
44.3096
 30
0.0
 10
4.90305
 20
44.3096
 30
0.0
 10
5.36194
 20
44.7668
 30
0.0
 10
5.36194
 20
45.3679
 30
0.0
  0
SPLINE
  5
114
100
AcDbEntity
  8
0
100
AcDbSpline
210
0.0
220
0.0
230
1.0
 62
     242
 70
     0
 71
     3
 72
     8
 73
4
 40
0.0
 40
0.0
 40
0.0
 40
0.0
 40
1.0
 40
1.0
 40
1.0
 40
1.0
 10
5.36194
 20
45.3679
 30
0.0
 10
5.36194
 20
45.9313
 30
0.0
 10
4.90305
 20
46.3903
 30
0.0
 10
4.30361
 20
46.3903
 30
0.0
  0
SPLINE
  5
115
100
AcDbEntity
  8
0
100
AcDbSpline
210
0.0
220
0.0
230
1.0
 62
     242
 70
     0
 71
     3
 72
     8
 73
4
 40
0.0
 40
0.0
 40
0.0
 40
0.0
 40
1.0
 40
1.0
 40
1.0
 40
1.0
 10
4.30361
 20
46.3903
 30
0.0
 10
3.74001
 20
46.3903
 30
0.0
 10
3.24528
 20
45.9313
 30
0.0
 10
3.24528
 20
45.3679
 30
0.0
  0
LINE
  5
116
100
AcDbEntity
  8
0
100
AcDbLine
 62
     242
 10
3.24528
 20
45.3679
 30
0.0
 11
3.24528
 21
45.3679
 31
0.0
  0
SPLINE
  5
117
100
AcDbEntity
  8
0
100
AcDbSpline
210
0.0
220
0.0
230
1.0
 62
     242
 70
     0
 71
     3
 72
     8
 73
4
 40
0.0
 40
0.0
 40
0.0
 40
0.0
 40
1.0
 40
1.0
 40
1.0
 40
1.0
 10
29.6333
 20
120.333
 30
0.0
 10
29.6333
 20
119.732
 30
0.0
 10
30.1267
 20
119.275
 30
0.0
 10
30.6917
 20
119.275
 30
0.0
  0
SPLINE
  5
118
100
AcDbEntity
  8
0
100
AcDbSpline
210
0.0
220
0.0
230
1.0
 62
     242
 70
     0
 71
     3
 72
     8
 73
4
 40
0.0
 40
0.0
 40
0.0
 40
0.0
 40
1.0
 40
1.0
 40
1.0
 40
1.0
 10
30.6917
 20
119.275
 30
0.0
 10
31.2911
 20
119.275
 30
0.0
 10
31.75
 20
119.732
 30
0.0
 10
31.75
 20
120.333
 30
0.0
  0
SPLINE
  5
119
100
AcDbEntity
  8
0
100
AcDbSpline
210
0.0
220
0.0
230
1.0
 62
     242
 70
     0
 71
     3
 72
     8
 73
4
 40
0.0
 40
0.0
 40
0.0
 40
0.0
 40
1.0
 40
1.0
 40
1.0
 40
1.0
 10
31.75
 20
120.333
 30
0.0
 10
31.75
 20
120.933
 30
0.0
 10
31.2911
 20
121.392
 30
0.0
 10
30.6917
 20
121.392
 30
0.0
  0
SPLINE
  5
11a
100
AcDbEntity
  8
0
100
AcDbSpline
210
0.0
220
0.0
230
1.0
 62
     242
 70
     0
 71
     3
 72
     8
 73
4
 40
0.0
 40
0.0
 40
0.0
 40
0.0
 40
1.0
 40
1.0
 40
1.0
 40
1.0
 10
30.6917
 20
121.392
 30
0.0
 10
30.1267
 20
121.392
 30
0.0
 10
29.6333
 20
120.933
 30
0.0
 10
29.6333
 20
120.333
 30
0.0
  0
LINE
  5
11b
100
AcDbEntity
  8
0
100
AcDbLine
 62
     242
 10
29.6333
 20
120.333
 30
0.0
 11
29.6333
 21
120.333
 31
0.0
  0
SPLINE
  5
11c
100
AcDbEntity
  8
0
100
AcDbSpline
210
0.0
220
0.0
230
1.0
 62
     242
 70
     0
 71
     3
 72
     8
 73
4
 40
0.0
 40
0.0
 40
0.0
 40
0.0
 40
1.0
 40
1.0
 40
1.0
 40
1.0
 10
50.2006
 20
128.517
 30
0.0
 10
50.2006
 20
127.952
 30
0.0
 10
50.6596
 20
127.459
 30
0.0
 10
51.259
 20
127.459
 30
0.0
  0
SPLINE
  5
11d
100
AcDbEntity
  8
0
100
AcDbSpline
210
0.0
220
0.0
230
1.0
 62
     242
 70
     0
 71
     3
 72
     8
 73
4
 40
0.0
 40
0.0
 40
0.0
 40
0.0
 40
1.0
 40
1.0
 40
1.0
 40
1.0
 10
51.259
 20
127.459
 30
0.0
 10
51.8223
 20
127.459
 30
0.0
 10
52.3173
 20
127.952
 30
0.0
 10
52.3173
 20
128.517
 30
0.0
  0
SPLINE
  5
11e
100
AcDbEntity
  8
0
100
AcDbSpline
210
0.0
220
0.0
230
1.0
 62
     242
 70
     0
 71
     3
 72
     8
 73
4
 40
0.0
 40
0.0
 40
0.0
 40
0.0
 40
1.0
 40
1.0
 40
1.0
 40
1.0
 10
52.3173
 20
128.517
 30
0.0
 10
52.3173
 20
129.117
 30
0.0
 10
51.8223
 20
129.576
 30
0.0
 10
51.259
 20
129.576
 30
0.0
  0
SPLINE
  5
11f
100
AcDbEntity
  8
0
100
AcDbSpline
210
0.0
220
0.0
230
1.0
 62
     242
 70
     0
 71
     3
 72
     8
 73
4
 40
0.0
 40
0.0
 40
0.0
 40
0.0
 40
1.0
 40
1.0
 40
1.0
 40
1.0
 10
51.259
 20
129.576
 30
0.0
 10
50.6596
 20
129.576
 30
0.0
 10
50.2006
 20
129.117
 30
0.0
 10
50.2006
 20
128.517
 30
0.0
  0
LINE
  5
120
100
AcDbEntity
  8
0
100
AcDbLine
 62
     242
 10
50.2006
 20
128.517
 30
0.0
 11
50.2006
 21
128.517
 31
0.0
  0
SPLINE
  5
121
100
AcDbEntity
  8
0
100
AcDbSpline
210
0.0
220
0.0
230
1.0
 62
     242
 70
     0
 71
     3
 72
     8
 73
4
 40
0.0
 40
0.0
 40
0.0
 40
0.0
 40
1.0
 40
1.0
 40
1.0
 40
1.0
 10
100.083
 20
129.153
 30
0.0
 10
100.083
 20
128.552
 30
0.0
 10
100.578
 20
128.094
 30
0.0
 10
101.141
 20
128.094
 30
0.0
  0
SPLINE
  5
122
100
AcDbEntity
  8
0
100
AcDbSpline
210
0.0
220
0.0
230
1.0
 62
     242
 70
     0
 71
     3
 72
     8
 73
4
 40
0.0
 40
0.0
 40
0.0
 40
0.0
 40
1.0
 40
1.0
 40
1.0
 40
1.0
 10
101.141
 20
128.094
 30
0.0
 10
101.706
 20
128.094
 30
0.0
 10
102.199
 20
128.552
 30
0.0
 10
102.199
 20
129.153
 30
0.0
  0
SPLINE
  5
123
100
AcDbEntity
  8
0
100
AcDbSpline
210
0.0
220
0.0
230
1.0
 62
     242
 70
     0
 71
     3
 72
     8
 73
4
 40
0.0
 40
0.0
 40
0.0
 40
0.0
 40
1.0
 40
1.0
 40
1.0
 40
1.0
 10
102.199
 20
129.153
 30
0.0
 10
102.199
 20
129.752
 30
0.0
 10
101.706
 20
130.211
 30
0.0
 10
101.141
 20
130.211
 30
0.0
  0
SPLINE
  5
124
100
AcDbEntity
  8
0
100
AcDbSpline
210
0.0
220
0.0
230
1.0
 62
     242
 70
     0
 71
     3
 72
     8
 73
4
 40
0.0
 40
0.0
 40
0.0
 40
0.0
 40
1.0
 40
1.0
 40
1.0
 40
1.0
 10
101.141
 20
130.211
 30
0.0
 10
100.578
 20
130.211
 30
0.0
 10
100.083
 20
129.752
 30
0.0
 10
100.083
 20
129.153
 30
0.0
  0
LINE
  5
125
100
AcDbEntity
  8
0
100
AcDbLine
 62
     242
 10
100.083
 20
129.153
 30
0.0
 11
100.083
 21
129.153
 31
0.0
  0
SPLINE
  5
126
100
AcDbEntity
  8
0
100
AcDbSpline
210
0.0
220
0.0
230
1.0
 62
     242
 70
     0
 71
     3
 72
     8
 73
4
 40
0.0
 40
0.0
 40
0.0
 40
0.0
 40
1.0
 40
1.0
 40
1.0
 40
1.0
 10
148.802
 20
118.357
 30
0.0
 10
148.802
 20
117.792
 30
0.0
 10
149.261
 20
117.299
 30
0.0
 10
149.86
 20
117.299
 30
0.0
  0
SPLINE
  5
127
100
AcDbEntity
  8
0
100
AcDbSpline
210
0.0
220
0.0
230
1.0
 62
     242
 70
     0
 71
     3
 72
     8
 73
4
 40
0.0
 40
0.0
 40
0.0
 40
0.0
 40
1.0
 40
1.0
 40
1.0
 40
1.0
 10
149.86
 20
117.299
 30
0.0
 10
150.424
 20
117.299
 30
0.0
 10
150.919
 20
117.792
 30
0.0
 10
150.919
 20
118.357
 30
0.0
  0
SPLINE
  5
128
100
AcDbEntity
  8
0
100
AcDbSpline
210
0.0
220
0.0
230
1.0
 62
     242
 70
     0
 71
     3
 72
     8
 73
4
 40
0.0
 40
0.0
 40
0.0
 40
0.0
 40
1.0
 40
1.0
 40
1.0
 40
1.0
 10
150.919
 20
118.357
 30
0.0
 10
150.919
 20
118.956
 30
0.0
 10
150.424
 20
119.415
 30
0.0
 10
149.86
 20
119.415
 30
0.0
  0
SPLINE
  5
129
100
AcDbEntity
  8
0
100
AcDbSpline
210
0.0
220
0.0
230
1.0
 62
     242
 70
     0
 71
     3
 72
     8
 73
4
 40
0.0
 40
0.0
 40
0.0
 40
0.0
 40
1.0
 40
1.0
 40
1.0
 40
1.0
 10
149.86
 20
119.415
 30
0.0
 10
149.261
 20
119.415
 30
0.0
 10
148.802
 20
118.956
 30
0.0
 10
148.802
 20
118.357
 30
0.0
  0
LINE
  5
12a
100
AcDbEntity
  8
0
100
AcDbLine
 62
     242
 10
148.802
 20
118.357
 30
0.0
 11
148.802
 21
118.357
 31
0.0
  0
SPLINE
  5
12b
100
AcDbEntity
  8
0
100
AcDbSpline
210
0.0
220
0.0
230
1.0
 62
     242
 70
     0
 71
     3
 72
     8
 73
4
 40
0.0
 40
0.0
 40
0.0
 40
0.0
 40
1.0
 40
1.0
 40
1.0
 40
1.0
 10
127.459
 20
97.3667
 30
0.0
 10
127.459
 20
96.7673
 30
0.0
 10
127.918
 20
96.3083
 30
0.0
 10
128.517
 20
96.3083
 30
0.0
  0
SPLINE
  5
12c
100
AcDbEntity
  8
0
100
AcDbSpline
210
0.0
220
0.0
230
1.0
 62
     242
 70
     0
 71
     3
 72
     8
 73
4
 40
0.0
 40
0.0
 40
0.0
 40
0.0
 40
1.0
 40
1.0
 40
1.0
 40
1.0
 10
128.517
 20
96.3083
 30
0.0
 10
129.081
 20
96.3083
 30
0.0
 10
129.576
 20
96.7673
 30
0.0
 10
129.576
 20
97.3667
 30
0.0
  0
SPLINE
  5
12d
100
AcDbEntity
  8
0
100
AcDbSpline
210
0.0
220
0.0
230
1.0
 62
     242
 70
     0
 71
     3
 72
     8
 73
4
 40
0.0
 40
0.0
 40
0.0
 40
0.0
 40
1.0
 40
1.0
 40
1.0
 40
1.0
 10
129.576
 20
97.3667
 30
0.0
 10
129.576
 20
97.9318
 30
0.0
 10
129.081
 20
98.425
 30
0.0
 10
128.517
 20
98.425
 30
0.0
  0
SPLINE
  5
12e
100
AcDbEntity
  8
0
100
AcDbSpline
210
0.0
220
0.0
230
1.0
 62
     242
 70
     0
 71
     3
 72
     8
 73
4
 40
0.0
 40
0.0
 40
0.0
 40
0.0
 40
1.0
 40
1.0
 40
1.0
 40
1.0
 10
128.517
 20
98.425
 30
0.0
 10
127.918
 20
98.425
 30
0.0
 10
127.459
 20
97.9318
 30
0.0
 10
127.459
 20
97.3667
 30
0.0
  0
LINE
  5
12f
100
AcDbEntity
  8
0
100
AcDbLine
 62
     242
 10
127.459
 20
97.3667
 30
0.0
 11
127.459
 21
97.3667
 31
0.0
  0
SPLINE
  5
130
100
AcDbEntity
  8
0
100
AcDbSpline
210
0.0
220
0.0
230
1.0
 62
     242
 70
     0
 71
     3
 72
     8
 73
4
 40
0.0
 40
0.0
 40
0.0
 40
0.0
 40
1.0
 40
1.0
 40
1.0
 40
1.0
 10
127.459
 20
59.2667
 30
0.0
 10
127.459
 20
58.6673
 30
0.0
 10
127.918
 20
58.2083
 30
0.0
 10
128.517
 20
58.2083
 30
0.0
  0
SPLINE
  5
131
100
AcDbEntity
  8
0
100
AcDbSpline
210
0.0
220
0.0
230
1.0
 62
     242
 70
     0
 71
     3
 72
     8
 73
4
 40
0.0
 40
0.0
 40
0.0
 40
0.0
 40
1.0
 40
1.0
 40
1.0
 40
1.0
 10
128.517
 20
58.2083
 30
0.0
 10
129.081
 20
58.2083
 30
0.0
 10
129.576
 20
58.6673
 30
0.0
 10
129.576
 20
59.2667
 30
0.0
  0
SPLINE
  5
132
100
AcDbEntity
  8
0
100
AcDbSpline
210
0.0
220
0.0
230
1.0
 62
     242
 70
     0
 71
     3
 72
     8
 73
4
 40
0.0
 40
0.0
 40
0.0
 40
0.0
 40
1.0
 40
1.0
 40
1.0
 40
1.0
 10
129.576
 20
59.2667
 30
0.0
 10
129.576
 20
59.8318
 30
0.0
 10
129.081
 20
60.325
 30
0.0
 10
128.517
 20
60.325
 30
0.0
  0
SPLINE
  5
133
100
AcDbEntity
  8
0
100
AcDbSpline
210
0.0
220
0.0
230
1.0
 62
     242
 70
     0
 71
     3
 72
     8
 73
4
 40
0.0
 40
0.0
 40
0.0
 40
0.0
 40
1.0
 40
1.0
 40
1.0
 40
1.0
 10
128.517
 20
60.325
 30
0.0
 10
127.918
 20
60.325
 30
0.0
 10
127.459
 20
59.8318
 30
0.0
 10
127.459
 20
59.2667
 30
0.0
  0
LINE
  5
134
100
AcDbEntity
  8
0
100
AcDbLine
 62
     242
 10
127.459
 20
59.2667
 30
0.0
 11
127.459
 21
59.2667
 31
0.0
  0
SPLINE
  5
135
100
AcDbEntity
  8
0
100
AcDbSpline
210
0.0
220
0.0
230
1.0
 62
     242
 70
     0
 71
     3
 72
     8
 73
4
 40
0.0
 40
0.0
 40
0.0
 40
0.0
 40
1.0
 40
1.0
 40
1.0
 40
1.0
 10
51.259
 20
62.8304
 30
0.0
 10
51.259
 20
62.2653
 30
0.0
 10
51.7179
 20
61.7721
 30
0.0
 10
52.3173
 20
61.7721
 30
0.0
  0
SPLINE
  5
136
100
AcDbEntity
  8
0
100
AcDbSpline
210
0.0
220
0.0
230
1.0
 62
     242
 70
     0
 71
     3
 72
     8
 73
4
 40
0.0
 40
0.0
 40
0.0
 40
0.0
 40
1.0
 40
1.0
 40
1.0
 40
1.0
 10
52.3173
 20
61.7721
 30
0.0
 10
52.8807
 20
61.7721
 30
0.0
 10
53.3756
 20
62.2653
 30
0.0
 10
53.3756
 20
62.8304
 30
0.0
  0
SPLINE
  5
137
100
AcDbEntity
  8
0
100
AcDbSpline
210
0.0
220
0.0
230
1.0
 62
     242
 70
     0
 71
     3
 72
     8
 73
4
 40
0.0
 40
0.0
 40
0.0
 40
0.0
 40
1.0
 40
1.0
 40
1.0
 40
1.0
 10
53.3756
 20
62.8304
 30
0.0
 10
53.3756
 20
63.4298
 30
0.0
 10
52.8807
 20
63.8888
 30
0.0
 10
52.3173
 20
63.8888
 30
0.0
  0
SPLINE
  5
138
100
AcDbEntity
  8
0
100
AcDbSpline
210
0.0
220
0.0
230
1.0
 62
     242
 70
     0
 71
     3
 72
     8
 73
4
 40
0.0
 40
0.0
 40
0.0
 40
0.0
 40
1.0
 40
1.0
 40
1.0
 40
1.0
 10
52.3173
 20
63.8888
 30
0.0
 10
51.7179
 20
63.8888
 30
0.0
 10
51.259
 20
63.4298
 30
0.0
 10
51.259
 20
62.8304
 30
0.0
  0
LINE
  5
139
100
AcDbEntity
  8
0
100
AcDbLine
 62
     242
 10
51.259
 20
62.8304
 30
0.0
 11
51.259
 21
62.8304
 31
0.0
  0
SPLINE
  5
13a
100
AcDbEntity
  8
0
100
AcDbSpline
210
0.0
220
0.0
230
1.0
 62
     242
 70
     0
 71
     3
 72
     8
 73
4
 40
0.0
 40
0.0
 40
0.0
 40
0.0
 40
1.0
 40
1.0
 40
1.0
 40
1.0
 10
51.259
 20
100.93
 30
0.0
 10
51.259
 20
100.365
 30
0.0
 10
51.7179
 20
99.8721
 30
0.0
 10
52.3173
 20
99.8721
 30
0.0
  0
SPLINE
  5
13b
100
AcDbEntity
  8
0
100
AcDbSpline
210
0.0
220
0.0
230
1.0
 62
     242
 70
     0
 71
     3
 72
     8
 73
4
 40
0.0
 40
0.0
 40
0.0
 40
0.0
 40
1.0
 40
1.0
 40
1.0
 40
1.0
 10
52.3173
 20
99.8721
 30
0.0
 10
52.8807
 20
99.8721
 30
0.0
 10
53.3756
 20
100.365
 30
0.0
 10
53.3756
 20
100.93
 30
0.0
  0
SPLINE
  5
13c
100
AcDbEntity
  8
0
100
AcDbSpline
210
0.0
220
0.0
230
1.0
 62
     242
 70
     0
 71
     3
 72
     8
 73
4
 40
0.0
 40
0.0
 40
0.0
 40
0.0
 40
1.0
 40
1.0
 40
1.0
 40
1.0
 10
53.3756
 20
100.93
 30
0.0
 10
53.3756
 20
101.53
 30
0.0
 10
52.8807
 20
101.989
 30
0.0
 10
52.3173
 20
101.989
 30
0.0
  0
SPLINE
  5
13d
100
AcDbEntity
  8
0
100
AcDbSpline
210
0.0
220
0.0
230
1.0
 62
     242
 70
     0
 71
     3
 72
     8
 73
4
 40
0.0
 40
0.0
 40
0.0
 40
0.0
 40
1.0
 40
1.0
 40
1.0
 40
1.0
 10
52.3173
 20
101.989
 30
0.0
 10
51.7179
 20
101.989
 30
0.0
 10
51.259
 20
101.53
 30
0.0
 10
51.259
 20
100.93
 30
0.0
  0
LINE
  5
13e
100
AcDbEntity
  8
0
100
AcDbLine
 62
     242
 10
51.259
 20
100.93
 30
0.0
 11
51.259
 21
100.93
 31
0.0
  0
SPLINE
  5
13f
100
AcDbEntity
  8
0
100
AcDbSpline
210
0.0
220
0.0
230
1.0
 62
     242
 70
     0
 71
     3
 72
     8
 73
4
 40
0.0
 40
0.0
 40
0.0
 40
0.0
 40
1.0
 40
1.0
 40
1.0
 40
1.0
 10
17.0036
 20
54.7867
 30
0.0
 10
17.0036
 20
54.2216
 30
0.0
 10
17.4983
 20
53.7284
 30
0.0
 10
18.0619
 20
53.7284
 30
0.0
  0
SPLINE
  5
140
100
AcDbEntity
  8
0
100
AcDbSpline
210
0.0
220
0.0
230
1.0
 62
     242
 70
     0
 71
     3
 72
     8
 73
4
 40
0.0
 40
0.0
 40
0.0
 40
0.0
 40
1.0
 40
1.0
 40
1.0
 40
1.0
 10
18.0619
 20
53.7284
 30
0.0
 10
18.6614
 20
53.7284
 30
0.0
 10
19.1203
 20
54.2216
 30
0.0
 10
19.1203
 20
54.7867
 30
0.0
  0
SPLINE
  5
141
100
AcDbEntity
  8
0
100
AcDbSpline
210
0.0
220
0.0
230
1.0
 62
     242
 70
     0
 71
     3
 72
     8
 73
4
 40
0.0
 40
0.0
 40
0.0
 40
0.0
 40
1.0
 40
1.0
 40
1.0
 40
1.0
 10
19.1203
 20
54.7867
 30
0.0
 10
19.1203
 20
55.3861
 30
0.0
 10
18.6614
 20
55.8451
 30
0.0
 10
18.0619
 20
55.8451
 30
0.0
  0
SPLINE
  5
142
100
AcDbEntity
  8
0
100
AcDbSpline
210
0.0
220
0.0
230
1.0
 62
     242
 70
     0
 71
     3
 72
     8
 73
4
 40
0.0
 40
0.0
 40
0.0
 40
0.0
 40
1.0
 40
1.0
 40
1.0
 40
1.0
 10
18.0619
 20
55.8451
 30
0.0
 10
17.4983
 20
55.8451
 30
0.0
 10
17.0036
 20
55.3861
 30
0.0
 10
17.0036
 20
54.7867
 30
0.0
  0
LINE
  5
143
100
AcDbEntity
  8
0
100
AcDbLine
 62
     242
 10
17.0036
 20
54.7867
 30
0.0
 11
17.0036
 21
54.7867
 31
0.0
  0
SPLINE
  5
144
100
AcDbEntity
  8
0
100
AcDbSpline
210
0.0
220
0.0
230
1.0
 62
     242
 70
     0
 71
     3
 72
     8
 73
4
 40
0.0
 40
0.0
 40
0.0
 40
0.0
 40
1.0
 40
1.0
 40
1.0
 40
1.0
 10
29.2103
 20
72.3554
 30
0.0
 10
29.2103
 20
71.7543
 30
0.0
 10
29.6692
 20
71.2971
 30
0.0
 10
30.2328
 20
71.2971
 30
0.0
  0
SPLINE
  5
145
100
AcDbEntity
  8
0
100
AcDbSpline
210
0.0
220
0.0
230
1.0
 62
     242
 70
     0
 71
     3
 72
     8
 73
4
 40
0.0
 40
0.0
 40
0.0
 40
0.0
 40
1.0
 40
1.0
 40
1.0
 40
1.0
 10
30.2328
 20
71.2971
 30
0.0
 10
30.8322
 20
71.2971
 30
0.0
 10
31.3269
 20
71.7543
 30
0.0
 10
31.3269
 20
72.3554
 30
0.0
  0
SPLINE
  5
146
100
AcDbEntity
  8
0
100
AcDbSpline
210
0.0
220
0.0
230
1.0
 62
     242
 70
     0
 71
     3
 72
     8
 73
4
 40
0.0
 40
0.0
 40
0.0
 40
0.0
 40
1.0
 40
1.0
 40
1.0
 40
1.0
 10
31.3269
 20
72.3554
 30
0.0
 10
31.3269
 20
72.9188
 30
0.0
 10
30.8322
 20
73.4138
 30
0.0
 10
30.2328
 20
73.4138
 30
0.0
  0
SPLINE
  5
147
100
AcDbEntity
  8
0
100
AcDbSpline
210
0.0
220
0.0
230
1.0
 62
     242
 70
     0
 71
     3
 72
     8
 73
4
 40
0.0
 40
0.0
 40
0.0
 40
0.0
 40
1.0
 40
1.0
 40
1.0
 40
1.0
 10
30.2328
 20
73.4138
 30
0.0
 10
29.6692
 20
73.4138
 30
0.0
 10
29.2103
 20
72.9188
 30
0.0
 10
29.2103
 20
72.3554
 30
0.0
  0
LINE
  5
148
100
AcDbEntity
  8
0
100
AcDbLine
 62
     242
 10
29.2103
 20
72.3554
 30
0.0
 11
29.2103
 21
72.3554
 31
0.0
  0
SPLINE
  5
149
100
AcDbEntity
  8
0
100
AcDbSpline
210
0.0
220
0.0
230
1.0
 62
     242
 70
     0
 71
     3
 72
     8
 73
4
 40
0.0
 40
0.0
 40
0.0
 40
0.0
 40
1.0
 40
1.0
 40
1.0
 40
1.0
 10
34.6081
 20
36.0535
 30
0.0
 10
34.6081
 20
35.4901
 30
0.0
 10
35.1014
 20
35.0311
 30
0.0
 10
35.6665
 20
35.0311
 30
0.0
  0
SPLINE
  5
14a
100
AcDbEntity
  8
0
100
AcDbSpline
210
0.0
220
0.0
230
1.0
 62
     242
 70
     0
 71
     3
 72
     8
 73
4
 40
0.0
 40
0.0
 40
0.0
 40
0.0
 40
1.0
 40
1.0
 40
1.0
 40
1.0
 10
35.6665
 20
35.0311
 30
0.0
 10
36.2659
 20
35.0311
 30
0.0
 10
36.7249
 20
35.4901
 30
0.0
 10
36.7249
 20
36.0535
 30
0.0
  0
SPLINE
  5
14b
100
AcDbEntity
  8
0
100
AcDbSpline
210
0.0
220
0.0
230
1.0
 62
     242
 70
     0
 71
     3
 72
     8
 73
4
 40
0.0
 40
0.0
 40
0.0
 40
0.0
 40
1.0
 40
1.0
 40
1.0
 40
1.0
 10
36.7249
 20
36.0535
 30
0.0
 10
36.7249
 20
36.6529
 30
0.0
 10
36.2659
 20
37.1119
 30
0.0
 10
35.6665
 20
37.1119
 30
0.0
  0
SPLINE
  5
14c
100
AcDbEntity
  8
0
100
AcDbSpline
210
0.0
220
0.0
230
1.0
 62
     242
 70
     0
 71
     3
 72
     8
 73
4
 40
0.0
 40
0.0
 40
0.0
 40
0.0
 40
1.0
 40
1.0
 40
1.0
 40
1.0
 10
35.6665
 20
37.1119
 30
0.0
 10
35.1014
 20
37.1119
 30
0.0
 10
34.6081
 20
36.6529
 30
0.0
 10
34.6081
 20
36.0535
 30
0.0
  0
LINE
  5
14d
100
AcDbEntity
  8
0
100
AcDbLine
 62
     242
 10
34.6081
 20
36.0535
 30
0.0
 11
34.6081
 21
36.0535
 31
0.0
  0
LINE
  5
14e
100
AcDbEntity
  8
0
100
AcDbLine
 62
     165
 10
59.2307
 20
37.641
 30
0.0
 11
59.2307
 21
37.0417
 31
0.0
  0
LINE
  5
14f
100
AcDbEntity
  8
0
100
AcDbLine
 62
     165
 10
59.2307
 20
37.0417
 30
0.0
 11
60.0424
 21
37.0417
 31
0.0
  0
LINE
  5
150
100
AcDbEntity
  8
0
100
AcDbLine
 62
     165
 10
60.0424
 20
37.0417
 30
0.0
 11
60.0424
 21
24.3775
 31
0.0
  0
LINE
  5
151
100
AcDbEntity
  8
0
100
AcDbLine
 62
     165
 10
60.0424
 20
24.3775
 30
0.0
 11
59.2307
 21
24.3775
 31
0.0
  0
LINE
  5
152
100
AcDbEntity
  8
0
100
AcDbLine
 62
     165
 10
59.2307
 20
24.3775
 30
0.0
 11
59.2307
 21
23.7767
 31
0.0
  0
LINE
  5
153
100
AcDbEntity
  8
0
100
AcDbLine
 62
     165
 10
59.2307
 20
23.7767
 30
0.0
 11
45.3679
 21
23.7767
 31
0.0
  0
LINE
  5
154
100
AcDbEntity
  8
0
100
AcDbLine
 62
     165
 10
45.3679
 20
23.7767
 30
0.0
 11
45.3679
 21
24.3775
 31
0.0
  0
LINE
  5
155
100
AcDbEntity
  8
0
100
AcDbLine
 62
     165
 10
45.3679
 20
24.3775
 30
0.0
 11
44.5562
 21
24.3775
 31
0.0
  0
LINE
  5
156
100
AcDbEntity
  8
0
100
AcDbLine
 62
     165
 10
44.5562
 20
24.3775
 30
0.0
 11
44.5562
 21
37.0417
 31
0.0
  0
LINE
  5
157
100
AcDbEntity
  8
0
100
AcDbLine
 62
     165
 10
44.5562
 20
37.0417
 30
0.0
 11
45.3679
 21
37.0417
 31
0.0
  0
LINE
  5
158
100
AcDbEntity
  8
0
100
AcDbLine
 62
     165
 10
45.3679
 20
37.0417
 30
0.0
 11
45.3679
 21
37.641
 31
0.0
  0
LINE
  5
159
100
AcDbEntity
  8
0
100
AcDbLine
 62
     165
 10
45.3679
 20
37.641
 30
0.0
 11
59.2307
 21
37.641
 31
0.0
  0
LINE
  5
15a
100
AcDbEntity
  8
0
100
AcDbLine
 62
     165
 10
78.2807
 20
40.0043
 30
0.0
 11
78.2807
 21
39.4049
 31
0.0
  0
LINE
  5
15b
100
AcDbEntity
  8
0
100
AcDbLine
 62
     165
 10
78.2807
 20
39.4049
 30
0.0
 11
79.0924
 21
39.4049
 31
0.0
  0
LINE
  5
15c
100
AcDbEntity
  8
0
100
AcDbLine
 62
     165
 10
79.0924
 20
39.4049
 30
0.0
 11
79.0924
 21
26.7408
 31
0.0
  0
LINE
  5
15d
100
AcDbEntity
  8
0
100
AcDbLine
 62
     165
 10
79.0924
 20
26.7408
 30
0.0
 11
78.2807
 21
26.7408
 31
0.0
  0
LINE
  5
15e
100
AcDbEntity
  8
0
100
AcDbLine
 62
     165
 10
78.2807
 20
26.7408
 30
0.0
 11
78.2807
 21
26.1414
 31
0.0
  0
LINE
  5
15f
100
AcDbEntity
  8
0
100
AcDbLine
 62
     165
 10
78.2807
 20
26.1414
 30
0.0
 11
64.4179
 21
26.1414
 31
0.0
  0
LINE
  5
160
100
AcDbEntity
  8
0
100
AcDbLine
 62
     165
 10
64.4179
 20
26.1414
 30
0.0
 11
64.4179
 21
26.7408
 31
0.0
  0
LINE
  5
161
100
AcDbEntity
  8
0
100
AcDbLine
 62
     165
 10
64.4179
 20
26.7408
 30
0.0
 11
63.6062
 21
26.7408
 31
0.0
  0
LINE
  5
162
100
AcDbEntity
  8
0
100
AcDbLine
 62
     165
 10
63.6062
 20
26.7408
 30
0.0
 11
63.6062
 21
39.4049
 31
0.0
  0
LINE
  5
163
100
AcDbEntity
  8
0
100
AcDbLine
 62
     165
 10
63.6062
 20
39.4049
 30
0.0
 11
64.4179
 21
39.4049
 31
0.0
  0
LINE
  5
164
100
AcDbEntity
  8
0
100
AcDbLine
 62
     165
 10
64.4179
 20
39.4049
 30
0.0
 11
64.4179
 21
40.0043
 31
0.0
  0
LINE
  5
165
100
AcDbEntity
  8
0
100
AcDbLine
 62
     165
 10
64.4179
 20
40.0043
 30
0.0
 11
78.2807
 21
40.0043
 31
0.0
  0
LINE
  5
166
100
AcDbEntity
  8
0
100
AcDbLine
 62
     165
 10
144.956
 20
56.691
 30
0.0
 11
144.956
 21
56.0917
 31
0.0
  0
LINE
  5
167
100
AcDbEntity
  8
0
100
AcDbLine
 62
     165
 10
144.956
 20
56.0917
 30
0.0
 11
145.733
 21
56.0917
 31
0.0
  0
LINE
  5
168
100
AcDbEntity
  8
0
100
AcDbLine
 62
     165
 10
145.733
 20
56.0917
 30
0.0
 11
145.733
 21
43.4276
 31
0.0
  0
LINE
  5
169
100
AcDbEntity
  8
0
100
AcDbLine
 62
     165
 10
145.733
 20
43.4276
 30
0.0
 11
144.956
 21
43.4276
 31
0.0
  0
LINE
  5
16a
100
AcDbEntity
  8
0
100
AcDbLine
 62
     165
 10
144.956
 20
43.4276
 30
0.0
 11
144.956
 21
42.8265
 31
0.0
  0
LINE
  5
16b
100
AcDbEntity
  8
0
100
AcDbLine
 62
     165
 10
144.956
 20
42.8265
 30
0.0
 11
131.093
 21
42.8265
 31
0.0
  0
LINE
  5
16c
100
AcDbEntity
  8
0
100
AcDbLine
 62
     165
 10
131.093
 20
42.8265
 30
0.0
 11
131.093
 21
43.4276
 31
0.0
  0
LINE
  5
16d
100
AcDbEntity
  8
0
100
AcDbLine
 62
     165
 10
131.093
 20
43.4276
 30
0.0
 11
130.281
 21
43.4276
 31
0.0
  0
LINE
  5
16e
100
AcDbEntity
  8
0
100
AcDbLine
 62
     165
 10
130.281
 20
43.4276
 30
0.0
 11
130.281
 21
56.0917
 31
0.0
  0
LINE
  5
16f
100
AcDbEntity
  8
0
100
AcDbLine
 62
     165
 10
130.281
 20
56.0917
 30
0.0
 11
131.093
 21
56.0917
 31
0.0
  0
LINE
  5
170
100
AcDbEntity
  8
0
100
AcDbLine
 62
     165
 10
131.093
 20
56.0917
 30
0.0
 11
131.093
 21
56.691
 31
0.0
  0
LINE
  5
171
100
AcDbEntity
  8
0
100
AcDbLine
 62
     165
 10
131.093
 20
56.691
 30
0.0
 11
144.956
 21
56.691
 31
0.0
  0
LINE
  5
172
100
AcDbEntity
  8
0
100
AcDbLine
 62
     165
 10
125.906
 20
56.691
 30
0.0
 11
125.906
 21
56.0917
 31
0.0
  0
LINE
  5
173
100
AcDbEntity
  8
0
100
AcDbLine
 62
     165
 10
125.906
 20
56.0917
 30
0.0
 11
126.683
 21
56.0917
 31
0.0
  0
LINE
  5
174
100
AcDbEntity
  8
0
100
AcDbLine
 62
     165
 10
126.683
 20
56.0917
 30
0.0
 11
126.683
 21
43.4276
 31
0.0
  0
LINE
  5
175
100
AcDbEntity
  8
0
100
AcDbLine
 62
     165
 10
126.683
 20
43.4276
 30
0.0
 11
125.906
 21
43.4276
 31
0.0
  0
LINE
  5
176
100
AcDbEntity
  8
0
100
AcDbLine
 62
     165
 10
125.906
 20
43.4276
 30
0.0
 11
125.906
 21
42.8265
 31
0.0
  0
LINE
  5
177
100
AcDbEntity
  8
0
100
AcDbLine
 62
     165
 10
125.906
 20
42.8265
 30
0.0
 11
112.043
 21
42.8265
 31
0.0
  0
LINE
  5
178
100
AcDbEntity
  8
0
100
AcDbLine
 62
     165
 10
112.043
 20
42.8265
 30
0.0
 11
112.043
 21
43.4276
 31
0.0
  0
LINE
  5
179
100
AcDbEntity
  8
0
100
AcDbLine
 62
     165
 10
112.043
 20
43.4276
 30
0.0
 11
111.231
 21
43.4276
 31
0.0
  0
LINE
  5
17a
100
AcDbEntity
  8
0
100
AcDbLine
 62
     165
 10
111.231
 20
43.4276
 30
0.0
 11
111.231
 21
56.0917
 31
0.0
  0
LINE
  5
17b
100
AcDbEntity
  8
0
100
AcDbLine
 62
     165
 10
111.231
 20
56.0917
 30
0.0
 11
112.043
 21
56.0917
 31
0.0
  0
LINE
  5
17c
100
AcDbEntity
  8
0
100
AcDbLine
 62
     165
 10
112.043
 20
56.0917
 30
0.0
 11
112.043
 21
56.691
 31
0.0
  0
LINE
  5
17d
100
AcDbEntity
  8
0
100
AcDbLine
 62
     165
 10
112.043
 20
56.691
 30
0.0
 11
125.906
 21
56.691
 31
0.0
  0
LINE
  5
17e
100
AcDbEntity
  8
0
100
AcDbLine
 62
     165
 10
49.7057
 20
59.0543
 30
0.0
 11
49.7057
 21
58.4549
 31
0.0
  0
LINE
  5
17f
100
AcDbEntity
  8
0
100
AcDbLine
 62
     165
 10
49.7057
 20
58.4549
 30
0.0
 11
50.4832
 21
58.4549
 31
0.0
  0
LINE
  5
180
100
AcDbEntity
  8
0
100
AcDbLine
 62
     165
 10
50.4832
 20
58.4549
 30
0.0
 11
50.4832
 21
45.7909
 31
0.0
  0
LINE
  5
181
100
AcDbEntity
  8
0
100
AcDbLine
 62
     165
 10
50.4832
 20
45.7909
 30
0.0
 11
49.7057
 21
45.7909
 31
0.0
  0
LINE
  5
182
100
AcDbEntity
  8
0
100
AcDbLine
 62
     165
 10
49.7057
 20
45.7909
 30
0.0
 11
49.7057
 21
45.1915
 31
0.0
  0
LINE
  5
183
100
AcDbEntity
  8
0
100
AcDbLine
 62
     165
 10
49.7057
 20
45.1915
 30
0.0
 11
35.8429
 21
45.1915
 31
0.0
  0
LINE
  5
184
100
AcDbEntity
  8
0
100
AcDbLine
 62
     165
 10
35.8429
 20
45.1915
 30
0.0
 11
35.8429
 21
45.7909
 31
0.0
  0
LINE
  5
185
100
AcDbEntity
  8
0
100
AcDbLine
 62
     165
 10
35.8429
 20
45.7909
 30
0.0
 11
35.0311
 21
45.7909
 31
0.0
  0
LINE
  5
186
100
AcDbEntity
  8
0
100
AcDbLine
 62
     165
 10
35.0311
 20
45.7909
 30
0.0
 11
35.0311
 21
58.4549
 31
0.0
  0
LINE
  5
187
100
AcDbEntity
  8
0
100
AcDbLine
 62
     165
 10
35.0311
 20
58.4549
 30
0.0
 11
35.8429
 21
58.4549
 31
0.0
  0
LINE
  5
188
100
AcDbEntity
  8
0
100
AcDbLine
 62
     165
 10
35.8429
 20
58.4549
 30
0.0
 11
35.8429
 21
59.0543
 31
0.0
  0
LINE
  5
189
100
AcDbEntity
  8
0
100
AcDbLine
 62
     165
 10
35.8429
 20
59.0543
 30
0.0
 11
49.7057
 21
59.0543
 31
0.0
  0
LINE
  5
18a
100
AcDbEntity
  8
0
100
AcDbLine
 62
     165
 10
106.856
 20
61.4193
 30
0.0
 11
106.856
 21
60.8182
 31
0.0
  0
LINE
  5
18b
100
AcDbEntity
  8
0
100
AcDbLine
 62
     165
 10
106.856
 20
60.8182
 30
0.0
 11
107.633
 21
60.8182
 31
0.0
  0
LINE
  5
18c
100
AcDbEntity
  8
0
100
AcDbLine
 62
     165
 10
107.633
 20
60.8182
 30
0.0
 11
107.633
 21
48.1902
 31
0.0
  0
LINE
  5
18d
100
AcDbEntity
  8
0
100
AcDbLine
 62
     165
 10
107.633
 20
48.1902
 30
0.0
 11
106.856
 21
48.1902
 31
0.0
  0
LINE
  5
18e
100
AcDbEntity
  8
0
100
AcDbLine
 62
     165
 10
106.856
 20
48.1902
 30
0.0
 11
106.856
 21
47.589
 31
0.0
  0
LINE
  5
18f
100
AcDbEntity
  8
0
100
AcDbLine
 62
     165
 10
106.856
 20
47.589
 30
0.0
 11
92.9929
 21
47.589
 31
0.0
  0
LINE
  5
190
100
AcDbEntity
  8
0
100
AcDbLine
 62
     165
 10
92.9929
 20
47.589
 30
0.0
 11
92.9929
 21
48.1902
 31
0.0
  0
LINE
  5
191
100
AcDbEntity
  8
0
100
AcDbLine
 62
     165
 10
92.9929
 20
48.1902
 30
0.0
 11
92.1812
 21
48.1902
 31
0.0
  0
LINE
  5
192
100
AcDbEntity
  8
0
100
AcDbLine
 62
     165
 10
92.1812
 20
48.1902
 30
0.0
 11
92.1812
 21
60.8182
 31
0.0
  0
LINE
  5
193
100
AcDbEntity
  8
0
100
AcDbLine
 62
     165
 10
92.1812
 20
60.8182
 30
0.0
 11
92.9929
 21
60.8182
 31
0.0
  0
LINE
  5
194
100
AcDbEntity
  8
0
100
AcDbLine
 62
     165
 10
92.9929
 20
60.8182
 30
0.0
 11
92.9929
 21
61.4193
 31
0.0
  0
LINE
  5
195
100
AcDbEntity
  8
0
100
AcDbLine
 62
     165
 10
92.9929
 20
61.4193
 30
0.0
 11
106.856
 21
61.4193
 31
0.0
  0
LINE
  5
196
100
AcDbEntity
  8
0
100
AcDbLine
 62
     165
 10
68.7557
 20
61.4193
 30
0.0
 11
68.7557
 21
60.8182
 31
0.0
  0
LINE
  5
197
100
AcDbEntity
  8
0
100
AcDbLine
 62
     165
 10
68.7557
 20
60.8182
 30
0.0
 11
69.5332
 21
60.8182
 31
0.0
  0
LINE
  5
198
100
AcDbEntity
  8
0
100
AcDbLine
 62
     165
 10
69.5332
 20
60.8182
 30
0.0
 11
69.5332
 21
48.1902
 31
0.0
  0
LINE
  5
199
100
AcDbEntity
  8
0
100
AcDbLine
 62
     165
 10
69.5332
 20
48.1902
 30
0.0
 11
68.7557
 21
48.1902
 31
0.0
  0
LINE
  5
19a
100
AcDbEntity
  8
0
100
AcDbLine
 62
     165
 10
68.7557
 20
48.1902
 30
0.0
 11
68.7557
 21
47.589
 31
0.0
  0
LINE
  5
19b
100
AcDbEntity
  8
0
100
AcDbLine
 62
     165
 10
68.7557
 20
47.589
 30
0.0
 11
54.8929
 21
47.589
 31
0.0
  0
LINE
  5
19c
100
AcDbEntity
  8
0
100
AcDbLine
 62
     165
 10
54.8929
 20
47.589
 30
0.0
 11
54.8929
 21
48.1902
 31
0.0
  0
LINE
  5
19d
100
AcDbEntity
  8
0
100
AcDbLine
 62
     165
 10
54.8929
 20
48.1902
 30
0.0
 11
54.0812
 21
48.1902
 31
0.0
  0
LINE
  5
19e
100
AcDbEntity
  8
0
100
AcDbLine
 62
     165
 10
54.0812
 20
48.1902
 30
0.0
 11
54.0812
 21
60.8182
 31
0.0
  0
LINE
  5
19f
100
AcDbEntity
  8
0
100
AcDbLine
 62
     165
 10
54.0812
 20
60.8182
 30
0.0
 11
54.8929
 21
60.8182
 31
0.0
  0
LINE
  5
1a0
100
AcDbEntity
  8
0
100
AcDbLine
 62
     165
 10
54.8929
 20
60.8182
 30
0.0
 11
54.8929
 21
61.4193
 31
0.0
  0
LINE
  5
1a1
100
AcDbEntity
  8
0
100
AcDbLine
 62
     165
 10
54.8929
 20
61.4193
 30
0.0
 11
68.7557
 21
61.4193
 31
0.0
  0
LINE
  5
1a2
100
AcDbEntity
  8
0
100
AcDbLine
 62
     165
 10
87.8057
 20
63.8168
 30
0.0
 11
87.8057
 21
63.2174
 31
0.0
  0
LINE
  5
1a3
100
AcDbEntity
  8
0
100
AcDbLine
 62
     165
 10
87.8057
 20
63.2174
 30
0.0
 11
88.5832
 21
63.2174
 31
0.0
  0
LINE
  5
1a4
100
AcDbEntity
  8
0
100
AcDbLine
 62
     165
 10
88.5832
 20
63.2174
 30
0.0
 11
88.5832
 21
50.5534
 31
0.0
  0
LINE
  5
1a5
100
AcDbEntity
  8
0
100
AcDbLine
 62
     165
 10
88.5832
 20
50.5534
 30
0.0
 11
87.8057
 21
50.5534
 31
0.0
  0
LINE
  5
1a6
100
AcDbEntity
  8
0
100
AcDbLine
 62
     165
 10
87.8057
 20
50.5534
 30
0.0
 11
87.8057
 21
49.954
 31
0.0
  0
LINE
  5
1a7
100
AcDbEntity
  8
0
100
AcDbLine
 62
     165
 10
87.8057
 20
49.954
 30
0.0
 11
73.9429
 21
49.954
 31
0.0
  0
LINE
  5
1a8
100
AcDbEntity
  8
0
100
AcDbLine
 62
     165
 10
73.9429
 20
49.954
 30
0.0
 11
73.9429
 21
50.5534
 31
0.0
  0
LINE
  5
1a9
100
AcDbEntity
  8
0
100
AcDbLine
 62
     165
 10
73.9429
 20
50.5534
 30
0.0
 11
73.1312
 21
50.5534
 31
0.0
  0
LINE
  5
1aa
100
AcDbEntity
  8
0
100
AcDbLine
 62
     165
 10
73.1312
 20
50.5534
 30
0.0
 11
73.1312
 21
63.2174
 31
0.0
  0
LINE
  5
1ab
100
AcDbEntity
  8
0
100
AcDbLine
 62
     165
 10
73.1312
 20
63.2174
 30
0.0
 11
73.9429
 21
63.2174
 31
0.0
  0
LINE
  5
1ac
100
AcDbEntity
  8
0
100
AcDbLine
 62
     165
 10
73.9429
 20
63.2174
 30
0.0
 11
73.9429
 21
63.8168
 31
0.0
  0
LINE
  5
1ad
100
AcDbEntity
  8
0
100
AcDbLine
 62
     165
 10
73.9429
 20
63.8168
 30
0.0
 11
87.8057
 21
63.8168
 31
0.0
  0
LINE
  5
1ae
100
AcDbEntity
  8
0
100
AcDbLine
 62
     165
 10
144.956
 20
75.741
 30
0.0
 11
144.956
 21
75.1417
 31
0.0
  0
LINE
  5
1af
100
AcDbEntity
  8
0
100
AcDbLine
 62
     165
 10
144.956
 20
75.1417
 30
0.0
 11
145.733
 21
75.1417
 31
0.0
  0
LINE
  5
1b0
100
AcDbEntity
  8
0
100
AcDbLine
 62
     165
 10
145.733
 20
75.1417
 30
0.0
 11
145.733
 21
62.4777
 31
0.0
  0
LINE
  5
1b1
100
AcDbEntity
  8
0
100
AcDbLine
 62
     165
 10
145.733
 20
62.4777
 30
0.0
 11
144.956
 21
62.4777
 31
0.0
  0
LINE
  5
1b2
100
AcDbEntity
  8
0
100
AcDbLine
 62
     165
 10
144.956
 20
62.4777
 30
0.0
 11
144.956
 21
61.8765
 31
0.0
  0
LINE
  5
1b3
100
AcDbEntity
  8
0
100
AcDbLine
 62
     165
 10
144.956
 20
61.8765
 30
0.0
 11
131.093
 21
61.8765
 31
0.0
  0
LINE
  5
1b4
100
AcDbEntity
  8
0
100
AcDbLine
 62
     165
 10
131.093
 20
61.8765
 30
0.0
 11
131.093
 21
62.4777
 31
0.0
  0
LINE
  5
1b5
100
AcDbEntity
  8
0
100
AcDbLine
 62
     165
 10
131.093
 20
62.4777
 30
0.0
 11
130.281
 21
62.4777
 31
0.0
  0
LINE
  5
1b6
100
AcDbEntity
  8
0
100
AcDbLine
 62
     165
 10
130.281
 20
62.4777
 30
0.0
 11
130.281
 21
75.1417
 31
0.0
  0
LINE
  5
1b7
100
AcDbEntity
  8
0
100
AcDbLine
 62
     165
 10
130.281
 20
75.1417
 30
0.0
 11
131.093
 21
75.1417
 31
0.0
  0
LINE
  5
1b8
100
AcDbEntity
  8
0
100
AcDbLine
 62
     165
 10
131.093
 20
75.1417
 30
0.0
 11
131.093
 21
75.741
 31
0.0
  0
LINE
  5
1b9
100
AcDbEntity
  8
0
100
AcDbLine
 62
     165
 10
131.093
 20
75.741
 30
0.0
 11
144.956
 21
75.741
 31
0.0
  0
LINE
  5
1ba
100
AcDbEntity
  8
0
100
AcDbLine
 62
     165
 10
125.906
 20
75.741
 30
0.0
 11
125.906
 21
75.1417
 31
0.0
  0
LINE
  5
1bb
100
AcDbEntity
  8
0
100
AcDbLine
 62
     165
 10
125.906
 20
75.1417
 30
0.0
 11
126.683
 21
75.1417
 31
0.0
  0
LINE
  5
1bc
100
AcDbEntity
  8
0
100
AcDbLine
 62
     165
 10
126.683
 20
75.1417
 30
0.0
 11
126.683
 21
62.4777
 31
0.0
  0
LINE
  5
1bd
100
AcDbEntity
  8
0
100
AcDbLine
 62
     165
 10
126.683
 20
62.4777
 30
0.0
 11
125.906
 21
62.4777
 31
0.0
  0
LINE
  5
1be
100
AcDbEntity
  8
0
100
AcDbLine
 62
     165
 10
125.906
 20
62.4777
 30
0.0
 11
125.906
 21
61.8765
 31
0.0
  0
LINE
  5
1bf
100
AcDbEntity
  8
0
100
AcDbLine
 62
     165
 10
125.906
 20
61.8765
 30
0.0
 11
112.043
 21
61.8765
 31
0.0
  0
LINE
  5
1c0
100
AcDbEntity
  8
0
100
AcDbLine
 62
     165
 10
112.043
 20
61.8765
 30
0.0
 11
112.043
 21
62.4777
 31
0.0
  0
LINE
  5
1c1
100
AcDbEntity
  8
0
100
AcDbLine
 62
     165
 10
112.043
 20
62.4777
 30
0.0
 11
111.231
 21
62.4777
 31
0.0
  0
LINE
  5
1c2
100
AcDbEntity
  8
0
100
AcDbLine
 62
     165
 10
111.231
 20
62.4777
 30
0.0
 11
111.231
 21
75.1417
 31
0.0
  0
LINE
  5
1c3
100
AcDbEntity
  8
0
100
AcDbLine
 62
     165
 10
111.231
 20
75.1417
 30
0.0
 11
112.043
 21
75.1417
 31
0.0
  0
LINE
  5
1c4
100
AcDbEntity
  8
0
100
AcDbLine
 62
     165
 10
112.043
 20
75.1417
 30
0.0
 11
112.043
 21
75.741
 31
0.0
  0
LINE
  5
1c5
100
AcDbEntity
  8
0
100
AcDbLine
 62
     165
 10
112.043
 20
75.741
 30
0.0
 11
125.906
 21
75.741
 31
0.0
  0
LINE
  5
1c6
100
AcDbEntity
  8
0
100
AcDbLine
 62
     165
 10
49.7057
 20
78.1043
 30
0.0
 11
49.7057
 21
77.5049
 31
0.0
  0
LINE
  5
1c7
100
AcDbEntity
  8
0
100
AcDbLine
 62
     165
 10
49.7057
 20
77.5049
 30
0.0
 11
50.4832
 21
77.5049
 31
0.0
  0
LINE
  5
1c8
100
AcDbEntity
  8
0
100
AcDbLine
 62
     165
 10
50.4832
 20
77.5049
 30
0.0
 11
50.4832
 21
64.8409
 31
0.0
  0
LINE
  5
1c9
100
AcDbEntity
  8
0
100
AcDbLine
 62
     165
 10
50.4832
 20
64.8409
 30
0.0
 11
49.7057
 21
64.8409
 31
0.0
  0
LINE
  5
1ca
100
AcDbEntity
  8
0
100
AcDbLine
 62
     165
 10
49.7057
 20
64.8409
 30
0.0
 11
49.7057
 21
64.2415
 31
0.0
  0
LINE
  5
1cb
100
AcDbEntity
  8
0
100
AcDbLine
 62
     165
 10
49.7057
 20
64.2415
 30
0.0
 11
35.8429
 21
64.2415
 31
0.0
  0
LINE
  5
1cc
100
AcDbEntity
  8
0
100
AcDbLine
 62
     165
 10
35.8429
 20
64.2415
 30
0.0
 11
35.8429
 21
64.8409
 31
0.0
  0
LINE
  5
1cd
100
AcDbEntity
  8
0
100
AcDbLine
 62
     165
 10
35.8429
 20
64.8409
 30
0.0
 11
35.0311
 21
64.8409
 31
0.0
  0
LINE
  5
1ce
100
AcDbEntity
  8
0
100
AcDbLine
 62
     165
 10
35.0311
 20
64.8409
 30
0.0
 11
35.0311
 21
77.5049
 31
0.0
  0
LINE
  5
1cf
100
AcDbEntity
  8
0
100
AcDbLine
 62
     165
 10
35.0311
 20
77.5049
 30
0.0
 11
35.8429
 21
77.5049
 31
0.0
  0
LINE
  5
1d0
100
AcDbEntity
  8
0
100
AcDbLine
 62
     165
 10
35.8429
 20
77.5049
 30
0.0
 11
35.8429
 21
78.1043
 31
0.0
  0
LINE
  5
1d1
100
AcDbEntity
  8
0
100
AcDbLine
 62
     165
 10
35.8429
 20
78.1043
 30
0.0
 11
49.7057
 21
78.1043
 31
0.0
  0
LINE
  5
1d2
100
AcDbEntity
  8
0
100
AcDbLine
 62
     165
 10
106.856
 20
80.4693
 30
0.0
 11
106.856
 21
79.8682
 31
0.0
  0
LINE
  5
1d3
100
AcDbEntity
  8
0
100
AcDbLine
 62
     165
 10
106.856
 20
79.8682
 30
0.0
 11
107.633
 21
79.8682
 31
0.0
  0
LINE
  5
1d4
100
AcDbEntity
  8
0
100
AcDbLine
 62
     165
 10
107.633
 20
79.8682
 30
0.0
 11
107.633
 21
67.2402
 31
0.0
  0
LINE
  5
1d5
100
AcDbEntity
  8
0
100
AcDbLine
 62
     165
 10
107.633
 20
67.2402
 30
0.0
 11
106.856
 21
67.2402
 31
0.0
  0
LINE
  5
1d6
100
AcDbEntity
  8
0
100
AcDbLine
 62
     165
 10
106.856
 20
67.2402
 30
0.0
 11
106.856
 21
66.639
 31
0.0
  0
LINE
  5
1d7
100
AcDbEntity
  8
0
100
AcDbLine
 62
     165
 10
106.856
 20
66.639
 30
0.0
 11
92.9929
 21
66.639
 31
0.0
  0
LINE
  5
1d8
100
AcDbEntity
  8
0
100
AcDbLine
 62
     165
 10
92.9929
 20
66.639
 30
0.0
 11
92.9929
 21
67.2402
 31
0.0
  0
LINE
  5
1d9
100
AcDbEntity
  8
0
100
AcDbLine
 62
     165
 10
92.9929
 20
67.2402
 30
0.0
 11
92.1812
 21
67.2402
 31
0.0
  0
LINE
  5
1da
100
AcDbEntity
  8
0
100
AcDbLine
 62
     165
 10
92.1812
 20
67.2402
 30
0.0
 11
92.1812
 21
79.8682
 31
0.0
  0
LINE
  5
1db
100
AcDbEntity
  8
0
100
AcDbLine
 62
     165
 10
92.1812
 20
79.8682
 30
0.0
 11
92.9929
 21
79.8682
 31
0.0
  0
LINE
  5
1dc
100
AcDbEntity
  8
0
100
AcDbLine
 62
     165
 10
92.9929
 20
79.8682
 30
0.0
 11
92.9929
 21
80.4693
 31
0.0
  0
LINE
  5
1dd
100
AcDbEntity
  8
0
100
AcDbLine
 62
     165
 10
92.9929
 20
80.4693
 30
0.0
 11
106.856
 21
80.4693
 31
0.0
  0
LINE
  5
1de
100
AcDbEntity
  8
0
100
AcDbLine
 62
     165
 10
68.7557
 20
80.4693
 30
0.0
 11
68.7557
 21
79.8682
 31
0.0
  0
LINE
  5
1df
100
AcDbEntity
  8
0
100
AcDbLine
 62
     165
 10
68.7557
 20
79.8682
 30
0.0
 11
69.5332
 21
79.8682
 31
0.0
  0
LINE
  5
1e0
100
AcDbEntity
  8
0
100
AcDbLine
 62
     165
 10
69.5332
 20
79.8682
 30
0.0
 11
69.5332
 21
67.2402
 31
0.0
  0
LINE
  5
1e1
100
AcDbEntity
  8
0
100
AcDbLine
 62
     165
 10
69.5332
 20
67.2402
 30
0.0
 11
68.7557
 21
67.2402
 31
0.0
  0
LINE
  5
1e2
100
AcDbEntity
  8
0
100
AcDbLine
 62
     165
 10
68.7557
 20
67.2402
 30
0.0
 11
68.7557
 21
66.639
 31
0.0
  0
LINE
  5
1e3
100
AcDbEntity
  8
0
100
AcDbLine
 62
     165
 10
68.7557
 20
66.639
 30
0.0
 11
54.8929
 21
66.639
 31
0.0
  0
LINE
  5
1e4
100
AcDbEntity
  8
0
100
AcDbLine
 62
     165
 10
54.8929
 20
66.639
 30
0.0
 11
54.8929
 21
67.2402
 31
0.0
  0
LINE
  5
1e5
100
AcDbEntity
  8
0
100
AcDbLine
 62
     165
 10
54.8929
 20
67.2402
 30
0.0
 11
54.0812
 21
67.2402
 31
0.0
  0
LINE
  5
1e6
100
AcDbEntity
  8
0
100
AcDbLine
 62
     165
 10
54.0812
 20
67.2402
 30
0.0
 11
54.0812
 21
79.8682
 31
0.0
  0
LINE
  5
1e7
100
AcDbEntity
  8
0
100
AcDbLine
 62
     165
 10
54.0812
 20
79.8682
 30
0.0
 11
54.8929
 21
79.8682
 31
0.0
  0
LINE
  5
1e8
100
AcDbEntity
  8
0
100
AcDbLine
 62
     165
 10
54.8929
 20
79.8682
 30
0.0
 11
54.8929
 21
80.4693
 31
0.0
  0
LINE
  5
1e9
100
AcDbEntity
  8
0
100
AcDbLine
 62
     165
 10
54.8929
 20
80.4693
 30
0.0
 11
68.7557
 21
80.4693
 31
0.0
  0
LINE
  5
1ea
100
AcDbEntity
  8
0
100
AcDbLine
 62
     165
 10
87.8057
 20
82.8668
 30
0.0
 11
87.8057
 21
82.2674
 31
0.0
  0
LINE
  5
1eb
100
AcDbEntity
  8
0
100
AcDbLine
 62
     165
 10
87.8057
 20
82.2674
 30
0.0
 11
88.5832
 21
82.2674
 31
0.0
  0
LINE
  5
1ec
100
AcDbEntity
  8
0
100
AcDbLine
 62
     165
 10
88.5832
 20
82.2674
 30
0.0
 11
88.5832
 21
69.6034
 31
0.0
  0
LINE
  5
1ed
100
AcDbEntity
  8
0
100
AcDbLine
 62
     165
 10
88.5832
 20
69.6034
 30
0.0
 11
87.8057
 21
69.6034
 31
0.0
  0
LINE
  5
1ee
100
AcDbEntity
  8
0
100
AcDbLine
 62
     165
 10
87.8057
 20
69.6034
 30
0.0
 11
87.8057
 21
69.004
 31
0.0
  0
LINE
  5
1ef
100
AcDbEntity
  8
0
100
AcDbLine
 62
     165
 10
87.8057
 20
69.004
 30
0.0
 11
73.9429
 21
69.004
 31
0.0
  0
LINE
  5
1f0
100
AcDbEntity
  8
0
100
AcDbLine
 62
     165
 10
73.9429
 20
69.004
 30
0.0
 11
73.9429
 21
69.6034
 31
0.0
  0
LINE
  5
1f1
100
AcDbEntity
  8
0
100
AcDbLine
 62
     165
 10
73.9429
 20
69.6034
 30
0.0
 11
73.1312
 21
69.6034
 31
0.0
  0
LINE
  5
1f2
100
AcDbEntity
  8
0
100
AcDbLine
 62
     165
 10
73.1312
 20
69.6034
 30
0.0
 11
73.1312
 21
82.2674
 31
0.0
  0
LINE
  5
1f3
100
AcDbEntity
  8
0
100
AcDbLine
 62
     165
 10
73.1312
 20
82.2674
 30
0.0
 11
73.9429
 21
82.2674
 31
0.0
  0
LINE
  5
1f4
100
AcDbEntity
  8
0
100
AcDbLine
 62
     165
 10
73.9429
 20
82.2674
 30
0.0
 11
73.9429
 21
82.8668
 31
0.0
  0
LINE
  5
1f5
100
AcDbEntity
  8
0
100
AcDbLine
 62
     165
 10
73.9429
 20
82.8668
 30
0.0
 11
87.8057
 21
82.8668
 31
0.0
  0
LINE
  5
1f6
100
AcDbEntity
  8
0
100
AcDbLine
 62
     165
 10
144.956
 20
94.791
 30
0.0
 11
144.956
 21
94.1917
 31
0.0
  0
LINE
  5
1f7
100
AcDbEntity
  8
0
100
AcDbLine
 62
     165
 10
144.956
 20
94.1917
 30
0.0
 11
145.733
 21
94.1917
 31
0.0
  0
LINE
  5
1f8
100
AcDbEntity
  8
0
100
AcDbLine
 62
     165
 10
145.733
 20
94.1917
 30
0.0
 11
145.733
 21
81.5277
 31
0.0
  0
LINE
  5
1f9
100
AcDbEntity
  8
0
100
AcDbLine
 62
     165
 10
145.733
 20
81.5277
 30
0.0
 11
144.956
 21
81.5277
 31
0.0
  0
LINE
  5
1fa
100
AcDbEntity
  8
0
100
AcDbLine
 62
     165
 10
144.956
 20
81.5277
 30
0.0
 11
144.956
 21
80.9265
 31
0.0
  0
LINE
  5
1fb
100
AcDbEntity
  8
0
100
AcDbLine
 62
     165
 10
144.956
 20
80.9265
 30
0.0
 11
131.093
 21
80.9265
 31
0.0
  0
LINE
  5
1fc
100
AcDbEntity
  8
0
100
AcDbLine
 62
     165
 10
131.093
 20
80.9265
 30
0.0
 11
131.093
 21
81.5277
 31
0.0
  0
LINE
  5
1fd
100
AcDbEntity
  8
0
100
AcDbLine
 62
     165
 10
131.093
 20
81.5277
 30
0.0
 11
130.281
 21
81.5277
 31
0.0
  0
LINE
  5
1fe
100
AcDbEntity
  8
0
100
AcDbLine
 62
     165
 10
130.281
 20
81.5277
 30
0.0
 11
130.281
 21
94.1917
 31
0.0
  0
LINE
  5
1ff
100
AcDbEntity
  8
0
100
AcDbLine
 62
     165
 10
130.281
 20
94.1917
 30
0.0
 11
131.093
 21
94.1917
 31
0.0
  0
LINE
  5
200
100
AcDbEntity
  8
0
100
AcDbLine
 62
     165
 10
131.093
 20
94.1917
 30
0.0
 11
131.093
 21
94.791
 31
0.0
  0
LINE
  5
201
100
AcDbEntity
  8
0
100
AcDbLine
 62
     165
 10
131.093
 20
94.791
 30
0.0
 11
144.956
 21
94.791
 31
0.0
  0
LINE
  5
202
100
AcDbEntity
  8
0
100
AcDbLine
 62
     165
 10
125.906
 20
94.791
 30
0.0
 11
125.906
 21
94.1917
 31
0.0
  0
LINE
  5
203
100
AcDbEntity
  8
0
100
AcDbLine
 62
     165
 10
125.906
 20
94.1917
 30
0.0
 11
126.683
 21
94.1917
 31
0.0
  0
LINE
  5
204
100
AcDbEntity
  8
0
100
AcDbLine
 62
     165
 10
126.683
 20
94.1917
 30
0.0
 11
126.683
 21
81.5277
 31
0.0
  0
LINE
  5
205
100
AcDbEntity
  8
0
100
AcDbLine
 62
     165
 10
126.683
 20
81.5277
 30
0.0
 11
125.906
 21
81.5277
 31
0.0
  0
LINE
  5
206
100
AcDbEntity
  8
0
100
AcDbLine
 62
     165
 10
125.906
 20
81.5277
 30
0.0
 11
125.906
 21
80.9265
 31
0.0
  0
LINE
  5
207
100
AcDbEntity
  8
0
100
AcDbLine
 62
     165
 10
125.906
 20
80.9265
 30
0.0
 11
112.043
 21
80.9265
 31
0.0
  0
LINE
  5
208
100
AcDbEntity
  8
0
100
AcDbLine
 62
     165
 10
112.043
 20
80.9265
 30
0.0
 11
112.043
 21
81.5277
 31
0.0
  0
LINE
  5
209
100
AcDbEntity
  8
0
100
AcDbLine
 62
     165
 10
112.043
 20
81.5277
 30
0.0
 11
111.231
 21
81.5277
 31
0.0
  0
LINE
  5
20a
100
AcDbEntity
  8
0
100
AcDbLine
 62
     165
 10
111.231
 20
81.5277
 30
0.0
 11
111.231
 21
94.1917
 31
0.0
  0
LINE
  5
20b
100
AcDbEntity
  8
0
100
AcDbLine
 62
     165
 10
111.231
 20
94.1917
 30
0.0
 11
112.043
 21
94.1917
 31
0.0
  0
LINE
  5
20c
100
AcDbEntity
  8
0
100
AcDbLine
 62
     165
 10
112.043
 20
94.1917
 30
0.0
 11
112.043
 21
94.791
 31
0.0
  0
LINE
  5
20d
100
AcDbEntity
  8
0
100
AcDbLine
 62
     165
 10
112.043
 20
94.791
 30
0.0
 11
125.906
 21
94.791
 31
0.0
  0
LINE
  5
20e
100
AcDbEntity
  8
0
100
AcDbLine
 62
     165
 10
49.7057
 20
97.1543
 30
0.0
 11
49.7057
 21
96.5549
 31
0.0
  0
LINE
  5
20f
100
AcDbEntity
  8
0
100
AcDbLine
 62
     165
 10
49.7057
 20
96.5549
 30
0.0
 11
50.4832
 21
96.5549
 31
0.0
  0
LINE
  5
210
100
AcDbEntity
  8
0
100
AcDbLine
 62
     165
 10
50.4832
 20
96.5549
 30
0.0
 11
50.4832
 21
83.8909
 31
0.0
  0
LINE
  5
211
100
AcDbEntity
  8
0
100
AcDbLine
 62
     165
 10
50.4832
 20
83.8909
 30
0.0
 11
49.7057
 21
83.8909
 31
0.0
  0
LINE
  5
212
100
AcDbEntity
  8
0
100
AcDbLine
 62
     165
 10
49.7057
 20
83.8909
 30
0.0
 11
49.7057
 21
83.2915
 31
0.0
  0
LINE
  5
213
100
AcDbEntity
  8
0
100
AcDbLine
 62
     165
 10
49.7057
 20
83.2915
 30
0.0
 11
35.8429
 21
83.2915
 31
0.0
  0
LINE
  5
214
100
AcDbEntity
  8
0
100
AcDbLine
 62
     165
 10
35.8429
 20
83.2915
 30
0.0
 11
35.8429
 21
83.8909
 31
0.0
  0
LINE
  5
215
100
AcDbEntity
  8
0
100
AcDbLine
 62
     165
 10
35.8429
 20
83.8909
 30
0.0
 11
35.0311
 21
83.8909
 31
0.0
  0
LINE
  5
216
100
AcDbEntity
  8
0
100
AcDbLine
 62
     165
 10
35.0311
 20
83.8909
 30
0.0
 11
35.0311
 21
96.5549
 31
0.0
  0
LINE
  5
217
100
AcDbEntity
  8
0
100
AcDbLine
 62
     165
 10
35.0311
 20
96.5549
 30
0.0
 11
35.8429
 21
96.5549
 31
0.0
  0
LINE
  5
218
100
AcDbEntity
  8
0
100
AcDbLine
 62
     165
 10
35.8429
 20
96.5549
 30
0.0
 11
35.8429
 21
97.1543
 31
0.0
  0
LINE
  5
219
100
AcDbEntity
  8
0
100
AcDbLine
 62
     165
 10
35.8429
 20
97.1543
 30
0.0
 11
49.7057
 21
97.1543
 31
0.0
  0
LINE
  5
21a
100
AcDbEntity
  8
0
100
AcDbLine
 62
     165
 10
106.856
 20
99.5193
 30
0.0
 11
106.856
 21
98.9182
 31
0.0
  0
LINE
  5
21b
100
AcDbEntity
  8
0
100
AcDbLine
 62
     165
 10
106.856
 20
98.9182
 30
0.0
 11
107.633
 21
98.9182
 31
0.0
  0
LINE
  5
21c
100
AcDbEntity
  8
0
100
AcDbLine
 62
     165
 10
107.633
 20
98.9182
 30
0.0
 11
107.633
 21
86.2902
 31
0.0
  0
LINE
  5
21d
100
AcDbEntity
  8
0
100
AcDbLine
 62
     165
 10
107.633
 20
86.2902
 30
0.0
 11
106.856
 21
86.2902
 31
0.0
  0
LINE
  5
21e
100
AcDbEntity
  8
0
100
AcDbLine
 62
     165
 10
106.856
 20
86.2902
 30
0.0
 11
106.856
 21
85.689
 31
0.0
  0
LINE
  5
21f
100
AcDbEntity
  8
0
100
AcDbLine
 62
     165
 10
106.856
 20
85.689
 30
0.0
 11
92.9929
 21
85.689
 31
0.0
  0
LINE
  5
220
100
AcDbEntity
  8
0
100
AcDbLine
 62
     165
 10
92.9929
 20
85.689
 30
0.0
 11
92.9929
 21
86.2902
 31
0.0
  0
LINE
  5
221
100
AcDbEntity
  8
0
100
AcDbLine
 62
     165
 10
92.9929
 20
86.2902
 30
0.0
 11
92.1812
 21
86.2902
 31
0.0
  0
LINE
  5
222
100
AcDbEntity
  8
0
100
AcDbLine
 62
     165
 10
92.1812
 20
86.2902
 30
0.0
 11
92.1812
 21
98.9182
 31
0.0
  0
LINE
  5
223
100
AcDbEntity
  8
0
100
AcDbLine
 62
     165
 10
92.1812
 20
98.9182
 30
0.0
 11
92.9929
 21
98.9182
 31
0.0
  0
LINE
  5
224
100
AcDbEntity
  8
0
100
AcDbLine
 62
     165
 10
92.9929
 20
98.9182
 30
0.0
 11
92.9929
 21
99.5193
 31
0.0
  0
LINE
  5
225
100
AcDbEntity
  8
0
100
AcDbLine
 62
     165
 10
92.9929
 20
99.5193
 30
0.0
 11
106.856
 21
99.5193
 31
0.0
  0
LINE
  5
226
100
AcDbEntity
  8
0
100
AcDbLine
 62
     165
 10
68.7557
 20
99.5193
 30
0.0
 11
68.7557
 21
98.9182
 31
0.0
  0
LINE
  5
227
100
AcDbEntity
  8
0
100
AcDbLine
 62
     165
 10
68.7557
 20
98.9182
 30
0.0
 11
69.5332
 21
98.9182
 31
0.0
  0
LINE
  5
228
100
AcDbEntity
  8
0
100
AcDbLine
 62
     165
 10
69.5332
 20
98.9182
 30
0.0
 11
69.5332
 21
86.2902
 31
0.0
  0
LINE
  5
229
100
AcDbEntity
  8
0
100
AcDbLine
 62
     165
 10
69.5332
 20
86.2902
 30
0.0
 11
68.7557
 21
86.2902
 31
0.0
  0
LINE
  5
22a
100
AcDbEntity
  8
0
100
AcDbLine
 62
     165
 10
68.7557
 20
86.2902
 30
0.0
 11
68.7557
 21
85.689
 31
0.0
  0
LINE
  5
22b
100
AcDbEntity
  8
0
100
AcDbLine
 62
     165
 10
68.7557
 20
85.689
 30
0.0
 11
54.8929
 21
85.689
 31
0.0
  0
LINE
  5
22c
100
AcDbEntity
  8
0
100
AcDbLine
 62
     165
 10
54.8929
 20
85.689
 30
0.0
 11
54.8929
 21
86.2902
 31
0.0
  0
LINE
  5
22d
100
AcDbEntity
  8
0
100
AcDbLine
 62
     165
 10
54.8929
 20
86.2902
 30
0.0
 11
54.0812
 21
86.2902
 31
0.0
  0
LINE
  5
22e
100
AcDbEntity
  8
0
100
AcDbLine
 62
     165
 10
54.0812
 20
86.2902
 30
0.0
 11
54.0812
 21
98.9182
 31
0.0
  0
LINE
  5
22f
100
AcDbEntity
  8
0
100
AcDbLine
 62
     165
 10
54.0812
 20
98.9182
 30
0.0
 11
54.8929
 21
98.9182
 31
0.0
  0
LINE
  5
230
100
AcDbEntity
  8
0
100
AcDbLine
 62
     165
 10
54.8929
 20
98.9182
 30
0.0
 11
54.8929
 21
99.5193
 31
0.0
  0
LINE
  5
231
100
AcDbEntity
  8
0
100
AcDbLine
 62
     165
 10
54.8929
 20
99.5193
 30
0.0
 11
68.7557
 21
99.5193
 31
0.0
  0
LINE
  5
232
100
AcDbEntity
  8
0
100
AcDbLine
 62
     165
 10
87.8057
 20
101.917
 30
0.0
 11
87.8057
 21
101.317
 31
0.0
  0
LINE
  5
233
100
AcDbEntity
  8
0
100
AcDbLine
 62
     165
 10
87.8057
 20
101.317
 30
0.0
 11
88.5832
 21
101.317
 31
0.0
  0
LINE
  5
234
100
AcDbEntity
  8
0
100
AcDbLine
 62
     165
 10
88.5832
 20
101.317
 30
0.0
 11
88.5832
 21
88.6534
 31
0.0
  0
LINE
  5
235
100
AcDbEntity
  8
0
100
AcDbLine
 62
     165
 10
88.5832
 20
88.6534
 30
0.0
 11
87.8057
 21
88.6534
 31
0.0
  0
LINE
  5
236
100
AcDbEntity
  8
0
100
AcDbLine
 62
     165
 10
87.8057
 20
88.6534
 30
0.0
 11
87.8057
 21
88.054
 31
0.0
  0
LINE
  5
237
100
AcDbEntity
  8
0
100
AcDbLine
 62
     165
 10
87.8057
 20
88.054
 30
0.0
 11
73.9429
 21
88.054
 31
0.0
  0
LINE
  5
238
100
AcDbEntity
  8
0
100
AcDbLine
 62
     165
 10
73.9429
 20
88.054
 30
0.0
 11
73.9429
 21
88.6534
 31
0.0
  0
LINE
  5
239
100
AcDbEntity
  8
0
100
AcDbLine
 62
     165
 10
73.9429
 20
88.6534
 30
0.0
 11
73.1312
 21
88.6534
 31
0.0
  0
LINE
  5
23a
100
AcDbEntity
  8
0
100
AcDbLine
 62
     165
 10
73.1312
 20
88.6534
 30
0.0
 11
73.1312
 21
101.317
 31
0.0
  0
LINE
  5
23b
100
AcDbEntity
  8
0
100
AcDbLine
 62
     165
 10
73.1312
 20
101.317
 30
0.0
 11
73.9429
 21
101.317
 31
0.0
  0
LINE
  5
23c
100
AcDbEntity
  8
0
100
AcDbLine
 62
     165
 10
73.9429
 20
101.317
 30
0.0
 11
73.9429
 21
101.917
 31
0.0
  0
LINE
  5
23d
100
AcDbEntity
  8
0
100
AcDbLine
 62
     165
 10
73.9429
 20
101.917
 30
0.0
 11
87.8057
 21
101.917
 31
0.0
  0
LINE
  5
23e
100
AcDbEntity
  8
0
100
AcDbLine
 62
     165
 10
144.956
 20
113.841
 30
0.0
 11
144.956
 21
113.206
 31
0.0
  0
LINE
  5
23f
100
AcDbEntity
  8
0
100
AcDbLine
 62
     165
 10
144.956
 20
113.206
 30
0.0
 11
145.733
 21
113.206
 31
0.0
  0
LINE
  5
240
100
AcDbEntity
  8
0
100
AcDbLine
 62
     165
 10
145.733
 20
113.206
 30
0.0
 11
145.733
 21
100.578
 31
0.0
  0
LINE
  5
241
100
AcDbEntity
  8
0
100
AcDbLine
 62
     165
 10
145.733
 20
100.578
 30
0.0
 11
144.956
 21
100.578
 31
0.0
  0
LINE
  5
242
100
AcDbEntity
  8
0
100
AcDbLine
 62
     165
 10
144.956
 20
100.578
 30
0.0
 11
144.956
 21
99.9765
 31
0.0
  0
LINE
  5
243
100
AcDbEntity
  8
0
100
AcDbLine
 62
     165
 10
144.956
 20
99.9765
 30
0.0
 11
131.093
 21
99.9765
 31
0.0
  0
LINE
  5
244
100
AcDbEntity
  8
0
100
AcDbLine
 62
     165
 10
131.093
 20
99.9765
 30
0.0
 11
131.093
 21
100.578
 31
0.0
  0
LINE
  5
245
100
AcDbEntity
  8
0
100
AcDbLine
 62
     165
 10
131.093
 20
100.578
 30
0.0
 11
130.281
 21
100.578
 31
0.0
  0
LINE
  5
246
100
AcDbEntity
  8
0
100
AcDbLine
 62
     165
 10
130.281
 20
100.578
 30
0.0
 11
130.281
 21
113.206
 31
0.0
  0
LINE
  5
247
100
AcDbEntity
  8
0
100
AcDbLine
 62
     165
 10
130.281
 20
113.206
 30
0.0
 11
131.093
 21
113.206
 31
0.0
  0
LINE
  5
248
100
AcDbEntity
  8
0
100
AcDbLine
 62
     165
 10
131.093
 20
113.206
 30
0.0
 11
131.093
 21
113.841
 31
0.0
  0
LINE
  5
249
100
AcDbEntity
  8
0
100
AcDbLine
 62
     165
 10
131.093
 20
113.841
 30
0.0
 11
144.956
 21
113.841
 31
0.0
  0
LINE
  5
24a
100
AcDbEntity
  8
0
100
AcDbLine
 62
     165
 10
125.906
 20
113.841
 30
0.0
 11
125.906
 21
113.206
 31
0.0
  0
LINE
  5
24b
100
AcDbEntity
  8
0
100
AcDbLine
 62
     165
 10
125.906
 20
113.206
 30
0.0
 11
126.683
 21
113.206
 31
0.0
  0
LINE
  5
24c
100
AcDbEntity
  8
0
100
AcDbLine
 62
     165
 10
126.683
 20
113.206
 30
0.0
 11
126.683
 21
100.578
 31
0.0
  0
LINE
  5
24d
100
AcDbEntity
  8
0
100
AcDbLine
 62
     165
 10
126.683
 20
100.578
 30
0.0
 11
125.906
 21
100.578
 31
0.0
  0
LINE
  5
24e
100
AcDbEntity
  8
0
100
AcDbLine
 62
     165
 10
125.906
 20
100.578
 30
0.0
 11
125.906
 21
99.9765
 31
0.0
  0
LINE
  5
24f
100
AcDbEntity
  8
0
100
AcDbLine
 62
     165
 10
125.906
 20
99.9765
 30
0.0
 11
112.043
 21
99.9765
 31
0.0
  0
LINE
  5
250
100
AcDbEntity
  8
0
100
AcDbLine
 62
     165
 10
112.043
 20
99.9765
 30
0.0
 11
112.043
 21
100.578
 31
0.0
  0
LINE
  5
251
100
AcDbEntity
  8
0
100
AcDbLine
 62
     165
 10
112.043
 20
100.578
 30
0.0
 11
111.231
 21
100.578
 31
0.0
  0
LINE
  5
252
100
AcDbEntity
  8
0
100
AcDbLine
 62
     165
 10
111.231
 20
100.578
 30
0.0
 11
111.231
 21
113.206
 31
0.0
  0
LINE
  5
253
100
AcDbEntity
  8
0
100
AcDbLine
 62
     165
 10
111.231
 20
113.206
 30
0.0
 11
112.043
 21
113.206
 31
0.0
  0
LINE
  5
254
100
AcDbEntity
  8
0
100
AcDbLine
 62
     165
 10
112.043
 20
113.206
 30
0.0
 11
112.043
 21
113.841
 31
0.0
  0
LINE
  5
255
100
AcDbEntity
  8
0
100
AcDbLine
 62
     165
 10
112.043
 20
113.841
 30
0.0
 11
125.906
 21
113.841
 31
0.0
  0
LINE
  5
256
100
AcDbEntity
  8
0
100
AcDbLine
 62
     165
 10
49.7057
 20
116.204
 30
0.0
 11
49.7057
 21
115.605
 31
0.0
  0
LINE
  5
257
100
AcDbEntity
  8
0
100
AcDbLine
 62
     165
 10
49.7057
 20
115.605
 30
0.0
 11
50.4832
 21
115.605
 31
0.0
  0
LINE
  5
258
100
AcDbEntity
  8
0
100
AcDbLine
 62
     165
 10
50.4832
 20
115.605
 30
0.0
 11
50.4832
 21
102.941
 31
0.0
  0
LINE
  5
259
100
AcDbEntity
  8
0
100
AcDbLine
 62
     165
 10
50.4832
 20
102.941
 30
0.0
 11
49.7057
 21
102.941
 31
0.0
  0
LINE
  5
25a
100
AcDbEntity
  8
0
100
AcDbLine
 62
     165
 10
49.7057
 20
102.941
 30
0.0
 11
49.7057
 21
102.342
 31
0.0
  0
LINE
  5
25b
100
AcDbEntity
  8
0
100
AcDbLine
 62
     165
 10
49.7057
 20
102.342
 30
0.0
 11
35.8429
 21
102.342
 31
0.0
  0
LINE
  5
25c
100
AcDbEntity
  8
0
100
AcDbLine
 62
     165
 10
35.8429
 20
102.342
 30
0.0
 11
35.8429
 21
102.941
 31
0.0
  0
LINE
  5
25d
100
AcDbEntity
  8
0
100
AcDbLine
 62
     165
 10
35.8429
 20
102.941
 30
0.0
 11
35.0311
 21
102.941
 31
0.0
  0
LINE
  5
25e
100
AcDbEntity
  8
0
100
AcDbLine
 62
     165
 10
35.0311
 20
102.941
 30
0.0
 11
35.0311
 21
115.605
 31
0.0
  0
LINE
  5
25f
100
AcDbEntity
  8
0
100
AcDbLine
 62
     165
 10
35.0311
 20
115.605
 30
0.0
 11
35.8429
 21
115.605
 31
0.0
  0
LINE
  5
260
100
AcDbEntity
  8
0
100
AcDbLine
 62
     165
 10
35.8429
 20
115.605
 30
0.0
 11
35.8429
 21
116.204
 31
0.0
  0
LINE
  5
261
100
AcDbEntity
  8
0
100
AcDbLine
 62
     165
 10
35.8429
 20
116.204
 30
0.0
 11
49.7057
 21
116.204
 31
0.0
  0
LINE
  5
262
100
AcDbEntity
  8
0
100
AcDbLine
 62
     165
 10
106.856
 20
118.569
 30
0.0
 11
106.856
 21
117.968
 31
0.0
  0
LINE
  5
263
100
AcDbEntity
  8
0
100
AcDbLine
 62
     165
 10
106.856
 20
117.968
 30
0.0
 11
107.633
 21
117.968
 31
0.0
  0
LINE
  5
264
100
AcDbEntity
  8
0
100
AcDbLine
 62
     165
 10
107.633
 20
117.968
 30
0.0
 11
107.633
 21
105.34
 31
0.0
  0
LINE
  5
265
100
AcDbEntity
  8
0
100
AcDbLine
 62
     165
 10
107.633
 20
105.34
 30
0.0
 11
106.856
 21
105.34
 31
0.0
  0
LINE
  5
266
100
AcDbEntity
  8
0
100
AcDbLine
 62
     165
 10
106.856
 20
105.34
 30
0.0
 11
106.856
 21
104.739
 31
0.0
  0
LINE
  5
267
100
AcDbEntity
  8
0
100
AcDbLine
 62
     165
 10
106.856
 20
104.739
 30
0.0
 11
92.9929
 21
104.739
 31
0.0
  0
LINE
  5
268
100
AcDbEntity
  8
0
100
AcDbLine
 62
     165
 10
92.9929
 20
104.739
 30
0.0
 11
92.9929
 21
105.34
 31
0.0
  0
LINE
  5
269
100
AcDbEntity
  8
0
100
AcDbLine
 62
     165
 10
92.9929
 20
105.34
 30
0.0
 11
92.1812
 21
105.34
 31
0.0
  0
LINE
  5
26a
100
AcDbEntity
  8
0
100
AcDbLine
 62
     165
 10
92.1812
 20
105.34
 30
0.0
 11
92.1812
 21
117.968
 31
0.0
  0
LINE
  5
26b
100
AcDbEntity
  8
0
100
AcDbLine
 62
     165
 10
92.1812
 20
117.968
 30
0.0
 11
92.9929
 21
117.968
 31
0.0
  0
LINE
  5
26c
100
AcDbEntity
  8
0
100
AcDbLine
 62
     165
 10
92.9929
 20
117.968
 30
0.0
 11
92.9929
 21
118.569
 31
0.0
  0
LINE
  5
26d
100
AcDbEntity
  8
0
100
AcDbLine
 62
     165
 10
92.9929
 20
118.569
 30
0.0
 11
106.856
 21
118.569
 31
0.0
  0
LINE
  5
26e
100
AcDbEntity
  8
0
100
AcDbLine
 62
     165
 10
68.7557
 20
118.569
 30
0.0
 11
68.7557
 21
117.968
 31
0.0
  0
LINE
  5
26f
100
AcDbEntity
  8
0
100
AcDbLine
 62
     165
 10
68.7557
 20
117.968
 30
0.0
 11
69.5332
 21
117.968
 31
0.0
  0
LINE
  5
270
100
AcDbEntity
  8
0
100
AcDbLine
 62
     165
 10
69.5332
 20
117.968
 30
0.0
 11
69.5332
 21
105.34
 31
0.0
  0
LINE
  5
271
100
AcDbEntity
  8
0
100
AcDbLine
 62
     165
 10
69.5332
 20
105.34
 30
0.0
 11
68.7557
 21
105.34
 31
0.0
  0
LINE
  5
272
100
AcDbEntity
  8
0
100
AcDbLine
 62
     165
 10
68.7557
 20
105.34
 30
0.0
 11
68.7557
 21
104.739
 31
0.0
  0
LINE
  5
273
100
AcDbEntity
  8
0
100
AcDbLine
 62
     165
 10
68.7557
 20
104.739
 30
0.0
 11
54.8929
 21
104.739
 31
0.0
  0
LINE
  5
274
100
AcDbEntity
  8
0
100
AcDbLine
 62
     165
 10
54.8929
 20
104.739
 30
0.0
 11
54.8929
 21
105.34
 31
0.0
  0
LINE
  5
275
100
AcDbEntity
  8
0
100
AcDbLine
 62
     165
 10
54.8929
 20
105.34
 30
0.0
 11
54.0812
 21
105.34
 31
0.0
  0
LINE
  5
276
100
AcDbEntity
  8
0
100
AcDbLine
 62
     165
 10
54.0812
 20
105.34
 30
0.0
 11
54.0812
 21
117.968
 31
0.0
  0
LINE
  5
277
100
AcDbEntity
  8
0
100
AcDbLine
 62
     165
 10
54.0812
 20
117.968
 30
0.0
 11
54.8929
 21
117.968
 31
0.0
  0
LINE
  5
278
100
AcDbEntity
  8
0
100
AcDbLine
 62
     165
 10
54.8929
 20
117.968
 30
0.0
 11
54.8929
 21
118.569
 31
0.0
  0
LINE
  5
279
100
AcDbEntity
  8
0
100
AcDbLine
 62
     165
 10
54.8929
 20
118.569
 30
0.0
 11
68.7557
 21
118.569
 31
0.0
  0
LINE
  5
27a
100
AcDbEntity
  8
0
100
AcDbLine
 62
     165
 10
87.8057
 20
120.967
 30
0.0
 11
87.8057
 21
120.367
 31
0.0
  0
LINE
  5
27b
100
AcDbEntity
  8
0
100
AcDbLine
 62
     165
 10
87.8057
 20
120.367
 30
0.0
 11
88.5832
 21
120.367
 31
0.0
  0
LINE
  5
27c
100
AcDbEntity
  8
0
100
AcDbLine
 62
     165
 10
88.5832
 20
120.367
 30
0.0
 11
88.5832
 21
107.703
 31
0.0
  0
LINE
  5
27d
100
AcDbEntity
  8
0
100
AcDbLine
 62
     165
 10
88.5832
 20
107.703
 30
0.0
 11
87.8057
 21
107.703
 31
0.0
  0
LINE
  5
27e
100
AcDbEntity
  8
0
100
AcDbLine
 62
     165
 10
87.8057
 20
107.703
 30
0.0
 11
87.8057
 21
107.104
 31
0.0
  0
LINE
  5
27f
100
AcDbEntity
  8
0
100
AcDbLine
 62
     165
 10
87.8057
 20
107.104
 30
0.0
 11
73.9429
 21
107.104
 31
0.0
  0
LINE
  5
280
100
AcDbEntity
  8
0
100
AcDbLine
 62
     165
 10
73.9429
 20
107.104
 30
0.0
 11
73.9429
 21
107.703
 31
0.0
  0
LINE
  5
281
100
AcDbEntity
  8
0
100
AcDbLine
 62
     165
 10
73.9429
 20
107.703
 30
0.0
 11
73.1312
 21
107.703
 31
0.0
  0
LINE
  5
282
100
AcDbEntity
  8
0
100
AcDbLine
 62
     165
 10
73.1312
 20
107.703
 30
0.0
 11
73.1312
 21
120.367
 31
0.0
  0
LINE
  5
283
100
AcDbEntity
  8
0
100
AcDbLine
 62
     165
 10
73.1312
 20
120.367
 30
0.0
 11
73.9429
 21
120.367
 31
0.0
  0
LINE
  5
284
100
AcDbEntity
  8
0
100
AcDbLine
 62
     165
 10
73.9429
 20
120.367
 30
0.0
 11
73.9429
 21
120.967
 31
0.0
  0
LINE
  5
285
100
AcDbEntity
  8
0
100
AcDbLine
 62
     165
 10
73.9429
 20
120.967
 30
0.0
 11
87.8057
 21
120.967
 31
0.0
  0
LINE
  5
286
100
AcDbEntity
  8
0
100
AcDbLine
 62
     165
 10
11.8883
 20
41.4514
 30
0.0
 11
12.4175
 21
41.7682
 31
0.0
  0
LINE
  5
287
100
AcDbEntity
  8
0
100
AcDbLine
 62
     165
 10
12.4175
 20
41.7682
 30
0.0
 11
11.9944
 21
42.4395
 31
0.0
  0
LINE
  5
288
100
AcDbEntity
  8
0
100
AcDbLine
 62
     165
 10
11.9944
 20
42.4395
 30
0.0
 11
22.9664
 21
48.7895
 31
0.0
  0
LINE
  5
289
100
AcDbEntity
  8
0
100
AcDbLine
 62
     165
 10
22.9664
 20
48.7895
 30
0.0
 11
23.3894
 21
48.084
 31
0.0
  0
LINE
  5
28a
100
AcDbEntity
  8
0
100
AcDbLine
 62
     165
 10
23.3894
 20
48.084
 30
0.0
 11
23.8828
 21
48.4008
 31
0.0
  0
LINE
  5
28b
100
AcDbEntity
  8
0
100
AcDbLine
 62
     165
 10
23.8828
 20
48.4008
 30
0.0
 11
25.3642
 21
45.8251
 31
0.0
  0
LINE
  5
28c
100
AcDbEntity
  8
0
100
AcDbLine
 62
     165
 10
25.3642
 20
45.8251
 30
0.0
 11
26.0353
 21
46.2139
 31
0.0
  0
LINE
  5
28d
100
AcDbEntity
  8
0
100
AcDbLine
 62
     165
 10
26.0353
 20
46.2139
 30
0.0
 11
27.5869
 21
43.4619
 31
0.0
  0
LINE
  5
28e
100
AcDbEntity
  8
0
100
AcDbLine
 62
     165
 10
27.5869
 20
43.4619
 30
0.0
 11
26.9517
 21
43.1091
 31
0.0
  0
LINE
  5
28f
100
AcDbEntity
  8
0
100
AcDbLine
 62
     165
 10
26.9517
 20
43.1091
 30
0.0
 11
37.2883
 21
25.1878
 31
0.0
  0
LINE
  5
290
100
AcDbEntity
  8
0
100
AcDbLine
 62
     165
 10
37.2883
 20
25.1878
 30
0.0
 11
37.9236
 21
25.5764
 31
0.0
  0
LINE
  5
291
100
AcDbEntity
  8
0
100
AcDbLine
 62
     165
 10
37.9236
 20
25.5764
 30
0.0
 11
39.5111
 21
22.8603
 31
0.0
  0
LINE
  5
292
100
AcDbEntity
  8
0
100
AcDbLine
 62
     165
 10
39.5111
 20
22.8603
 30
0.0
 11
38.8758
 21
22.4717
 31
0.0
  0
LINE
  5
293
100
AcDbEntity
  8
0
100
AcDbLine
 62
     165
 10
38.8758
 20
22.4717
 30
0.0
 11
40.3571
 21
19.9319
 31
0.0
  0
LINE
  5
294
100
AcDbEntity
  8
0
100
AcDbLine
 62
     165
 10
40.3571
 20
19.9319
 30
0.0
 11
39.8279
 21
19.615
 31
0.0
  0
LINE
  5
295
100
AcDbEntity
  8
0
100
AcDbLine
 62
     165
 10
39.8279
 20
19.615
 30
0.0
 11
40.2167
 21
18.9095
 31
0.0
  0
LINE
  5
296
100
AcDbEntity
  8
0
100
AcDbLine
 62
     165
 10
40.2167
 20
18.9095
 30
0.0
 11
29.2806
 21
12.5595
 31
0.0
  0
LINE
  5
297
100
AcDbEntity
  8
0
100
AcDbLine
 62
     165
 10
29.2806
 20
12.5595
 30
0.0
 11
28.8575
 21
13.2994
 31
0.0
  0
LINE
  5
298
100
AcDbEntity
  8
0
100
AcDbLine
 62
     165
 10
28.8575
 20
13.2994
 30
0.0
 11
28.3283
 21
12.9825
 31
0.0
  0
LINE
  5
299
100
AcDbEntity
  8
0
100
AcDbLine
 62
     165
 10
28.3283
 20
12.9825
 30
0.0
 11
11.8883
 21
41.4514
 31
0.0
  0
SPLINE
  5
29a
100
AcDbEntity
  8
0
100
AcDbSpline
210
0.0
220
0.0
230
1.0
 62
     242
 70
     0
 71
     3
 72
     8
 73
4
 40
0.0
 40
0.0
 40
0.0
 40
0.0
 40
1.0
 40
1.0
 40
1.0
 40
1.0
 10
27.5869
 20
0.246669
 30
0.0
 10
28.0817
 20
0.246669
 30
0.0
 10
28.6108
 20
0.388606
 30
0.0
 10
29.0683
 20
0.669727
 30
0.0
  0
LINE
  5
29b
100
AcDbEntity
  8
0
100
AcDbLine
 62
     242
 10
29.0683
 20
0.669727
 30
0.0
 11
31.6797
 21
2.15249
 31
0.0
  0
SPLINE
  5
29c
100
AcDbEntity
  8
0
100
AcDbSpline
210
0.0
220
0.0
230
1.0
 62
     242
 70
     0
 71
     3
 72
     8
 73
4
 40
0.0
 40
0.0
 40
0.0
 40
0.0
 40
1.0
 40
1.0
 40
1.0
 40
1.0
 10
31.6797
 20
2.15249
 30
0.0
 10
47.3082
 20
11.1828
 30
0.0
 10
60.1486
 20
12.5939
 30
0.0
 10
72.602
 20
14.005
 30
0.0
  0
SPLINE
  5
29d
100
AcDbEntity
  8
0
100
AcDbSpline
210
0.0
220
0.0
230
1.0
 62
     242
 70
     0
 71
     3
 72
     8
 73
4
 40
0.0
 40
0.0
 40
0.0
 40
0.0
 40
1.0
 40
1.0
 40
1.0
 40
1.0
 10
72.602
 20
14.005
 30
0.0
 10
75.8472
 20
14.3578
 30
0.0
 10
79.1986
 20
14.7106
 30
0.0
 10
82.4798
 20
15.2397
 30
0.0
  0
LINE
  5
29e
100
AcDbEntity
  8
0
100
AcDbLine
 62
     242
 10
82.4798
 20
15.2397
 30
0.0
 11
85.0554
 21
15.6283
 31
0.0
  0
SPLINE
  5
29f
100
AcDbEntity
  8
0
100
AcDbSpline
210
0.0
220
0.0
230
1.0
 62
     242
 70
     0
 71
     3
 72
     8
 73
4
 40
0.0
 40
0.0
 40
0.0
 40
0.0
 40
1.0
 40
1.0
 40
1.0
 40
1.0
 10
85.0554
 20
15.6283
 30
0.0
 10
86.5008
 20
15.8392
 30
0.0
 10
87.5951
 20
17.1097
 30
0.0
 10
87.5951
 20
18.5911
 30
0.0
  0
LINE
  5
2a0
100
AcDbEntity
  8
0
100
AcDbLine
 62
     242
 10
87.5951
 20
18.5911
 30
0.0
 11
87.5951
 21
31.2208
 31
0.0
  0
SPLINE
  5
2a1
100
AcDbEntity
  8
0
100
AcDbSpline
210
0.0
220
0.0
230
1.0
 62
     242
 70
     0
 71
     3
 72
     8
 73
4
 40
0.0
 40
0.0
 40
0.0
 40
0.0
 40
1.0
 40
1.0
 40
1.0
 40
1.0
 10
87.5951
 20
31.2208
 30
0.0
 10
87.5951
 20
32.8786
 30
0.0
 10
88.936
 20
34.2194
 30
0.0
 10
90.5937
 20
34.2194
 30
0.0
  0
LINE
  5
2a2
100
AcDbEntity
  8
0
100
AcDbLine
 62
     242
 10
90.5937
 20
34.2194
 30
0.0
 11
150.566
 21
34.2194
 31
0.0
  0
SPLINE
  5
2a3
100
AcDbEntity
  8
0
100
AcDbSpline
210
0.0
220
0.0
230
1.0
 62
     242
 70
     0
 71
     3
 72
     8
 73
4
 40
0.0
 40
0.0
 40
0.0
 40
0.0
 40
1.0
 40
1.0
 40
1.0
 40
1.0
 10
150.566
 20
34.2194
 30
0.0
 10
152.224
 20
34.2194
 30
0.0
 10
153.565
 20
35.5604
 30
0.0
 10
153.565
 20
37.2181
 30
0.0
  0
LINE
  5
2a4
100
AcDbEntity
  8
0
100
AcDbLine
 62
     242
 10
153.565
 20
37.2181
 30
0.0
 11
153.565
 21
118.71
 31
0.0
  0
SPLINE
  5
2a5
100
AcDbEntity
  8
0
100
AcDbSpline
210
0.0
220
0.0
230
1.0
 62
     242
 70
     0
 71
     3
 72
     8
 73
4
 40
0.0
 40
0.0
 40
0.0
 40
0.0
 40
1.0
 40
1.0
 40
1.0
 40
1.0
 10
153.565
 20
118.71
 30
0.0
 10
153.565
 20
120.085
 30
0.0
 10
152.647
 20
121.249
 30
0.0
 10
151.342
 20
121.602
 30
0.0
  0
LINE
  5
2a6
100
AcDbEntity
  8
0
100
AcDbLine
 62
     242
 10
151.342
 20
121.602
 30
0.0
 11
149.119
 21
122.202
 31
0.0
  0
SPLINE
  5
2a7
100
AcDbEntity
  8
0
100
AcDbSpline
210
0.0
220
0.0
230
1.0
 62
     242
 70
     0
 71
     3
 72
     8
 73
4
 40
0.0
 40
0.0
 40
0.0
 40
0.0
 40
1.0
 40
1.0
 40
1.0
 40
1.0
 10
149.119
 20
122.202
 30
0.0
 10
119.768
 20
130.105
 30
0.0
 10
95.8494
 20
133.949
 30
0.0
 10
76.0236
 20
133.949
 30
0.0
  0
SPLINE
  5
2a8
100
AcDbEntity
  8
0
100
AcDbSpline
210
0.0
220
0.0
230
1.0
 62
     242
 70
     0
 71
     3
 72
     8
 73
4
 40
0.0
 40
0.0
 40
0.0
 40
0.0
 40
1.0
 40
1.0
 40
1.0
 40
1.0
 10
76.0236
 20
133.949
 30
0.0
 10
57.609
 20
133.949
 30
0.0
 10
42.6861
 20
130.74
 30
0.0
 10
30.3747
 20
124.072
 30
0.0
  0
LINE
  5
2a9
100
AcDbEntity
  8
0
100
AcDbLine
 62
     242
 10
30.3747
 20
124.072
 30
0.0
 11
28.8217
 21
123.226
 31
0.0
  0
SPLINE
  5
2aa
100
AcDbEntity
  8
0
100
AcDbSpline
210
0.0
220
0.0
230
1.0
 62
     242
 70
     0
 71
     3
 72
     8
 73
4
 40
0.0
 40
0.0
 40
0.0
 40
0.0
 40
1.0
 40
1.0
 40
1.0
 40
1.0
 10
28.8217
 20
123.226
 30
0.0
 10
27.8694
 20
122.696
 30
0.0
 10
27.2342
 20
121.672
 30
0.0
 10
27.2342
 20
120.58
 30
0.0
  0
LINE
  5
2ab
100
AcDbEntity
  8
0
100
AcDbLine
 62
     242
 10
27.2342
 20
120.58
 30
0.0
 11
27.2342
 21
71.1909
 31
0.0
  0
SPLINE
  5
2ac
100
AcDbEntity
  8
0
100
AcDbSpline
210
0.0
220
0.0
230
1.0
 62
     242
 70
     0
 71
     3
 72
     8
 73
4
 40
0.0
 40
0.0
 40
0.0
 40
0.0
 40
1.0
 40
1.0
 40
1.0
 40
1.0
 10
27.2342
 20
71.1909
 30
0.0
 10
27.2342
 20
64.2415
 30
0.0
 10
20.1442
 20
58.9841
 30
0.0
 10
4.19749
 20
49.7777
 30
0.0
  0
LINE
  5
2ad
100
AcDbEntity
  8
0
100
AcDbLine
 62
     242
 10
4.19749
 20
49.7777
 30
0.0
 11
1.5875
 21
48.2604
 31
0.0
  0
SPLINE
  5
2ae
100
AcDbEntity
  8
0
100
AcDbSpline
210
0.0
220
0.0
230
1.0
 62
     242
 70
     0
 71
     3
 72
     8
 73
4
 40
0.0
 40
0.0
 40
0.0
 40
0.0
 40
1.0
 40
1.0
 40
1.0
 40
1.0
 10
1.5875
 20
48.2604
 30
0.0
 10
0.176389
 20
47.4486
 30
0.0
 10
-0.316949
 20
45.6145
 30
0.0
 10
0.493339
 20
44.2034
 30
0.0
  0
LINE
  5
2af
100
AcDbEntity
  8
0
100
AcDbLine
 62
     242
 10
0.493339
 20
44.2034
 30
0.0
 11
24.9769
 21
1.76389
 31
0.0
  0
SPLINE
  5
2b0
100
AcDbEntity
  8
0
100
AcDbSpline
210
0.0
220
0.0
230
1.0
 62
     242
 70
     0
 71
     3
 72
     8
 73
4
 40
0.0
 40
0.0
 40
0.0
 40
0.0
 40
1.0
 40
1.0
 40
1.0
 40
1.0
 10
24.9769
 20
1.76389
 30
0.0
 10
25.3642
 20
1.05833
 30
0.0
 10
26.0353
 20
0.564995
 30
0.0
 10
26.7753
 20
0.352778
 30
0.0
  0
SPLINE
  5
2b1
100
AcDbEntity
  8
0
100
AcDbSpline
210
0.0
220
0.0
230
1.0
 62
     242
 70
     0
 71
     3
 72
     8
 73
4
 40
0.0
 40
0.0
 40
0.0
 40
0.0
 40
1.0
 40
1.0
 40
1.0
 40
1.0
 10
26.7753
 20
0.352778
 30
0.0
 10
27.0578
 20
0.282498
 30
0.0
 10
27.3044
 20
0.246669
 30
0.0
 10
27.5869
 20
0.246669
 30
0.0
  0
LINE
  5
2b2
100
AcDbEntity
  8
0
100
AcDbLine
 62
     242
 10
27.5869
 20
0.246669
 30
0.0
 11
27.5869
 21
0.246669
 31
0.0
  0
ENDSEC
  0
SECTION
  2
OBJECTS
  0
DICTIONARY
  5
C
330
0
100
AcDbDictionary
  3
ACAD_GROUP
350
D
  3
ACAD_LAYOUT
350
1A
  3
ACAD_MLINESTYLE
350
17
  3
ACAD_PLOTSETTINGS
350
19
  3
ACAD_PLOTSTYLENAME
350
E
  3
ACDBHEADERROUNDTRIPXREC
350
2F
  0
DICTIONARY
  5
52
330
1F
100
AcDbDictionary
280
     1
  3
ACAD_LAYOUTSELFREF
360
53
  0
DICTIONARY
  5
50
330
1B
100
AcDbDictionary
280
     1
  3
ACAD_LAYOUTSELFREF
360
51
  0
DICTIONARY
  5
D
102
{ACAD_REACTORS
330
C
102
}
330
C
100
AcDbDictionary
  0
DICTIONARY
  5
1A
102
{ACAD_REACTORS
330
C
102
}
330
C
100
AcDbDictionary
  0
DICTIONARY
  5
17
102
{ACAD_REACTORS
330
C
102
}
330
C
100
AcDbDictionary
  3
STANDARD
350
18
  0
DICTIONARY
  5
19
102
{ACAD_REACTORS
330
C
102
}
330
C
100
AcDbDictionary
  0
ACDBDICTIONARYWDFLT
  5
E
102
{ACAD_REACTORS
330
C
102
}
330
C
100
AcDbDictionary
281
     1
  3
Normal
350
F
100
AcDbDictionaryWithDefault
340
F
  0
DICTIONARY
  5
2F
102
{ACAD_REACTORS
330
C
102
}
330
C
100
AcDbDictionary
  3
CEPSNTYPE
350
39
  3
DIMSTYLEDATA
350
3D
  3
FINGERPRINTGUID
350
3A
  3
HYPERLINKBASE
350
32
  3
INSUNITS
350
38
  3
LAYOUTDICT
350
34
  3
LWETCUNION
350
37
  3
PLOTSETDICT
350
35
  3
PLOTSTYLNAMDICT
350
36
  3
PSVPSCALE
350
3C
  3
PUCSBASE
350
40
  3
PUCSORGBACK
350
46
  3
PUCSORGBOTTOM
350
42
  3
PUCSORGFRONT
350
45
  3
PUCSORGLEFT
350
43
  3
PUCSORGRIGHT
350
44
  3
PUCSORGTOP
350
41
  3
PUCSORTHOREF
350
3E
  3
PUCSORTHOVIEW
350
3F
  3
STYLESHEET
350
33
  3
TSTACKALIGN
350
30
  3
TSTACKSIZE
350
31
  3
UCSBASE
350
49
  3
UCSORGBACK
350
4F
  3
UCSORGBOTTOM
350
4B
  3
UCSORGFRONT
350
4E
  3
UCSORGLEFT
350
4C
  3
UCSORGRIGHT
350
4D
  3
UCSORGTOP
350
4A
  3
UCSORTHOREF
350
47
  3
UCSORTHOVIEW
350
48
  3
VERSIONGUID
350
3B
  0
XRECORD
  5
53
102
{ACAD_REACTORS
330
52
102
}
330
52
100
AcDbXrecord
340
1F
  0
XRECORD
  5
51
102
{ACAD_REACTORS
330
50
102
}
330
50
100
AcDbXrecord
340
1B
  0
MLINESTYLE
  5
18
102
{ACAD_REACTORS
330
17
102
}
330
17
100
AcDbMlineStyle
  2
STANDARD
 70
     0
  3

 62
   256
 51
90.0
 52
90.0
 71
     2
 49
0.5
 62
   256
  6
BYLAYER
 49
-0.5
 62
   256
  6
BYLAYER
  0
ACDBPLACEHOLDER
  5
F
102
{ACAD_REACTORS
330
E
102
}
330
E
100
AcDbPlaceHolder
280
     0
  0
XRECORD
  5
39
102
{ACAD_REACTORS
330
2F
102
}
330
2F
100
AcDbXrecord
 90
        0
  0
XRECORD
  5
3D
102
{ACAD_REACTORS
330
2F
102
}
330
2F
100
AcDbXrecord
1000
DSTYLE
1002
{
1070
   278
 70
    44
1002
}
  0
XRECORD
  5
3A
102
{ACAD_REACTORS
330
2F
102
}
330
2F
100
AcDbXrecord
  1
{705446A6-11D0-4548-8F8C-A97DCA50327D}
  0
XRECORD
  5
32
102
{ACAD_REACTORS
330
2F
102
}
330
2F
100
AcDbXrecord
  1

  0
XRECORD
  5
38
102
{ACAD_REACTORS
330
2F
102
}
330
2F
100
AcDbXrecord
 90
        4
  0
XRECORD
  5
34
102
{ACAD_REACTORS
330
2F
102
}
330
2F
100
AcDbXrecord
340
1A
  0
XRECORD
  5
37
102
{ACAD_REACTORS
330
2F
102
}
330
2F
100
AcDbXrecord
 90
    10781
  0
XRECORD
  5
35
102
{ACAD_REACTORS
330
2F
102
}
330
2F
100
AcDbXrecord
340
19
  0
XRECORD
  5
36
102
{ACAD_REACTORS
330
2F
102
}
330
2F
100
AcDbXrecord
340
E
  0
XRECORD
  5
3C
102
{ACAD_REACTORS
330
2F
102
}
330
2F
100
AcDbXrecord
 40
0.0
  0
XRECORD
  5
40
102
{ACAD_REACTORS
330
2F
102
}
330
2F
100
AcDbXrecord
340
0
  0
XRECORD
  5
46
102
{ACAD_REACTORS
330
2F
102
}
330
2F
100
AcDbXrecord
 10
0.0
 20
0.0
 30
0.0
  0
XRECORD
  5
42
102
{ACAD_REACTORS
330
2F
102
}
330
2F
100
AcDbXrecord
 10
0.0
 20
0.0
 30
0.0
  0
XRECORD
  5
45
102
{ACAD_REACTORS
330
2F
102
}
330
2F
100
AcDbXrecord
 10
0.0
 20
0.0
 30
0.0
  0
XRECORD
  5
43
102
{ACAD_REACTORS
330
2F
102
}
330
2F
100
AcDbXrecord
 10
0.0
 20
0.0
 30
0.0
  0
XRECORD
  5
44
102
{ACAD_REACTORS
330
2F
102
}
330
2F
100
AcDbXrecord
 10
0.0
 20
0.0
 30
0.0
  0
XRECORD
  5
41
102
{ACAD_REACTORS
330
2F
102
}
330
2F
100
AcDbXrecord
 10
0.0
 20
0.0
 30
0.0
  0
XRECORD
  5
3E
102
{ACAD_REACTORS
330
2F
102
}
330
2F
100
AcDbXrecord
340
0
  0
XRECORD
  5
3F
102
{ACAD_REACTORS
330
2F
102
}
330
2F
100
AcDbXrecord
 70
     0
  0
XRECORD
  5
33
102
{ACAD_REACTORS
330
2F
102
}
330
2F
100
AcDbXrecord
  1

  0
XRECORD
  5
30
102
{ACAD_REACTORS
330
2F
102
}
330
2F
100
AcDbXrecord
 90
        1
  0
XRECORD
  5
31
102
{ACAD_REACTORS
330
2F
102
}
330
2F
100
AcDbXrecord
 90
       70
  0
XRECORD
  5
49
102
{ACAD_REACTORS
330
2F
102
}
330
2F
100
AcDbXrecord
340
0
  0
XRECORD
  5
4F
102
{ACAD_REACTORS
330
2F
102
}
330
2F
100
AcDbXrecord
 10
0.0
 20
0.0
 30
0.0
  0
XRECORD
  5
4B
102
{ACAD_REACTORS
330
2F
102
}
330
2F
100
AcDbXrecord
 10
0.0
 20
0.0
 30
0.0
  0
XRECORD
  5
4E
102
{ACAD_REACTORS
330
2F
102
}
330
2F
100
AcDbXrecord
 10
0.0
 20
0.0
 30
0.0
  0
XRECORD
  5
4C
102
{ACAD_REACTORS
330
2F
102
}
330
2F
100
AcDbXrecord
 10
0.0
 20
0.0
 30
0.0
  0
XRECORD
  5
4D
102
{ACAD_REACTORS
330
2F
102
}
330
2F
100
AcDbXrecord
 10
0.0
 20
0.0
 30
0.0
  0
XRECORD
  5
4A
102
{ACAD_REACTORS
330
2F
102
}
330
2F
100
AcDbXrecord
 10
0.0
 20
0.0
 30
0.0
  0
XRECORD
  5
47
102
{ACAD_REACTORS
330
2F
102
}
330
2F
100
AcDbXrecord
340
0
  0
XRECORD
  5
48
102
{ACAD_REACTORS
330
2F
102
}
330
2F
100
AcDbXrecord
 70
     0
  0
XRECORD
  5
3B
102
{ACAD_REACTORS
330
2F
102
}
330
2F
100
AcDbXrecord
  1
{33328E3A-B6B8-4979-86B7-D70DEC2867C2}
  0
ENDSEC
  0
EOF
