  0
SECTION
  2
HEADER
  9
$ACADVER
  1
AC1009
  9
$EXTMIN
 10
0.0
 20
0.0
 30
0.0
  9
$EXTMAX
 10
1000.0
 20
1000.0
 30
0.0
  9
$FILLMODE
 70
 0
  9
$SPLFRAME
 70
 1
  0
ENDSEC
  0
SECTION
  2
TABLES
  0
TABLE
  2
LAYER
 70
1
  0
LAYER
  2
0
 70
     0
 62
     7
  6
CONTINUOUS
  0
ENDTAB
  0
ENDSEC
  0
SECTION
  2
ENTITIES
  0
POLYLINE
  8
0
 62
     242
 66
     1
 10
0
 20
0
 30
0.0
 70
     1
 40
0.576
 41
0.576
  0
VERTEX
  8
0
 10
5.85032
 20
1.49311
 30
0.0
 40
0.008
 41
0.008
  0
VERTEX
  8
0
 10
5.86242
 20
1.46392
 30
0.0
 40
0.008
 41
0.008
  0
VERTEX
  8
0
 10
5.89165
 20
1.45176
 30
0.0
 40
0.008
 41
0.008
  0
VERTEX
  8
0
 10
5.92085
 20
1.46392
 30
0.0
 40
0.008
 41
0.008
  0
VERTEX
  8
0
 10
5.933
 20
1.49311
 30
0.0
 40
0.008
 41
0.008
  0
VERTEX
  8
0
 10
5.92085
 20
1.52235
 30
0.0
 40
0.008
 41
0.008
  0
VERTEX
  8
0
 10
5.89165
 20
1.53444
 30
0.0
 40
0.008
 41
0.008
  0
VERTEX
  8
0
 10
5.86242
 20
1.52235
 30
0.0
 40
0.008
 41
0.008
  0
VERTEX
  8
0
 10
5.85032
 20
1.49311
 30
0.0
 40
0.008
 41
0.008
  0
SEQEND
 8
0
  0
POLYLINE
  8
0
 62
     242
 66
     1
 10
0
 20
0
 30
0.0
 70
     1
 40
0.576
 41
0.576
  0
VERTEX
  8
0
 10
3.2609
 20
0.750325
 30
0.0
 40
0.008
 41
0.008
  0
VERTEX
  8
0
 10
3.273
 20
0.721138
 30
0.0
 40
0.008
 41
0.008
  0
VERTEX
  8
0
 10
3.30225
 20
0.708985
 30
0.0
 40
0.008
 41
0.008
  0
VERTEX
  8
0
 10
3.33143
 20
0.721138
 30
0.0
 40
0.008
 41
0.008
  0
VERTEX
  8
0
 10
3.34358
 20
0.750325
 30
0.0
 40
0.008
 41
0.008
  0
VERTEX
  8
0
 10
3.33143
 20
0.779568
 30
0.0
 40
0.008
 41
0.008
  0
VERTEX
  8
0
 10
3.30225
 20
0.791667
 30
0.0
 40
0.008
 41
0.008
  0
VERTEX
  8
0
 10
3.273
 20
0.779568
 30
0.0
 40
0.008
 41
0.008
  0
VERTEX
  8
0
 10
3.2609
 20
0.750325
 30
0.0
 40
0.008
 41
0.008
  0
SEQEND
 8
0
  0
POLYLINE
  8
0
 62
     242
 66
     1
 10
0
 20
0
 30
0.0
 70
     1
 40
0.576
 41
0.576
  0
VERTEX
  8
0
 10
1.05518
 20
0.169325
 30
0.0
 40
0.008
 41
0.008
  0
VERTEX
  8
0
 10
1.06728
 20
0.140136
 30
0.0
 40
0.008
 41
0.008
  0
VERTEX
  8
0
 10
1.09652
 20
0.127984
 30
0.0
 40
0.008
 41
0.008
  0
VERTEX
  8
0
 10
1.12571
 20
0.140136
 30
0.0
 40
0.008
 41
0.008
  0
VERTEX
  8
0
 10
1.13786
 20
0.169325
 30
0.0
 40
0.008
 41
0.008
  0
VERTEX
  8
0
 10
1.12571
 20
0.198568
 30
0.0
 40
0.008
 41
0.008
  0
VERTEX
  8
0
 10
1.09652
 20
0.210667
 30
0.0
 40
0.008
 41
0.008
  0
VERTEX
  8
0
 10
1.06728
 20
0.198568
 30
0.0
 40
0.008
 41
0.008
  0
VERTEX
  8
0
 10
1.05518
 20
0.169325
 30
0.0
 40
0.008
 41
0.008
  0
SEQEND
 8
0
  0
POLYLINE
  8
0
 62
     242
 66
     1
 10
0
 20
0
 30
0.0
 70
     1
 40
0.576
 41
0.576
  0
VERTEX
  8
0
 10
0.128418
 20
1.77924
 30
0.0
 40
0.008
 41
0.008
  0
VERTEX
  8
0
 10
0.140517
 20
1.75006
 30
0.0
 40
0.008
 41
0.008
  0
VERTEX
  8
0
 10
0.169706
 20
1.73796
 30
0.0
 40
0.008
 41
0.008
  0
VERTEX
  8
0
 10
0.185764
 20
1.74121
 30
0.0
 40
0.008
 41
0.008
  0
VERTEX
  8
0
 10
0.198947
 20
1.75006
 30
0.0
 40
0.008
 41
0.008
  0
VERTEX
  8
0
 10
0.20779
 20
1.76318
 30
0.0
 40
0.008
 41
0.008
  0
VERTEX
  8
0
 10
0.2111
 20
1.77924
 30
0.0
 40
0.008
 41
0.008
  0
VERTEX
  8
0
 10
0.20779
 20
1.79536
 30
0.0
 40
0.008
 41
0.008
  0
VERTEX
  8
0
 10
0.198947
 20
1.80849
 30
0.0
 40
0.008
 41
0.008
  0
VERTEX
  8
0
 10
0.185764
 20
1.81739
 30
0.0
 40
0.008
 41
0.008
  0
VERTEX
  8
0
 10
0.169706
 20
1.82058
 30
0.0
 40
0.008
 41
0.008
  0
VERTEX
  8
0
 10
0.140517
 20
1.80849
 30
0.0
 40
0.008
 41
0.008
  0
VERTEX
  8
0
 10
0.128418
 20
1.77924
 30
0.0
 40
0.008
 41
0.008
  0
SEQEND
 8
0
  0
POLYLINE
  8
0
 62
     242
 66
     1
 10
0
 20
0
 30
0.0
 70
     1
 40
0.576
 41
0.576
  0
VERTEX
  8
0
 10
1.16716
 20
4.73139
 30
0.0
 40
0.008
 41
0.008
  0
VERTEX
  8
0
 10
1.17925
 20
4.70221
 30
0.0
 40
0.008
 41
0.008
  0
VERTEX
  8
0
 10
1.2085
 20
4.69006
 30
0.0
 40
0.008
 41
0.008
  0
VERTEX
  8
0
 10
1.23768
 20
4.70221
 30
0.0
 40
0.008
 41
0.008
  0
VERTEX
  8
0
 10
1.24984
 20
4.73139
 30
0.0
 40
0.008
 41
0.008
  0
VERTEX
  8
0
 10
1.23768
 20
4.76064
 30
0.0
 40
0.008
 41
0.008
  0
VERTEX
  8
0
 10
1.2085
 20
4.77274
 30
0.0
 40
0.008
 41
0.008
  0
VERTEX
  8
0
 10
1.17925
 20
4.76064
 30
0.0
 40
0.008
 41
0.008
  0
VERTEX
  8
0
 10
1.16716
 20
4.73139
 30
0.0
 40
0.008
 41
0.008
  0
SEQEND
 8
0
  0
POLYLINE
  8
0
 62
     242
 66
     1
 10
0
 20
0
 30
0.0
 70
     1
 40
0.576
 41
0.576
  0
VERTEX
  8
0
 10
1.97651
 20
5.05365
 30
0.0
 40
0.008
 41
0.008
  0
VERTEX
  8
0
 10
1.97976
 20
5.0376
 30
0.0
 40
0.008
 41
0.008
  0
VERTEX
  8
0
 10
1.98861
 20
5.02447
 30
0.0
 40
0.008
 41
0.008
  0
VERTEX
  8
0
 10
2.00174
 20
5.01557
 30
0.0
 40
0.008
 41
0.008
  0
VERTEX
  8
0
 10
2.01785
 20
5.01232
 30
0.0
 40
0.008
 41
0.008
  0
VERTEX
  8
0
 10
2.04704
 20
5.02447
 30
0.0
 40
0.008
 41
0.008
  0
VERTEX
  8
0
 10
2.05919
 20
5.05365
 30
0.0
 40
0.008
 41
0.008
  0
VERTEX
  8
0
 10
2.04704
 20
5.0829
 30
0.0
 40
0.008
 41
0.008
  0
VERTEX
  8
0
 10
2.01785
 20
5.095
 30
0.0
 40
0.008
 41
0.008
  0
VERTEX
  8
0
 10
2.00174
 20
5.09179
 30
0.0
 40
0.008
 41
0.008
  0
VERTEX
  8
0
 10
1.98861
 20
5.0829
 30
0.0
 40
0.008
 41
0.008
  0
VERTEX
  8
0
 10
1.97976
 20
5.06976
 30
0.0
 40
0.008
 41
0.008
  0
VERTEX
  8
0
 10
1.97651
 20
5.05365
 30
0.0
 40
0.008
 41
0.008
  0
SEQEND
 8
0
  0
POLYLINE
  8
0
 62
     242
 66
     1
 10
0
 20
0
 30
0.0
 70
     1
 40
0.576
 41
0.576
  0
VERTEX
  8
0
 10
3.94032
 20
5.07844
 30
0.0
 40
0.008
 41
0.008
  0
VERTEX
  8
0
 10
3.95242
 20
5.04926
 30
0.0
 40
0.008
 41
0.008
  0
VERTEX
  8
0
 10
3.98167
 20
5.03711
 30
0.0
 40
0.008
 41
0.008
  0
VERTEX
  8
0
 10
4.01085
 20
5.04926
 30
0.0
 40
0.008
 41
0.008
  0
VERTEX
  8
0
 10
4.023
 20
5.07844
 30
0.0
 40
0.008
 41
0.008
  0
VERTEX
  8
0
 10
4.01085
 20
5.10769
 30
0.0
 40
0.008
 41
0.008
  0
VERTEX
  8
0
 10
3.98167
 20
5.11979
 30
0.0
 40
0.008
 41
0.008
  0
VERTEX
  8
0
 10
3.95242
 20
5.10769
 30
0.0
 40
0.008
 41
0.008
  0
VERTEX
  8
0
 10
3.94032
 20
5.07844
 30
0.0
 40
0.008
 41
0.008
  0
SEQEND
 8
0
  0
POLYLINE
  8
0
 62
     242
 66
     1
 10
0
 20
0
 30
0.0
 70
     1
 40
0.576
 41
0.576
  0
VERTEX
  8
0
 10
5.85813
 20
4.65369
 30
0.0
 40
0.008
 41
0.008
  0
VERTEX
  8
0
 10
5.87022
 20
4.62451
 30
0.0
 40
0.008
 41
0.008
  0
VERTEX
  8
0
 10
5.89947
 20
4.61236
 30
0.0
 40
0.008
 41
0.008
  0
VERTEX
  8
0
 10
5.92865
 20
4.62451
 30
0.0
 40
0.008
 41
0.008
  0
VERTEX
  8
0
 10
5.94081
 20
4.65369
 30
0.0
 40
0.008
 41
0.008
  0
VERTEX
  8
0
 10
5.92865
 20
4.68294
 30
0.0
 40
0.008
 41
0.008
  0
VERTEX
  8
0
 10
5.89947
 20
4.69504
 30
0.0
 40
0.008
 41
0.008
  0
VERTEX
  8
0
 10
5.87022
 20
4.68294
 30
0.0
 40
0.008
 41
0.008
  0
VERTEX
  8
0
 10
5.85813
 20
4.65369
 30
0.0
 40
0.008
 41
0.008
  0
SEQEND
 8
0
  0
POLYLINE
  8
0
 62
     242
 66
     1
 10
0
 20
0
 30
0.0
 70
     1
 40
0.576
 41
0.576
  0
VERTEX
  8
0
 10
5.01785
 20
3.82704
 30
0.0
 40
0.008
 41
0.008
  0
VERTEX
  8
0
 10
5.02994
 20
3.79785
 30
0.0
 40
0.008
 41
0.008
  0
VERTEX
  8
0
 10
5.05919
 20
3.78569
 30
0.0
 40
0.008
 41
0.008
  0
VERTEX
  8
0
 10
5.08838
 20
3.79785
 30
0.0
 40
0.008
 41
0.008
  0
VERTEX
  8
0
 10
5.10053
 20
3.82704
 30
0.0
 40
0.008
 41
0.008
  0
VERTEX
  8
0
 10
5.08838
 20
3.85628
 30
0.0
 40
0.008
 41
0.008
  0
VERTEX
  8
0
 10
5.05919
 20
3.86838
 30
0.0
 40
0.008
 41
0.008
  0
VERTEX
  8
0
 10
5.02994
 20
3.85628
 30
0.0
 40
0.008
 41
0.008
  0
VERTEX
  8
0
 10
5.01785
 20
3.82704
 30
0.0
 40
0.008
 41
0.008
  0
SEQEND
 8
0
  0
POLYLINE
  8
0
 62
     242
 66
     1
 10
0
 20
0
 30
0.0
 70
     1
 40
0.576
 41
0.576
  0
VERTEX
  8
0
 10
5.01785
 20
2.32704
 30
0.0
 40
0.008
 41
0.008
  0
VERTEX
  8
0
 10
5.02994
 20
2.29785
 30
0.0
 40
0.008
 41
0.008
  0
VERTEX
  8
0
 10
5.05919
 20
2.28569
 30
0.0
 40
0.008
 41
0.008
  0
VERTEX
  8
0
 10
5.08838
 20
2.29785
 30
0.0
 40
0.008
 41
0.008
  0
VERTEX
  8
0
 10
5.10053
 20
2.32704
 30
0.0
 40
0.008
 41
0.008
  0
VERTEX
  8
0
 10
5.08838
 20
2.35628
 30
0.0
 40
0.008
 41
0.008
  0
VERTEX
  8
0
 10
5.05919
 20
2.36837
 30
0.0
 40
0.008
 41
0.008
  0
VERTEX
  8
0
 10
5.02994
 20
2.35628
 30
0.0
 40
0.008
 41
0.008
  0
VERTEX
  8
0
 10
5.01785
 20
2.32704
 30
0.0
 40
0.008
 41
0.008
  0
SEQEND
 8
0
  0
POLYLINE
  8
0
 62
     242
 66
     1
 10
0
 20
0
 30
0.0
 70
     1
 40
0.576
 41
0.576
  0
VERTEX
  8
0
 10
2.01785
 20
2.46767
 30
0.0
 40
0.008
 41
0.008
  0
VERTEX
  8
0
 10
2.02994
 20
2.43847
 30
0.0
 40
0.008
 41
0.008
  0
VERTEX
  8
0
 10
2.05919
 20
2.42632
 30
0.0
 40
0.008
 41
0.008
  0
VERTEX
  8
0
 10
2.08838
 20
2.43847
 30
0.0
 40
0.008
 41
0.008
  0
VERTEX
  8
0
 10
2.10053
 20
2.46767
 30
0.0
 40
0.008
 41
0.008
  0
VERTEX
  8
0
 10
2.08838
 20
2.49685
 30
0.0
 40
0.008
 41
0.008
  0
VERTEX
  8
0
 10
2.05919
 20
2.50896
 30
0.0
 40
0.008
 41
0.008
  0
VERTEX
  8
0
 10
2.02994
 20
2.49685
 30
0.0
 40
0.008
 41
0.008
  0
VERTEX
  8
0
 10
2.01785
 20
2.46767
 30
0.0
 40
0.008
 41
0.008
  0
SEQEND
 8
0
  0
POLYLINE
  8
0
 62
     242
 66
     1
 10
0
 20
0
 30
0.0
 70
     1
 40
0.576
 41
0.576
  0
VERTEX
  8
0
 10
2.01785
 20
3.96767
 30
0.0
 40
0.008
 41
0.008
  0
VERTEX
  8
0
 10
2.02994
 20
3.93847
 30
0.0
 40
0.008
 41
0.008
  0
VERTEX
  8
0
 10
2.05919
 20
3.92632
 30
0.0
 40
0.008
 41
0.008
  0
VERTEX
  8
0
 10
2.08838
 20
3.93847
 30
0.0
 40
0.008
 41
0.008
  0
VERTEX
  8
0
 10
2.10053
 20
3.96767
 30
0.0
 40
0.008
 41
0.008
  0
VERTEX
  8
0
 10
2.08838
 20
3.99685
 30
0.0
 40
0.008
 41
0.008
  0
VERTEX
  8
0
 10
2.05919
 20
4.00896
 30
0.0
 40
0.008
 41
0.008
  0
VERTEX
  8
0
 10
2.02994
 20
3.99685
 30
0.0
 40
0.008
 41
0.008
  0
VERTEX
  8
0
 10
2.01785
 20
3.96767
 30
0.0
 40
0.008
 41
0.008
  0
SEQEND
 8
0
  0
POLYLINE
  8
0
 62
     242
 66
     1
 10
0
 20
0
 30
0.0
 70
     1
 40
0.576
 41
0.576
  0
VERTEX
  8
0
 10
0.670301
 20
2.15136
 30
0.0
 40
0.008
 41
0.008
  0
VERTEX
  8
0
 10
0.6824
 20
2.12218
 30
0.0
 40
0.008
 41
0.008
  0
VERTEX
  8
0
 10
0.711589
 20
2.11003
 30
0.0
 40
0.008
 41
0.008
  0
VERTEX
  8
0
 10
0.727647
 20
2.11328
 30
0.0
 40
0.008
 41
0.008
  0
VERTEX
  8
0
 10
0.740831
 20
2.12218
 30
0.0
 40
0.008
 41
0.008
  0
VERTEX
  8
0
 10
0.749675
 20
2.13531
 30
0.0
 40
0.008
 41
0.008
  0
VERTEX
  8
0
 10
0.752983
 20
2.15136
 30
0.0
 40
0.008
 41
0.008
  0
VERTEX
  8
0
 10
0.749675
 20
2.16749
 30
0.0
 40
0.008
 41
0.008
  0
VERTEX
  8
0
 10
0.740831
 20
2.18061
 30
0.0
 40
0.008
 41
0.008
  0
VERTEX
  8
0
 10
0.727647
 20
2.18951
 30
0.0
 40
0.008
 41
0.008
  0
VERTEX
  8
0
 10
0.711589
 20
2.19271
 30
0.0
 40
0.008
 41
0.008
  0
VERTEX
  8
0
 10
0.6824
 20
2.18061
 30
0.0
 40
0.008
 41
0.008
  0
VERTEX
  8
0
 10
0.670301
 20
2.15136
 30
0.0
 40
0.008
 41
0.008
  0
SEQEND
 8
0
  0
POLYLINE
  8
0
 62
     242
 66
     1
 10
0
 20
0
 30
0.0
 70
     1
 40
0.576
 41
0.576
  0
VERTEX
  8
0
 10
1.14979
 20
2.84233
 30
0.0
 40
0.008
 41
0.008
  0
VERTEX
  8
0
 10
1.16189
 20
2.81315
 30
0.0
 40
0.008
 41
0.008
  0
VERTEX
  8
0
 10
1.19113
 20
2.801
 30
0.0
 40
0.008
 41
0.008
  0
VERTEX
  8
0
 10
1.22032
 20
2.81315
 30
0.0
 40
0.008
 41
0.008
  0
VERTEX
  8
0
 10
1.23248
 20
2.84233
 30
0.0
 40
0.008
 41
0.008
  0
VERTEX
  8
0
 10
1.22032
 20
2.87158
 30
0.0
 40
0.008
 41
0.008
  0
VERTEX
  8
0
 10
1.19113
 20
2.88368
 30
0.0
 40
0.008
 41
0.008
  0
VERTEX
  8
0
 10
1.16189
 20
2.87158
 30
0.0
 40
0.008
 41
0.008
  0
VERTEX
  8
0
 10
1.14979
 20
2.84233
 30
0.0
 40
0.008
 41
0.008
  0
SEQEND
 8
0
  0
POLYLINE
  8
0
 62
     242
 66
     1
 10
0
 20
0
 30
0.0
 70
     1
 40
0.576
 41
0.576
  0
VERTEX
  8
0
 10
1.36285
 20
1.4139
 30
0.0
 40
0.008
 41
0.008
  0
VERTEX
  8
0
 10
1.37495
 20
1.38471
 30
0.0
 40
0.008
 41
0.008
  0
VERTEX
  8
0
 10
1.40414
 20
1.37256
 30
0.0
 40
0.008
 41
0.008
  0
VERTEX
  8
0
 10
1.42019
 20
1.37581
 30
0.0
 40
0.008
 41
0.008
  0
VERTEX
  8
0
 10
1.43338
 20
1.38471
 30
0.0
 40
0.008
 41
0.008
  0
VERTEX
  8
0
 10
1.44222
 20
1.39785
 30
0.0
 40
0.008
 41
0.008
  0
VERTEX
  8
0
 10
1.44553
 20
1.4139
 30
0.0
 40
0.008
 41
0.008
  0
VERTEX
  8
0
 10
1.44222
 20
1.43001
 30
0.0
 40
0.008
 41
0.008
  0
VERTEX
  8
0
 10
1.43338
 20
1.44314
 30
0.0
 40
0.008
 41
0.008
  0
VERTEX
  8
0
 10
1.42019
 20
1.45204
 30
0.0
 40
0.008
 41
0.008
  0
VERTEX
  8
0
 10
1.40414
 20
1.45524
 30
0.0
 40
0.008
 41
0.008
  0
VERTEX
  8
0
 10
1.37495
 20
1.44314
 30
0.0
 40
0.008
 41
0.008
  0
VERTEX
  8
0
 10
1.36285
 20
1.4139
 30
0.0
 40
0.008
 41
0.008
  0
SEQEND
 8
0
  0
POLYLINE
  8
0
 62
     140
 66
     1
 10
0
 20
0
 30
0.0
 70
     1
 40
0.576
 41
0.576
  0
VERTEX
  8
0
 10
0.0630425
 20
1.89481
 30
0.0
 40
0.008
 41
0.008
  0
VERTEX
  8
0
 10
0.16531
 20
1.95383
 30
0.0
 40
0.008
 41
0.008
  0
VERTEX
  8
0
 10
0.363932
 20
2.07058
 30
0.0
 40
0.008
 41
0.008
  0
VERTEX
  8
0
 10
0.536783
 20
2.1774
 30
0.0
 40
0.008
 41
0.008
  0
VERTEX
  8
0
 10
0.684353
 20
2.27621
 30
0.0
 40
0.008
 41
0.008
  0
VERTEX
  8
0
 10
0.807346
 20
2.36888
 30
0.0
 40
0.008
 41
0.008
  0
VERTEX
  8
0
 10
0.839356
 20
2.37717
 30
0.0
 40
0.008
 41
0.008
  0
VERTEX
  8
0
 10
0.866374
 20
2.35813
 30
0.0
 40
0.008
 41
0.008
  0
VERTEX
  8
0
 10
0.966851
 20
2.18419
 30
0.0
 40
0.008
 41
0.008
  0
VERTEX
  8
0
 10
0.990722
 20
2.16585
 30
0.0
 40
0.008
 41
0.008
  0
VERTEX
  8
0
 10
1.02062
 20
2.16976
 30
0.0
 40
0.008
 41
0.008
  0
VERTEX
  8
0
 10
1.23606
 20
2.29417
 30
0.0
 40
0.008
 41
0.008
  0
VERTEX
  8
0
 10
1.25439
 20
2.31814
 30
0.0
 40
0.008
 41
0.008
  0
VERTEX
  8
0
 10
1.25049
 20
2.34804
 30
0.0
 40
0.008
 41
0.008
  0
VERTEX
  8
0
 10
1.06445
 20
2.67019
 30
0.0
 40
0.008
 41
0.008
  0
VERTEX
  8
0
 10
1.06071
 20
2.70063
 30
0.0
 40
0.008
 41
0.008
  0
VERTEX
  8
0
 10
1.07302
 20
2.79585
 30
0.0
 40
0.008
 41
0.008
  0
VERTEX
  8
0
 10
1.07302
 20
4.74115
 30
0.0
 40
0.008
 41
0.008
  0
VERTEX
  8
0
 10
1.07731
 20
4.77279
 30
0.0
 40
0.008
 41
0.008
  0
VERTEX
  8
0
 10
1.08963
 20
4.8016
 30
0.0
 40
0.008
 41
0.008
  0
VERTEX
  8
0
 10
1.1091
 20
4.82617
 30
0.0
 40
0.008
 41
0.008
  0
VERTEX
  8
0
 10
1.13487
 20
4.845
 30
0.0
 40
0.008
 41
0.008
  0
VERTEX
  8
0
 10
1.19672
 20
4.87853
 30
0.0
 40
0.008
 41
0.008
  0
VERTEX
  8
0
 10
1.56065
 20
5.04297
 30
0.0
 40
0.008
 41
0.008
  0
VERTEX
  8
0
 10
1.96306
 20
5.16211
 30
0.0
 40
0.008
 41
0.008
  0
VERTEX
  8
0
 10
2.40668
 20
5.23649
 30
0.0
 40
0.008
 41
0.008
  0
VERTEX
  8
0
 10
2.89432
 20
5.26671
 30
0.0
 40
0.008
 41
0.008
  0
VERTEX
  8
0
 10
2.92247
 20
5.25543
 30
0.0
 40
0.008
 41
0.008
  0
VERTEX
  8
0
 10
2.93425
 20
5.22738
 30
0.0
 40
0.008
 41
0.008
  0
VERTEX
  8
0
 10
2.93425
 20
5.08247
 30
0.0
 40
0.008
 41
0.008
  0
VERTEX
  8
0
 10
2.94581
 20
5.05453
 30
0.0
 40
0.008
 41
0.008
  0
VERTEX
  8
0
 10
2.97379
 20
5.04292
 30
0.0
 40
0.008
 41
0.008
  0
VERTEX
  8
0
 10
3.39469
 20
5.04292
 30
0.0
 40
0.008
 41
0.008
  0
VERTEX
  8
0
 10
3.42264
 20
5.05453
 30
0.0
 40
0.008
 41
0.008
  0
VERTEX
  8
0
 10
3.43425
 20
5.08247
 30
0.0
 40
0.008
 41
0.008
  0
VERTEX
  8
0
 10
3.43425
 20
5.21035
 30
0.0
 40
0.008
 41
0.008
  0
VERTEX
  8
0
 10
3.43761
 20
5.2264
 30
0.0
 40
0.008
 41
0.008
  0
VERTEX
  8
0
 10
3.44667
 20
5.23921
 30
0.0
 40
0.008
 41
0.008
  0
VERTEX
  8
0
 10
3.46007
 20
5.24744
 30
0.0
 40
0.008
 41
0.008
  0
VERTEX
  8
0
 10
3.47624
 20
5.24968
 30
0.0
 40
0.008
 41
0.008
  0
VERTEX
  8
0
 10
4.00608
 20
5.19499
 30
0.0
 40
0.008
 41
0.008
  0
VERTEX
  8
0
 10
4.58003
 20
5.10292
 30
0.0
 40
0.008
 41
0.008
  0
VERTEX
  8
0
 10
5.20068
 20
4.97314
 30
0.0
 40
0.008
 41
0.008
  0
VERTEX
  8
0
 10
5.87067
 20
4.80518
 30
0.0
 40
0.008
 41
0.008
  0
VERTEX
  8
0
 10
5.95806
 20
4.78163
 30
0.0
 40
0.008
 41
0.008
  0
VERTEX
  8
0
 10
5.99343
 20
4.76551
 30
0.0
 40
0.008
 41
0.008
  0
VERTEX
  8
0
 10
6.02106
 20
4.73947
 30
0.0
 40
0.008
 41
0.008
  0
VERTEX
  8
0
 10
6.03901
 20
4.706
 30
0.0
 40
0.008
 41
0.008
  0
VERTEX
  8
0
 10
6.04546
 20
4.66758
 30
0.0
 40
0.008
 41
0.008
  0
VERTEX
  8
0
 10
6.04546
 20
1.45899
 30
0.0
 40
0.008
 41
0.008
  0
VERTEX
  8
0
 10
6.03614
 20
1.41303
 30
0.0
 40
0.008
 41
0.008
  0
VERTEX
  8
0
 10
6.01085
 20
1.37549
 30
0.0
 40
0.008
 41
0.008
  0
VERTEX
  8
0
 10
5.97331
 20
1.35015
 30
0.0
 40
0.008
 41
0.008
  0
VERTEX
  8
0
 10
5.92736
 20
1.34087
 30
0.0
 40
0.008
 41
0.008
  0
VERTEX
  8
0
 10
3.56629
 20
1.34087
 30
0.0
 40
0.008
 41
0.008
  0
VERTEX
  8
0
 10
3.52029
 20
1.3316
 30
0.0
 40
0.008
 41
0.008
  0
VERTEX
  8
0
 10
3.48281
 20
1.30632
 30
0.0
 40
0.008
 41
0.008
  0
VERTEX
  8
0
 10
3.45747
 20
1.26877
 30
0.0
 40
0.008
 41
0.008
  0
VERTEX
  8
0
 10
3.44824
 20
1.22282
 30
0.0
 40
0.008
 41
0.008
  0
VERTEX
  8
0
 10
3.44824
 20
0.725532
 30
0.0
 40
0.008
 41
0.008
  0
VERTEX
  8
0
 10
3.44065
 20
0.683919
 30
0.0
 40
0.008
 41
0.008
  0
VERTEX
  8
0
 10
3.41971
 20
0.648546
 30
0.0
 40
0.008
 41
0.008
  0
VERTEX
  8
0
 10
3.38786
 20
0.622504
 30
0.0
 40
0.008
 41
0.008
  0
VERTEX
  8
0
 10
3.34787
 20
0.608778
 30
0.0
 40
0.008
 41
0.008
  0
VERTEX
  8
0
 10
3.24744
 20
0.593479
 30
0.0
 40
0.008
 41
0.008
  0
VERTEX
  8
0
 10
2.85835
 20
0.544922
 30
0.0
 40
0.008
 41
0.008
  0
VERTEX
  8
0
 10
2.67367
 20
0.523817
 30
0.0
 40
0.008
 41
0.008
  0
VERTEX
  8
0
 10
2.48639
 20
0.498969
 30
0.0
 40
0.008
 41
0.008
  0
VERTEX
  8
0
 10
2.29536
 20
0.467068
 30
0.0
 40
0.008
 41
0.008
  0
VERTEX
  8
0
 10
2.09956
 20
0.424533
 30
0.0
 40
0.008
 41
0.008
  0
VERTEX
  8
0
 10
1.89789
 20
0.367947
 30
0.0
 40
0.008
 41
0.008
  0
VERTEX
  8
0
 10
1.68929
 20
0.293782
 30
0.0
 40
0.008
 41
0.008
  0
VERTEX
  8
0
 10
1.4726
 20
0.198622
 30
0.0
 40
0.008
 41
0.008
  0
VERTEX
  8
0
 10
1.24691
 20
0.0788846
 30
0.0
 40
0.008
 41
0.008
  0
VERTEX
  8
0
 10
1.14459
 20
0.0198025
 30
0.0
 40
0.008
 41
0.008
  0
VERTEX
  8
0
 10
1.08556
 20
0.0039605
 30
0.0
 40
0.008
 41
0.008
  0
VERTEX
  8
0
 10
1.05496
 20
0.00802951
 30
0.0
 40
0.008
 41
0.008
  0
VERTEX
  8
0
 10
1.01362
 20
0.0284289
 30
0.0
 40
0.008
 41
0.008
  0
VERTEX
  8
0
 10
0.983236
 20
0.0630968
 30
0.0
 40
0.008
 41
0.008
  0
VERTEX
  8
0
 10
0.0198025
 20
1.73351
 30
0.0
 40
0.008
 41
0.008
  0
VERTEX
  8
0
 10
0.00482856
 20
1.778
 30
0.0
 40
0.008
 41
0.008
  0
VERTEX
  8
0
 10
0.00797526
 20
1.82314
 30
0.0
 40
0.008
 41
0.008
  0
VERTEX
  8
0
 10
0.0278321
 20
1.86376
 30
0.0
 40
0.008
 41
0.008
  0
VERTEX
  8
0
 10
0.0630425
 20
1.89481
 30
0.0
 40
0.008
 41
0.008
  0
SEQEND
 8
0
  0
ENDSEC
  0
EOF
