  0
SECTION
  2
HEADER
  9
$ACADVER
  1
AC1014
  9
$EXTMIN
 10
70.16401489310567
 20
112.369642808922
 30
0.0
  9
$EXTMAX
 10
277.0834797641999
 20
227.1366601424358
 30
0.0
  9
$HANDSEED
  5
56
  9
$MEASUREMENT
 70
1
  0
ENDSEC
  0
SECTION
  2
TABLES
  0
TABLE
  2
VPORT
  5
8
330
0
100
AcDbSymbolTable
 70
     4
  0
VPORT
  5
2E
330
8
100
AcDbSymbolTableRecord
100
AcDbViewportTableRecord
  2
*ACTIVE
 70
     0
 10
0.0
 20
0.0
 11
1.0
 21
1.0
 12
209.9999999999999
 22
148.4999999999999
 13
0.0
 23
0.0
 14
10.0
 24
10.0
 15
10.0
 25
10.0
 16
0.0
 26
0.0
 36
1.0
 17
0.0
 27
0.0
 37
0.0
 40
340.9950045922664
 41
1.239944521497919
 42
50.0
 43
0.0
 44
0.0
 50
0.0
 51
0.0
 71
     0
 72
   100
 73
     1
 74
     3
 75
     0
 76
     0
 77
     0
 78
     0
  0
ENDTAB
  0
TABLE
  2
LTYPE
  5
5
330
0
100
AcDbSymbolTable
 70
     1
  0
LTYPE
  5
14
330
5
100
AcDbSymbolTableRecord
100
AcDbLinetypeTableRecord
  2
BYBLOCK
 70
     0
  3

 72
    65
 73
     0
 40
0.0
  0
LTYPE
  5
15
330
5
100
AcDbSymbolTableRecord
100
AcDbLinetypeTableRecord
  2
BYLAYER
 70
     0
  3

 72
    65
 73
     0
 40
0.0
  0
LTYPE
  5
16
330
5
100
AcDbSymbolTableRecord
100
AcDbLinetypeTableRecord
  2
CONTINUOUS
 70
     0
  3
Solid line
 72
    65
 73
     0
 40
0.0
  0
ENDTAB
  0
TABLE
  2
LAYER
  5
2
330
0
100
AcDbSymbolTable
 70
1
  0
LAYER
  5
10
330
2
100
AcDbSymbolTableRecord
100
AcDbLayerTableRecord
  2
0
 70
     0
 62
     7
  6
CONTINUOUS
  0
ENDTAB
  0
TABLE
  2
STYLE
  5
3
330
0
100
AcDbSymbolTable
 70
     1
  0
STYLE
  5
11
330
3
100
AcDbSymbolTableRecord
100
AcDbTextStyleTableRecord
  2
STANDARD
 70
     0
 40
0.0
 41
1.0
 50
0.0
 71
     0
 42
2.5
  3
txt
  4

  0
ENDTAB
  0
TABLE
  2
VIEW
  5
6
330
0
100
AcDbSymbolTable
 70
     0
  0
ENDTAB
  0
TABLE
  2
UCS
  5
7
330
0
100
AcDbSymbolTable
 70
     0
  0
ENDTAB
  0
TABLE
  2
APPID
  5
9
330
0
100
AcDbSymbolTable
 70
     2
  0
APPID
  5
12
330
9
100
AcDbSymbolTableRecord
100
AcDbRegAppTableRecord
  2
ACAD
 70
     0
  0
APPID
  5
2B
330
9
100
AcDbSymbolTableRecord
100
AcDbRegAppTableRecord
  2
URBANX
 70
     0
  0
ENDTAB
  0
TABLE
  2
DIMSTYLE
  5
A
330
0
100
AcDbSymbolTable
 70
     1
  0
DIMSTYLE
105
27
330
A
100
AcDbSymbolTableRecord
100
AcDbDimStyleTableRecord
  2
ISO-25
 70
     0
  3

  4

  5

  6

  7

 40
1.0
 41
2.5
 42
0.625
 43
3.75
 44
1.25
 45
0.0
 46
0.0
 47
0.0
 48
0.0
140
2.5
141
2.5
142
0.0
143
0.03937007874016
144
1.0
145
0.0
146
1.0
147
0.625
 71
     0
 72
     0
 73
     0
 74
     0
 75
     0
 76
     0
 77
     1
 78
     8
170
     0
171
     3
172
     1
173
     0
174
     0
175
     0
176
     0
177
     0
178
     0
270
     2
271
     2
272
     2
273
     2
274
     3
340
11
275
     0
280
     0
281
     0
282
     0
283
     0
284
     8
285
     0
286
     0
287
     3
288
     0
  0
ENDTAB
  0
TABLE
  2
BLOCK_RECORD
  5
1
330
0
100
AcDbSymbolTable
 70
     1
  0
BLOCK_RECORD
  5
1F
102
{ACAD_XDICTIONARY
360
52
102
}
330
1
100
AcDbSymbolTableRecord
100
AcDbBlockTableRecord
  2
*MODEL_SPACE
  0
BLOCK_RECORD
  5
1B
102
{ACAD_XDICTIONARY
360
50
102
}
330
1
100
AcDbSymbolTableRecord
100
AcDbBlockTableRecord
  2
*PAPER_SPACE
  0
ENDTAB
  0
ENDSEC
  0
SECTION
  2
BLOCKS
  0
BLOCK
  5
20
330
1F
100
AcDbEntity
  8
0
100
AcDbBlockBegin
  2
*MODEL_SPACE
 70
     0
 10
0.0
 20
0.0
 30
0.0
  3
*MODEL_SPACE
  1

  0
ENDBLK
  5
21
330
1F
100
AcDbEntity
  8
0
100
AcDbBlockEnd
  0
BLOCK
  5
1C
330
1B
100
AcDbEntity
 67
     1
  8
0
100
AcDbBlockBegin
  2
*PAPER_SPACE
  1

  0
ENDBLK
  5
1D
330
1B
100
AcDbEntity
 67
     1
  8
0
100
AcDbBlockEnd
  0
ENDSEC
  0
SECTION
  2
ENTITIES
  0
SPLINE
  5
ff
100
AcDbEntity
  8
0
100
AcDbSpline
210
0.0
220
0.0
230
1.0
 62
     12
 70
     0
 71
     3
 72
     8
 73
4
 40
0.0
 40
0.0
 40
0.0
 40
0.0
 40
1.0
 40
1.0
 40
1.0
 40
1.0
 10
5.05876
 20
37.925
 30
0.0
 10
5.05876
 20
37.3447
 30
0.0
 10
4.58749
 20
36.8748
 30
0.0
 10
4.00872
 20
36.8748
 30
0.0
  0
SPLINE
  5
100
100
AcDbEntity
  8
0
100
AcDbSpline
210
0.0
220
0.0
230
1.0
 62
     12
 70
     0
 71
     3
 72
     8
 73
4
 40
0.0
 40
0.0
 40
0.0
 40
0.0
 40
1.0
 40
1.0
 40
1.0
 40
1.0
 10
4.00872
 20
36.8748
 30
0.0
 10
3.42856
 20
36.8748
 30
0.0
 10
2.95865
 20
37.3447
 30
0.0
 10
2.95865
 20
37.925
 30
0.0
  0
SPLINE
  5
101
100
AcDbEntity
  8
0
100
AcDbSpline
210
0.0
220
0.0
230
1.0
 62
     12
 70
     0
 71
     3
 72
     8
 73
4
 40
0.0
 40
0.0
 40
0.0
 40
0.0
 40
1.0
 40
1.0
 40
1.0
 40
1.0
 10
2.95865
 20
37.925
 30
0.0
 10
2.95865
 20
38.505
 30
0.0
 10
3.42856
 20
38.9749
 30
0.0
 10
4.00872
 20
38.9749
 30
0.0
  0
SPLINE
  5
102
100
AcDbEntity
  8
0
100
AcDbSpline
210
0.0
220
0.0
230
1.0
 62
     12
 70
     0
 71
     3
 72
     8
 73
4
 40
0.0
 40
0.0
 40
0.0
 40
0.0
 40
1.0
 40
1.0
 40
1.0
 40
1.0
 10
4.00872
 20
38.9749
 30
0.0
 10
4.58749
 20
38.9749
 30
0.0
 10
5.05876
 20
38.505
 30
0.0
 10
5.05876
 20
37.925
 30
0.0
  0
LINE
  5
103
100
AcDbEntity
  8
0
100
AcDbLine
 62
     12
 10
5.05876
 20
37.925
 30
0.0
 11
5.05876
 21
37.925
 31
0.0
  0
SPLINE
  5
104
100
AcDbEntity
  8
0
100
AcDbSpline
210
0.0
220
0.0
230
1.0
 62
     12
 70
     0
 71
     3
 72
     8
 73
4
 40
0.0
 40
0.0
 40
0.0
 40
0.0
 40
1.0
 40
1.0
 40
1.0
 40
1.0
 10
70.8297
 20
19.0583
 30
0.0
 10
70.8297
 20
18.4781
 30
0.0
 10
70.3584
 20
18.0082
 30
0.0
 10
69.7798
 20
18.0082
 30
0.0
  0
SPLINE
  5
105
100
AcDbEntity
  8
0
100
AcDbSpline
210
0.0
220
0.0
230
1.0
 62
     12
 70
     0
 71
     3
 72
     8
 73
4
 40
0.0
 40
0.0
 40
0.0
 40
0.0
 40
1.0
 40
1.0
 40
1.0
 40
1.0
 10
69.7798
 20
18.0082
 30
0.0
 10
69.1995
 20
18.0082
 30
0.0
 10
68.7296
 20
18.4781
 30
0.0
 10
68.7296
 20
19.0583
 30
0.0
  0
SPLINE
  5
106
100
AcDbEntity
  8
0
100
AcDbSpline
210
0.0
220
0.0
230
1.0
 62
     12
 70
     0
 71
     3
 72
     8
 73
4
 40
0.0
 40
0.0
 40
0.0
 40
0.0
 40
1.0
 40
1.0
 40
1.0
 40
1.0
 10
68.7296
 20
19.0583
 30
0.0
 10
68.7296
 20
19.6384
 30
0.0
 10
69.1995
 20
20.1083
 30
0.0
 10
69.7798
 20
20.1083
 30
0.0
  0
SPLINE
  5
107
100
AcDbEntity
  8
0
100
AcDbSpline
210
0.0
220
0.0
230
1.0
 62
     12
 70
     0
 71
     3
 72
     8
 73
4
 40
0.0
 40
0.0
 40
0.0
 40
0.0
 40
1.0
 40
1.0
 40
1.0
 40
1.0
 10
69.7798
 20
20.1083
 30
0.0
 10
70.3584
 20
20.1083
 30
0.0
 10
70.8297
 20
19.6384
 30
0.0
 10
70.8297
 20
19.0583
 30
0.0
  0
LINE
  5
108
100
AcDbEntity
  8
0
100
AcDbLine
 62
     12
 10
70.8297
 20
19.0583
 30
0.0
 11
70.8297
 21
19.0583
 31
0.0
  0
SPLINE
  5
109
100
AcDbEntity
  8
0
100
AcDbSpline
210
0.0
220
0.0
230
1.0
 62
     12
 70
     0
 71
     3
 72
     8
 73
4
 40
0.0
 40
0.0
 40
0.0
 40
0.0
 40
1.0
 40
1.0
 40
1.0
 40
1.0
 10
126.855
 20
4.30085
 30
0.0
 10
126.855
 20
3.72071
 30
0.0
 10
126.384
 20
3.25079
 30
0.0
 10
125.805
 20
3.25079
 30
0.0
  0
SPLINE
  5
10a
100
AcDbEntity
  8
0
100
AcDbSpline
210
0.0
220
0.0
230
1.0
 62
     12
 70
     0
 71
     3
 72
     8
 73
4
 40
0.0
 40
0.0
 40
0.0
 40
0.0
 40
1.0
 40
1.0
 40
1.0
 40
1.0
 10
125.805
 20
3.25079
 30
0.0
 10
125.225
 20
3.25079
 30
0.0
 10
124.755
 20
3.72071
 30
0.0
 10
124.755
 20
4.30085
 30
0.0
  0
SPLINE
  5
10b
100
AcDbEntity
  8
0
100
AcDbSpline
210
0.0
220
0.0
230
1.0
 62
     12
 70
     0
 71
     3
 72
     8
 73
4
 40
0.0
 40
0.0
 40
0.0
 40
0.0
 40
1.0
 40
1.0
 40
1.0
 40
1.0
 10
124.755
 20
4.30085
 30
0.0
 10
124.755
 20
4.881
 30
0.0
 10
125.225
 20
5.35093
 30
0.0
 10
125.805
 20
5.35093
 30
0.0
  0
SPLINE
  5
10c
100
AcDbEntity
  8
0
100
AcDbSpline
210
0.0
220
0.0
230
1.0
 62
     12
 70
     0
 71
     3
 72
     8
 73
4
 40
0.0
 40
0.0
 40
0.0
 40
0.0
 40
1.0
 40
1.0
 40
1.0
 40
1.0
 10
125.805
 20
5.35093
 30
0.0
 10
126.384
 20
5.35093
 30
0.0
 10
126.855
 20
4.881
 30
0.0
 10
126.855
 20
4.30085
 30
0.0
  0
LINE
  5
10d
100
AcDbEntity
  8
0
100
AcDbLine
 62
     12
 10
126.855
 20
4.30085
 30
0.0
 11
126.855
 21
4.30085
 31
0.0
  0
SPLINE
  5
10e
100
AcDbEntity
  8
0
100
AcDbSpline
210
0.0
220
0.0
230
1.0
 62
     12
 70
     0
 71
     3
 72
     8
 73
4
 40
0.0
 40
0.0
 40
0.0
 40
0.0
 40
1.0
 40
1.0
 40
1.0
 40
1.0
 10
150.395
 20
45.194
 30
0.0
 10
150.395
 20
44.614
 30
0.0
 10
149.925
 20
44.1441
 30
0.0
 10
149.345
 20
44.1441
 30
0.0
  0
SPLINE
  5
10f
100
AcDbEntity
  8
0
100
AcDbSpline
210
0.0
220
0.0
230
1.0
 62
     12
 70
     0
 71
     3
 72
     8
 73
4
 40
0.0
 40
0.0
 40
0.0
 40
0.0
 40
1.0
 40
1.0
 40
1.0
 40
1.0
 10
149.345
 20
44.1441
 30
0.0
 10
148.766
 20
44.1441
 30
0.0
 10
148.295
 20
44.614
 30
0.0
 10
148.295
 20
45.194
 30
0.0
  0
SPLINE
  5
110
100
AcDbEntity
  8
0
100
AcDbSpline
210
0.0
220
0.0
230
1.0
 62
     12
 70
     0
 71
     3
 72
     8
 73
4
 40
0.0
 40
0.0
 40
0.0
 40
0.0
 40
1.0
 40
1.0
 40
1.0
 40
1.0
 10
148.295
 20
45.194
 30
0.0
 10
148.295
 20
45.7743
 30
0.0
 10
148.766
 20
46.2442
 30
0.0
 10
149.345
 20
46.2442
 30
0.0
  0
SPLINE
  5
111
100
AcDbEntity
  8
0
100
AcDbSpline
210
0.0
220
0.0
230
1.0
 62
     12
 70
     0
 71
     3
 72
     8
 73
4
 40
0.0
 40
0.0
 40
0.0
 40
0.0
 40
1.0
 40
1.0
 40
1.0
 40
1.0
 10
149.345
 20
46.2442
 30
0.0
 10
149.925
 20
46.2442
 30
0.0
 10
150.395
 20
45.7743
 30
0.0
 10
150.395
 20
45.194
 30
0.0
  0
LINE
  5
112
100
AcDbEntity
  8
0
100
AcDbLine
 62
     12
 10
150.395
 20
45.194
 30
0.0
 11
150.395
 21
45.194
 31
0.0
  0
SPLINE
  5
113
100
AcDbEntity
  8
0
100
AcDbSpline
210
0.0
220
0.0
230
1.0
 62
     12
 70
     0
 71
     3
 72
     8
 73
4
 40
0.0
 40
0.0
 40
0.0
 40
0.0
 40
1.0
 40
1.0
 40
1.0
 40
1.0
 10
124.011
 20
120.177
 30
0.0
 10
124.011
 20
119.597
 30
0.0
 10
123.54
 20
119.127
 30
0.0
 10
122.961
 20
119.127
 30
0.0
  0
SPLINE
  5
114
100
AcDbEntity
  8
0
100
AcDbSpline
210
0.0
220
0.0
230
1.0
 62
     12
 70
     0
 71
     3
 72
     8
 73
4
 40
0.0
 40
0.0
 40
0.0
 40
0.0
 40
1.0
 40
1.0
 40
1.0
 40
1.0
 10
122.961
 20
119.127
 30
0.0
 10
122.381
 20
119.127
 30
0.0
 10
121.911
 20
119.597
 30
0.0
 10
121.911
 20
120.177
 30
0.0
  0
SPLINE
  5
115
100
AcDbEntity
  8
0
100
AcDbSpline
210
0.0
220
0.0
230
1.0
 62
     12
 70
     0
 71
     3
 72
     8
 73
4
 40
0.0
 40
0.0
 40
0.0
 40
0.0
 40
1.0
 40
1.0
 40
1.0
 40
1.0
 10
121.911
 20
120.177
 30
0.0
 10
121.911
 20
120.758
 30
0.0
 10
122.381
 20
121.227
 30
0.0
 10
122.961
 20
121.227
 30
0.0
  0
SPLINE
  5
116
100
AcDbEntity
  8
0
100
AcDbSpline
210
0.0
220
0.0
230
1.0
 62
     12
 70
     0
 71
     3
 72
     8
 73
4
 40
0.0
 40
0.0
 40
0.0
 40
0.0
 40
1.0
 40
1.0
 40
1.0
 40
1.0
 10
122.961
 20
121.227
 30
0.0
 10
123.54
 20
121.227
 30
0.0
 10
124.011
 20
120.758
 30
0.0
 10
124.011
 20
120.177
 30
0.0
  0
LINE
  5
117
100
AcDbEntity
  8
0
100
AcDbLine
 62
     12
 10
124.011
 20
120.177
 30
0.0
 11
124.011
 21
120.177
 31
0.0
  0
SPLINE
  5
118
100
AcDbEntity
  8
0
100
AcDbSpline
210
0.0
220
0.0
230
1.0
 62
     12
 70
     0
 71
     3
 72
     8
 73
4
 40
0.0
 40
0.0
 40
0.0
 40
0.0
 40
1.0
 40
1.0
 40
1.0
 40
1.0
 10
103.453
 20
128.363
 30
0.0
 10
103.453
 20
127.783
 30
0.0
 10
102.982
 20
127.313
 30
0.0
 10
102.403
 20
127.313
 30
0.0
  0
SPLINE
  5
119
100
AcDbEntity
  8
0
100
AcDbSpline
210
0.0
220
0.0
230
1.0
 62
     12
 70
     0
 71
     3
 72
     8
 73
4
 40
0.0
 40
0.0
 40
0.0
 40
0.0
 40
1.0
 40
1.0
 40
1.0
 40
1.0
 10
102.403
 20
127.313
 30
0.0
 10
101.823
 20
127.313
 30
0.0
 10
101.353
 20
127.783
 30
0.0
 10
101.353
 20
128.363
 30
0.0
  0
SPLINE
  5
11a
100
AcDbEntity
  8
0
100
AcDbSpline
210
0.0
220
0.0
230
1.0
 62
     12
 70
     0
 71
     3
 72
     8
 73
4
 40
0.0
 40
0.0
 40
0.0
 40
0.0
 40
1.0
 40
1.0
 40
1.0
 40
1.0
 10
101.353
 20
128.363
 30
0.0
 10
101.353
 20
128.943
 30
0.0
 10
101.823
 20
129.413
 30
0.0
 10
102.403
 20
129.413
 30
0.0
  0
SPLINE
  5
11b
100
AcDbEntity
  8
0
100
AcDbSpline
210
0.0
220
0.0
230
1.0
 62
     12
 70
     0
 71
     3
 72
     8
 73
4
 40
0.0
 40
0.0
 40
0.0
 40
0.0
 40
1.0
 40
1.0
 40
1.0
 40
1.0
 10
102.403
 20
129.413
 30
0.0
 10
102.982
 20
129.413
 30
0.0
 10
103.453
 20
128.943
 30
0.0
 10
103.453
 20
128.363
 30
0.0
  0
LINE
  5
11c
100
AcDbEntity
  8
0
100
AcDbLine
 62
     12
 10
103.453
 20
128.363
 30
0.0
 11
103.453
 21
128.363
 31
0.0
  0
SPLINE
  5
11d
100
AcDbEntity
  8
0
100
AcDbSpline
210
0.0
220
0.0
230
1.0
 62
     12
 70
     0
 71
     3
 72
     8
 73
4
 40
0.0
 40
0.0
 40
0.0
 40
0.0
 40
1.0
 40
1.0
 40
1.0
 40
1.0
 10
53.5725
 20
128.992
 30
0.0
 10
53.5725
 20
128.413
 30
0.0
 10
53.1026
 20
127.943
 30
0.0
 10
52.5226
 20
127.943
 30
0.0
  0
SPLINE
  5
11e
100
AcDbEntity
  8
0
100
AcDbSpline
210
0.0
220
0.0
230
1.0
 62
     12
 70
     0
 71
     3
 72
     8
 73
4
 40
0.0
 40
0.0
 40
0.0
 40
0.0
 40
1.0
 40
1.0
 40
1.0
 40
1.0
 10
52.5226
 20
127.943
 30
0.0
 10
51.9423
 20
127.943
 30
0.0
 10
51.4724
 20
128.413
 30
0.0
 10
51.4724
 20
128.992
 30
0.0
  0
SPLINE
  5
11f
100
AcDbEntity
  8
0
100
AcDbSpline
210
0.0
220
0.0
230
1.0
 62
     12
 70
     0
 71
     3
 72
     8
 73
4
 40
0.0
 40
0.0
 40
0.0
 40
0.0
 40
1.0
 40
1.0
 40
1.0
 40
1.0
 10
51.4724
 20
128.992
 30
0.0
 10
51.4724
 20
129.573
 30
0.0
 10
51.9423
 20
130.043
 30
0.0
 10
52.5226
 20
130.043
 30
0.0
  0
SPLINE
  5
120
100
AcDbEntity
  8
0
100
AcDbSpline
210
0.0
220
0.0
230
1.0
 62
     12
 70
     0
 71
     3
 72
     8
 73
4
 40
0.0
 40
0.0
 40
0.0
 40
0.0
 40
1.0
 40
1.0
 40
1.0
 40
1.0
 10
52.5226
 20
130.043
 30
0.0
 10
53.1026
 20
130.043
 30
0.0
 10
53.5725
 20
129.573
 30
0.0
 10
53.5725
 20
128.992
 30
0.0
  0
LINE
  5
121
100
AcDbEntity
  8
0
100
AcDbLine
 62
     12
 10
53.5725
 20
128.992
 30
0.0
 11
53.5725
 21
128.992
 31
0.0
  0
SPLINE
  5
122
100
AcDbEntity
  8
0
100
AcDbSpline
210
0.0
220
0.0
230
1.0
 62
     12
 70
     0
 71
     3
 72
     8
 73
4
 40
0.0
 40
0.0
 40
0.0
 40
0.0
 40
1.0
 40
1.0
 40
1.0
 40
1.0
 10
4.86033
 20
118.204
 30
0.0
 10
4.86033
 20
117.624
 30
0.0
 10
4.38905
 20
117.154
 30
0.0
 10
3.81028
 20
117.154
 30
0.0
  0
SPLINE
  5
123
100
AcDbEntity
  8
0
100
AcDbSpline
210
0.0
220
0.0
230
1.0
 62
     12
 70
     0
 71
     3
 72
     8
 73
4
 40
0.0
 40
0.0
 40
0.0
 40
0.0
 40
1.0
 40
1.0
 40
1.0
 40
1.0
 10
3.81028
 20
117.154
 30
0.0
 10
3.23012
 20
117.154
 30
0.0
 10
2.76021
 20
117.624
 30
0.0
 10
2.76021
 20
118.204
 30
0.0
  0
SPLINE
  5
124
100
AcDbEntity
  8
0
100
AcDbSpline
210
0.0
220
0.0
230
1.0
 62
     12
 70
     0
 71
     3
 72
     8
 73
4
 40
0.0
 40
0.0
 40
0.0
 40
0.0
 40
1.0
 40
1.0
 40
1.0
 40
1.0
 10
2.76021
 20
118.204
 30
0.0
 10
2.76021
 20
118.784
 30
0.0
 10
3.23012
 20
119.254
 30
0.0
 10
3.81028
 20
119.254
 30
0.0
  0
SPLINE
  5
125
100
AcDbEntity
  8
0
100
AcDbSpline
210
0.0
220
0.0
230
1.0
 62
     12
 70
     0
 71
     3
 72
     8
 73
4
 40
0.0
 40
0.0
 40
0.0
 40
0.0
 40
1.0
 40
1.0
 40
1.0
 40
1.0
 10
3.81028
 20
119.254
 30
0.0
 10
4.38905
 20
119.254
 30
0.0
 10
4.86033
 20
118.784
 30
0.0
 10
4.86033
 20
118.204
 30
0.0
  0
LINE
  5
126
100
AcDbEntity
  8
0
100
AcDbLine
 62
     12
 10
4.86033
 20
118.204
 30
0.0
 11
4.86033
 21
118.204
 31
0.0
  0
SPLINE
  5
127
100
AcDbEntity
  8
0
100
AcDbSpline
210
0.0
220
0.0
230
1.0
 62
     12
 70
     0
 71
     3
 72
     8
 73
4
 40
0.0
 40
0.0
 40
0.0
 40
0.0
 40
1.0
 40
1.0
 40
1.0
 40
1.0
 10
26.2034
 20
97.2069
 30
0.0
 10
26.2034
 20
96.6265
 30
0.0
 10
25.7321
 20
96.1566
 30
0.0
 10
25.1533
 20
96.1566
 30
0.0
  0
SPLINE
  5
128
100
AcDbEntity
  8
0
100
AcDbSpline
210
0.0
220
0.0
230
1.0
 62
     12
 70
     0
 71
     3
 72
     8
 73
4
 40
0.0
 40
0.0
 40
0.0
 40
0.0
 40
1.0
 40
1.0
 40
1.0
 40
1.0
 10
25.1533
 20
96.1566
 30
0.0
 10
24.5732
 20
96.1566
 30
0.0
 10
24.1033
 20
96.6265
 30
0.0
 10
24.1033
 20
97.2069
 30
0.0
  0
SPLINE
  5
129
100
AcDbEntity
  8
0
100
AcDbSpline
210
0.0
220
0.0
230
1.0
 62
     12
 70
     0
 71
     3
 72
     8
 73
4
 40
0.0
 40
0.0
 40
0.0
 40
0.0
 40
1.0
 40
1.0
 40
1.0
 40
1.0
 10
24.1033
 20
97.2069
 30
0.0
 10
24.1033
 20
97.7868
 30
0.0
 10
24.5732
 20
98.2567
 30
0.0
 10
25.1533
 20
98.2567
 30
0.0
  0
SPLINE
  5
12a
100
AcDbEntity
  8
0
100
AcDbSpline
210
0.0
220
0.0
230
1.0
 62
     12
 70
     0
 71
     3
 72
     8
 73
4
 40
0.0
 40
0.0
 40
0.0
 40
0.0
 40
1.0
 40
1.0
 40
1.0
 40
1.0
 10
25.1533
 20
98.2567
 30
0.0
 10
25.7321
 20
98.2567
 30
0.0
 10
26.2034
 20
97.7868
 30
0.0
 10
26.2034
 20
97.2069
 30
0.0
  0
LINE
  5
12b
100
AcDbEntity
  8
0
100
AcDbLine
 62
     12
 10
26.2034
 20
97.2069
 30
0.0
 11
26.2034
 21
97.2069
 31
0.0
  0
SPLINE
  5
12c
100
AcDbEntity
  8
0
100
AcDbSpline
210
0.0
220
0.0
230
1.0
 62
     12
 70
     0
 71
     3
 72
     8
 73
4
 40
0.0
 40
0.0
 40
0.0
 40
0.0
 40
1.0
 40
1.0
 40
1.0
 40
1.0
 10
26.2034
 20
59.1069
 30
0.0
 10
26.2034
 20
58.5265
 30
0.0
 10
25.7321
 20
58.0566
 30
0.0
 10
25.1533
 20
58.0566
 30
0.0
  0
SPLINE
  5
12d
100
AcDbEntity
  8
0
100
AcDbSpline
210
0.0
220
0.0
230
1.0
 62
     12
 70
     0
 71
     3
 72
     8
 73
4
 40
0.0
 40
0.0
 40
0.0
 40
0.0
 40
1.0
 40
1.0
 40
1.0
 40
1.0
 10
25.1533
 20
58.0566
 30
0.0
 10
24.5732
 20
58.0566
 30
0.0
 10
24.1033
 20
58.5265
 30
0.0
 10
24.1033
 20
59.1069
 30
0.0
  0
SPLINE
  5
12e
100
AcDbEntity
  8
0
100
AcDbSpline
210
0.0
220
0.0
230
1.0
 62
     12
 70
     0
 71
     3
 72
     8
 73
4
 40
0.0
 40
0.0
 40
0.0
 40
0.0
 40
1.0
 40
1.0
 40
1.0
 40
1.0
 10
24.1033
 20
59.1069
 30
0.0
 10
24.1033
 20
59.6868
 30
0.0
 10
24.5732
 20
60.1567
 30
0.0
 10
25.1533
 20
60.1567
 30
0.0
  0
SPLINE
  5
12f
100
AcDbEntity
  8
0
100
AcDbSpline
210
0.0
220
0.0
230
1.0
 62
     12
 70
     0
 71
     3
 72
     8
 73
4
 40
0.0
 40
0.0
 40
0.0
 40
0.0
 40
1.0
 40
1.0
 40
1.0
 40
1.0
 10
25.1533
 20
60.1567
 30
0.0
 10
25.7321
 20
60.1567
 30
0.0
 10
26.2034
 20
59.6868
 30
0.0
 10
26.2034
 20
59.1069
 30
0.0
  0
LINE
  5
130
100
AcDbEntity
  8
0
100
AcDbLine
 62
     12
 10
26.2034
 20
59.1069
 30
0.0
 11
26.2034
 21
59.1069
 31
0.0
  0
SPLINE
  5
131
100
AcDbEntity
  8
0
100
AcDbSpline
210
0.0
220
0.0
230
1.0
 62
     12
 70
     0
 71
     3
 72
     8
 73
4
 40
0.0
 40
0.0
 40
0.0
 40
0.0
 40
1.0
 40
1.0
 40
1.0
 40
1.0
 10
102.403
 20
62.6787
 30
0.0
 10
102.403
 20
62.0984
 30
0.0
 10
101.932
 20
61.6285
 30
0.0
 10
101.353
 20
61.6285
 30
0.0
  0
SPLINE
  5
132
100
AcDbEntity
  8
0
100
AcDbSpline
210
0.0
220
0.0
230
1.0
 62
     12
 70
     0
 71
     3
 72
     8
 73
4
 40
0.0
 40
0.0
 40
0.0
 40
0.0
 40
1.0
 40
1.0
 40
1.0
 40
1.0
 10
101.353
 20
61.6285
 30
0.0
 10
100.773
 20
61.6285
 30
0.0
 10
100.303
 20
62.0984
 30
0.0
 10
100.303
 20
62.6787
 30
0.0
  0
SPLINE
  5
133
100
AcDbEntity
  8
0
100
AcDbSpline
210
0.0
220
0.0
230
1.0
 62
     12
 70
     0
 71
     3
 72
     8
 73
4
 40
0.0
 40
0.0
 40
0.0
 40
0.0
 40
1.0
 40
1.0
 40
1.0
 40
1.0
 10
100.303
 20
62.6787
 30
0.0
 10
100.303
 20
63.2587
 30
0.0
 10
100.773
 20
63.7286
 30
0.0
 10
101.353
 20
63.7286
 30
0.0
  0
SPLINE
  5
134
100
AcDbEntity
  8
0
100
AcDbSpline
210
0.0
220
0.0
230
1.0
 62
     12
 70
     0
 71
     3
 72
     8
 73
4
 40
0.0
 40
0.0
 40
0.0
 40
0.0
 40
1.0
 40
1.0
 40
1.0
 40
1.0
 10
101.353
 20
63.7286
 30
0.0
 10
101.932
 20
63.7286
 30
0.0
 10
102.403
 20
63.2587
 30
0.0
 10
102.403
 20
62.6787
 30
0.0
  0
LINE
  5
135
100
AcDbEntity
  8
0
100
AcDbLine
 62
     12
 10
102.403
 20
62.6787
 30
0.0
 11
102.403
 21
62.6787
 31
0.0
  0
SPLINE
  5
136
100
AcDbEntity
  8
0
100
AcDbSpline
210
0.0
220
0.0
230
1.0
 62
     12
 70
     0
 71
     3
 72
     8
 73
4
 40
0.0
 40
0.0
 40
0.0
 40
0.0
 40
1.0
 40
1.0
 40
1.0
 40
1.0
 10
102.403
 20
100.779
 30
0.0
 10
102.403
 20
100.198
 30
0.0
 10
101.932
 20
99.7285
 30
0.0
 10
101.353
 20
99.7285
 30
0.0
  0
SPLINE
  5
137
100
AcDbEntity
  8
0
100
AcDbSpline
210
0.0
220
0.0
230
1.0
 62
     12
 70
     0
 71
     3
 72
     8
 73
4
 40
0.0
 40
0.0
 40
0.0
 40
0.0
 40
1.0
 40
1.0
 40
1.0
 40
1.0
 10
101.353
 20
99.7285
 30
0.0
 10
100.773
 20
99.7285
 30
0.0
 10
100.303
 20
100.198
 30
0.0
 10
100.303
 20
100.779
 30
0.0
  0
SPLINE
  5
138
100
AcDbEntity
  8
0
100
AcDbSpline
210
0.0
220
0.0
230
1.0
 62
     12
 70
     0
 71
     3
 72
     8
 73
4
 40
0.0
 40
0.0
 40
0.0
 40
0.0
 40
1.0
 40
1.0
 40
1.0
 40
1.0
 10
100.303
 20
100.779
 30
0.0
 10
100.303
 20
101.359
 30
0.0
 10
100.773
 20
101.829
 30
0.0
 10
101.353
 20
101.829
 30
0.0
  0
SPLINE
  5
139
100
AcDbEntity
  8
0
100
AcDbSpline
210
0.0
220
0.0
230
1.0
 62
     12
 70
     0
 71
     3
 72
     8
 73
4
 40
0.0
 40
0.0
 40
0.0
 40
0.0
 40
1.0
 40
1.0
 40
1.0
 40
1.0
 10
101.353
 20
101.829
 30
0.0
 10
101.932
 20
101.829
 30
0.0
 10
102.403
 20
101.359
 30
0.0
 10
102.403
 20
100.779
 30
0.0
  0
LINE
  5
13a
100
AcDbEntity
  8
0
100
AcDbLine
 62
     12
 10
102.403
 20
100.779
 30
0.0
 11
102.403
 21
100.779
 31
0.0
  0
SPLINE
  5
13b
100
AcDbEntity
  8
0
100
AcDbSpline
210
0.0
220
0.0
230
1.0
 62
     12
 70
     0
 71
     3
 72
     8
 73
4
 40
0.0
 40
0.0
 40
0.0
 40
0.0
 40
1.0
 40
1.0
 40
1.0
 40
1.0
 10
136.631
 20
54.6446
 30
0.0
 10
136.631
 20
54.066
 30
0.0
 10
136.161
 20
53.5961
 30
0.0
 10
135.581
 20
53.5961
 30
0.0
  0
SPLINE
  5
13c
100
AcDbEntity
  8
0
100
AcDbSpline
210
0.0
220
0.0
230
1.0
 62
     12
 70
     0
 71
     3
 72
     8
 73
4
 40
0.0
 40
0.0
 40
0.0
 40
0.0
 40
1.0
 40
1.0
 40
1.0
 40
1.0
 10
135.581
 20
53.5961
 30
0.0
 10
135.001
 20
53.5961
 30
0.0
 10
134.531
 20
54.066
 30
0.0
 10
134.531
 20
54.6446
 30
0.0
  0
SPLINE
  5
13d
100
AcDbEntity
  8
0
100
AcDbSpline
210
0.0
220
0.0
230
1.0
 62
     12
 70
     0
 71
     3
 72
     8
 73
4
 40
0.0
 40
0.0
 40
0.0
 40
0.0
 40
1.0
 40
1.0
 40
1.0
 40
1.0
 10
134.531
 20
54.6446
 30
0.0
 10
134.531
 20
55.2249
 30
0.0
 10
135.001
 20
55.6948
 30
0.0
 10
135.581
 20
55.6948
 30
0.0
  0
SPLINE
  5
13e
100
AcDbEntity
  8
0
100
AcDbSpline
210
0.0
220
0.0
230
1.0
 62
     12
 70
     0
 71
     3
 72
     8
 73
4
 40
0.0
 40
0.0
 40
0.0
 40
0.0
 40
1.0
 40
1.0
 40
1.0
 40
1.0
 10
135.581
 20
55.6948
 30
0.0
 10
136.161
 20
55.6948
 30
0.0
 10
136.631
 20
55.2249
 30
0.0
 10
136.631
 20
54.6446
 30
0.0
  0
LINE
  5
13f
100
AcDbEntity
  8
0
100
AcDbLine
 62
     12
 10
136.631
 20
54.6446
 30
0.0
 11
136.631
 21
54.6446
 31
0.0
  0
SPLINE
  5
140
100
AcDbEntity
  8
0
100
AcDbSpline
210
0.0
220
0.0
230
1.0
 62
     12
 70
     0
 71
     3
 72
     8
 73
4
 40
0.0
 40
0.0
 40
0.0
 40
0.0
 40
1.0
 40
1.0
 40
1.0
 40
1.0
 10
124.452
 20
72.1953
 30
0.0
 10
124.452
 20
71.6153
 30
0.0
 10
123.981
 20
71.1454
 30
0.0
 10
123.402
 20
71.1454
 30
0.0
  0
SPLINE
  5
141
100
AcDbEntity
  8
0
100
AcDbSpline
210
0.0
220
0.0
230
1.0
 62
     12
 70
     0
 71
     3
 72
     8
 73
4
 40
0.0
 40
0.0
 40
0.0
 40
0.0
 40
1.0
 40
1.0
 40
1.0
 40
1.0
 10
123.402
 20
71.1454
 30
0.0
 10
122.822
 20
71.1454
 30
0.0
 10
122.352
 20
71.6153
 30
0.0
 10
122.352
 20
72.1953
 30
0.0
  0
SPLINE
  5
142
100
AcDbEntity
  8
0
100
AcDbSpline
210
0.0
220
0.0
230
1.0
 62
     12
 70
     0
 71
     3
 72
     8
 73
4
 40
0.0
 40
0.0
 40
0.0
 40
0.0
 40
1.0
 40
1.0
 40
1.0
 40
1.0
 10
122.352
 20
72.1953
 30
0.0
 10
122.352
 20
72.7756
 30
0.0
 10
122.822
 20
73.2455
 30
0.0
 10
123.402
 20
73.2455
 30
0.0
  0
SPLINE
  5
143
100
AcDbEntity
  8
0
100
AcDbSpline
210
0.0
220
0.0
230
1.0
 62
     12
 70
     0
 71
     3
 72
     8
 73
4
 40
0.0
 40
0.0
 40
0.0
 40
0.0
 40
1.0
 40
1.0
 40
1.0
 40
1.0
 10
123.402
 20
73.2455
 30
0.0
 10
123.981
 20
73.2455
 30
0.0
 10
124.452
 20
72.7756
 30
0.0
 10
124.452
 20
72.1953
 30
0.0
  0
LINE
  5
144
100
AcDbEntity
  8
0
100
AcDbLine
 62
     12
 10
124.452
 20
72.1953
 30
0.0
 11
124.452
 21
72.1953
 31
0.0
  0
SPLINE
  5
145
100
AcDbEntity
  8
0
100
AcDbSpline
210
0.0
220
0.0
230
1.0
 62
     12
 70
     0
 71
     3
 72
     8
 73
4
 40
0.0
 40
0.0
 40
0.0
 40
0.0
 40
1.0
 40
1.0
 40
1.0
 40
1.0
 10
119.041
 20
35.9131
 30
0.0
 10
119.041
 20
35.3328
 30
0.0
 10
118.57
 20
34.863
 30
0.0
 10
117.99
 20
34.863
 30
0.0
  0
SPLINE
  5
146
100
AcDbEntity
  8
0
100
AcDbSpline
210
0.0
220
0.0
230
1.0
 62
     12
 70
     0
 71
     3
 72
     8
 73
4
 40
0.0
 40
0.0
 40
0.0
 40
0.0
 40
1.0
 40
1.0
 40
1.0
 40
1.0
 10
117.99
 20
34.863
 30
0.0
 10
117.412
 20
34.863
 30
0.0
 10
116.94
 20
35.3328
 30
0.0
 10
116.94
 20
35.9131
 30
0.0
  0
SPLINE
  5
147
100
AcDbEntity
  8
0
100
AcDbSpline
210
0.0
220
0.0
230
1.0
 62
     12
 70
     0
 71
     3
 72
     8
 73
4
 40
0.0
 40
0.0
 40
0.0
 40
0.0
 40
1.0
 40
1.0
 40
1.0
 40
1.0
 10
116.94
 20
35.9131
 30
0.0
 10
116.94
 20
36.4931
 30
0.0
 10
117.412
 20
36.963
 30
0.0
 10
117.99
 20
36.963
 30
0.0
  0
SPLINE
  5
148
100
AcDbEntity
  8
0
100
AcDbSpline
210
0.0
220
0.0
230
1.0
 62
     12
 70
     0
 71
     3
 72
     8
 73
4
 40
0.0
 40
0.0
 40
0.0
 40
0.0
 40
1.0
 40
1.0
 40
1.0
 40
1.0
 10
117.99
 20
36.963
 30
0.0
 10
118.57
 20
36.963
 30
0.0
 10
119.041
 20
36.4931
 30
0.0
 10
119.041
 20
35.9131
 30
0.0
  0
LINE
  5
149
100
AcDbEntity
  8
0
100
AcDbLine
 62
     12
 10
119.041
 20
35.9131
 30
0.0
 11
119.041
 21
35.9131
 31
0.0
  0
LINE
  5
14a
100
AcDbEntity
  8
0
100
AcDbLine
 62
     131
 10
152.055
 20
48.1281
 30
0.0
 11
149.458
 21
49.6274
 31
0.0
  0
SPLINE
  5
14b
100
AcDbEntity
  8
0
100
AcDbSpline
210
0.0
220
0.0
230
1.0
 62
     131
 70
     0
 71
     3
 72
     8
 73
4
 40
0.0
 40
0.0
 40
0.0
 40
0.0
 40
1.0
 40
1.0
 40
1.0
 40
1.0
 10
149.458
 20
49.6274
 30
0.0
 10
142.285
 20
53.7683
 30
0.0
 10
136.904
 20
57.113
 30
0.0
 10
133.15
 20
60.1694
 30
0.0
  0
SPLINE
  5
14c
100
AcDbEntity
  8
0
100
AcDbSpline
210
0.0
220
0.0
230
1.0
 62
     131
 70
     0
 71
     3
 72
     8
 73
4
 40
0.0
 40
0.0
 40
0.0
 40
0.0
 40
1.0
 40
1.0
 40
1.0
 40
1.0
 10
133.15
 20
60.1694
 30
0.0
 10
132.671
 20
60.5592
 30
0.0
 10
131.96
 20
60.4326
 30
0.0
 10
131.651
 20
59.8978
 30
0.0
  0
LINE
  5
14d
100
AcDbEntity
  8
0
100
AcDbLine
 62
     131
 10
131.651
 20
59.8978
 30
0.0
 11
129.099
 21
55.4785
 31
0.0
  0
SPLINE
  5
14e
100
AcDbEntity
  8
0
100
AcDbSpline
210
0.0
220
0.0
230
1.0
 62
     131
 70
     0
 71
     3
 72
     8
 73
4
 40
0.0
 40
0.0
 40
0.0
 40
0.0
 40
1.0
 40
1.0
 40
1.0
 40
1.0
 10
129.099
 20
55.4785
 30
0.0
 10
128.823
 20
55.0002
 30
0.0
 10
128.211
 20
54.8361
 30
0.0
 10
127.733
 20
55.112
 30
0.0
  0
LINE
  5
14f
100
AcDbEntity
  8
0
100
AcDbLine
 62
     131
 10
127.733
 20
55.112
 30
0.0
 11
122.261
 21
58.2718
 31
0.0
  0
SPLINE
  5
150
100
AcDbEntity
  8
0
100
AcDbSpline
210
0.0
220
0.0
230
1.0
 62
     131
 70
     0
 71
     3
 72
     8
 73
4
 40
0.0
 40
0.0
 40
0.0
 40
0.0
 40
1.0
 40
1.0
 40
1.0
 40
1.0
 10
122.261
 20
58.2718
 30
0.0
 10
121.781
 20
58.5488
 30
0.0
 10
121.617
 20
59.1619
 30
0.0
 10
121.894
 20
59.6403
 30
0.0
  0
LINE
  5
151
100
AcDbEntity
  8
0
100
AcDbLine
 62
     131
 10
121.894
 20
59.6403
 30
0.0
 11
126.62
 21
67.8229
 31
0.0
  0
SPLINE
  5
152
100
AcDbEntity
  8
0
100
AcDbSpline
210
0.0
220
0.0
230
1.0
 62
     131
 70
     0
 71
     3
 72
     8
 73
4
 40
0.0
 40
0.0
 40
0.0
 40
0.0
 40
1.0
 40
1.0
 40
1.0
 40
1.0
 10
126.62
 20
67.8229
 30
0.0
 10
126.755
 20
68.0572
 30
0.0
 10
126.784
 20
68.3341
 30
0.0
 10
126.715
 20
68.5959
 30
0.0
  0
SPLINE
  5
153
100
AcDbEntity
  8
0
100
AcDbSpline
210
0.0
220
0.0
230
1.0
 62
     131
 70
     0
 71
     3
 72
     8
 73
4
 40
0.0
 40
0.0
 40
0.0
 40
0.0
 40
1.0
 40
1.0
 40
1.0
 40
1.0
 10
126.715
 20
68.5959
 30
0.0
 10
126.507
 20
69.3857
 30
0.0
 10
126.402
 20
70.1876
 30
0.0
 10
126.402
 20
71.0145
 30
0.0
  0
LINE
  5
154
100
AcDbEntity
  8
0
100
AcDbLine
 62
     131
 10
126.402
 20
71.0145
 30
0.0
 11
126.402
 21
120.425
 31
0.0
  0
SPLINE
  5
155
100
AcDbEntity
  8
0
100
AcDbSpline
210
0.0
220
0.0
230
1.0
 62
     131
 70
     0
 71
     3
 72
     8
 73
4
 40
0.0
 40
0.0
 40
0.0
 40
0.0
 40
1.0
 40
1.0
 40
1.0
 40
1.0
 10
126.402
 20
120.425
 30
0.0
 10
126.402
 20
121.526
 30
0.0
 10
125.798
 20
122.539
 30
0.0
 10
124.831
 20
123.063
 30
0.0
  0
LINE
  5
156
100
AcDbEntity
  8
0
100
AcDbLine
 62
     131
 10
124.831
 20
123.063
 30
0.0
 11
123.26
 21
123.915
 31
0.0
  0
SPLINE
  5
157
100
AcDbEntity
  8
0
100
AcDbSpline
210
0.0
220
0.0
230
1.0
 62
     131
 70
     0
 71
     3
 72
     8
 73
4
 40
0.0
 40
0.0
 40
0.0
 40
0.0
 40
1.0
 40
1.0
 40
1.0
 40
1.0
 10
123.26
 20
123.915
 30
0.0
 10
111.555
 20
130.258
 30
0.0
 10
97.4288
 20
133.49
 30
0.0
 10
80.1412
 20
133.774
 30
0.0
  0
SPLINE
  5
158
100
AcDbEntity
  8
0
100
AcDbSpline
210
0.0
220
0.0
230
1.0
 62
     131
 70
     0
 71
     3
 72
     8
 73
4
 40
0.0
 40
0.0
 40
0.0
 40
0.0
 40
1.0
 40
1.0
 40
1.0
 40
1.0
 10
80.1412
 20
133.774
 30
0.0
 10
79.5845
 20
133.784
 30
0.0
 10
79.127
 20
133.332
 30
0.0
 10
79.127
 20
132.775
 30
0.0
  0
LINE
  5
159
100
AcDbEntity
  8
0
100
AcDbLine
 62
     131
 10
79.127
 20
132.775
 30
0.0
 11
79.127
 21
129.095
 31
0.0
  0
SPLINE
  5
15a
100
AcDbEntity
  8
0
100
AcDbSpline
210
0.0
220
0.0
230
1.0
 62
     131
 70
     0
 71
     3
 72
     8
 73
4
 40
0.0
 40
0.0
 40
0.0
 40
0.0
 40
1.0
 40
1.0
 40
1.0
 40
1.0
 10
79.127
 20
129.095
 30
0.0
 10
79.127
 20
128.539
 30
0.0
 10
78.6765
 20
128.09
 30
0.0
 10
78.1223
 20
128.09
 30
0.0
  0
LINE
  5
15b
100
AcDbEntity
  8
0
100
AcDbLine
 62
     131
 10
78.1223
 20
128.09
 30
0.0
 11
67.4317
 21
128.09
 31
0.0
  0
SPLINE
  5
15c
100
AcDbEntity
  8
0
100
AcDbSpline
210
0.0
220
0.0
230
1.0
 62
     131
 70
     0
 71
     3
 72
     8
 73
4
 40
0.0
 40
0.0
 40
0.0
 40
0.0
 40
1.0
 40
1.0
 40
1.0
 40
1.0
 10
67.4317
 20
128.09
 30
0.0
 10
66.8761
 20
128.09
 30
0.0
 10
66.427
 20
128.539
 30
0.0
 10
66.427
 20
129.095
 30
0.0
  0
LINE
  5
15d
100
AcDbEntity
  8
0
100
AcDbLine
 62
     131
 10
66.427
 20
129.095
 30
0.0
 11
66.427
 21
132.344
 31
0.0
  0
SPLINE
  5
15e
100
AcDbEntity
  8
0
100
AcDbSpline
210
0.0
220
0.0
230
1.0
 62
     131
 70
     0
 71
     3
 72
     8
 73
4
 40
0.0
 40
0.0
 40
0.0
 40
0.0
 40
1.0
 40
1.0
 40
1.0
 40
1.0
 10
66.427
 20
132.344
 30
0.0
 10
66.427
 20
132.923
 30
0.0
 10
65.9377
 20
133.383
 30
0.0
 10
65.3602
 20
133.342
 30
0.0
  0
SPLINE
  5
15f
100
AcDbEntity
  8
0
100
AcDbSpline
210
0.0
220
0.0
230
1.0
 62
     131
 70
     0
 71
     3
 72
     8
 73
4
 40
0.0
 40
0.0
 40
0.0
 40
0.0
 40
1.0
 40
1.0
 40
1.0
 40
1.0
 10
65.3602
 20
133.342
 30
0.0
 10
48.1323
 20
132.115
 30
0.0
 10
28.0954
 20
128.39
 30
0.0
 10
4.54201
 20
122.052
 30
0.0
  0
LINE
  5
160
100
AcDbEntity
  8
0
100
AcDbLine
 62
     131
 10
4.54201
 20
122.052
 30
0.0
 11
2.32199
 21
121.455
 31
0.0
  0
SPLINE
  5
161
100
AcDbEntity
  8
0
100
AcDbSpline
210
0.0
220
0.0
230
1.0
 62
     131
 70
     0
 71
     3
 72
     8
 73
4
 40
0.0
 40
0.0
 40
0.0
 40
0.0
 40
1.0
 40
1.0
 40
1.0
 40
1.0
 10
2.32199
 20
121.455
 30
0.0
 10
1.01148
 20
121.102
 30
0.0
 10
0.101975
 20
119.914
 30
0.0
 10
0.101975
 20
118.557
 30
0.0
  0
LINE
  5
162
100
AcDbEntity
  8
0
100
AcDbLine
 62
     131
 10
0.101975
 20
118.557
 30
0.0
 11
0.101975
 21
37.0582
 31
0.0
  0
SPLINE
  5
163
100
AcDbEntity
  8
0
100
AcDbSpline
210
0.0
220
0.0
230
1.0
 62
     131
 70
     0
 71
     3
 72
     8
 73
4
 40
0.0
 40
0.0
 40
0.0
 40
0.0
 40
1.0
 40
1.0
 40
1.0
 40
1.0
 10
0.101975
 20
37.0582
 30
0.0
 10
0.101975
 20
35.4005
 30
0.0
 10
1.44418
 20
34.0582
 30
0.0
 10
3.10196
 20
34.0582
 30
0.0
  0
LINE
  5
164
100
AcDbEntity
  8
0
100
AcDbLine
 62
     131
 10
3.10196
 20
34.0582
 30
0.0
 11
63.0728
 21
34.0582
 31
0.0
  0
SPLINE
  5
165
100
AcDbEntity
  8
0
100
AcDbSpline
210
0.0
220
0.0
230
1.0
 62
     131
 70
     0
 71
     3
 72
     8
 73
4
 40
0.0
 40
0.0
 40
0.0
 40
0.0
 40
1.0
 40
1.0
 40
1.0
 40
1.0
 10
63.0728
 20
34.0582
 30
0.0
 10
64.7291
 20
34.0582
 30
0.0
 10
66.0714
 20
32.7146
 30
0.0
 10
66.0714
 20
31.0596
 30
0.0
  0
LINE
  5
166
100
AcDbEntity
  8
0
100
AcDbLine
 62
     131
 10
66.0714
 20
31.0596
 30
0.0
 11
66.0714
 21
18.4285
 31
0.0
  0
SPLINE
  5
167
100
AcDbEntity
  8
0
100
AcDbSpline
210
0.0
220
0.0
230
1.0
 62
     131
 70
     0
 71
     3
 72
     8
 73
4
 40
0.0
 40
0.0
 40
0.0
 40
0.0
 40
1.0
 40
1.0
 40
1.0
 40
1.0
 10
66.0714
 20
18.4285
 30
0.0
 10
66.0714
 20
16.9458
 30
0.0
 10
67.1544
 20
15.6848
 30
0.0
 10
68.6209
 20
15.463
 30
0.0
  0
LINE
  5
168
100
AcDbEntity
  8
0
100
AcDbLine
 62
     131
 10
68.6209
 20
15.463
 30
0.0
 11
71.1715
 21
15.0757
 31
0.0
  0
SPLINE
  5
169
100
AcDbEntity
  8
0
100
AcDbSpline
210
0.0
220
0.0
230
1.0
 62
     131
 70
     0
 71
     3
 72
     8
 73
4
 40
0.0
 40
0.0
 40
0.0
 40
0.0
 40
1.0
 40
1.0
 40
1.0
 40
1.0
 10
71.1715
 20
15.0757
 30
0.0
 10
74.4679
 20
14.5755
 30
0.0
 10
77.8108
 20
14.2034
 30
0.0
 10
81.0549
 20
13.841
 30
0.0
  0
SPLINE
  5
16a
100
AcDbEntity
  8
0
100
AcDbSpline
210
0.0
220
0.0
230
1.0
 62
     131
 70
     0
 71
     3
 72
     8
 73
4
 40
0.0
 40
0.0
 40
0.0
 40
0.0
 40
1.0
 40
1.0
 40
1.0
 40
1.0
 10
81.0549
 20
13.841
 30
0.0
 10
93.497
 20
12.4533
 30
0.0
 10
106.361
 20
11.0188
 30
0.0
 10
121.985
 20
2.00367
 30
0.0
  0
LINE
  5
16b
100
AcDbEntity
  8
0
100
AcDbLine
 62
     131
 10
121.985
 20
2.00367
 30
0.0
 11
124.584
 21
0.502984
 31
0.0
  0
SPLINE
  5
16c
100
AcDbEntity
  8
0
100
AcDbSpline
210
0.0
220
0.0
230
1.0
 62
     131
 70
     0
 71
     3
 72
     8
 73
4
 40
0.0
 40
0.0
 40
0.0
 40
0.0
 40
1.0
 40
1.0
 40
1.0
 40
1.0
 10
124.584
 20
0.502984
 30
0.0
 10
125.045
 20
0.238401
 30
0.0
 10
125.561
 20
0.101975
 30
0.0
 10
126.083
 20
0.101975
 30
0.0
  0
SPLINE
  5
16d
100
AcDbEntity
  8
0
100
AcDbSpline
210
0.0
220
0.0
230
1.0
 62
     131
 70
     0
 71
     3
 72
     8
 73
4
 40
0.0
 40
0.0
 40
0.0
 40
0.0
 40
1.0
 40
1.0
 40
1.0
 40
1.0
 10
126.083
 20
0.101975
 30
0.0
 10
126.344
 20
0.101975
 30
0.0
 10
126.606
 20
0.135048
 30
0.0
 10
126.861
 20
0.20395
 30
0.0
  0
SPLINE
  5
16e
100
AcDbEntity
  8
0
100
AcDbSpline
210
0.0
220
0.0
230
1.0
 62
     131
 70
     0
 71
     3
 72
     8
 73
4
 40
0.0
 40
0.0
 40
0.0
 40
0.0
 40
1.0
 40
1.0
 40
1.0
 40
1.0
 10
126.861
 20
0.20395
 30
0.0
 10
127.63
 20
0.410655
 30
0.0
 10
128.284
 20
0.913638
 30
0.0
 10
128.683
 20
1.60266
 30
0.0
  0
LINE
  5
16f
100
AcDbEntity
  8
0
100
AcDbLine
 62
     131
 10
128.683
 20
1.60266
 30
0.0
 11
153.154
 21
44.0313
 31
0.0
  0
SPLINE
  5
170
100
AcDbEntity
  8
0
100
AcDbSpline
210
0.0
220
0.0
230
1.0
 62
     131
 70
     0
 71
     3
 72
     8
 73
4
 40
0.0
 40
0.0
 40
0.0
 40
0.0
 40
1.0
 40
1.0
 40
1.0
 40
1.0
 10
153.154
 20
44.0313
 30
0.0
 10
153.98
 20
45.4656
 30
0.0
 10
153.489
 20
47.2997
 30
0.0
 10
152.055
 20
48.1281
 30
0.0
  0
LINE
  5
171
100
AcDbEntity
  8
0
100
AcDbLine
 62
     131
 10
152.055
 20
48.1281
 30
0.0
 11
152.055
 21
48.1281
 31
0.0
  0
ENDSEC
  0
SECTION
  2
OBJECTS
  0
DICTIONARY
  5
C
330
0
100
AcDbDictionary
  3
ACAD_GROUP
350
D
  3
ACAD_LAYOUT
350
1A
  3
ACAD_MLINESTYLE
350
17
  3
ACAD_PLOTSETTINGS
350
19
  3
ACAD_PLOTSTYLENAME
350
E
  3
ACDBHEADERROUNDTRIPXREC
350
2F
  0
DICTIONARY
  5
52
330
1F
100
AcDbDictionary
280
     1
  3
ACAD_LAYOUTSELFREF
360
53
  0
DICTIONARY
  5
50
330
1B
100
AcDbDictionary
280
     1
  3
ACAD_LAYOUTSELFREF
360
51
  0
DICTIONARY
  5
D
102
{ACAD_REACTORS
330
C
102
}
330
C
100
AcDbDictionary
  0
DICTIONARY
  5
1A
102
{ACAD_REACTORS
330
C
102
}
330
C
100
AcDbDictionary
  0
DICTIONARY
  5
17
102
{ACAD_REACTORS
330
C
102
}
330
C
100
AcDbDictionary
  3
STANDARD
350
18
  0
DICTIONARY
  5
19
102
{ACAD_REACTORS
330
C
102
}
330
C
100
AcDbDictionary
  0
ACDBDICTIONARYWDFLT
  5
E
102
{ACAD_REACTORS
330
C
102
}
330
C
100
AcDbDictionary
281
     1
  3
Normal
350
F
100
AcDbDictionaryWithDefault
340
F
  0
DICTIONARY
  5
2F
102
{ACAD_REACTORS
330
C
102
}
330
C
100
AcDbDictionary
  3
CEPSNTYPE
350
39
  3
DIMSTYLEDATA
350
3D
  3
FINGERPRINTGUID
350
3A
  3
HYPERLINKBASE
350
32
  3
INSUNITS
350
38
  3
LAYOUTDICT
350
34
  3
LWETCUNION
350
37
  3
PLOTSETDICT
350
35
  3
PLOTSTYLNAMDICT
350
36
  3
PSVPSCALE
350
3C
  3
PUCSBASE
350
40
  3
PUCSORGBACK
350
46
  3
PUCSORGBOTTOM
350
42
  3
PUCSORGFRONT
350
45
  3
PUCSORGLEFT
350
43
  3
PUCSORGRIGHT
350
44
  3
PUCSORGTOP
350
41
  3
PUCSORTHOREF
350
3E
  3
PUCSORTHOVIEW
350
3F
  3
STYLESHEET
350
33
  3
TSTACKALIGN
350
30
  3
TSTACKSIZE
350
31
  3
UCSBASE
350
49
  3
UCSORGBACK
350
4F
  3
UCSORGBOTTOM
350
4B
  3
UCSORGFRONT
350
4E
  3
UCSORGLEFT
350
4C
  3
UCSORGRIGHT
350
4D
  3
UCSORGTOP
350
4A
  3
UCSORTHOREF
350
47
  3
UCSORTHOVIEW
350
48
  3
VERSIONGUID
350
3B
  0
XRECORD
  5
53
102
{ACAD_REACTORS
330
52
102
}
330
52
100
AcDbXrecord
340
1F
  0
XRECORD
  5
51
102
{ACAD_REACTORS
330
50
102
}
330
50
100
AcDbXrecord
340
1B
  0
MLINESTYLE
  5
18
102
{ACAD_REACTORS
330
17
102
}
330
17
100
AcDbMlineStyle
  2
STANDARD
 70
     0
  3

 62
   256
 51
90.0
 52
90.0
 71
     2
 49
0.5
 62
   256
  6
BYLAYER
 49
-0.5
 62
   256
  6
BYLAYER
  0
ACDBPLACEHOLDER
  5
F
102
{ACAD_REACTORS
330
E
102
}
330
E
100
AcDbPlaceHolder
280
     0
  0
XRECORD
  5
39
102
{ACAD_REACTORS
330
2F
102
}
330
2F
100
AcDbXrecord
 90
        0
  0
XRECORD
  5
3D
102
{ACAD_REACTORS
330
2F
102
}
330
2F
100
AcDbXrecord
1000
DSTYLE
1002
{
1070
   278
 70
    44
1002
}
  0
XRECORD
  5
3A
102
{ACAD_REACTORS
330
2F
102
}
330
2F
100
AcDbXrecord
  1
{705446A6-11D0-4548-8F8C-A97DCA50327D}
  0
XRECORD
  5
32
102
{ACAD_REACTORS
330
2F
102
}
330
2F
100
AcDbXrecord
  1

  0
XRECORD
  5
38
102
{ACAD_REACTORS
330
2F
102
}
330
2F
100
AcDbXrecord
 90
        4
  0
XRECORD
  5
34
102
{ACAD_REACTORS
330
2F
102
}
330
2F
100
AcDbXrecord
340
1A
  0
XRECORD
  5
37
102
{ACAD_REACTORS
330
2F
102
}
330
2F
100
AcDbXrecord
 90
    10781
  0
XRECORD
  5
35
102
{ACAD_REACTORS
330
2F
102
}
330
2F
100
AcDbXrecord
340
19
  0
XRECORD
  5
36
102
{ACAD_REACTORS
330
2F
102
}
330
2F
100
AcDbXrecord
340
E
  0
XRECORD
  5
3C
102
{ACAD_REACTORS
330
2F
102
}
330
2F
100
AcDbXrecord
 40
0.0
  0
XRECORD
  5
40
102
{ACAD_REACTORS
330
2F
102
}
330
2F
100
AcDbXrecord
340
0
  0
XRECORD
  5
46
102
{ACAD_REACTORS
330
2F
102
}
330
2F
100
AcDbXrecord
 10
0.0
 20
0.0
 30
0.0
  0
XRECORD
  5
42
102
{ACAD_REACTORS
330
2F
102
}
330
2F
100
AcDbXrecord
 10
0.0
 20
0.0
 30
0.0
  0
XRECORD
  5
45
102
{ACAD_REACTORS
330
2F
102
}
330
2F
100
AcDbXrecord
 10
0.0
 20
0.0
 30
0.0
  0
XRECORD
  5
43
102
{ACAD_REACTORS
330
2F
102
}
330
2F
100
AcDbXrecord
 10
0.0
 20
0.0
 30
0.0
  0
XRECORD
  5
44
102
{ACAD_REACTORS
330
2F
102
}
330
2F
100
AcDbXrecord
 10
0.0
 20
0.0
 30
0.0
  0
XRECORD
  5
41
102
{ACAD_REACTORS
330
2F
102
}
330
2F
100
AcDbXrecord
 10
0.0
 20
0.0
 30
0.0
  0
XRECORD
  5
3E
102
{ACAD_REACTORS
330
2F
102
}
330
2F
100
AcDbXrecord
340
0
  0
XRECORD
  5
3F
102
{ACAD_REACTORS
330
2F
102
}
330
2F
100
AcDbXrecord
 70
     0
  0
XRECORD
  5
33
102
{ACAD_REACTORS
330
2F
102
}
330
2F
100
AcDbXrecord
  1

  0
XRECORD
  5
30
102
{ACAD_REACTORS
330
2F
102
}
330
2F
100
AcDbXrecord
 90
        1
  0
XRECORD
  5
31
102
{ACAD_REACTORS
330
2F
102
}
330
2F
100
AcDbXrecord
 90
       70
  0
XRECORD
  5
49
102
{ACAD_REACTORS
330
2F
102
}
330
2F
100
AcDbXrecord
340
0
  0
XRECORD
  5
4F
102
{ACAD_REACTORS
330
2F
102
}
330
2F
100
AcDbXrecord
 10
0.0
 20
0.0
 30
0.0
  0
XRECORD
  5
4B
102
{ACAD_REACTORS
330
2F
102
}
330
2F
100
AcDbXrecord
 10
0.0
 20
0.0
 30
0.0
  0
XRECORD
  5
4E
102
{ACAD_REACTORS
330
2F
102
}
330
2F
100
AcDbXrecord
 10
0.0
 20
0.0
 30
0.0
  0
XRECORD
  5
4C
102
{ACAD_REACTORS
330
2F
102
}
330
2F
100
AcDbXrecord
 10
0.0
 20
0.0
 30
0.0
  0
XRECORD
  5
4D
102
{ACAD_REACTORS
330
2F
102
}
330
2F
100
AcDbXrecord
 10
0.0
 20
0.0
 30
0.0
  0
XRECORD
  5
4A
102
{ACAD_REACTORS
330
2F
102
}
330
2F
100
AcDbXrecord
 10
0.0
 20
0.0
 30
0.0
  0
XRECORD
  5
47
102
{ACAD_REACTORS
330
2F
102
}
330
2F
100
AcDbXrecord
340
0
  0
XRECORD
  5
48
102
{ACAD_REACTORS
330
2F
102
}
330
2F
100
AcDbXrecord
 70
     0
  0
XRECORD
  5
3B
102
{ACAD_REACTORS
330
2F
102
}
330
2F
100
AcDbXrecord
  1
{33328E3A-B6B8-4979-86B7-D70DEC2867C2}
  0
ENDSEC
  0
EOF
