  0
SECTION
  2
HEADER
  9
$ACADVER
  1
AC1014
  9
$EXTMIN
 10
70.16401489310567
 20
112.369642808922
 30
0.0
  9
$EXTMAX
 10
277.0834797641999
 20
227.1366601424358
 30
0.0
  9
$HANDSEED
  5
56
  9
$MEASUREMENT
 70
1
  0
ENDSEC
  0
SECTION
  2
TABLES
  0
TABLE
  2
VPORT
  5
8
330
0
100
AcDbSymbolTable
 70
     4
  0
VPORT
  5
2E
330
8
100
AcDbSymbolTableRecord
100
AcDbViewportTableRecord
  2
*ACTIVE
 70
     0
 10
0.0
 20
0.0
 11
1.0
 21
1.0
 12
209.9999999999999
 22
148.4999999999999
 13
0.0
 23
0.0
 14
10.0
 24
10.0
 15
10.0
 25
10.0
 16
0.0
 26
0.0
 36
1.0
 17
0.0
 27
0.0
 37
0.0
 40
340.9950045922664
 41
1.239944521497919
 42
50.0
 43
0.0
 44
0.0
 50
0.0
 51
0.0
 71
     0
 72
   100
 73
     1
 74
     3
 75
     0
 76
     0
 77
     0
 78
     0
  0
ENDTAB
  0
TABLE
  2
LTYPE
  5
5
330
0
100
AcDbSymbolTable
 70
     1
  0
LTYPE
  5
14
330
5
100
AcDbSymbolTableRecord
100
AcDbLinetypeTableRecord
  2
BYBLOCK
 70
     0
  3

 72
    65
 73
     0
 40
0.0
  0
LTYPE
  5
15
330
5
100
AcDbSymbolTableRecord
100
AcDbLinetypeTableRecord
  2
BYLAYER
 70
     0
  3

 72
    65
 73
     0
 40
0.0
  0
LTYPE
  5
16
330
5
100
AcDbSymbolTableRecord
100
AcDbLinetypeTableRecord
  2
CONTINUOUS
 70
     0
  3
Solid line
 72
    65
 73
     0
 40
0.0
  0
ENDTAB
  0
TABLE
  2
LAYER
  5
2
330
0
100
AcDbSymbolTable
 70
1
  0
LAYER
  5
10
330
2
100
AcDbSymbolTableRecord
100
AcDbLayerTableRecord
  2
0
 70
     0
 62
     7
  6
CONTINUOUS
  0
ENDTAB
  0
TABLE
  2
STYLE
  5
3
330
0
100
AcDbSymbolTable
 70
     1
  0
STYLE
  5
11
330
3
100
AcDbSymbolTableRecord
100
AcDbTextStyleTableRecord
  2
STANDARD
 70
     0
 40
0.0
 41
1.0
 50
0.0
 71
     0
 42
2.5
  3
txt
  4

  0
ENDTAB
  0
TABLE
  2
VIEW
  5
6
330
0
100
AcDbSymbolTable
 70
     0
  0
ENDTAB
  0
TABLE
  2
UCS
  5
7
330
0
100
AcDbSymbolTable
 70
     0
  0
ENDTAB
  0
TABLE
  2
APPID
  5
9
330
0
100
AcDbSymbolTable
 70
     2
  0
APPID
  5
12
330
9
100
AcDbSymbolTableRecord
100
AcDbRegAppTableRecord
  2
ACAD
 70
     0
  0
APPID
  5
2B
330
9
100
AcDbSymbolTableRecord
100
AcDbRegAppTableRecord
  2
URBANX
 70
     0
  0
ENDTAB
  0
TABLE
  2
DIMSTYLE
  5
A
330
0
100
AcDbSymbolTable
 70
     1
  0
DIMSTYLE
105
27
330
A
100
AcDbSymbolTableRecord
100
AcDbDimStyleTableRecord
  2
ISO-25
 70
     0
  3

  4

  5

  6

  7

 40
1.0
 41
2.5
 42
0.625
 43
3.75
 44
1.25
 45
0.0
 46
0.0
 47
0.0
 48
0.0
140
2.5
141
2.5
142
0.0
143
0.03937007874016
144
1.0
145
0.0
146
1.0
147
0.625
 71
     0
 72
     0
 73
     0
 74
     0
 75
     0
 76
     0
 77
     1
 78
     8
170
     0
171
     3
172
     1
173
     0
174
     0
175
     0
176
     0
177
     0
178
     0
270
     2
271
     2
272
     2
273
     2
274
     3
340
11
275
     0
280
     0
281
     0
282
     0
283
     0
284
     8
285
     0
286
     0
287
     3
288
     0
  0
ENDTAB
  0
TABLE
  2
BLOCK_RECORD
  5
1
330
0
100
AcDbSymbolTable
 70
     1
  0
BLOCK_RECORD
  5
1F
102
{ACAD_XDICTIONARY
360
52
102
}
330
1
100
AcDbSymbolTableRecord
100
AcDbBlockTableRecord
  2
*MODEL_SPACE
  0
BLOCK_RECORD
  5
1B
102
{ACAD_XDICTIONARY
360
50
102
}
330
1
100
AcDbSymbolTableRecord
100
AcDbBlockTableRecord
  2
*PAPER_SPACE
  0
ENDTAB
  0
ENDSEC
  0
SECTION
  2
BLOCKS
  0
BLOCK
  5
20
330
1F
100
AcDbEntity
  8
0
100
AcDbBlockBegin
  2
*MODEL_SPACE
 70
     0
 10
0.0
 20
0.0
 30
0.0
  3
*MODEL_SPACE
  1

  0
ENDBLK
  5
21
330
1F
100
AcDbEntity
  8
0
100
AcDbBlockEnd
  0
BLOCK
  5
1C
330
1B
100
AcDbEntity
 67
     1
  8
0
100
AcDbBlockBegin
  2
*PAPER_SPACE
  1

  0
ENDBLK
  5
1D
330
1B
100
AcDbEntity
 67
     1
  8
0
100
AcDbBlockEnd
  0
ENDSEC
  0
SECTION
  2
ENTITIES
  0
SPLINE
  5
ff
100
AcDbEntity
  8
0
100
AcDbSpline
210
0.0
220
0.0
230
1.0
 62
     12
 70
     0
 71
     3
 72
     8
 73
4
 40
0.0
 40
0.0
 40
0.0
 40
0.0
 40
1.0
 40
1.0
 40
1.0
 40
1.0
 10
5.05876
 20
37.925
 30
0.0
 10
5.05876
 20
37.3447
 30
0.0
 10
4.58749
 20
36.8748
 30
0.0
 10
4.00872
 20
36.8748
 30
0.0
  0
SPLINE
  5
100
100
AcDbEntity
  8
0
100
AcDbSpline
210
0.0
220
0.0
230
1.0
 62
     12
 70
     0
 71
     3
 72
     8
 73
4
 40
0.0
 40
0.0
 40
0.0
 40
0.0
 40
1.0
 40
1.0
 40
1.0
 40
1.0
 10
4.00872
 20
36.8748
 30
0.0
 10
3.42856
 20
36.8748
 30
0.0
 10
2.95865
 20
37.3447
 30
0.0
 10
2.95865
 20
37.925
 30
0.0
  0
SPLINE
  5
101
100
AcDbEntity
  8
0
100
AcDbSpline
210
0.0
220
0.0
230
1.0
 62
     12
 70
     0
 71
     3
 72
     8
 73
4
 40
0.0
 40
0.0
 40
0.0
 40
0.0
 40
1.0
 40
1.0
 40
1.0
 40
1.0
 10
2.95865
 20
37.925
 30
0.0
 10
2.95865
 20
38.505
 30
0.0
 10
3.42856
 20
38.9749
 30
0.0
 10
4.00872
 20
38.9749
 30
0.0
  0
SPLINE
  5
102
100
AcDbEntity
  8
0
100
AcDbSpline
210
0.0
220
0.0
230
1.0
 62
     12
 70
     0
 71
     3
 72
     8
 73
4
 40
0.0
 40
0.0
 40
0.0
 40
0.0
 40
1.0
 40
1.0
 40
1.0
 40
1.0
 10
4.00872
 20
38.9749
 30
0.0
 10
4.58749
 20
38.9749
 30
0.0
 10
5.05876
 20
38.505
 30
0.0
 10
5.05876
 20
37.925
 30
0.0
  0
LINE
  5
103
100
AcDbEntity
  8
0
100
AcDbLine
 62
     12
 10
5.05876
 20
37.925
 30
0.0
 11
5.05876
 21
37.925
 31
0.0
  0
SPLINE
  5
104
100
AcDbEntity
  8
0
100
AcDbSpline
210
0.0
220
0.0
230
1.0
 62
     12
 70
     0
 71
     3
 72
     8
 73
4
 40
0.0
 40
0.0
 40
0.0
 40
0.0
 40
1.0
 40
1.0
 40
1.0
 40
1.0
 10
70.8297
 20
19.0583
 30
0.0
 10
70.8297
 20
18.4781
 30
0.0
 10
70.3584
 20
18.0082
 30
0.0
 10
69.7798
 20
18.0082
 30
0.0
  0
SPLINE
  5
105
100
AcDbEntity
  8
0
100
AcDbSpline
210
0.0
220
0.0
230
1.0
 62
     12
 70
     0
 71
     3
 72
     8
 73
4
 40
0.0
 40
0.0
 40
0.0
 40
0.0
 40
1.0
 40
1.0
 40
1.0
 40
1.0
 10
69.7798
 20
18.0082
 30
0.0
 10
69.1995
 20
18.0082
 30
0.0
 10
68.7296
 20
18.4781
 30
0.0
 10
68.7296
 20
19.0583
 30
0.0
  0
SPLINE
  5
106
100
AcDbEntity
  8
0
100
AcDbSpline
210
0.0
220
0.0
230
1.0
 62
     12
 70
     0
 71
     3
 72
     8
 73
4
 40
0.0
 40
0.0
 40
0.0
 40
0.0
 40
1.0
 40
1.0
 40
1.0
 40
1.0
 10
68.7296
 20
19.0583
 30
0.0
 10
68.7296
 20
19.6384
 30
0.0
 10
69.1995
 20
20.1083
 30
0.0
 10
69.7798
 20
20.1083
 30
0.0
  0
SPLINE
  5
107
100
AcDbEntity
  8
0
100
AcDbSpline
210
0.0
220
0.0
230
1.0
 62
     12
 70
     0
 71
     3
 72
     8
 73
4
 40
0.0
 40
0.0
 40
0.0
 40
0.0
 40
1.0
 40
1.0
 40
1.0
 40
1.0
 10
69.7798
 20
20.1083
 30
0.0
 10
70.3584
 20
20.1083
 30
0.0
 10
70.8297
 20
19.6384
 30
0.0
 10
70.8297
 20
19.0583
 30
0.0
  0
LINE
  5
108
100
AcDbEntity
  8
0
100
AcDbLine
 62
     12
 10
70.8297
 20
19.0583
 30
0.0
 11
70.8297
 21
19.0583
 31
0.0
  0
SPLINE
  5
109
100
AcDbEntity
  8
0
100
AcDbSpline
210
0.0
220
0.0
230
1.0
 62
     12
 70
     0
 71
     3
 72
     8
 73
4
 40
0.0
 40
0.0
 40
0.0
 40
0.0
 40
1.0
 40
1.0
 40
1.0
 40
1.0
 10
126.855
 20
4.30085
 30
0.0
 10
126.855
 20
3.72071
 30
0.0
 10
126.384
 20
3.25079
 30
0.0
 10
125.805
 20
3.25079
 30
0.0
  0
SPLINE
  5
10a
100
AcDbEntity
  8
0
100
AcDbSpline
210
0.0
220
0.0
230
1.0
 62
     12
 70
     0
 71
     3
 72
     8
 73
4
 40
0.0
 40
0.0
 40
0.0
 40
0.0
 40
1.0
 40
1.0
 40
1.0
 40
1.0
 10
125.805
 20
3.25079
 30
0.0
 10
125.225
 20
3.25079
 30
0.0
 10
124.755
 20
3.72071
 30
0.0
 10
124.755
 20
4.30085
 30
0.0
  0
SPLINE
  5
10b
100
AcDbEntity
  8
0
100
AcDbSpline
210
0.0
220
0.0
230
1.0
 62
     12
 70
     0
 71
     3
 72
     8
 73
4
 40
0.0
 40
0.0
 40
0.0
 40
0.0
 40
1.0
 40
1.0
 40
1.0
 40
1.0
 10
124.755
 20
4.30085
 30
0.0
 10
124.755
 20
4.881
 30
0.0
 10
125.225
 20
5.35093
 30
0.0
 10
125.805
 20
5.35093
 30
0.0
  0
SPLINE
  5
10c
100
AcDbEntity
  8
0
100
AcDbSpline
210
0.0
220
0.0
230
1.0
 62
     12
 70
     0
 71
     3
 72
     8
 73
4
 40
0.0
 40
0.0
 40
0.0
 40
0.0
 40
1.0
 40
1.0
 40
1.0
 40
1.0
 10
125.805
 20
5.35093
 30
0.0
 10
126.384
 20
5.35093
 30
0.0
 10
126.855
 20
4.881
 30
0.0
 10
126.855
 20
4.30085
 30
0.0
  0
LINE
  5
10d
100
AcDbEntity
  8
0
100
AcDbLine
 62
     12
 10
126.855
 20
4.30085
 30
0.0
 11
126.855
 21
4.30085
 31
0.0
  0
SPLINE
  5
10e
100
AcDbEntity
  8
0
100
AcDbSpline
210
0.0
220
0.0
230
1.0
 62
     12
 70
     0
 71
     3
 72
     8
 73
4
 40
0.0
 40
0.0
 40
0.0
 40
0.0
 40
1.0
 40
1.0
 40
1.0
 40
1.0
 10
150.395
 20
45.194
 30
0.0
 10
150.395
 20
44.614
 30
0.0
 10
149.925
 20
44.1441
 30
0.0
 10
149.345
 20
44.1441
 30
0.0
  0
SPLINE
  5
10f
100
AcDbEntity
  8
0
100
AcDbSpline
210
0.0
220
0.0
230
1.0
 62
     12
 70
     0
 71
     3
 72
     8
 73
4
 40
0.0
 40
0.0
 40
0.0
 40
0.0
 40
1.0
 40
1.0
 40
1.0
 40
1.0
 10
149.345
 20
44.1441
 30
0.0
 10
148.766
 20
44.1441
 30
0.0
 10
148.295
 20
44.614
 30
0.0
 10
148.295
 20
45.194
 30
0.0
  0
SPLINE
  5
110
100
AcDbEntity
  8
0
100
AcDbSpline
210
0.0
220
0.0
230
1.0
 62
     12
 70
     0
 71
     3
 72
     8
 73
4
 40
0.0
 40
0.0
 40
0.0
 40
0.0
 40
1.0
 40
1.0
 40
1.0
 40
1.0
 10
148.295
 20
45.194
 30
0.0
 10
148.295
 20
45.7743
 30
0.0
 10
148.766
 20
46.2442
 30
0.0
 10
149.345
 20
46.2442
 30
0.0
  0
SPLINE
  5
111
100
AcDbEntity
  8
0
100
AcDbSpline
210
0.0
220
0.0
230
1.0
 62
     12
 70
     0
 71
     3
 72
     8
 73
4
 40
0.0
 40
0.0
 40
0.0
 40
0.0
 40
1.0
 40
1.0
 40
1.0
 40
1.0
 10
149.345
 20
46.2442
 30
0.0
 10
149.925
 20
46.2442
 30
0.0
 10
150.395
 20
45.7743
 30
0.0
 10
150.395
 20
45.194
 30
0.0
  0
LINE
  5
112
100
AcDbEntity
  8
0
100
AcDbLine
 62
     12
 10
150.395
 20
45.194
 30
0.0
 11
150.395
 21
45.194
 31
0.0
  0
SPLINE
  5
113
100
AcDbEntity
  8
0
100
AcDbSpline
210
0.0
220
0.0
230
1.0
 62
     12
 70
     0
 71
     3
 72
     8
 73
4
 40
0.0
 40
0.0
 40
0.0
 40
0.0
 40
1.0
 40
1.0
 40
1.0
 40
1.0
 10
124.011
 20
120.177
 30
0.0
 10
124.011
 20
119.597
 30
0.0
 10
123.54
 20
119.127
 30
0.0
 10
122.961
 20
119.127
 30
0.0
  0
SPLINE
  5
114
100
AcDbEntity
  8
0
100
AcDbSpline
210
0.0
220
0.0
230
1.0
 62
     12
 70
     0
 71
     3
 72
     8
 73
4
 40
0.0
 40
0.0
 40
0.0
 40
0.0
 40
1.0
 40
1.0
 40
1.0
 40
1.0
 10
122.961
 20
119.127
 30
0.0
 10
122.381
 20
119.127
 30
0.0
 10
121.911
 20
119.597
 30
0.0
 10
121.911
 20
120.177
 30
0.0
  0
SPLINE
  5
115
100
AcDbEntity
  8
0
100
AcDbSpline
210
0.0
220
0.0
230
1.0
 62
     12
 70
     0
 71
     3
 72
     8
 73
4
 40
0.0
 40
0.0
 40
0.0
 40
0.0
 40
1.0
 40
1.0
 40
1.0
 40
1.0
 10
121.911
 20
120.177
 30
0.0
 10
121.911
 20
120.758
 30
0.0
 10
122.381
 20
121.227
 30
0.0
 10
122.961
 20
121.227
 30
0.0
  0
SPLINE
  5
116
100
AcDbEntity
  8
0
100
AcDbSpline
210
0.0
220
0.0
230
1.0
 62
     12
 70
     0
 71
     3
 72
     8
 73
4
 40
0.0
 40
0.0
 40
0.0
 40
0.0
 40
1.0
 40
1.0
 40
1.0
 40
1.0
 10
122.961
 20
121.227
 30
0.0
 10
123.54
 20
121.227
 30
0.0
 10
124.011
 20
120.758
 30
0.0
 10
124.011
 20
120.177
 30
0.0
  0
LINE
  5
117
100
AcDbEntity
  8
0
100
AcDbLine
 62
     12
 10
124.011
 20
120.177
 30
0.0
 11
124.011
 21
120.177
 31
0.0
  0
SPLINE
  5
118
100
AcDbEntity
  8
0
100
AcDbSpline
210
0.0
220
0.0
230
1.0
 62
     12
 70
     0
 71
     3
 72
     8
 73
4
 40
0.0
 40
0.0
 40
0.0
 40
0.0
 40
1.0
 40
1.0
 40
1.0
 40
1.0
 10
103.453
 20
128.363
 30
0.0
 10
103.453
 20
127.783
 30
0.0
 10
102.982
 20
127.313
 30
0.0
 10
102.403
 20
127.313
 30
0.0
  0
SPLINE
  5
119
100
AcDbEntity
  8
0
100
AcDbSpline
210
0.0
220
0.0
230
1.0
 62
     12
 70
     0
 71
     3
 72
     8
 73
4
 40
0.0
 40
0.0
 40
0.0
 40
0.0
 40
1.0
 40
1.0
 40
1.0
 40
1.0
 10
102.403
 20
127.313
 30
0.0
 10
101.823
 20
127.313
 30
0.0
 10
101.353
 20
127.783
 30
0.0
 10
101.353
 20
128.363
 30
0.0
  0
SPLINE
  5
11a
100
AcDbEntity
  8
0
100
AcDbSpline
210
0.0
220
0.0
230
1.0
 62
     12
 70
     0
 71
     3
 72
     8
 73
4
 40
0.0
 40
0.0
 40
0.0
 40
0.0
 40
1.0
 40
1.0
 40
1.0
 40
1.0
 10
101.353
 20
128.363
 30
0.0
 10
101.353
 20
128.943
 30
0.0
 10
101.823
 20
129.413
 30
0.0
 10
102.403
 20
129.413
 30
0.0
  0
SPLINE
  5
11b
100
AcDbEntity
  8
0
100
AcDbSpline
210
0.0
220
0.0
230
1.0
 62
     12
 70
     0
 71
     3
 72
     8
 73
4
 40
0.0
 40
0.0
 40
0.0
 40
0.0
 40
1.0
 40
1.0
 40
1.0
 40
1.0
 10
102.403
 20
129.413
 30
0.0
 10
102.982
 20
129.413
 30
0.0
 10
103.453
 20
128.943
 30
0.0
 10
103.453
 20
128.363
 30
0.0
  0
LINE
  5
11c
100
AcDbEntity
  8
0
100
AcDbLine
 62
     12
 10
103.453
 20
128.363
 30
0.0
 11
103.453
 21
128.363
 31
0.0
  0
SPLINE
  5
11d
100
AcDbEntity
  8
0
100
AcDbSpline
210
0.0
220
0.0
230
1.0
 62
     12
 70
     0
 71
     3
 72
     8
 73
4
 40
0.0
 40
0.0
 40
0.0
 40
0.0
 40
1.0
 40
1.0
 40
1.0
 40
1.0
 10
53.5725
 20
128.992
 30
0.0
 10
53.5725
 20
128.413
 30
0.0
 10
53.1026
 20
127.943
 30
0.0
 10
52.5226
 20
127.943
 30
0.0
  0
SPLINE
  5
11e
100
AcDbEntity
  8
0
100
AcDbSpline
210
0.0
220
0.0
230
1.0
 62
     12
 70
     0
 71
     3
 72
     8
 73
4
 40
0.0
 40
0.0
 40
0.0
 40
0.0
 40
1.0
 40
1.0
 40
1.0
 40
1.0
 10
52.5226
 20
127.943
 30
0.0
 10
51.9423
 20
127.943
 30
0.0
 10
51.4724
 20
128.413
 30
0.0
 10
51.4724
 20
128.992
 30
0.0
  0
SPLINE
  5
11f
100
AcDbEntity
  8
0
100
AcDbSpline
210
0.0
220
0.0
230
1.0
 62
     12
 70
     0
 71
     3
 72
     8
 73
4
 40
0.0
 40
0.0
 40
0.0
 40
0.0
 40
1.0
 40
1.0
 40
1.0
 40
1.0
 10
51.4724
 20
128.992
 30
0.0
 10
51.4724
 20
129.573
 30
0.0
 10
51.9423
 20
130.043
 30
0.0
 10
52.5226
 20
130.043
 30
0.0
  0
SPLINE
  5
120
100
AcDbEntity
  8
0
100
AcDbSpline
210
0.0
220
0.0
230
1.0
 62
     12
 70
     0
 71
     3
 72
     8
 73
4
 40
0.0
 40
0.0
 40
0.0
 40
0.0
 40
1.0
 40
1.0
 40
1.0
 40
1.0
 10
52.5226
 20
130.043
 30
0.0
 10
53.1026
 20
130.043
 30
0.0
 10
53.5725
 20
129.573
 30
0.0
 10
53.5725
 20
128.992
 30
0.0
  0
LINE
  5
121
100
AcDbEntity
  8
0
100
AcDbLine
 62
     12
 10
53.5725
 20
128.992
 30
0.0
 11
53.5725
 21
128.992
 31
0.0
  0
SPLINE
  5
122
100
AcDbEntity
  8
0
100
AcDbSpline
210
0.0
220
0.0
230
1.0
 62
     12
 70
     0
 71
     3
 72
     8
 73
4
 40
0.0
 40
0.0
 40
0.0
 40
0.0
 40
1.0
 40
1.0
 40
1.0
 40
1.0
 10
4.86033
 20
118.204
 30
0.0
 10
4.86033
 20
117.624
 30
0.0
 10
4.38905
 20
117.154
 30
0.0
 10
3.81028
 20
117.154
 30
0.0
  0
SPLINE
  5
123
100
AcDbEntity
  8
0
100
AcDbSpline
210
0.0
220
0.0
230
1.0
 62
     12
 70
     0
 71
     3
 72
     8
 73
4
 40
0.0
 40
0.0
 40
0.0
 40
0.0
 40
1.0
 40
1.0
 40
1.0
 40
1.0
 10
3.81028
 20
117.154
 30
0.0
 10
3.23012
 20
117.154
 30
0.0
 10
2.76021
 20
117.624
 30
0.0
 10
2.76021
 20
118.204
 30
0.0
  0
SPLINE
  5
124
100
AcDbEntity
  8
0
100
AcDbSpline
210
0.0
220
0.0
230
1.0
 62
     12
 70
     0
 71
     3
 72
     8
 73
4
 40
0.0
 40
0.0
 40
0.0
 40
0.0
 40
1.0
 40
1.0
 40
1.0
 40
1.0
 10
2.76021
 20
118.204
 30
0.0
 10
2.76021
 20
118.784
 30
0.0
 10
3.23012
 20
119.254
 30
0.0
 10
3.81028
 20
119.254
 30
0.0
  0
SPLINE
  5
125
100
AcDbEntity
  8
0
100
AcDbSpline
210
0.0
220
0.0
230
1.0
 62
     12
 70
     0
 71
     3
 72
     8
 73
4
 40
0.0
 40
0.0
 40
0.0
 40
0.0
 40
1.0
 40
1.0
 40
1.0
 40
1.0
 10
3.81028
 20
119.254
 30
0.0
 10
4.38905
 20
119.254
 30
0.0
 10
4.86033
 20
118.784
 30
0.0
 10
4.86033
 20
118.204
 30
0.0
  0
LINE
  5
126
100
AcDbEntity
  8
0
100
AcDbLine
 62
     12
 10
4.86033
 20
118.204
 30
0.0
 11
4.86033
 21
118.204
 31
0.0
  0
SPLINE
  5
127
100
AcDbEntity
  8
0
100
AcDbSpline
210
0.0
220
0.0
230
1.0
 62
     12
 70
     0
 71
     3
 72
     8
 73
4
 40
0.0
 40
0.0
 40
0.0
 40
0.0
 40
1.0
 40
1.0
 40
1.0
 40
1.0
 10
26.2034
 20
97.2069
 30
0.0
 10
26.2034
 20
96.6265
 30
0.0
 10
25.7321
 20
96.1566
 30
0.0
 10
25.1533
 20
96.1566
 30
0.0
  0
SPLINE
  5
128
100
AcDbEntity
  8
0
100
AcDbSpline
210
0.0
220
0.0
230
1.0
 62
     12
 70
     0
 71
     3
 72
     8
 73
4
 40
0.0
 40
0.0
 40
0.0
 40
0.0
 40
1.0
 40
1.0
 40
1.0
 40
1.0
 10
25.1533
 20
96.1566
 30
0.0
 10
24.5732
 20
96.1566
 30
0.0
 10
24.1033
 20
96.6265
 30
0.0
 10
24.1033
 20
97.2069
 30
0.0
  0
SPLINE
  5
129
100
AcDbEntity
  8
0
100
AcDbSpline
210
0.0
220
0.0
230
1.0
 62
     12
 70
     0
 71
     3
 72
     8
 73
4
 40
0.0
 40
0.0
 40
0.0
 40
0.0
 40
1.0
 40
1.0
 40
1.0
 40
1.0
 10
24.1033
 20
97.2069
 30
0.0
 10
24.1033
 20
97.7868
 30
0.0
 10
24.5732
 20
98.2567
 30
0.0
 10
25.1533
 20
98.2567
 30
0.0
  0
SPLINE
  5
12a
100
AcDbEntity
  8
0
100
AcDbSpline
210
0.0
220
0.0
230
1.0
 62
     12
 70
     0
 71
     3
 72
     8
 73
4
 40
0.0
 40
0.0
 40
0.0
 40
0.0
 40
1.0
 40
1.0
 40
1.0
 40
1.0
 10
25.1533
 20
98.2567
 30
0.0
 10
25.7321
 20
98.2567
 30
0.0
 10
26.2034
 20
97.7868
 30
0.0
 10
26.2034
 20
97.2069
 30
0.0
  0
LINE
  5
12b
100
AcDbEntity
  8
0
100
AcDbLine
 62
     12
 10
26.2034
 20
97.2069
 30
0.0
 11
26.2034
 21
97.2069
 31
0.0
  0
SPLINE
  5
12c
100
AcDbEntity
  8
0
100
AcDbSpline
210
0.0
220
0.0
230
1.0
 62
     12
 70
     0
 71
     3
 72
     8
 73
4
 40
0.0
 40
0.0
 40
0.0
 40
0.0
 40
1.0
 40
1.0
 40
1.0
 40
1.0
 10
26.2034
 20
59.1069
 30
0.0
 10
26.2034
 20
58.5265
 30
0.0
 10
25.7321
 20
58.0566
 30
0.0
 10
25.1533
 20
58.0566
 30
0.0
  0
SPLINE
  5
12d
100
AcDbEntity
  8
0
100
AcDbSpline
210
0.0
220
0.0
230
1.0
 62
     12
 70
     0
 71
     3
 72
     8
 73
4
 40
0.0
 40
0.0
 40
0.0
 40
0.0
 40
1.0
 40
1.0
 40
1.0
 40
1.0
 10
25.1533
 20
58.0566
 30
0.0
 10
24.5732
 20
58.0566
 30
0.0
 10
24.1033
 20
58.5265
 30
0.0
 10
24.1033
 20
59.1069
 30
0.0
  0
SPLINE
  5
12e
100
AcDbEntity
  8
0
100
AcDbSpline
210
0.0
220
0.0
230
1.0
 62
     12
 70
     0
 71
     3
 72
     8
 73
4
 40
0.0
 40
0.0
 40
0.0
 40
0.0
 40
1.0
 40
1.0
 40
1.0
 40
1.0
 10
24.1033
 20
59.1069
 30
0.0
 10
24.1033
 20
59.6868
 30
0.0
 10
24.5732
 20
60.1567
 30
0.0
 10
25.1533
 20
60.1567
 30
0.0
  0
SPLINE
  5
12f
100
AcDbEntity
  8
0
100
AcDbSpline
210
0.0
220
0.0
230
1.0
 62
     12
 70
     0
 71
     3
 72
     8
 73
4
 40
0.0
 40
0.0
 40
0.0
 40
0.0
 40
1.0
 40
1.0
 40
1.0
 40
1.0
 10
25.1533
 20
60.1567
 30
0.0
 10
25.7321
 20
60.1567
 30
0.0
 10
26.2034
 20
59.6868
 30
0.0
 10
26.2034
 20
59.1069
 30
0.0
  0
LINE
  5
130
100
AcDbEntity
  8
0
100
AcDbLine
 62
     12
 10
26.2034
 20
59.1069
 30
0.0
 11
26.2034
 21
59.1069
 31
0.0
  0
SPLINE
  5
131
100
AcDbEntity
  8
0
100
AcDbSpline
210
0.0
220
0.0
230
1.0
 62
     12
 70
     0
 71
     3
 72
     8
 73
4
 40
0.0
 40
0.0
 40
0.0
 40
0.0
 40
1.0
 40
1.0
 40
1.0
 40
1.0
 10
102.403
 20
62.6787
 30
0.0
 10
102.403
 20
62.0984
 30
0.0
 10
101.932
 20
61.6285
 30
0.0
 10
101.353
 20
61.6285
 30
0.0
  0
SPLINE
  5
132
100
AcDbEntity
  8
0
100
AcDbSpline
210
0.0
220
0.0
230
1.0
 62
     12
 70
     0
 71
     3
 72
     8
 73
4
 40
0.0
 40
0.0
 40
0.0
 40
0.0
 40
1.0
 40
1.0
 40
1.0
 40
1.0
 10
101.353
 20
61.6285
 30
0.0
 10
100.773
 20
61.6285
 30
0.0
 10
100.303
 20
62.0984
 30
0.0
 10
100.303
 20
62.6787
 30
0.0
  0
SPLINE
  5
133
100
AcDbEntity
  8
0
100
AcDbSpline
210
0.0
220
0.0
230
1.0
 62
     12
 70
     0
 71
     3
 72
     8
 73
4
 40
0.0
 40
0.0
 40
0.0
 40
0.0
 40
1.0
 40
1.0
 40
1.0
 40
1.0
 10
100.303
 20
62.6787
 30
0.0
 10
100.303
 20
63.2587
 30
0.0
 10
100.773
 20
63.7286
 30
0.0
 10
101.353
 20
63.7286
 30
0.0
  0
SPLINE
  5
134
100
AcDbEntity
  8
0
100
AcDbSpline
210
0.0
220
0.0
230
1.0
 62
     12
 70
     0
 71
     3
 72
     8
 73
4
 40
0.0
 40
0.0
 40
0.0
 40
0.0
 40
1.0
 40
1.0
 40
1.0
 40
1.0
 10
101.353
 20
63.7286
 30
0.0
 10
101.932
 20
63.7286
 30
0.0
 10
102.403
 20
63.2587
 30
0.0
 10
102.403
 20
62.6787
 30
0.0
  0
LINE
  5
135
100
AcDbEntity
  8
0
100
AcDbLine
 62
     12
 10
102.403
 20
62.6787
 30
0.0
 11
102.403
 21
62.6787
 31
0.0
  0
SPLINE
  5
136
100
AcDbEntity
  8
0
100
AcDbSpline
210
0.0
220
0.0
230
1.0
 62
     12
 70
     0
 71
     3
 72
     8
 73
4
 40
0.0
 40
0.0
 40
0.0
 40
0.0
 40
1.0
 40
1.0
 40
1.0
 40
1.0
 10
102.403
 20
100.779
 30
0.0
 10
102.403
 20
100.198
 30
0.0
 10
101.932
 20
99.7285
 30
0.0
 10
101.353
 20
99.7285
 30
0.0
  0
SPLINE
  5
137
100
AcDbEntity
  8
0
100
AcDbSpline
210
0.0
220
0.0
230
1.0
 62
     12
 70
     0
 71
     3
 72
     8
 73
4
 40
0.0
 40
0.0
 40
0.0
 40
0.0
 40
1.0
 40
1.0
 40
1.0
 40
1.0
 10
101.353
 20
99.7285
 30
0.0
 10
100.773
 20
99.7285
 30
0.0
 10
100.303
 20
100.198
 30
0.0
 10
100.303
 20
100.779
 30
0.0
  0
SPLINE
  5
138
100
AcDbEntity
  8
0
100
AcDbSpline
210
0.0
220
0.0
230
1.0
 62
     12
 70
     0
 71
     3
 72
     8
 73
4
 40
0.0
 40
0.0
 40
0.0
 40
0.0
 40
1.0
 40
1.0
 40
1.0
 40
1.0
 10
100.303
 20
100.779
 30
0.0
 10
100.303
 20
101.359
 30
0.0
 10
100.773
 20
101.829
 30
0.0
 10
101.353
 20
101.829
 30
0.0
  0
SPLINE
  5
139
100
AcDbEntity
  8
0
100
AcDbSpline
210
0.0
220
0.0
230
1.0
 62
     12
 70
     0
 71
     3
 72
     8
 73
4
 40
0.0
 40
0.0
 40
0.0
 40
0.0
 40
1.0
 40
1.0
 40
1.0
 40
1.0
 10
101.353
 20
101.829
 30
0.0
 10
101.932
 20
101.829
 30
0.0
 10
102.403
 20
101.359
 30
0.0
 10
102.403
 20
100.779
 30
0.0
  0
LINE
  5
13a
100
AcDbEntity
  8
0
100
AcDbLine
 62
     12
 10
102.403
 20
100.779
 30
0.0
 11
102.403
 21
100.779
 31
0.0
  0
SPLINE
  5
13b
100
AcDbEntity
  8
0
100
AcDbSpline
210
0.0
220
0.0
230
1.0
 62
     12
 70
     0
 71
     3
 72
     8
 73
4
 40
0.0
 40
0.0
 40
0.0
 40
0.0
 40
1.0
 40
1.0
 40
1.0
 40
1.0
 10
136.631
 20
54.646
 30
0.0
 10
136.631
 20
54.066
 30
0.0
 10
136.161
 20
53.5961
 30
0.0
 10
135.581
 20
53.5961
 30
0.0
  0
SPLINE
  5
13c
100
AcDbEntity
  8
0
100
AcDbSpline
210
0.0
220
0.0
230
1.0
 62
     12
 70
     0
 71
     3
 72
     8
 73
4
 40
0.0
 40
0.0
 40
0.0
 40
0.0
 40
1.0
 40
1.0
 40
1.0
 40
1.0
 10
135.581
 20
53.5961
 30
0.0
 10
135.001
 20
53.5961
 30
0.0
 10
134.531
 20
54.066
 30
0.0
 10
134.531
 20
54.646
 30
0.0
  0
SPLINE
  5
13d
100
AcDbEntity
  8
0
100
AcDbSpline
210
0.0
220
0.0
230
1.0
 62
     12
 70
     0
 71
     3
 72
     8
 73
4
 40
0.0
 40
0.0
 40
0.0
 40
0.0
 40
1.0
 40
1.0
 40
1.0
 40
1.0
 10
134.531
 20
54.646
 30
0.0
 10
134.531
 20
55.2249
 30
0.0
 10
135.001
 20
55.6948
 30
0.0
 10
135.581
 20
55.6948
 30
0.0
  0
SPLINE
  5
13e
100
AcDbEntity
  8
0
100
AcDbSpline
210
0.0
220
0.0
230
1.0
 62
     12
 70
     0
 71
     3
 72
     8
 73
4
 40
0.0
 40
0.0
 40
0.0
 40
0.0
 40
1.0
 40
1.0
 40
1.0
 40
1.0
 10
135.581
 20
55.6948
 30
0.0
 10
136.161
 20
55.6948
 30
0.0
 10
136.631
 20
55.2249
 30
0.0
 10
136.631
 20
54.646
 30
0.0
  0
LINE
  5
13f
100
AcDbEntity
  8
0
100
AcDbLine
 62
     12
 10
136.631
 20
54.646
 30
0.0
 11
136.631
 21
54.646
 31
0.0
  0
SPLINE
  5
140
100
AcDbEntity
  8
0
100
AcDbSpline
210
0.0
220
0.0
230
1.0
 62
     12
 70
     0
 71
     3
 72
     8
 73
4
 40
0.0
 40
0.0
 40
0.0
 40
0.0
 40
1.0
 40
1.0
 40
1.0
 40
1.0
 10
124.452
 20
72.1953
 30
0.0
 10
124.452
 20
71.6153
 30
0.0
 10
123.981
 20
71.1454
 30
0.0
 10
123.402
 20
71.1454
 30
0.0
  0
SPLINE
  5
141
100
AcDbEntity
  8
0
100
AcDbSpline
210
0.0
220
0.0
230
1.0
 62
     12
 70
     0
 71
     3
 72
     8
 73
4
 40
0.0
 40
0.0
 40
0.0
 40
0.0
 40
1.0
 40
1.0
 40
1.0
 40
1.0
 10
123.402
 20
71.1454
 30
0.0
 10
122.822
 20
71.1454
 30
0.0
 10
122.352
 20
71.6153
 30
0.0
 10
122.352
 20
72.1953
 30
0.0
  0
SPLINE
  5
142
100
AcDbEntity
  8
0
100
AcDbSpline
210
0.0
220
0.0
230
1.0
 62
     12
 70
     0
 71
     3
 72
     8
 73
4
 40
0.0
 40
0.0
 40
0.0
 40
0.0
 40
1.0
 40
1.0
 40
1.0
 40
1.0
 10
122.352
 20
72.1953
 30
0.0
 10
122.352
 20
72.7756
 30
0.0
 10
122.822
 20
73.2455
 30
0.0
 10
123.402
 20
73.2455
 30
0.0
  0
SPLINE
  5
143
100
AcDbEntity
  8
0
100
AcDbSpline
210
0.0
220
0.0
230
1.0
 62
     12
 70
     0
 71
     3
 72
     8
 73
4
 40
0.0
 40
0.0
 40
0.0
 40
0.0
 40
1.0
 40
1.0
 40
1.0
 40
1.0
 10
123.402
 20
73.2455
 30
0.0
 10
123.981
 20
73.2455
 30
0.0
 10
124.452
 20
72.7756
 30
0.0
 10
124.452
 20
72.1953
 30
0.0
  0
LINE
  5
144
100
AcDbEntity
  8
0
100
AcDbLine
 62
     12
 10
124.452
 20
72.1953
 30
0.0
 11
124.452
 21
72.1953
 31
0.0
  0
SPLINE
  5
145
100
AcDbEntity
  8
0
100
AcDbSpline
210
0.0
220
0.0
230
1.0
 62
     12
 70
     0
 71
     3
 72
     8
 73
4
 40
0.0
 40
0.0
 40
0.0
 40
0.0
 40
1.0
 40
1.0
 40
1.0
 40
1.0
 10
119.041
 20
35.9131
 30
0.0
 10
119.041
 20
35.3328
 30
0.0
 10
118.57
 20
34.863
 30
0.0
 10
117.99
 20
34.863
 30
0.0
  0
SPLINE
  5
146
100
AcDbEntity
  8
0
100
AcDbSpline
210
0.0
220
0.0
230
1.0
 62
     12
 70
     0
 71
     3
 72
     8
 73
4
 40
0.0
 40
0.0
 40
0.0
 40
0.0
 40
1.0
 40
1.0
 40
1.0
 40
1.0
 10
117.99
 20
34.863
 30
0.0
 10
117.412
 20
34.863
 30
0.0
 10
116.94
 20
35.3328
 30
0.0
 10
116.94
 20
35.9131
 30
0.0
  0
SPLINE
  5
147
100
AcDbEntity
  8
0
100
AcDbSpline
210
0.0
220
0.0
230
1.0
 62
     12
 70
     0
 71
     3
 72
     8
 73
4
 40
0.0
 40
0.0
 40
0.0
 40
0.0
 40
1.0
 40
1.0
 40
1.0
 40
1.0
 10
116.94
 20
35.9131
 30
0.0
 10
116.94
 20
36.4931
 30
0.0
 10
117.412
 20
36.963
 30
0.0
 10
117.99
 20
36.963
 30
0.0
  0
SPLINE
  5
148
100
AcDbEntity
  8
0
100
AcDbSpline
210
0.0
220
0.0
230
1.0
 62
     12
 70
     0
 71
     3
 72
     8
 73
4
 40
0.0
 40
0.0
 40
0.0
 40
0.0
 40
1.0
 40
1.0
 40
1.0
 40
1.0
 10
117.99
 20
36.963
 30
0.0
 10
118.57
 20
36.963
 30
0.0
 10
119.041
 20
36.4931
 30
0.0
 10
119.041
 20
35.9131
 30
0.0
  0
LINE
  5
149
100
AcDbEntity
  8
0
100
AcDbLine
 62
     12
 10
119.041
 20
35.9131
 30
0.0
 11
119.041
 21
35.9131
 31
0.0
  0
LINE
  5
14a
100
AcDbEntity
  8
0
100
AcDbLine
 62
     160
 10
94.4369
 20
37.4632
 30
0.0
 11
94.4369
 21
36.8625
 31
0.0
  0
LINE
  5
14b
100
AcDbEntity
  8
0
100
AcDbLine
 62
     160
 10
94.4369
 20
36.8625
 30
0.0
 11
93.6378
 21
36.8625
 31
0.0
  0
LINE
  5
14c
100
AcDbEntity
  8
0
100
AcDbLine
 62
     160
 10
93.6378
 20
36.8625
 30
0.0
 11
93.6378
 21
24.2135
 31
0.0
  0
LINE
  5
14d
100
AcDbEntity
  8
0
100
AcDbLine
 62
     160
 10
93.6378
 20
24.2135
 30
0.0
 11
94.4369
 21
24.2135
 31
0.0
  0
LINE
  5
14e
100
AcDbEntity
  8
0
100
AcDbLine
 62
     160
 10
94.4369
 20
24.2135
 30
0.0
 11
94.4369
 21
23.6127
 31
0.0
  0
LINE
  5
14f
100
AcDbEntity
  8
0
100
AcDbLine
 62
     160
 10
94.4369
 20
23.6127
 30
0.0
 11
108.288
 21
23.6127
 31
0.0
  0
LINE
  5
150
100
AcDbEntity
  8
0
100
AcDbLine
 62
     160
 10
108.288
 20
23.6127
 30
0.0
 11
108.288
 21
24.2135
 31
0.0
  0
LINE
  5
151
100
AcDbEntity
  8
0
100
AcDbLine
 62
     160
 10
108.288
 20
24.2135
 30
0.0
 11
109.087
 21
24.2135
 31
0.0
  0
LINE
  5
152
100
AcDbEntity
  8
0
100
AcDbLine
 62
     160
 10
109.087
 20
24.2135
 30
0.0
 11
109.087
 21
36.8625
 31
0.0
  0
LINE
  5
153
100
AcDbEntity
  8
0
100
AcDbLine
 62
     160
 10
109.087
 20
36.8625
 30
0.0
 11
108.288
 21
36.8625
 31
0.0
  0
LINE
  5
154
100
AcDbEntity
  8
0
100
AcDbLine
 62
     160
 10
108.288
 20
36.8625
 30
0.0
 11
108.288
 21
37.4632
 31
0.0
  0
LINE
  5
155
100
AcDbEntity
  8
0
100
AcDbLine
 62
     160
 10
108.288
 20
37.4632
 30
0.0
 11
94.4369
 21
37.4632
 31
0.0
  0
LINE
  5
156
100
AcDbEntity
  8
0
100
AcDbLine
 62
     160
 10
75.3869
 20
39.8445
 30
0.0
 11
75.3869
 21
39.2437
 31
0.0
  0
LINE
  5
157
100
AcDbEntity
  8
0
100
AcDbLine
 62
     160
 10
75.3869
 20
39.2437
 30
0.0
 11
74.5878
 21
39.2437
 31
0.0
  0
LINE
  5
158
100
AcDbEntity
  8
0
100
AcDbLine
 62
     160
 10
74.5878
 20
39.2437
 30
0.0
 11
74.5878
 21
26.5948
 31
0.0
  0
LINE
  5
159
100
AcDbEntity
  8
0
100
AcDbLine
 62
     160
 10
74.5878
 20
26.5948
 30
0.0
 11
75.3869
 21
26.5948
 31
0.0
  0
LINE
  5
15a
100
AcDbEntity
  8
0
100
AcDbLine
 62
     160
 10
75.3869
 20
26.5948
 30
0.0
 11
75.3869
 21
25.9939
 31
0.0
  0
LINE
  5
15b
100
AcDbEntity
  8
0
100
AcDbLine
 62
     160
 10
75.3869
 20
25.9939
 30
0.0
 11
89.2376
 21
25.9939
 31
0.0
  0
LINE
  5
15c
100
AcDbEntity
  8
0
100
AcDbLine
 62
     160
 10
89.2376
 20
25.9939
 30
0.0
 11
89.2376
 21
26.5948
 31
0.0
  0
LINE
  5
15d
100
AcDbEntity
  8
0
100
AcDbLine
 62
     160
 10
89.2376
 20
26.5948
 30
0.0
 11
90.037
 21
26.5948
 31
0.0
  0
LINE
  5
15e
100
AcDbEntity
  8
0
100
AcDbLine
 62
     160
 10
90.037
 20
26.5948
 30
0.0
 11
90.037
 21
39.2437
 31
0.0
  0
LINE
  5
15f
100
AcDbEntity
  8
0
100
AcDbLine
 62
     160
 10
90.037
 20
39.2437
 30
0.0
 11
89.2376
 21
39.2437
 31
0.0
  0
LINE
  5
160
100
AcDbEntity
  8
0
100
AcDbLine
 62
     160
 10
89.2376
 20
39.2437
 30
0.0
 11
89.2376
 21
39.8445
 31
0.0
  0
LINE
  5
161
100
AcDbEntity
  8
0
100
AcDbLine
 62
     160
 10
89.2376
 20
39.8445
 30
0.0
 11
75.3869
 21
39.8445
 31
0.0
  0
LINE
  5
162
100
AcDbEntity
  8
0
100
AcDbLine
 62
     160
 10
8.71195
 20
56.5132
 30
0.0
 11
8.71195
 21
55.9125
 31
0.0
  0
LINE
  5
163
100
AcDbEntity
  8
0
100
AcDbLine
 62
     160
 10
8.71195
 20
55.9125
 30
0.0
 11
7.9127
 21
55.9125
 31
0.0
  0
LINE
  5
164
100
AcDbEntity
  8
0
100
AcDbLine
 62
     160
 10
7.9127
 20
55.9125
 30
0.0
 11
7.9127
 21
43.2636
 31
0.0
  0
LINE
  5
165
100
AcDbEntity
  8
0
100
AcDbLine
 62
     160
 10
7.9127
 20
43.2636
 30
0.0
 11
8.71195
 21
43.2636
 31
0.0
  0
LINE
  5
166
100
AcDbEntity
  8
0
100
AcDbLine
 62
     160
 10
8.71195
 20
43.2636
 30
0.0
 11
8.71195
 21
42.6628
 31
0.0
  0
LINE
  5
167
100
AcDbEntity
  8
0
100
AcDbLine
 62
     160
 10
8.71195
 20
42.6628
 30
0.0
 11
22.5626
 21
42.6628
 31
0.0
  0
LINE
  5
168
100
AcDbEntity
  8
0
100
AcDbLine
 62
     160
 10
22.5626
 20
42.6628
 30
0.0
 11
22.5626
 21
43.2636
 31
0.0
  0
LINE
  5
169
100
AcDbEntity
  8
0
100
AcDbLine
 62
     160
 10
22.5626
 20
43.2636
 30
0.0
 11
23.3619
 21
43.2636
 31
0.0
  0
LINE
  5
16a
100
AcDbEntity
  8
0
100
AcDbLine
 62
     160
 10
23.3619
 20
43.2636
 30
0.0
 11
23.3619
 21
55.9125
 31
0.0
  0
LINE
  5
16b
100
AcDbEntity
  8
0
100
AcDbLine
 62
     160
 10
23.3619
 20
55.9125
 30
0.0
 11
22.5626
 21
55.9125
 31
0.0
  0
LINE
  5
16c
100
AcDbEntity
  8
0
100
AcDbLine
 62
     160
 10
22.5626
 20
55.9125
 30
0.0
 11
22.5626
 21
56.5132
 31
0.0
  0
LINE
  5
16d
100
AcDbEntity
  8
0
100
AcDbLine
 62
     160
 10
22.5626
 20
56.5132
 30
0.0
 11
8.71195
 21
56.5132
 31
0.0
  0
LINE
  5
16e
100
AcDbEntity
  8
0
100
AcDbLine
 62
     160
 10
27.762
 20
56.5132
 30
0.0
 11
27.762
 21
55.9125
 31
0.0
  0
LINE
  5
16f
100
AcDbEntity
  8
0
100
AcDbLine
 62
     160
 10
27.762
 20
55.9125
 30
0.0
 11
26.9627
 21
55.9125
 31
0.0
  0
LINE
  5
170
100
AcDbEntity
  8
0
100
AcDbLine
 62
     160
 10
26.9627
 20
55.9125
 30
0.0
 11
26.9627
 21
43.2636
 31
0.0
  0
LINE
  5
171
100
AcDbEntity
  8
0
100
AcDbLine
 62
     160
 10
26.9627
 20
43.2636
 30
0.0
 11
27.762
 21
43.2636
 31
0.0
  0
LINE
  5
172
100
AcDbEntity
  8
0
100
AcDbLine
 62
     160
 10
27.762
 20
43.2636
 30
0.0
 11
27.762
 21
42.6628
 31
0.0
  0
LINE
  5
173
100
AcDbEntity
  8
0
100
AcDbLine
 62
     160
 10
27.762
 20
42.6628
 30
0.0
 11
41.6126
 21
42.6628
 31
0.0
  0
LINE
  5
174
100
AcDbEntity
  8
0
100
AcDbLine
 62
     160
 10
41.6126
 20
42.6628
 30
0.0
 11
41.6126
 21
43.2636
 31
0.0
  0
LINE
  5
175
100
AcDbEntity
  8
0
100
AcDbLine
 62
     160
 10
41.6126
 20
43.2636
 30
0.0
 11
42.412
 21
43.2636
 31
0.0
  0
LINE
  5
176
100
AcDbEntity
  8
0
100
AcDbLine
 62
     160
 10
42.412
 20
43.2636
 30
0.0
 11
42.412
 21
55.9125
 31
0.0
  0
LINE
  5
177
100
AcDbEntity
  8
0
100
AcDbLine
 62
     160
 10
42.412
 20
55.9125
 30
0.0
 11
41.6126
 21
55.9125
 31
0.0
  0
LINE
  5
178
100
AcDbEntity
  8
0
100
AcDbLine
 62
     160
 10
41.6126
 20
55.9125
 30
0.0
 11
41.6126
 21
56.5132
 31
0.0
  0
LINE
  5
179
100
AcDbEntity
  8
0
100
AcDbLine
 62
     160
 10
41.6126
 20
56.5132
 30
0.0
 11
27.762
 21
56.5132
 31
0.0
  0
LINE
  5
17a
100
AcDbEntity
  8
0
100
AcDbLine
 62
     160
 10
103.962
 20
58.8945
 30
0.0
 11
103.962
 21
58.2937
 31
0.0
  0
LINE
  5
17b
100
AcDbEntity
  8
0
100
AcDbLine
 62
     160
 10
103.962
 20
58.2937
 30
0.0
 11
103.163
 21
58.2937
 31
0.0
  0
LINE
  5
17c
100
AcDbEntity
  8
0
100
AcDbLine
 62
     160
 10
103.163
 20
58.2937
 30
0.0
 11
103.163
 21
45.6449
 31
0.0
  0
LINE
  5
17d
100
AcDbEntity
  8
0
100
AcDbLine
 62
     160
 10
103.163
 20
45.6449
 30
0.0
 11
103.962
 21
45.6449
 31
0.0
  0
LINE
  5
17e
100
AcDbEntity
  8
0
100
AcDbLine
 62
     160
 10
103.962
 20
45.6449
 30
0.0
 11
103.962
 21
45.0441
 31
0.0
  0
LINE
  5
17f
100
AcDbEntity
  8
0
100
AcDbLine
 62
     160
 10
103.962
 20
45.0441
 30
0.0
 11
117.813
 21
45.0441
 31
0.0
  0
LINE
  5
180
100
AcDbEntity
  8
0
100
AcDbLine
 62
     160
 10
117.813
 20
45.0441
 30
0.0
 11
117.813
 21
45.6449
 31
0.0
  0
LINE
  5
181
100
AcDbEntity
  8
0
100
AcDbLine
 62
     160
 10
117.813
 20
45.6449
 30
0.0
 11
118.612
 21
45.6449
 31
0.0
  0
LINE
  5
182
100
AcDbEntity
  8
0
100
AcDbLine
 62
     160
 10
118.612
 20
45.6449
 30
0.0
 11
118.612
 21
58.2937
 31
0.0
  0
LINE
  5
183
100
AcDbEntity
  8
0
100
AcDbLine
 62
     160
 10
118.612
 20
58.2937
 30
0.0
 11
117.813
 21
58.2937
 31
0.0
  0
LINE
  5
184
100
AcDbEntity
  8
0
100
AcDbLine
 62
     160
 10
117.813
 20
58.2937
 30
0.0
 11
117.813
 21
58.8945
 31
0.0
  0
LINE
  5
185
100
AcDbEntity
  8
0
100
AcDbLine
 62
     160
 10
117.813
 20
58.8945
 30
0.0
 11
103.962
 21
58.8945
 31
0.0
  0
LINE
  5
186
100
AcDbEntity
  8
0
100
AcDbLine
 62
     160
 10
46.8118
 20
61.2757
 30
0.0
 11
46.8118
 21
60.675
 31
0.0
  0
LINE
  5
187
100
AcDbEntity
  8
0
100
AcDbLine
 62
     160
 10
46.8118
 20
60.675
 30
0.0
 11
46.0128
 21
60.675
 31
0.0
  0
LINE
  5
188
100
AcDbEntity
  8
0
100
AcDbLine
 62
     160
 10
46.0128
 20
60.675
 30
0.0
 11
46.0128
 21
48.0247
 31
0.0
  0
LINE
  5
189
100
AcDbEntity
  8
0
100
AcDbLine
 62
     160
 10
46.0128
 20
48.0247
 30
0.0
 11
46.8118
 21
48.0247
 31
0.0
  0
LINE
  5
18a
100
AcDbEntity
  8
0
100
AcDbLine
 62
     160
 10
46.8118
 20
48.0247
 30
0.0
 11
46.8118
 21
47.4253
 31
0.0
  0
LINE
  5
18b
100
AcDbEntity
  8
0
100
AcDbLine
 62
     160
 10
46.8118
 20
47.4253
 30
0.0
 11
60.6626
 21
47.4253
 31
0.0
  0
LINE
  5
18c
100
AcDbEntity
  8
0
100
AcDbLine
 62
     160
 10
60.6626
 20
47.4253
 30
0.0
 11
60.6626
 21
48.0247
 31
0.0
  0
LINE
  5
18d
100
AcDbEntity
  8
0
100
AcDbLine
 62
     160
 10
60.6626
 20
48.0247
 30
0.0
 11
61.462
 21
48.0247
 31
0.0
  0
LINE
  5
18e
100
AcDbEntity
  8
0
100
AcDbLine
 62
     160
 10
61.462
 20
48.0247
 30
0.0
 11
61.462
 21
60.675
 31
0.0
  0
LINE
  5
18f
100
AcDbEntity
  8
0
100
AcDbLine
 62
     160
 10
61.462
 20
60.675
 30
0.0
 11
60.6626
 21
60.675
 31
0.0
  0
LINE
  5
190
100
AcDbEntity
  8
0
100
AcDbLine
 62
     160
 10
60.6626
 20
60.675
 30
0.0
 11
60.6626
 21
61.2757
 31
0.0
  0
LINE
  5
191
100
AcDbEntity
  8
0
100
AcDbLine
 62
     160
 10
60.6626
 20
61.2757
 30
0.0
 11
46.8118
 21
61.2757
 31
0.0
  0
LINE
  5
192
100
AcDbEntity
  8
0
100
AcDbLine
 62
     160
 10
84.9119
 20
61.2757
 30
0.0
 11
84.9119
 21
60.675
 31
0.0
  0
LINE
  5
193
100
AcDbEntity
  8
0
100
AcDbLine
 62
     160
 10
84.9119
 20
60.675
 30
0.0
 11
84.1128
 21
60.675
 31
0.0
  0
LINE
  5
194
100
AcDbEntity
  8
0
100
AcDbLine
 62
     160
 10
84.1128
 20
60.675
 30
0.0
 11
84.1128
 21
48.0247
 31
0.0
  0
LINE
  5
195
100
AcDbEntity
  8
0
100
AcDbLine
 62
     160
 10
84.1128
 20
48.0247
 30
0.0
 11
84.9119
 21
48.0247
 31
0.0
  0
LINE
  5
196
100
AcDbEntity
  8
0
100
AcDbLine
 62
     160
 10
84.9119
 20
48.0247
 30
0.0
 11
84.9119
 21
47.4253
 31
0.0
  0
LINE
  5
197
100
AcDbEntity
  8
0
100
AcDbLine
 62
     160
 10
84.9119
 20
47.4253
 30
0.0
 11
98.7626
 21
47.4253
 31
0.0
  0
LINE
  5
198
100
AcDbEntity
  8
0
100
AcDbLine
 62
     160
 10
98.7626
 20
47.4253
 30
0.0
 11
98.7626
 21
48.0247
 31
0.0
  0
LINE
  5
199
100
AcDbEntity
  8
0
100
AcDbLine
 62
     160
 10
98.7626
 20
48.0247
 30
0.0
 11
99.562
 21
48.0247
 31
0.0
  0
LINE
  5
19a
100
AcDbEntity
  8
0
100
AcDbLine
 62
     160
 10
99.562
 20
48.0247
 30
0.0
 11
99.562
 21
60.675
 31
0.0
  0
LINE
  5
19b
100
AcDbEntity
  8
0
100
AcDbLine
 62
     160
 10
99.562
 20
60.675
 30
0.0
 11
98.7626
 21
60.675
 31
0.0
  0
LINE
  5
19c
100
AcDbEntity
  8
0
100
AcDbLine
 62
     160
 10
98.7626
 20
60.675
 30
0.0
 11
98.7626
 21
61.2757
 31
0.0
  0
LINE
  5
19d
100
AcDbEntity
  8
0
100
AcDbLine
 62
     160
 10
98.7626
 20
61.2757
 30
0.0
 11
84.9119
 21
61.2757
 31
0.0
  0
LINE
  5
19e
100
AcDbEntity
  8
0
100
AcDbLine
 62
     160
 10
65.8619
 20
63.6556
 30
0.0
 11
65.8619
 21
63.0562
 31
0.0
  0
LINE
  5
19f
100
AcDbEntity
  8
0
100
AcDbLine
 62
     160
 10
65.8619
 20
63.0562
 30
0.0
 11
65.0628
 21
63.0562
 31
0.0
  0
LINE
  5
1a0
100
AcDbEntity
  8
0
100
AcDbLine
 62
     160
 10
65.0628
 20
63.0562
 30
0.0
 11
65.0628
 21
50.4059
 31
0.0
  0
LINE
  5
1a1
100
AcDbEntity
  8
0
100
AcDbLine
 62
     160
 10
65.0628
 20
50.4059
 30
0.0
 11
65.8619
 21
50.4059
 31
0.0
  0
LINE
  5
1a2
100
AcDbEntity
  8
0
100
AcDbLine
 62
     160
 10
65.8619
 20
50.4059
 30
0.0
 11
65.8619
 21
49.8066
 31
0.0
  0
LINE
  5
1a3
100
AcDbEntity
  8
0
100
AcDbLine
 62
     160
 10
65.8619
 20
49.8066
 30
0.0
 11
79.7126
 21
49.8066
 31
0.0
  0
LINE
  5
1a4
100
AcDbEntity
  8
0
100
AcDbLine
 62
     160
 10
79.7126
 20
49.8066
 30
0.0
 11
79.7126
 21
50.4059
 31
0.0
  0
LINE
  5
1a5
100
AcDbEntity
  8
0
100
AcDbLine
 62
     160
 10
79.7126
 20
50.4059
 30
0.0
 11
80.512
 21
50.4059
 31
0.0
  0
LINE
  5
1a6
100
AcDbEntity
  8
0
100
AcDbLine
 62
     160
 10
80.512
 20
50.4059
 30
0.0
 11
80.512
 21
63.0562
 31
0.0
  0
LINE
  5
1a7
100
AcDbEntity
  8
0
100
AcDbLine
 62
     160
 10
80.512
 20
63.0562
 30
0.0
 11
79.7126
 21
63.0562
 31
0.0
  0
LINE
  5
1a8
100
AcDbEntity
  8
0
100
AcDbLine
 62
     160
 10
79.7126
 20
63.0562
 30
0.0
 11
79.7126
 21
63.6556
 31
0.0
  0
LINE
  5
1a9
100
AcDbEntity
  8
0
100
AcDbLine
 62
     160
 10
79.7126
 20
63.6556
 30
0.0
 11
65.8619
 21
63.6556
 31
0.0
  0
LINE
  5
1aa
100
AcDbEntity
  8
0
100
AcDbLine
 62
     160
 10
8.71195
 20
75.5632
 30
0.0
 11
8.71195
 21
74.9625
 31
0.0
  0
LINE
  5
1ab
100
AcDbEntity
  8
0
100
AcDbLine
 62
     160
 10
8.71195
 20
74.9625
 30
0.0
 11
7.9127
 21
74.9625
 31
0.0
  0
LINE
  5
1ac
100
AcDbEntity
  8
0
100
AcDbLine
 62
     160
 10
7.9127
 20
74.9625
 30
0.0
 11
7.9127
 21
62.3136
 31
0.0
  0
LINE
  5
1ad
100
AcDbEntity
  8
0
100
AcDbLine
 62
     160
 10
7.9127
 20
62.3136
 30
0.0
 11
8.71195
 21
62.3136
 31
0.0
  0
LINE
  5
1ae
100
AcDbEntity
  8
0
100
AcDbLine
 62
     160
 10
8.71195
 20
62.3136
 30
0.0
 11
8.71195
 21
61.7128
 31
0.0
  0
LINE
  5
1af
100
AcDbEntity
  8
0
100
AcDbLine
 62
     160
 10
8.71195
 20
61.7128
 30
0.0
 11
22.5626
 21
61.7128
 31
0.0
  0
LINE
  5
1b0
100
AcDbEntity
  8
0
100
AcDbLine
 62
     160
 10
22.5626
 20
61.7128
 30
0.0
 11
22.5626
 21
62.3136
 31
0.0
  0
LINE
  5
1b1
100
AcDbEntity
  8
0
100
AcDbLine
 62
     160
 10
22.5626
 20
62.3136
 30
0.0
 11
23.3619
 21
62.3136
 31
0.0
  0
LINE
  5
1b2
100
AcDbEntity
  8
0
100
AcDbLine
 62
     160
 10
23.3619
 20
62.3136
 30
0.0
 11
23.3619
 21
74.9625
 31
0.0
  0
LINE
  5
1b3
100
AcDbEntity
  8
0
100
AcDbLine
 62
     160
 10
23.3619
 20
74.9625
 30
0.0
 11
22.5626
 21
74.9625
 31
0.0
  0
LINE
  5
1b4
100
AcDbEntity
  8
0
100
AcDbLine
 62
     160
 10
22.5626
 20
74.9625
 30
0.0
 11
22.5626
 21
75.5632
 31
0.0
  0
LINE
  5
1b5
100
AcDbEntity
  8
0
100
AcDbLine
 62
     160
 10
22.5626
 20
75.5632
 30
0.0
 11
8.71195
 21
75.5632
 31
0.0
  0
LINE
  5
1b6
100
AcDbEntity
  8
0
100
AcDbLine
 62
     160
 10
27.762
 20
75.5632
 30
0.0
 11
27.762
 21
74.9625
 31
0.0
  0
LINE
  5
1b7
100
AcDbEntity
  8
0
100
AcDbLine
 62
     160
 10
27.762
 20
74.9625
 30
0.0
 11
26.9627
 21
74.9625
 31
0.0
  0
LINE
  5
1b8
100
AcDbEntity
  8
0
100
AcDbLine
 62
     160
 10
26.9627
 20
74.9625
 30
0.0
 11
26.9627
 21
62.3136
 31
0.0
  0
LINE
  5
1b9
100
AcDbEntity
  8
0
100
AcDbLine
 62
     160
 10
26.9627
 20
62.3136
 30
0.0
 11
27.762
 21
62.3136
 31
0.0
  0
LINE
  5
1ba
100
AcDbEntity
  8
0
100
AcDbLine
 62
     160
 10
27.762
 20
62.3136
 30
0.0
 11
27.762
 21
61.7128
 31
0.0
  0
LINE
  5
1bb
100
AcDbEntity
  8
0
100
AcDbLine
 62
     160
 10
27.762
 20
61.7128
 30
0.0
 11
41.6126
 21
61.7128
 31
0.0
  0
LINE
  5
1bc
100
AcDbEntity
  8
0
100
AcDbLine
 62
     160
 10
41.6126
 20
61.7128
 30
0.0
 11
41.6126
 21
62.3136
 31
0.0
  0
LINE
  5
1bd
100
AcDbEntity
  8
0
100
AcDbLine
 62
     160
 10
41.6126
 20
62.3136
 30
0.0
 11
42.412
 21
62.3136
 31
0.0
  0
LINE
  5
1be
100
AcDbEntity
  8
0
100
AcDbLine
 62
     160
 10
42.412
 20
62.3136
 30
0.0
 11
42.412
 21
74.9625
 31
0.0
  0
LINE
  5
1bf
100
AcDbEntity
  8
0
100
AcDbLine
 62
     160
 10
42.412
 20
74.9625
 30
0.0
 11
41.6126
 21
74.9625
 31
0.0
  0
LINE
  5
1c0
100
AcDbEntity
  8
0
100
AcDbLine
 62
     160
 10
41.6126
 20
74.9625
 30
0.0
 11
41.6126
 21
75.5632
 31
0.0
  0
LINE
  5
1c1
100
AcDbEntity
  8
0
100
AcDbLine
 62
     160
 10
41.6126
 20
75.5632
 30
0.0
 11
27.762
 21
75.5632
 31
0.0
  0
LINE
  5
1c2
100
AcDbEntity
  8
0
100
AcDbLine
 62
     160
 10
103.962
 20
77.9445
 30
0.0
 11
103.962
 21
77.3437
 31
0.0
  0
LINE
  5
1c3
100
AcDbEntity
  8
0
100
AcDbLine
 62
     160
 10
103.962
 20
77.3437
 30
0.0
 11
103.163
 21
77.3437
 31
0.0
  0
LINE
  5
1c4
100
AcDbEntity
  8
0
100
AcDbLine
 62
     160
 10
103.163
 20
77.3437
 30
0.0
 11
103.163
 21
64.6949
 31
0.0
  0
LINE
  5
1c5
100
AcDbEntity
  8
0
100
AcDbLine
 62
     160
 10
103.163
 20
64.6949
 30
0.0
 11
103.962
 21
64.6949
 31
0.0
  0
LINE
  5
1c6
100
AcDbEntity
  8
0
100
AcDbLine
 62
     160
 10
103.962
 20
64.6949
 30
0.0
 11
103.962
 21
64.0941
 31
0.0
  0
LINE
  5
1c7
100
AcDbEntity
  8
0
100
AcDbLine
 62
     160
 10
103.962
 20
64.0941
 30
0.0
 11
117.813
 21
64.0941
 31
0.0
  0
LINE
  5
1c8
100
AcDbEntity
  8
0
100
AcDbLine
 62
     160
 10
117.813
 20
64.0941
 30
0.0
 11
117.813
 21
64.6949
 31
0.0
  0
LINE
  5
1c9
100
AcDbEntity
  8
0
100
AcDbLine
 62
     160
 10
117.813
 20
64.6949
 30
0.0
 11
118.612
 21
64.6949
 31
0.0
  0
LINE
  5
1ca
100
AcDbEntity
  8
0
100
AcDbLine
 62
     160
 10
118.612
 20
64.6949
 30
0.0
 11
118.612
 21
77.3437
 31
0.0
  0
LINE
  5
1cb
100
AcDbEntity
  8
0
100
AcDbLine
 62
     160
 10
118.612
 20
77.3437
 30
0.0
 11
117.813
 21
77.3437
 31
0.0
  0
LINE
  5
1cc
100
AcDbEntity
  8
0
100
AcDbLine
 62
     160
 10
117.813
 20
77.3437
 30
0.0
 11
117.813
 21
77.9445
 31
0.0
  0
LINE
  5
1cd
100
AcDbEntity
  8
0
100
AcDbLine
 62
     160
 10
117.813
 20
77.9445
 30
0.0
 11
103.962
 21
77.9445
 31
0.0
  0
LINE
  5
1ce
100
AcDbEntity
  8
0
100
AcDbLine
 62
     160
 10
46.8118
 20
80.3257
 30
0.0
 11
46.8118
 21
79.725
 31
0.0
  0
LINE
  5
1cf
100
AcDbEntity
  8
0
100
AcDbLine
 62
     160
 10
46.8118
 20
79.725
 30
0.0
 11
46.0128
 21
79.725
 31
0.0
  0
LINE
  5
1d0
100
AcDbEntity
  8
0
100
AcDbLine
 62
     160
 10
46.0128
 20
79.725
 30
0.0
 11
46.0128
 21
67.0747
 31
0.0
  0
LINE
  5
1d1
100
AcDbEntity
  8
0
100
AcDbLine
 62
     160
 10
46.0128
 20
67.0747
 30
0.0
 11
46.8118
 21
67.0747
 31
0.0
  0
LINE
  5
1d2
100
AcDbEntity
  8
0
100
AcDbLine
 62
     160
 10
46.8118
 20
67.0747
 30
0.0
 11
46.8118
 21
66.4753
 31
0.0
  0
LINE
  5
1d3
100
AcDbEntity
  8
0
100
AcDbLine
 62
     160
 10
46.8118
 20
66.4753
 30
0.0
 11
60.6626
 21
66.4753
 31
0.0
  0
LINE
  5
1d4
100
AcDbEntity
  8
0
100
AcDbLine
 62
     160
 10
60.6626
 20
66.4753
 30
0.0
 11
60.6626
 21
67.0747
 31
0.0
  0
LINE
  5
1d5
100
AcDbEntity
  8
0
100
AcDbLine
 62
     160
 10
60.6626
 20
67.0747
 30
0.0
 11
61.462
 21
67.0747
 31
0.0
  0
LINE
  5
1d6
100
AcDbEntity
  8
0
100
AcDbLine
 62
     160
 10
61.462
 20
67.0747
 30
0.0
 11
61.462
 21
79.725
 31
0.0
  0
LINE
  5
1d7
100
AcDbEntity
  8
0
100
AcDbLine
 62
     160
 10
61.462
 20
79.725
 30
0.0
 11
60.6626
 21
79.725
 31
0.0
  0
LINE
  5
1d8
100
AcDbEntity
  8
0
100
AcDbLine
 62
     160
 10
60.6626
 20
79.725
 30
0.0
 11
60.6626
 21
80.3257
 31
0.0
  0
LINE
  5
1d9
100
AcDbEntity
  8
0
100
AcDbLine
 62
     160
 10
60.6626
 20
80.3257
 30
0.0
 11
46.8118
 21
80.3257
 31
0.0
  0
LINE
  5
1da
100
AcDbEntity
  8
0
100
AcDbLine
 62
     160
 10
84.9119
 20
80.3257
 30
0.0
 11
84.9119
 21
79.725
 31
0.0
  0
LINE
  5
1db
100
AcDbEntity
  8
0
100
AcDbLine
 62
     160
 10
84.9119
 20
79.725
 30
0.0
 11
84.1128
 21
79.725
 31
0.0
  0
LINE
  5
1dc
100
AcDbEntity
  8
0
100
AcDbLine
 62
     160
 10
84.1128
 20
79.725
 30
0.0
 11
84.1128
 21
67.0747
 31
0.0
  0
LINE
  5
1dd
100
AcDbEntity
  8
0
100
AcDbLine
 62
     160
 10
84.1128
 20
67.0747
 30
0.0
 11
84.9119
 21
67.0747
 31
0.0
  0
LINE
  5
1de
100
AcDbEntity
  8
0
100
AcDbLine
 62
     160
 10
84.9119
 20
67.0747
 30
0.0
 11
84.9119
 21
66.4753
 31
0.0
  0
LINE
  5
1df
100
AcDbEntity
  8
0
100
AcDbLine
 62
     160
 10
84.9119
 20
66.4753
 30
0.0
 11
98.7626
 21
66.4753
 31
0.0
  0
LINE
  5
1e0
100
AcDbEntity
  8
0
100
AcDbLine
 62
     160
 10
98.7626
 20
66.4753
 30
0.0
 11
98.7626
 21
67.0747
 31
0.0
  0
LINE
  5
1e1
100
AcDbEntity
  8
0
100
AcDbLine
 62
     160
 10
98.7626
 20
67.0747
 30
0.0
 11
99.562
 21
67.0747
 31
0.0
  0
LINE
  5
1e2
100
AcDbEntity
  8
0
100
AcDbLine
 62
     160
 10
99.562
 20
67.0747
 30
0.0
 11
99.562
 21
79.725
 31
0.0
  0
LINE
  5
1e3
100
AcDbEntity
  8
0
100
AcDbLine
 62
     160
 10
99.562
 20
79.725
 30
0.0
 11
98.7626
 21
79.725
 31
0.0
  0
LINE
  5
1e4
100
AcDbEntity
  8
0
100
AcDbLine
 62
     160
 10
98.7626
 20
79.725
 30
0.0
 11
98.7626
 21
80.3257
 31
0.0
  0
LINE
  5
1e5
100
AcDbEntity
  8
0
100
AcDbLine
 62
     160
 10
98.7626
 20
80.3257
 30
0.0
 11
84.9119
 21
80.3257
 31
0.0
  0
LINE
  5
1e6
100
AcDbEntity
  8
0
100
AcDbLine
 62
     160
 10
65.8619
 20
82.7056
 30
0.0
 11
65.8619
 21
82.1062
 31
0.0
  0
LINE
  5
1e7
100
AcDbEntity
  8
0
100
AcDbLine
 62
     160
 10
65.8619
 20
82.1062
 30
0.0
 11
65.0628
 21
82.1062
 31
0.0
  0
LINE
  5
1e8
100
AcDbEntity
  8
0
100
AcDbLine
 62
     160
 10
65.0628
 20
82.1062
 30
0.0
 11
65.0628
 21
69.4559
 31
0.0
  0
LINE
  5
1e9
100
AcDbEntity
  8
0
100
AcDbLine
 62
     160
 10
65.0628
 20
69.4559
 30
0.0
 11
65.8619
 21
69.4559
 31
0.0
  0
LINE
  5
1ea
100
AcDbEntity
  8
0
100
AcDbLine
 62
     160
 10
65.8619
 20
69.4559
 30
0.0
 11
65.8619
 21
68.8566
 31
0.0
  0
LINE
  5
1eb
100
AcDbEntity
  8
0
100
AcDbLine
 62
     160
 10
65.8619
 20
68.8566
 30
0.0
 11
79.7126
 21
68.8566
 31
0.0
  0
LINE
  5
1ec
100
AcDbEntity
  8
0
100
AcDbLine
 62
     160
 10
79.7126
 20
68.8566
 30
0.0
 11
79.7126
 21
69.4559
 31
0.0
  0
LINE
  5
1ed
100
AcDbEntity
  8
0
100
AcDbLine
 62
     160
 10
79.7126
 20
69.4559
 30
0.0
 11
80.512
 21
69.4559
 31
0.0
  0
LINE
  5
1ee
100
AcDbEntity
  8
0
100
AcDbLine
 62
     160
 10
80.512
 20
69.4559
 30
0.0
 11
80.512
 21
82.1062
 31
0.0
  0
LINE
  5
1ef
100
AcDbEntity
  8
0
100
AcDbLine
 62
     160
 10
80.512
 20
82.1062
 30
0.0
 11
79.7126
 21
82.1062
 31
0.0
  0
LINE
  5
1f0
100
AcDbEntity
  8
0
100
AcDbLine
 62
     160
 10
79.7126
 20
82.1062
 30
0.0
 11
79.7126
 21
82.7056
 31
0.0
  0
LINE
  5
1f1
100
AcDbEntity
  8
0
100
AcDbLine
 62
     160
 10
79.7126
 20
82.7056
 30
0.0
 11
65.8619
 21
82.7056
 31
0.0
  0
LINE
  5
1f2
100
AcDbEntity
  8
0
100
AcDbLine
 62
     160
 10
8.71195
 20
94.6132
 30
0.0
 11
8.71195
 21
94.0125
 31
0.0
  0
LINE
  5
1f3
100
AcDbEntity
  8
0
100
AcDbLine
 62
     160
 10
8.71195
 20
94.0125
 30
0.0
 11
7.9127
 21
94.0125
 31
0.0
  0
LINE
  5
1f4
100
AcDbEntity
  8
0
100
AcDbLine
 62
     160
 10
7.9127
 20
94.0125
 30
0.0
 11
7.9127
 21
81.3636
 31
0.0
  0
LINE
  5
1f5
100
AcDbEntity
  8
0
100
AcDbLine
 62
     160
 10
7.9127
 20
81.3636
 30
0.0
 11
8.71195
 21
81.3636
 31
0.0
  0
LINE
  5
1f6
100
AcDbEntity
  8
0
100
AcDbLine
 62
     160
 10
8.71195
 20
81.3636
 30
0.0
 11
8.71195
 21
80.7628
 31
0.0
  0
LINE
  5
1f7
100
AcDbEntity
  8
0
100
AcDbLine
 62
     160
 10
8.71195
 20
80.7628
 30
0.0
 11
22.5626
 21
80.7628
 31
0.0
  0
LINE
  5
1f8
100
AcDbEntity
  8
0
100
AcDbLine
 62
     160
 10
22.5626
 20
80.7628
 30
0.0
 11
22.5626
 21
81.3636
 31
0.0
  0
LINE
  5
1f9
100
AcDbEntity
  8
0
100
AcDbLine
 62
     160
 10
22.5626
 20
81.3636
 30
0.0
 11
23.3619
 21
81.3636
 31
0.0
  0
LINE
  5
1fa
100
AcDbEntity
  8
0
100
AcDbLine
 62
     160
 10
23.3619
 20
81.3636
 30
0.0
 11
23.3619
 21
94.0125
 31
0.0
  0
LINE
  5
1fb
100
AcDbEntity
  8
0
100
AcDbLine
 62
     160
 10
23.3619
 20
94.0125
 30
0.0
 11
22.5626
 21
94.0125
 31
0.0
  0
LINE
  5
1fc
100
AcDbEntity
  8
0
100
AcDbLine
 62
     160
 10
22.5626
 20
94.0125
 30
0.0
 11
22.5626
 21
94.6132
 31
0.0
  0
LINE
  5
1fd
100
AcDbEntity
  8
0
100
AcDbLine
 62
     160
 10
22.5626
 20
94.6132
 30
0.0
 11
8.71195
 21
94.6132
 31
0.0
  0
LINE
  5
1fe
100
AcDbEntity
  8
0
100
AcDbLine
 62
     160
 10
27.762
 20
94.6132
 30
0.0
 11
27.762
 21
94.0125
 31
0.0
  0
LINE
  5
1ff
100
AcDbEntity
  8
0
100
AcDbLine
 62
     160
 10
27.762
 20
94.0125
 30
0.0
 11
26.9627
 21
94.0125
 31
0.0
  0
LINE
  5
200
100
AcDbEntity
  8
0
100
AcDbLine
 62
     160
 10
26.9627
 20
94.0125
 30
0.0
 11
26.9627
 21
81.3636
 31
0.0
  0
LINE
  5
201
100
AcDbEntity
  8
0
100
AcDbLine
 62
     160
 10
26.9627
 20
81.3636
 30
0.0
 11
27.762
 21
81.3636
 31
0.0
  0
LINE
  5
202
100
AcDbEntity
  8
0
100
AcDbLine
 62
     160
 10
27.762
 20
81.3636
 30
0.0
 11
27.762
 21
80.7628
 31
0.0
  0
LINE
  5
203
100
AcDbEntity
  8
0
100
AcDbLine
 62
     160
 10
27.762
 20
80.7628
 30
0.0
 11
41.6126
 21
80.7628
 31
0.0
  0
LINE
  5
204
100
AcDbEntity
  8
0
100
AcDbLine
 62
     160
 10
41.6126
 20
80.7628
 30
0.0
 11
41.6126
 21
81.3636
 31
0.0
  0
LINE
  5
205
100
AcDbEntity
  8
0
100
AcDbLine
 62
     160
 10
41.6126
 20
81.3636
 30
0.0
 11
42.412
 21
81.3636
 31
0.0
  0
LINE
  5
206
100
AcDbEntity
  8
0
100
AcDbLine
 62
     160
 10
42.412
 20
81.3636
 30
0.0
 11
42.412
 21
94.0125
 31
0.0
  0
LINE
  5
207
100
AcDbEntity
  8
0
100
AcDbLine
 62
     160
 10
42.412
 20
94.0125
 30
0.0
 11
41.6126
 21
94.0125
 31
0.0
  0
LINE
  5
208
100
AcDbEntity
  8
0
100
AcDbLine
 62
     160
 10
41.6126
 20
94.0125
 30
0.0
 11
41.6126
 21
94.6132
 31
0.0
  0
LINE
  5
209
100
AcDbEntity
  8
0
100
AcDbLine
 62
     160
 10
41.6126
 20
94.6132
 30
0.0
 11
27.762
 21
94.6132
 31
0.0
  0
LINE
  5
20a
100
AcDbEntity
  8
0
100
AcDbLine
 62
     160
 10
103.962
 20
96.9945
 30
0.0
 11
103.962
 21
96.3937
 31
0.0
  0
LINE
  5
20b
100
AcDbEntity
  8
0
100
AcDbLine
 62
     160
 10
103.962
 20
96.3937
 30
0.0
 11
103.163
 21
96.3937
 31
0.0
  0
LINE
  5
20c
100
AcDbEntity
  8
0
100
AcDbLine
 62
     160
 10
103.163
 20
96.3937
 30
0.0
 11
103.163
 21
83.7449
 31
0.0
  0
LINE
  5
20d
100
AcDbEntity
  8
0
100
AcDbLine
 62
     160
 10
103.163
 20
83.7449
 30
0.0
 11
103.962
 21
83.7449
 31
0.0
  0
LINE
  5
20e
100
AcDbEntity
  8
0
100
AcDbLine
 62
     160
 10
103.962
 20
83.7449
 30
0.0
 11
103.962
 21
83.1441
 31
0.0
  0
LINE
  5
20f
100
AcDbEntity
  8
0
100
AcDbLine
 62
     160
 10
103.962
 20
83.1441
 30
0.0
 11
117.813
 21
83.1441
 31
0.0
  0
LINE
  5
210
100
AcDbEntity
  8
0
100
AcDbLine
 62
     160
 10
117.813
 20
83.1441
 30
0.0
 11
117.813
 21
83.7449
 31
0.0
  0
LINE
  5
211
100
AcDbEntity
  8
0
100
AcDbLine
 62
     160
 10
117.813
 20
83.7449
 30
0.0
 11
118.612
 21
83.7449
 31
0.0
  0
LINE
  5
212
100
AcDbEntity
  8
0
100
AcDbLine
 62
     160
 10
118.612
 20
83.7449
 30
0.0
 11
118.612
 21
96.3937
 31
0.0
  0
LINE
  5
213
100
AcDbEntity
  8
0
100
AcDbLine
 62
     160
 10
118.612
 20
96.3937
 30
0.0
 11
117.813
 21
96.3937
 31
0.0
  0
LINE
  5
214
100
AcDbEntity
  8
0
100
AcDbLine
 62
     160
 10
117.813
 20
96.3937
 30
0.0
 11
117.813
 21
96.9945
 31
0.0
  0
LINE
  5
215
100
AcDbEntity
  8
0
100
AcDbLine
 62
     160
 10
117.813
 20
96.9945
 30
0.0
 11
103.962
 21
96.9945
 31
0.0
  0
LINE
  5
216
100
AcDbEntity
  8
0
100
AcDbLine
 62
     160
 10
46.8118
 20
99.3757
 30
0.0
 11
46.8118
 21
98.775
 31
0.0
  0
LINE
  5
217
100
AcDbEntity
  8
0
100
AcDbLine
 62
     160
 10
46.8118
 20
98.775
 30
0.0
 11
46.0128
 21
98.775
 31
0.0
  0
LINE
  5
218
100
AcDbEntity
  8
0
100
AcDbLine
 62
     160
 10
46.0128
 20
98.775
 30
0.0
 11
46.0128
 21
86.1247
 31
0.0
  0
LINE
  5
219
100
AcDbEntity
  8
0
100
AcDbLine
 62
     160
 10
46.0128
 20
86.1247
 30
0.0
 11
46.8118
 21
86.1247
 31
0.0
  0
LINE
  5
21a
100
AcDbEntity
  8
0
100
AcDbLine
 62
     160
 10
46.8118
 20
86.1247
 30
0.0
 11
46.8118
 21
85.5253
 31
0.0
  0
LINE
  5
21b
100
AcDbEntity
  8
0
100
AcDbLine
 62
     160
 10
46.8118
 20
85.5253
 30
0.0
 11
60.6626
 21
85.5253
 31
0.0
  0
LINE
  5
21c
100
AcDbEntity
  8
0
100
AcDbLine
 62
     160
 10
60.6626
 20
85.5253
 30
0.0
 11
60.6626
 21
86.1247
 31
0.0
  0
LINE
  5
21d
100
AcDbEntity
  8
0
100
AcDbLine
 62
     160
 10
60.6626
 20
86.1247
 30
0.0
 11
61.462
 21
86.1247
 31
0.0
  0
LINE
  5
21e
100
AcDbEntity
  8
0
100
AcDbLine
 62
     160
 10
61.462
 20
86.1247
 30
0.0
 11
61.462
 21
98.775
 31
0.0
  0
LINE
  5
21f
100
AcDbEntity
  8
0
100
AcDbLine
 62
     160
 10
61.462
 20
98.775
 30
0.0
 11
60.6626
 21
98.775
 31
0.0
  0
LINE
  5
220
100
AcDbEntity
  8
0
100
AcDbLine
 62
     160
 10
60.6626
 20
98.775
 30
0.0
 11
60.6626
 21
99.3757
 31
0.0
  0
LINE
  5
221
100
AcDbEntity
  8
0
100
AcDbLine
 62
     160
 10
60.6626
 20
99.3757
 30
0.0
 11
46.8118
 21
99.3757
 31
0.0
  0
LINE
  5
222
100
AcDbEntity
  8
0
100
AcDbLine
 62
     160
 10
84.9119
 20
99.3757
 30
0.0
 11
84.9119
 21
98.775
 31
0.0
  0
LINE
  5
223
100
AcDbEntity
  8
0
100
AcDbLine
 62
     160
 10
84.9119
 20
98.775
 30
0.0
 11
84.1128
 21
98.775
 31
0.0
  0
LINE
  5
224
100
AcDbEntity
  8
0
100
AcDbLine
 62
     160
 10
84.1128
 20
98.775
 30
0.0
 11
84.1128
 21
86.1247
 31
0.0
  0
LINE
  5
225
100
AcDbEntity
  8
0
100
AcDbLine
 62
     160
 10
84.1128
 20
86.1247
 30
0.0
 11
84.9119
 21
86.1247
 31
0.0
  0
LINE
  5
226
100
AcDbEntity
  8
0
100
AcDbLine
 62
     160
 10
84.9119
 20
86.1247
 30
0.0
 11
84.9119
 21
85.5253
 31
0.0
  0
LINE
  5
227
100
AcDbEntity
  8
0
100
AcDbLine
 62
     160
 10
84.9119
 20
85.5253
 30
0.0
 11
98.7626
 21
85.5253
 31
0.0
  0
LINE
  5
228
100
AcDbEntity
  8
0
100
AcDbLine
 62
     160
 10
98.7626
 20
85.5253
 30
0.0
 11
98.7626
 21
86.1247
 31
0.0
  0
LINE
  5
229
100
AcDbEntity
  8
0
100
AcDbLine
 62
     160
 10
98.7626
 20
86.1247
 30
0.0
 11
99.562
 21
86.1247
 31
0.0
  0
LINE
  5
22a
100
AcDbEntity
  8
0
100
AcDbLine
 62
     160
 10
99.562
 20
86.1247
 30
0.0
 11
99.562
 21
98.775
 31
0.0
  0
LINE
  5
22b
100
AcDbEntity
  8
0
100
AcDbLine
 62
     160
 10
99.562
 20
98.775
 30
0.0
 11
98.7626
 21
98.775
 31
0.0
  0
LINE
  5
22c
100
AcDbEntity
  8
0
100
AcDbLine
 62
     160
 10
98.7626
 20
98.775
 30
0.0
 11
98.7626
 21
99.3757
 31
0.0
  0
LINE
  5
22d
100
AcDbEntity
  8
0
100
AcDbLine
 62
     160
 10
98.7626
 20
99.3757
 30
0.0
 11
84.9119
 21
99.3757
 31
0.0
  0
LINE
  5
22e
100
AcDbEntity
  8
0
100
AcDbLine
 62
     160
 10
65.8619
 20
101.756
 30
0.0
 11
65.8619
 21
101.156
 31
0.0
  0
LINE
  5
22f
100
AcDbEntity
  8
0
100
AcDbLine
 62
     160
 10
65.8619
 20
101.156
 30
0.0
 11
65.0628
 21
101.156
 31
0.0
  0
LINE
  5
230
100
AcDbEntity
  8
0
100
AcDbLine
 62
     160
 10
65.0628
 20
101.156
 30
0.0
 11
65.0628
 21
88.5059
 31
0.0
  0
LINE
  5
231
100
AcDbEntity
  8
0
100
AcDbLine
 62
     160
 10
65.0628
 20
88.5059
 30
0.0
 11
65.8619
 21
88.5059
 31
0.0
  0
LINE
  5
232
100
AcDbEntity
  8
0
100
AcDbLine
 62
     160
 10
65.8619
 20
88.5059
 30
0.0
 11
65.8619
 21
87.9066
 31
0.0
  0
LINE
  5
233
100
AcDbEntity
  8
0
100
AcDbLine
 62
     160
 10
65.8619
 20
87.9066
 30
0.0
 11
79.7126
 21
87.9066
 31
0.0
  0
LINE
  5
234
100
AcDbEntity
  8
0
100
AcDbLine
 62
     160
 10
79.7126
 20
87.9066
 30
0.0
 11
79.7126
 21
88.5059
 31
0.0
  0
LINE
  5
235
100
AcDbEntity
  8
0
100
AcDbLine
 62
     160
 10
79.7126
 20
88.5059
 30
0.0
 11
80.512
 21
88.5059
 31
0.0
  0
LINE
  5
236
100
AcDbEntity
  8
0
100
AcDbLine
 62
     160
 10
80.512
 20
88.5059
 30
0.0
 11
80.512
 21
101.156
 31
0.0
  0
LINE
  5
237
100
AcDbEntity
  8
0
100
AcDbLine
 62
     160
 10
80.512
 20
101.156
 30
0.0
 11
79.7126
 21
101.156
 31
0.0
  0
LINE
  5
238
100
AcDbEntity
  8
0
100
AcDbLine
 62
     160
 10
79.7126
 20
101.156
 30
0.0
 11
79.7126
 21
101.756
 31
0.0
  0
LINE
  5
239
100
AcDbEntity
  8
0
100
AcDbLine
 62
     160
 10
79.7126
 20
101.756
 30
0.0
 11
65.8619
 21
101.756
 31
0.0
  0
LINE
  5
23a
100
AcDbEntity
  8
0
100
AcDbLine
 62
     160
 10
8.71195
 20
113.663
 30
0.0
 11
8.71195
 21
113.062
 31
0.0
  0
LINE
  5
23b
100
AcDbEntity
  8
0
100
AcDbLine
 62
     160
 10
8.71195
 20
113.062
 30
0.0
 11
7.9127
 21
113.062
 31
0.0
  0
LINE
  5
23c
100
AcDbEntity
  8
0
100
AcDbLine
 62
     160
 10
7.9127
 20
113.062
 30
0.0
 11
7.9127
 21
100.414
 31
0.0
  0
LINE
  5
23d
100
AcDbEntity
  8
0
100
AcDbLine
 62
     160
 10
7.9127
 20
100.414
 30
0.0
 11
8.71195
 21
100.414
 31
0.0
  0
LINE
  5
23e
100
AcDbEntity
  8
0
100
AcDbLine
 62
     160
 10
8.71195
 20
100.414
 30
0.0
 11
8.71195
 21
99.8128
 31
0.0
  0
LINE
  5
23f
100
AcDbEntity
  8
0
100
AcDbLine
 62
     160
 10
8.71195
 20
99.8128
 30
0.0
 11
22.5626
 21
99.8128
 31
0.0
  0
LINE
  5
240
100
AcDbEntity
  8
0
100
AcDbLine
 62
     160
 10
22.5626
 20
99.8128
 30
0.0
 11
22.5626
 21
100.414
 31
0.0
  0
LINE
  5
241
100
AcDbEntity
  8
0
100
AcDbLine
 62
     160
 10
22.5626
 20
100.414
 30
0.0
 11
23.3619
 21
100.414
 31
0.0
  0
LINE
  5
242
100
AcDbEntity
  8
0
100
AcDbLine
 62
     160
 10
23.3619
 20
100.414
 30
0.0
 11
23.3619
 21
113.062
 31
0.0
  0
LINE
  5
243
100
AcDbEntity
  8
0
100
AcDbLine
 62
     160
 10
23.3619
 20
113.062
 30
0.0
 11
22.5626
 21
113.062
 31
0.0
  0
LINE
  5
244
100
AcDbEntity
  8
0
100
AcDbLine
 62
     160
 10
22.5626
 20
113.062
 30
0.0
 11
22.5626
 21
113.663
 31
0.0
  0
LINE
  5
245
100
AcDbEntity
  8
0
100
AcDbLine
 62
     160
 10
22.5626
 20
113.663
 30
0.0
 11
8.71195
 21
113.663
 31
0.0
  0
LINE
  5
246
100
AcDbEntity
  8
0
100
AcDbLine
 62
     160
 10
27.762
 20
113.663
 30
0.0
 11
27.762
 21
113.062
 31
0.0
  0
LINE
  5
247
100
AcDbEntity
  8
0
100
AcDbLine
 62
     160
 10
27.762
 20
113.062
 30
0.0
 11
26.9627
 21
113.062
 31
0.0
  0
LINE
  5
248
100
AcDbEntity
  8
0
100
AcDbLine
 62
     160
 10
26.9627
 20
113.062
 30
0.0
 11
26.9627
 21
100.414
 31
0.0
  0
LINE
  5
249
100
AcDbEntity
  8
0
100
AcDbLine
 62
     160
 10
26.9627
 20
100.414
 30
0.0
 11
27.762
 21
100.414
 31
0.0
  0
LINE
  5
24a
100
AcDbEntity
  8
0
100
AcDbLine
 62
     160
 10
27.762
 20
100.414
 30
0.0
 11
27.762
 21
99.8128
 31
0.0
  0
LINE
  5
24b
100
AcDbEntity
  8
0
100
AcDbLine
 62
     160
 10
27.762
 20
99.8128
 30
0.0
 11
41.6126
 21
99.8128
 31
0.0
  0
LINE
  5
24c
100
AcDbEntity
  8
0
100
AcDbLine
 62
     160
 10
41.6126
 20
99.8128
 30
0.0
 11
41.6126
 21
100.414
 31
0.0
  0
LINE
  5
24d
100
AcDbEntity
  8
0
100
AcDbLine
 62
     160
 10
41.6126
 20
100.414
 30
0.0
 11
42.412
 21
100.414
 31
0.0
  0
LINE
  5
24e
100
AcDbEntity
  8
0
100
AcDbLine
 62
     160
 10
42.412
 20
100.414
 30
0.0
 11
42.412
 21
113.062
 31
0.0
  0
LINE
  5
24f
100
AcDbEntity
  8
0
100
AcDbLine
 62
     160
 10
42.412
 20
113.062
 30
0.0
 11
41.6126
 21
113.062
 31
0.0
  0
LINE
  5
250
100
AcDbEntity
  8
0
100
AcDbLine
 62
     160
 10
41.6126
 20
113.062
 30
0.0
 11
41.6126
 21
113.663
 31
0.0
  0
LINE
  5
251
100
AcDbEntity
  8
0
100
AcDbLine
 62
     160
 10
41.6126
 20
113.663
 30
0.0
 11
27.762
 21
113.663
 31
0.0
  0
LINE
  5
252
100
AcDbEntity
  8
0
100
AcDbLine
 62
     160
 10
103.962
 20
116.044
 30
0.0
 11
103.962
 21
115.444
 31
0.0
  0
LINE
  5
253
100
AcDbEntity
  8
0
100
AcDbLine
 62
     160
 10
103.962
 20
115.444
 30
0.0
 11
103.163
 21
115.444
 31
0.0
  0
LINE
  5
254
100
AcDbEntity
  8
0
100
AcDbLine
 62
     160
 10
103.163
 20
115.444
 30
0.0
 11
103.163
 21
102.795
 31
0.0
  0
LINE
  5
255
100
AcDbEntity
  8
0
100
AcDbLine
 62
     160
 10
103.163
 20
102.795
 30
0.0
 11
103.962
 21
102.795
 31
0.0
  0
LINE
  5
256
100
AcDbEntity
  8
0
100
AcDbLine
 62
     160
 10
103.962
 20
102.795
 30
0.0
 11
103.962
 21
102.194
 31
0.0
  0
LINE
  5
257
100
AcDbEntity
  8
0
100
AcDbLine
 62
     160
 10
103.962
 20
102.194
 30
0.0
 11
117.813
 21
102.194
 31
0.0
  0
LINE
  5
258
100
AcDbEntity
  8
0
100
AcDbLine
 62
     160
 10
117.813
 20
102.194
 30
0.0
 11
117.813
 21
102.795
 31
0.0
  0
LINE
  5
259
100
AcDbEntity
  8
0
100
AcDbLine
 62
     160
 10
117.813
 20
102.795
 30
0.0
 11
118.612
 21
102.795
 31
0.0
  0
LINE
  5
25a
100
AcDbEntity
  8
0
100
AcDbLine
 62
     160
 10
118.612
 20
102.795
 30
0.0
 11
118.612
 21
115.444
 31
0.0
  0
LINE
  5
25b
100
AcDbEntity
  8
0
100
AcDbLine
 62
     160
 10
118.612
 20
115.444
 30
0.0
 11
117.813
 21
115.444
 31
0.0
  0
LINE
  5
25c
100
AcDbEntity
  8
0
100
AcDbLine
 62
     160
 10
117.813
 20
115.444
 30
0.0
 11
117.813
 21
116.044
 31
0.0
  0
LINE
  5
25d
100
AcDbEntity
  8
0
100
AcDbLine
 62
     160
 10
117.813
 20
116.044
 30
0.0
 11
103.962
 21
116.044
 31
0.0
  0
LINE
  5
25e
100
AcDbEntity
  8
0
100
AcDbLine
 62
     160
 10
46.8118
 20
118.426
 30
0.0
 11
46.8118
 21
117.825
 31
0.0
  0
LINE
  5
25f
100
AcDbEntity
  8
0
100
AcDbLine
 62
     160
 10
46.8118
 20
117.825
 30
0.0
 11
46.0128
 21
117.825
 31
0.0
  0
LINE
  5
260
100
AcDbEntity
  8
0
100
AcDbLine
 62
     160
 10
46.0128
 20
117.825
 30
0.0
 11
46.0128
 21
105.175
 31
0.0
  0
LINE
  5
261
100
AcDbEntity
  8
0
100
AcDbLine
 62
     160
 10
46.0128
 20
105.175
 30
0.0
 11
46.8118
 21
105.175
 31
0.0
  0
LINE
  5
262
100
AcDbEntity
  8
0
100
AcDbLine
 62
     160
 10
46.8118
 20
105.175
 30
0.0
 11
46.8118
 21
104.575
 31
0.0
  0
LINE
  5
263
100
AcDbEntity
  8
0
100
AcDbLine
 62
     160
 10
46.8118
 20
104.575
 30
0.0
 11
60.6626
 21
104.575
 31
0.0
  0
LINE
  5
264
100
AcDbEntity
  8
0
100
AcDbLine
 62
     160
 10
60.6626
 20
104.575
 30
0.0
 11
60.6626
 21
105.175
 31
0.0
  0
LINE
  5
265
100
AcDbEntity
  8
0
100
AcDbLine
 62
     160
 10
60.6626
 20
105.175
 30
0.0
 11
61.462
 21
105.175
 31
0.0
  0
LINE
  5
266
100
AcDbEntity
  8
0
100
AcDbLine
 62
     160
 10
61.462
 20
105.175
 30
0.0
 11
61.462
 21
117.825
 31
0.0
  0
LINE
  5
267
100
AcDbEntity
  8
0
100
AcDbLine
 62
     160
 10
61.462
 20
117.825
 30
0.0
 11
60.6626
 21
117.825
 31
0.0
  0
LINE
  5
268
100
AcDbEntity
  8
0
100
AcDbLine
 62
     160
 10
60.6626
 20
117.825
 30
0.0
 11
60.6626
 21
118.426
 31
0.0
  0
LINE
  5
269
100
AcDbEntity
  8
0
100
AcDbLine
 62
     160
 10
60.6626
 20
118.426
 30
0.0
 11
46.8118
 21
118.426
 31
0.0
  0
LINE
  5
26a
100
AcDbEntity
  8
0
100
AcDbLine
 62
     160
 10
84.9119
 20
118.426
 30
0.0
 11
84.9119
 21
117.825
 31
0.0
  0
LINE
  5
26b
100
AcDbEntity
  8
0
100
AcDbLine
 62
     160
 10
84.9119
 20
117.825
 30
0.0
 11
84.1128
 21
117.825
 31
0.0
  0
LINE
  5
26c
100
AcDbEntity
  8
0
100
AcDbLine
 62
     160
 10
84.1128
 20
117.825
 30
0.0
 11
84.1128
 21
105.175
 31
0.0
  0
LINE
  5
26d
100
AcDbEntity
  8
0
100
AcDbLine
 62
     160
 10
84.1128
 20
105.175
 30
0.0
 11
84.9119
 21
105.175
 31
0.0
  0
LINE
  5
26e
100
AcDbEntity
  8
0
100
AcDbLine
 62
     160
 10
84.9119
 20
105.175
 30
0.0
 11
84.9119
 21
104.575
 31
0.0
  0
LINE
  5
26f
100
AcDbEntity
  8
0
100
AcDbLine
 62
     160
 10
84.9119
 20
104.575
 30
0.0
 11
98.7626
 21
104.575
 31
0.0
  0
LINE
  5
270
100
AcDbEntity
  8
0
100
AcDbLine
 62
     160
 10
98.7626
 20
104.575
 30
0.0
 11
98.7626
 21
105.175
 31
0.0
  0
LINE
  5
271
100
AcDbEntity
  8
0
100
AcDbLine
 62
     160
 10
98.7626
 20
105.175
 30
0.0
 11
99.562
 21
105.175
 31
0.0
  0
LINE
  5
272
100
AcDbEntity
  8
0
100
AcDbLine
 62
     160
 10
99.562
 20
105.175
 30
0.0
 11
99.562
 21
117.825
 31
0.0
  0
LINE
  5
273
100
AcDbEntity
  8
0
100
AcDbLine
 62
     160
 10
99.562
 20
117.825
 30
0.0
 11
98.7626
 21
117.825
 31
0.0
  0
LINE
  5
274
100
AcDbEntity
  8
0
100
AcDbLine
 62
     160
 10
98.7626
 20
117.825
 30
0.0
 11
98.7626
 21
118.426
 31
0.0
  0
LINE
  5
275
100
AcDbEntity
  8
0
100
AcDbLine
 62
     160
 10
98.7626
 20
118.426
 30
0.0
 11
84.9119
 21
118.426
 31
0.0
  0
LINE
  5
276
100
AcDbEntity
  8
0
100
AcDbLine
 62
     160
 10
65.8619
 20
120.806
 30
0.0
 11
65.8619
 21
120.206
 31
0.0
  0
LINE
  5
277
100
AcDbEntity
  8
0
100
AcDbLine
 62
     160
 10
65.8619
 20
120.206
 30
0.0
 11
65.0628
 21
120.206
 31
0.0
  0
LINE
  5
278
100
AcDbEntity
  8
0
100
AcDbLine
 62
     160
 10
65.0628
 20
120.206
 30
0.0
 11
65.0628
 21
107.556
 31
0.0
  0
LINE
  5
279
100
AcDbEntity
  8
0
100
AcDbLine
 62
     160
 10
65.0628
 20
107.556
 30
0.0
 11
65.8619
 21
107.556
 31
0.0
  0
LINE
  5
27a
100
AcDbEntity
  8
0
100
AcDbLine
 62
     160
 10
65.8619
 20
107.556
 30
0.0
 11
65.8619
 21
106.957
 31
0.0
  0
LINE
  5
27b
100
AcDbEntity
  8
0
100
AcDbLine
 62
     160
 10
65.8619
 20
106.957
 30
0.0
 11
79.7126
 21
106.957
 31
0.0
  0
LINE
  5
27c
100
AcDbEntity
  8
0
100
AcDbLine
 62
     160
 10
79.7126
 20
106.957
 30
0.0
 11
79.7126
 21
107.556
 31
0.0
  0
LINE
  5
27d
100
AcDbEntity
  8
0
100
AcDbLine
 62
     160
 10
79.7126
 20
107.556
 30
0.0
 11
80.512
 21
107.556
 31
0.0
  0
LINE
  5
27e
100
AcDbEntity
  8
0
100
AcDbLine
 62
     160
 10
80.512
 20
107.556
 30
0.0
 11
80.512
 21
120.206
 31
0.0
  0
LINE
  5
27f
100
AcDbEntity
  8
0
100
AcDbLine
 62
     160
 10
80.512
 20
120.206
 30
0.0
 11
79.7126
 21
120.206
 31
0.0
  0
LINE
  5
280
100
AcDbEntity
  8
0
100
AcDbLine
 62
     160
 10
79.7126
 20
120.206
 30
0.0
 11
79.7126
 21
120.806
 31
0.0
  0
LINE
  5
281
100
AcDbEntity
  8
0
100
AcDbLine
 62
     160
 10
79.7126
 20
120.806
 30
0.0
 11
65.8619
 21
120.806
 31
0.0
  0
LINE
  5
282
100
AcDbEntity
  8
0
100
AcDbLine
 62
     160
 10
141.763
 20
41.3039
 30
0.0
 11
141.243
 21
41.6045
 31
0.0
  0
LINE
  5
283
100
AcDbEntity
  8
0
100
AcDbLine
 62
     160
 10
141.243
 20
41.6045
 30
0.0
 11
141.648
 21
42.3058
 31
0.0
  0
LINE
  5
284
100
AcDbEntity
  8
0
100
AcDbLine
 62
     160
 10
141.648
 20
42.3058
 30
0.0
 11
130.681
 21
48.6392
 31
0.0
  0
LINE
  5
285
100
AcDbEntity
  8
0
100
AcDbLine
 62
     160
 10
130.681
 20
48.6392
 30
0.0
 11
130.276
 21
47.9365
 31
0.0
  0
LINE
  5
286
100
AcDbEntity
  8
0
100
AcDbLine
 62
     160
 10
130.276
 20
47.9365
 30
0.0
 11
129.756
 21
48.2353
 31
0.0
  0
LINE
  5
287
100
AcDbEntity
  8
0
100
AcDbLine
 62
     160
 10
129.756
 20
48.2353
 30
0.0
 11
128.275
 21
45.6696
 31
0.0
  0
LINE
  5
288
100
AcDbEntity
  8
0
100
AcDbLine
 62
     160
 10
128.275
 20
45.6696
 30
0.0
 11
127.633
 21
46.0403
 31
0.0
  0
LINE
  5
289
100
AcDbEntity
  8
0
100
AcDbLine
 62
     160
 10
127.633
 20
46.0403
 30
0.0
 11
126.063
 21
43.3215
 31
0.0
  0
LINE
  5
28a
100
AcDbEntity
  8
0
100
AcDbLine
 62
     160
 10
126.063
 20
43.3215
 30
0.0
 11
126.704
 21
42.9507
 31
0.0
  0
LINE
  5
28b
100
AcDbEntity
  8
0
100
AcDbLine
 62
     160
 10
126.704
 20
42.9507
 30
0.0
 11
116.368
 21
25.0472
 31
0.0
  0
LINE
  5
28c
100
AcDbEntity
  8
0
100
AcDbLine
 62
     160
 10
116.368
 20
25.0472
 30
0.0
 11
115.726
 21
25.4179
 31
0.0
  0
LINE
  5
28d
100
AcDbEntity
  8
0
100
AcDbLine
 62
     160
 10
115.726
 20
25.4179
 30
0.0
 11
114.157
 21
22.6991
 31
0.0
  0
LINE
  5
28e
100
AcDbEntity
  8
0
100
AcDbLine
 62
     160
 10
114.157
 20
22.6991
 30
0.0
 11
114.797
 21
22.3284
 31
0.0
  0
LINE
  5
28f
100
AcDbEntity
  8
0
100
AcDbLine
 62
     160
 10
114.797
 20
22.3284
 30
0.0
 11
113.316
 21
19.7624
 31
0.0
  0
LINE
  5
290
100
AcDbEntity
  8
0
100
AcDbLine
 62
     160
 10
113.316
 20
19.7624
 30
0.0
 11
113.836
 21
19.462
 31
0.0
  0
LINE
  5
291
100
AcDbEntity
  8
0
100
AcDbLine
 62
     160
 10
113.836
 20
19.462
 30
0.0
 11
113.43
 21
18.7592
 31
0.0
  0
LINE
  5
292
100
AcDbEntity
  8
0
100
AcDbLine
 62
     160
 10
113.43
 20
18.7592
 30
0.0
 11
124.398
 21
12.4272
 31
0.0
  0
LINE
  5
293
100
AcDbEntity
  8
0
100
AcDbLine
 62
     160
 10
124.398
 20
12.4272
 30
0.0
 11
124.803
 21
13.13
 31
0.0
  0
LINE
  5
294
100
AcDbEntity
  8
0
100
AcDbLine
 62
     160
 10
124.803
 20
13.13
 30
0.0
 11
125.323
 21
12.8295
 31
0.0
  0
LINE
  5
295
100
AcDbEntity
  8
0
100
AcDbLine
 62
     160
 10
125.323
 20
12.8295
 30
0.0
 11
141.763
 21
41.3039
 31
0.0
  0
SPLINE
  5
296
100
AcDbEntity
  8
0
100
AcDbSpline
210
0.0
220
0.0
230
1.0
 62
     1
 70
     0
 71
     3
 72
     8
 73
4
 40
0.0
 40
0.0
 40
0.0
 40
0.0
 40
1.0
 40
1.0
 40
1.0
 40
1.0
 10
126.083
 20
0.101975
 30
0.0
 10
125.561
 20
0.101975
 30
0.0
 10
125.045
 20
0.238401
 30
0.0
 10
124.584
 20
0.502984
 30
0.0
  0
LINE
  5
297
100
AcDbEntity
  8
0
100
AcDbLine
 62
     1
 10
124.584
 20
0.502984
 30
0.0
 11
121.985
 21
2.00367
 31
0.0
  0
SPLINE
  5
298
100
AcDbEntity
  8
0
100
AcDbSpline
210
0.0
220
0.0
230
1.0
 62
     1
 70
     0
 71
     3
 72
     8
 73
4
 40
0.0
 40
0.0
 40
0.0
 40
0.0
 40
1.0
 40
1.0
 40
1.0
 40
1.0
 10
121.985
 20
2.00367
 30
0.0
 10
106.361
 20
11.0188
 30
0.0
 10
93.497
 20
12.4533
 30
0.0
 10
81.0549
 20
13.841
 30
0.0
  0
SPLINE
  5
299
100
AcDbEntity
  8
0
100
AcDbSpline
210
0.0
220
0.0
230
1.0
 62
     1
 70
     0
 71
     3
 72
     8
 73
4
 40
0.0
 40
0.0
 40
0.0
 40
0.0
 40
1.0
 40
1.0
 40
1.0
 40
1.0
 10
81.0549
 20
13.841
 30
0.0
 10
77.8108
 20
14.2034
 30
0.0
 10
74.4679
 20
14.5755
 30
0.0
 10
71.1715
 20
15.0757
 30
0.0
  0
LINE
  5
29a
100
AcDbEntity
  8
0
100
AcDbLine
 62
     1
 10
71.1715
 20
15.0757
 30
0.0
 11
68.6209
 21
15.463
 31
0.0
  0
SPLINE
  5
29b
100
AcDbEntity
  8
0
100
AcDbSpline
210
0.0
220
0.0
230
1.0
 62
     1
 70
     0
 71
     3
 72
     8
 73
4
 40
0.0
 40
0.0
 40
0.0
 40
0.0
 40
1.0
 40
1.0
 40
1.0
 40
1.0
 10
68.6209
 20
15.463
 30
0.0
 10
67.1544
 20
15.6848
 30
0.0
 10
66.0714
 20
16.9458
 30
0.0
 10
66.0714
 20
18.4285
 30
0.0
  0
LINE
  5
29c
100
AcDbEntity
  8
0
100
AcDbLine
 62
     1
 10
66.0714
 20
18.4285
 30
0.0
 11
66.0714
 21
31.0596
 31
0.0
  0
SPLINE
  5
29d
100
AcDbEntity
  8
0
100
AcDbSpline
210
0.0
220
0.0
230
1.0
 62
     1
 70
     0
 71
     3
 72
     8
 73
4
 40
0.0
 40
0.0
 40
0.0
 40
0.0
 40
1.0
 40
1.0
 40
1.0
 40
1.0
 10
66.0714
 20
31.0596
 30
0.0
 10
66.0714
 20
32.7146
 30
0.0
 10
64.7291
 20
34.0582
 30
0.0
 10
63.0728
 20
34.0582
 30
0.0
  0
LINE
  5
29e
100
AcDbEntity
  8
0
100
AcDbLine
 62
     1
 10
63.0728
 20
34.0582
 30
0.0
 11
3.10196
 21
34.0582
 31
0.0
  0
SPLINE
  5
29f
100
AcDbEntity
  8
0
100
AcDbSpline
210
0.0
220
0.0
230
1.0
 62
     1
 70
     0
 71
     3
 72
     8
 73
4
 40
0.0
 40
0.0
 40
0.0
 40
0.0
 40
1.0
 40
1.0
 40
1.0
 40
1.0
 10
3.10196
 20
34.0582
 30
0.0
 10
1.44556
 20
34.0582
 30
0.0
 10
0.101975
 20
35.4005
 30
0.0
 10
0.101975
 20
37.0582
 30
0.0
  0
LINE
  5
2a0
100
AcDbEntity
  8
0
100
AcDbLine
 62
     1
 10
0.101975
 20
37.0582
 30
0.0
 11
0.101975
 21
118.557
 31
0.0
  0
SPLINE
  5
2a1
100
AcDbEntity
  8
0
100
AcDbSpline
210
0.0
220
0.0
230
1.0
 62
     1
 70
     0
 71
     3
 72
     8
 73
4
 40
0.0
 40
0.0
 40
0.0
 40
0.0
 40
1.0
 40
1.0
 40
1.0
 40
1.0
 10
0.101975
 20
118.557
 30
0.0
 10
0.101975
 20
119.914
 30
0.0
 10
1.01148
 20
121.102
 30
0.0
 10
2.32199
 20
121.455
 30
0.0
  0
LINE
  5
2a2
100
AcDbEntity
  8
0
100
AcDbLine
 62
     1
 10
2.32199
 20
121.455
 30
0.0
 11
4.54201
 21
122.052
 31
0.0
  0
SPLINE
  5
2a3
100
AcDbEntity
  8
0
100
AcDbSpline
210
0.0
220
0.0
230
1.0
 62
     1
 70
     0
 71
     3
 72
     8
 73
4
 40
0.0
 40
0.0
 40
0.0
 40
0.0
 40
1.0
 40
1.0
 40
1.0
 40
1.0
 10
4.54201
 20
122.052
 30
0.0
 10
33.908
 20
129.955
 30
0.0
 10
57.8086
 20
133.797
 30
0.0
 10
77.6125
 20
133.797
 30
0.0
  0
SPLINE
  5
2a4
100
AcDbEntity
  8
0
100
AcDbSpline
210
0.0
220
0.0
230
1.0
 62
     1
 70
     0
 71
     3
 72
     8
 73
4
 40
0.0
 40
0.0
 40
0.0
 40
0.0
 40
1.0
 40
1.0
 40
1.0
 40
1.0
 10
77.6125
 20
133.797
 30
0.0
 10
96.0575
 20
133.797
 30
0.0
 10
110.988
 20
130.564
 30
0.0
 10
123.26
 20
123.915
 30
0.0
  0
LINE
  5
2a5
100
AcDbEntity
  8
0
100
AcDbLine
 62
     1
 10
123.26
 20
123.915
 30
0.0
 11
124.831
 21
123.063
 31
0.0
  0
SPLINE
  5
2a6
100
AcDbEntity
  8
0
100
AcDbSpline
210
0.0
220
0.0
230
1.0
 62
     1
 70
     0
 71
     3
 72
     8
 73
4
 40
0.0
 40
0.0
 40
0.0
 40
0.0
 40
1.0
 40
1.0
 40
1.0
 40
1.0
 10
124.831
 20
123.063
 30
0.0
 10
125.798
 20
122.539
 30
0.0
 10
126.401
 20
121.526
 30
0.0
 10
126.401
 20
120.425
 30
0.0
  0
LINE
  5
2a7
100
AcDbEntity
  8
0
100
AcDbLine
 62
     1
 10
126.401
 20
120.425
 30
0.0
 11
126.401
 21
71.0145
 31
0.0
  0
SPLINE
  5
2a8
100
AcDbEntity
  8
0
100
AcDbSpline
210
0.0
220
0.0
230
1.0
 62
     1
 70
     0
 71
     3
 72
     8
 73
4
 40
0.0
 40
0.0
 40
0.0
 40
0.0
 40
1.0
 40
1.0
 40
1.0
 40
1.0
 10
126.401
 20
71.0145
 30
0.0
 10
126.401
 20
64.105
 30
0.0
 10
133.514
 20
58.8313
 30
0.0
 10
149.458
 20
49.6274
 30
0.0
  0
LINE
  5
2a9
100
AcDbEntity
  8
0
100
AcDbLine
 62
     1
 10
149.458
 20
49.6274
 30
0.0
 11
152.055
 21
48.1281
 31
0.0
  0
SPLINE
  5
2aa
100
AcDbEntity
  8
0
100
AcDbSpline
210
0.0
220
0.0
230
1.0
 62
     1
 70
     0
 71
     3
 72
     8
 73
4
 40
0.0
 40
0.0
 40
0.0
 40
0.0
 40
1.0
 40
1.0
 40
1.0
 40
1.0
 10
152.055
 20
48.1281
 30
0.0
 10
153.489
 20
47.2997
 30
0.0
 10
153.98
 20
45.4656
 30
0.0
 10
153.154
 20
44.0313
 30
0.0
  0
LINE
  5
2ab
100
AcDbEntity
  8
0
100
AcDbLine
 62
     1
 10
153.154
 20
44.0313
 30
0.0
 11
128.683
 21
1.60266
 31
0.0
  0
SPLINE
  5
2ac
100
AcDbEntity
  8
0
100
AcDbSpline
210
0.0
220
0.0
230
1.0
 62
     1
 70
     0
 71
     3
 72
     8
 73
4
 40
0.0
 40
0.0
 40
0.0
 40
0.0
 40
1.0
 40
1.0
 40
1.0
 40
1.0
 10
128.683
 20
1.60266
 30
0.0
 10
128.284
 20
0.913638
 30
0.0
 10
127.63
 20
0.410655
 30
0.0
 10
126.861
 20
0.20395
 30
0.0
  0
SPLINE
  5
2ad
100
AcDbEntity
  8
0
100
AcDbSpline
210
0.0
220
0.0
230
1.0
 62
     1
 70
     0
 71
     3
 72
     8
 73
4
 40
0.0
 40
0.0
 40
0.0
 40
0.0
 40
1.0
 40
1.0
 40
1.0
 40
1.0
 10
126.861
 20
0.20395
 30
0.0
 10
126.606
 20
0.135048
 30
0.0
 10
126.344
 20
0.101975
 30
0.0
 10
126.083
 20
0.101975
 30
0.0
  0
LINE
  5
2ae
100
AcDbEntity
  8
0
100
AcDbLine
 62
     1
 10
126.083
 20
0.101975
 30
0.0
 11
126.083
 21
0.101975
 31
0.0
  0
ENDSEC
  0
SECTION
  2
OBJECTS
  0
DICTIONARY
  5
C
330
0
100
AcDbDictionary
  3
ACAD_GROUP
350
D
  3
ACAD_LAYOUT
350
1A
  3
ACAD_MLINESTYLE
350
17
  3
ACAD_PLOTSETTINGS
350
19
  3
ACAD_PLOTSTYLENAME
350
E
  3
ACDBHEADERROUNDTRIPXREC
350
2F
  0
DICTIONARY
  5
52
330
1F
100
AcDbDictionary
280
     1
  3
ACAD_LAYOUTSELFREF
360
53
  0
DICTIONARY
  5
50
330
1B
100
AcDbDictionary
280
     1
  3
ACAD_LAYOUTSELFREF
360
51
  0
DICTIONARY
  5
D
102
{ACAD_REACTORS
330
C
102
}
330
C
100
AcDbDictionary
  0
DICTIONARY
  5
1A
102
{ACAD_REACTORS
330
C
102
}
330
C
100
AcDbDictionary
  0
DICTIONARY
  5
17
102
{ACAD_REACTORS
330
C
102
}
330
C
100
AcDbDictionary
  3
STANDARD
350
18
  0
DICTIONARY
  5
19
102
{ACAD_REACTORS
330
C
102
}
330
C
100
AcDbDictionary
  0
ACDBDICTIONARYWDFLT
  5
E
102
{ACAD_REACTORS
330
C
102
}
330
C
100
AcDbDictionary
281
     1
  3
Normal
350
F
100
AcDbDictionaryWithDefault
340
F
  0
DICTIONARY
  5
2F
102
{ACAD_REACTORS
330
C
102
}
330
C
100
AcDbDictionary
  3
CEPSNTYPE
350
39
  3
DIMSTYLEDATA
350
3D
  3
FINGERPRINTGUID
350
3A
  3
HYPERLINKBASE
350
32
  3
INSUNITS
350
38
  3
LAYOUTDICT
350
34
  3
LWETCUNION
350
37
  3
PLOTSETDICT
350
35
  3
PLOTSTYLNAMDICT
350
36
  3
PSVPSCALE
350
3C
  3
PUCSBASE
350
40
  3
PUCSORGBACK
350
46
  3
PUCSORGBOTTOM
350
42
  3
PUCSORGFRONT
350
45
  3
PUCSORGLEFT
350
43
  3
PUCSORGRIGHT
350
44
  3
PUCSORGTOP
350
41
  3
PUCSORTHOREF
350
3E
  3
PUCSORTHOVIEW
350
3F
  3
STYLESHEET
350
33
  3
TSTACKALIGN
350
30
  3
TSTACKSIZE
350
31
  3
UCSBASE
350
49
  3
UCSORGBACK
350
4F
  3
UCSORGBOTTOM
350
4B
  3
UCSORGFRONT
350
4E
  3
UCSORGLEFT
350
4C
  3
UCSORGRIGHT
350
4D
  3
UCSORGTOP
350
4A
  3
UCSORTHOREF
350
47
  3
UCSORTHOVIEW
350
48
  3
VERSIONGUID
350
3B
  0
XRECORD
  5
53
102
{ACAD_REACTORS
330
52
102
}
330
52
100
AcDbXrecord
340
1F
  0
XRECORD
  5
51
102
{ACAD_REACTORS
330
50
102
}
330
50
100
AcDbXrecord
340
1B
  0
MLINESTYLE
  5
18
102
{ACAD_REACTORS
330
17
102
}
330
17
100
AcDbMlineStyle
  2
STANDARD
 70
     0
  3

 62
   256
 51
90.0
 52
90.0
 71
     2
 49
0.5
 62
   256
  6
BYLAYER
 49
-0.5
 62
   256
  6
BYLAYER
  0
ACDBPLACEHOLDER
  5
F
102
{ACAD_REACTORS
330
E
102
}
330
E
100
AcDbPlaceHolder
280
     0
  0
XRECORD
  5
39
102
{ACAD_REACTORS
330
2F
102
}
330
2F
100
AcDbXrecord
 90
        0
  0
XRECORD
  5
3D
102
{ACAD_REACTORS
330
2F
102
}
330
2F
100
AcDbXrecord
1000
DSTYLE
1002
{
1070
   278
 70
    44
1002
}
  0
XRECORD
  5
3A
102
{ACAD_REACTORS
330
2F
102
}
330
2F
100
AcDbXrecord
  1
{705446A6-11D0-4548-8F8C-A97DCA50327D}
  0
XRECORD
  5
32
102
{ACAD_REACTORS
330
2F
102
}
330
2F
100
AcDbXrecord
  1

  0
XRECORD
  5
38
102
{ACAD_REACTORS
330
2F
102
}
330
2F
100
AcDbXrecord
 90
        4
  0
XRECORD
  5
34
102
{ACAD_REACTORS
330
2F
102
}
330
2F
100
AcDbXrecord
340
1A
  0
XRECORD
  5
37
102
{ACAD_REACTORS
330
2F
102
}
330
2F
100
AcDbXrecord
 90
    10781
  0
XRECORD
  5
35
102
{ACAD_REACTORS
330
2F
102
}
330
2F
100
AcDbXrecord
340
19
  0
XRECORD
  5
36
102
{ACAD_REACTORS
330
2F
102
}
330
2F
100
AcDbXrecord
340
E
  0
XRECORD
  5
3C
102
{ACAD_REACTORS
330
2F
102
}
330
2F
100
AcDbXrecord
 40
0.0
  0
XRECORD
  5
40
102
{ACAD_REACTORS
330
2F
102
}
330
2F
100
AcDbXrecord
340
0
  0
XRECORD
  5
46
102
{ACAD_REACTORS
330
2F
102
}
330
2F
100
AcDbXrecord
 10
0.0
 20
0.0
 30
0.0
  0
XRECORD
  5
42
102
{ACAD_REACTORS
330
2F
102
}
330
2F
100
AcDbXrecord
 10
0.0
 20
0.0
 30
0.0
  0
XRECORD
  5
45
102
{ACAD_REACTORS
330
2F
102
}
330
2F
100
AcDbXrecord
 10
0.0
 20
0.0
 30
0.0
  0
XRECORD
  5
43
102
{ACAD_REACTORS
330
2F
102
}
330
2F
100
AcDbXrecord
 10
0.0
 20
0.0
 30
0.0
  0
XRECORD
  5
44
102
{ACAD_REACTORS
330
2F
102
}
330
2F
100
AcDbXrecord
 10
0.0
 20
0.0
 30
0.0
  0
XRECORD
  5
41
102
{ACAD_REACTORS
330
2F
102
}
330
2F
100
AcDbXrecord
 10
0.0
 20
0.0
 30
0.0
  0
XRECORD
  5
3E
102
{ACAD_REACTORS
330
2F
102
}
330
2F
100
AcDbXrecord
340
0
  0
XRECORD
  5
3F
102
{ACAD_REACTORS
330
2F
102
}
330
2F
100
AcDbXrecord
 70
     0
  0
XRECORD
  5
33
102
{ACAD_REACTORS
330
2F
102
}
330
2F
100
AcDbXrecord
  1

  0
XRECORD
  5
30
102
{ACAD_REACTORS
330
2F
102
}
330
2F
100
AcDbXrecord
 90
        1
  0
XRECORD
  5
31
102
{ACAD_REACTORS
330
2F
102
}
330
2F
100
AcDbXrecord
 90
       70
  0
XRECORD
  5
49
102
{ACAD_REACTORS
330
2F
102
}
330
2F
100
AcDbXrecord
340
0
  0
XRECORD
  5
4F
102
{ACAD_REACTORS
330
2F
102
}
330
2F
100
AcDbXrecord
 10
0.0
 20
0.0
 30
0.0
  0
XRECORD
  5
4B
102
{ACAD_REACTORS
330
2F
102
}
330
2F
100
AcDbXrecord
 10
0.0
 20
0.0
 30
0.0
  0
XRECORD
  5
4E
102
{ACAD_REACTORS
330
2F
102
}
330
2F
100
AcDbXrecord
 10
0.0
 20
0.0
 30
0.0
  0
XRECORD
  5
4C
102
{ACAD_REACTORS
330
2F
102
}
330
2F
100
AcDbXrecord
 10
0.0
 20
0.0
 30
0.0
  0
XRECORD
  5
4D
102
{ACAD_REACTORS
330
2F
102
}
330
2F
100
AcDbXrecord
 10
0.0
 20
0.0
 30
0.0
  0
XRECORD
  5
4A
102
{ACAD_REACTORS
330
2F
102
}
330
2F
100
AcDbXrecord
 10
0.0
 20
0.0
 30
0.0
  0
XRECORD
  5
47
102
{ACAD_REACTORS
330
2F
102
}
330
2F
100
AcDbXrecord
340
0
  0
XRECORD
  5
48
102
{ACAD_REACTORS
330
2F
102
}
330
2F
100
AcDbXrecord
 70
     0
  0
XRECORD
  5
3B
102
{ACAD_REACTORS
330
2F
102
}
330
2F
100
AcDbXrecord
  1
{33328E3A-B6B8-4979-86B7-D70DEC2867C2}
  0
ENDSEC
  0
EOF
