  0
SECTION
  2
HEADER
  9
$ACADVER
  1
AC1014
  9
$EXTMIN
 10
70.16401489310567
 20
112.369642808922
 30
0.0
  9
$EXTMAX
 10
277.0834797641999
 20
227.1366601424358
 30
0.0
  9
$HANDSEED
  5
56
  9
$MEASUREMENT
 70
0
  0
ENDSEC
  0
SECTION
  2
TABLES
  0
TABLE
  2
VPORT
  5
8
330
0
100
AcDbSymbolTable
 70
     4
  0
VPORT
  5
2E
330
8
100
AcDbSymbolTableRecord
100
AcDbViewportTableRecord
  2
*ACTIVE
 70
     0
 10
0.0
 20
0.0
 11
1.0
 21
1.0
 12
209.9999999999999
 22
148.4999999999999
 13
0.0
 23
0.0
 14
10.0
 24
10.0
 15
10.0
 25
10.0
 16
0.0
 26
0.0
 36
1.0
 17
0.0
 27
0.0
 37
0.0
 40
340.9950045922664
 41
1.239944521497919
 42
50.0
 43
0.0
 44
0.0
 50
0.0
 51
0.0
 71
     0
 72
   100
 73
     1
 74
     3
 75
     0
 76
     0
 77
     0
 78
     0
  0
ENDTAB
  0
TABLE
  2
LTYPE
  5
5
330
0
100
AcDbSymbolTable
 70
     1
  0
LTYPE
  5
14
330
5
100
AcDbSymbolTableRecord
100
AcDbLinetypeTableRecord
  2
BYBLOCK
 70
     0
  3

 72
    65
 73
     0
 40
0.0
  0
LTYPE
  5
15
330
5
100
AcDbSymbolTableRecord
100
AcDbLinetypeTableRecord
  2
BYLAYER
 70
     0
  3

 72
    65
 73
     0
 40
0.0
  0
LTYPE
  5
16
330
5
100
AcDbSymbolTableRecord
100
AcDbLinetypeTableRecord
  2
CONTINUOUS
 70
     0
  3
Solid line
 72
    65
 73
     0
 40
0.0
  0
ENDTAB
  0
TABLE
  2
LAYER
  5
2
330
0
100
AcDbSymbolTable
 70
1
  0
LAYER
  5
10
330
2
100
AcDbSymbolTableRecord
100
AcDbLayerTableRecord
  2
0
 70
     0
 62
     7
  6
CONTINUOUS
  0
ENDTAB
  0
TABLE
  2
STYLE
  5
3
330
0
100
AcDbSymbolTable
 70
     1
  0
STYLE
  5
11
330
3
100
AcDbSymbolTableRecord
100
AcDbTextStyleTableRecord
  2
STANDARD
 70
     0
 40
0.0
 41
1.0
 50
0.0
 71
     0
 42
2.5
  3
txt
  4

  0
ENDTAB
  0
TABLE
  2
VIEW
  5
6
330
0
100
AcDbSymbolTable
 70
     0
  0
ENDTAB
  0
TABLE
  2
UCS
  5
7
330
0
100
AcDbSymbolTable
 70
     0
  0
ENDTAB
  0
TABLE
  2
APPID
  5
9
330
0
100
AcDbSymbolTable
 70
     2
  0
APPID
  5
12
330
9
100
AcDbSymbolTableRecord
100
AcDbRegAppTableRecord
  2
ACAD
 70
     0
  0
APPID
  5
2B
330
9
100
AcDbSymbolTableRecord
100
AcDbRegAppTableRecord
  2
URBANX
 70
     0
  0
ENDTAB
  0
TABLE
  2
DIMSTYLE
  5
A
330
0
100
AcDbSymbolTable
 70
     1
  0
DIMSTYLE
105
27
330
A
100
AcDbSymbolTableRecord
100
AcDbDimStyleTableRecord
  2
ISO-25
 70
     0
  3

  4

  5

  6

  7

 40
1.0
 41
2.5
 42
0.625
 43
3.75
 44
1.25
 45
0.0
 46
0.0
 47
0.0
 48
0.0
140
2.5
141
2.5
142
0.0
143
0.03937007874016
144
1.0
145
0.0
146
1.0
147
0.625
 71
     0
 72
     0
 73
     0
 74
     0
 75
     0
 76
     0
 77
     1
 78
     8
170
     0
171
     3
172
     1
173
     0
174
     0
175
     0
176
     0
177
     0
178
     0
270
     2
271
     2
272
     2
273
     2
274
     3
340
11
275
     0
280
     0
281
     0
282
     0
283
     0
284
     8
285
     0
286
     0
287
     3
288
     0
  0
ENDTAB
  0
TABLE
  2
BLOCK_RECORD
  5
1
330
0
100
AcDbSymbolTable
 70
     1
  0
BLOCK_RECORD
  5
1F
102
{ACAD_XDICTIONARY
360
52
102
}
330
1
100
AcDbSymbolTableRecord
100
AcDbBlockTableRecord
  2
*MODEL_SPACE
  0
BLOCK_RECORD
  5
1B
102
{ACAD_XDICTIONARY
360
50
102
}
330
1
100
AcDbSymbolTableRecord
100
AcDbBlockTableRecord
  2
*PAPER_SPACE
  0
ENDTAB
  0
ENDSEC
  0
SECTION
  2
BLOCKS
  0
BLOCK
  5
20
330
1F
100
AcDbEntity
  8
0
100
AcDbBlockBegin
  2
*MODEL_SPACE
 70
     0
 10
0.0
 20
0.0
 30
0.0
  3
*MODEL_SPACE
  1

  0
ENDBLK
  5
21
330
1F
100
AcDbEntity
  8
0
100
AcDbBlockEnd
  0
BLOCK
  5
1C
330
1B
100
AcDbEntity
 67
     1
  8
0
100
AcDbBlockBegin
  2
*PAPER_SPACE
  1

  0
ENDBLK
  5
1D
330
1B
100
AcDbEntity
 67
     1
  8
0
100
AcDbBlockEnd
  0
ENDSEC
  0
SECTION
  2
ENTITIES
  0
SPLINE
  5
ff
100
AcDbEntity
  8
0
100
AcDbSpline
210
0.0
220
0.0
230
1.0
 62
     190
 70
     0
 71
     3
 72
     8
 73
4
 40
0.0
 40
0.0
 40
0.0
 40
0.0
 40
1.0
 40
1.0
 40
1.0
 40
1.0
 10
6.04139
 20
1.82303
 30
0.0
 10
6.03353
 20
1.85221
 30
0.0
 10
6.0146
 20
1.87842
 30
0.0
 10
5.98633
 20
1.89475
 30
0.0
  0
LINE
  5
100
100
AcDbEntity
  8
0
100
AcDbLine
 62
     190
 10
5.98633
 20
1.89475
 30
0.0
 11
5.93522
 21
1.92426
 31
0.0
  0
LINE
  5
101
100
AcDbEntity
  8
0
100
AcDbLine
 62
     190
 10
5.93522
 20
1.92426
 30
0.0
 11
5.88411
 21
1.95378
 31
0.0
  0
SPLINE
  5
102
100
AcDbEntity
  8
0
100
AcDbSpline
210
0.0
220
0.0
230
1.0
 62
     190
 70
     0
 71
     3
 72
     8
 73
4
 40
0.0
 40
0.0
 40
0.0
 40
0.0
 40
1.0
 40
1.0
 40
1.0
 40
1.0
 10
5.88411
 20
1.95378
 30
0.0
 10
5.64774
 20
2.09022
 30
0.0
 10
5.46089
 20
2.20469
 30
0.0
 10
5.31956
 20
2.30897
 30
0.0
  0
SPLINE
  5
103
100
AcDbEntity
  8
0
100
AcDbSpline
210
0.0
220
0.0
230
1.0
 62
     190
 70
     0
 71
     3
 72
     8
 73
4
 40
0.0
 40
0.0
 40
0.0
 40
0.0
 40
1.0
 40
1.0
 40
1.0
 40
1.0
 10
5.31956
 20
2.30897
 30
0.0
 10
5.29118
 20
2.32992
 30
0.0
 10
5.25097
 20
2.32135
 30
0.0
 10
5.23335
 20
2.29081
 30
0.0
  0
LINE
  5
104
100
AcDbEntity
  8
0
100
AcDbLine
 62
     190
 10
5.23335
 20
2.29081
 30
0.0
 11
5.17426
 21
2.18853
 31
0.0
  0
SPLINE
  5
105
100
AcDbEntity
  8
0
100
AcDbSpline
210
0.0
220
0.0
230
1.0
 62
     190
 70
     0
 71
     3
 72
     8
 73
4
 40
0.0
 40
0.0
 40
0.0
 40
0.0
 40
1.0
 40
1.0
 40
1.0
 40
1.0
 10
5.17426
 20
2.18853
 30
0.0
 10
5.15918
 20
2.16243
 30
0.0
 10
5.16607
 20
2.12918
 30
0.0
 10
5.19032
 20
2.11139
 30
0.0
  0
SPLINE
  5
106
100
AcDbEntity
  8
0
100
AcDbSpline
210
0.0
220
0.0
230
1.0
 62
     190
 70
     0
 71
     3
 72
     8
 73
4
 40
0.0
 40
0.0
 40
0.0
 40
0.0
 40
1.0
 40
1.0
 40
1.0
 40
1.0
 10
5.19032
 20
2.11139
 30
0.0
 10
5.33024
 20
2.00863
 30
0.0
 10
5.50049
 20
1.90375
 30
0.0
 10
5.69814
 20
1.78857
 30
0.0
  0
SPLINE
  5
107
100
AcDbEntity
  8
0
100
AcDbSpline
210
0.0
220
0.0
230
1.0
 62
     190
 70
     0
 71
     3
 72
     8
 73
4
 40
0.0
 40
0.0
 40
0.0
 40
0.0
 40
1.0
 40
1.0
 40
1.0
 40
1.0
 10
5.69814
 20
1.78857
 30
0.0
 10
5.71685
 20
1.77761
 30
0.0
 10
5.72944
 20
1.76019
 30
0.0
 10
5.7346
 20
1.74072
 30
0.0
  0
SPLINE
  5
108
100
AcDbEntity
  8
0
100
AcDbSpline
210
0.0
220
0.0
230
1.0
 62
     190
 70
     0
 71
     3
 72
     8
 73
4
 40
0.0
 40
0.0
 40
0.0
 40
0.0
 40
1.0
 40
1.0
 40
1.0
 40
1.0
 10
5.7346
 20
1.74072
 30
0.0
 10
5.73981
 20
1.72131
 30
0.0
 10
5.73757
 20
1.69993
 30
0.0
 10
5.72678
 20
1.68115
 30
0.0
  0
LINE
  5
109
100
AcDbEntity
  8
0
100
AcDbLine
 62
     190
 10
5.72678
 20
1.68115
 30
0.0
 11
5.3431
 21
1.01595
 31
0.0
  0
LINE
  5
10a
100
AcDbEntity
  8
0
100
AcDbLine
 62
     190
 10
5.3431
 20
1.01595
 30
0.0
 11
4.95942
 21
0.350749
 31
0.0
  0
SPLINE
  5
10b
100
AcDbEntity
  8
0
100
AcDbSpline
210
0.0
220
0.0
230
1.0
 62
     190
 70
     0
 71
     3
 72
     8
 73
4
 40
0.0
 40
0.0
 40
0.0
 40
0.0
 40
1.0
 40
1.0
 40
1.0
 40
1.0
 10
4.95942
 20
0.350749
 30
0.0
 10
4.94874
 20
0.332194
 30
0.0
 10
4.93158
 20
0.319661
 30
0.0
 10
4.91243
 20
0.314344
 30
0.0
  0
SPLINE
  5
10c
100
AcDbEntity
  8
0
100
AcDbSpline
210
0.0
220
0.0
230
1.0
 62
     190
 70
     0
 71
     3
 72
     8
 73
4
 40
0.0
 40
0.0
 40
0.0
 40
0.0
 40
1.0
 40
1.0
 40
1.0
 40
1.0
 10
4.91243
 20
0.314344
 30
0.0
 10
4.89328
 20
0.309082
 30
0.0
 10
4.87213
 20
0.310981
 30
0.0
 10
4.85335
 20
0.321289
 30
0.0
  0
SPLINE
  5
10d
100
AcDbEntity
  8
0
100
AcDbSpline
210
0.0
220
0.0
230
1.0
 62
     190
 70
     0
 71
     3
 72
     8
 73
4
 40
0.0
 40
0.0
 40
0.0
 40
0.0
 40
1.0
 40
1.0
 40
1.0
 40
1.0
 10
4.85335
 20
0.321289
 30
0.0
 10
4.47194
 20
0.531467
 30
0.0
 10
4.1301
 20
0.635363
 30
0.0
 10
3.81104
 20
0.696778
 30
0.0
  0
SPLINE
  5
10e
100
AcDbEntity
  8
0
100
AcDbSpline
210
0.0
220
0.0
230
1.0
 62
     190
 70
     0
 71
     3
 72
     8
 73
4
 40
0.0
 40
0.0
 40
0.0
 40
0.0
 40
1.0
 40
1.0
 40
1.0
 40
1.0
 10
3.81104
 20
0.696778
 30
0.0
 10
3.49203
 20
0.758137
 30
0.0
 10
3.19581
 20
0.777018
 30
0.0
 10
2.90571
 20
0.817111
 30
0.0
  0
SPLINE
  5
10f
100
AcDbEntity
  8
0
100
AcDbSpline
210
0.0
220
0.0
230
1.0
 62
     190
 70
     0
 71
     3
 72
     8
 73
4
 40
0.0
 40
0.0
 40
0.0
 40
0.0
 40
1.0
 40
1.0
 40
1.0
 40
1.0
 10
2.90571
 20
0.817111
 30
0.0
 10
2.88618
 20
0.819824
 30
0.0
 10
2.86908
 20
0.829482
 30
0.0
 10
2.85688
 20
0.843371
 30
0.0
  0
SPLINE
  5
110
100
AcDbEntity
  8
0
100
AcDbSpline
210
0.0
220
0.0
230
1.0
 62
     190
 70
     0
 71
     3
 72
     8
 73
4
 40
0.0
 40
0.0
 40
0.0
 40
0.0
 40
1.0
 40
1.0
 40
1.0
 40
1.0
 10
2.85688
 20
0.843371
 30
0.0
 10
2.84467
 20
0.857314
 30
0.0
 10
2.83735
 20
0.875489
 30
0.0
 10
2.83735
 20
0.895182
 30
0.0
  0
LINE
  5
111
100
AcDbEntity
  8
0
100
AcDbLine
 62
     190
 10
2.83735
 20
0.895182
 30
0.0
 11
2.83735
 21
1.19683
 31
0.0
  0
LINE
  5
112
100
AcDbEntity
  8
0
100
AcDbLine
 62
     190
 10
2.83735
 20
1.19683
 30
0.0
 11
2.83735
 21
1.49843
 31
0.0
  0
SPLINE
  5
113
100
AcDbEntity
  8
0
100
AcDbSpline
210
0.0
220
0.0
230
1.0
 62
     190
 70
     0
 71
     3
 72
     8
 73
4
 40
0.0
 40
0.0
 40
0.0
 40
0.0
 40
1.0
 40
1.0
 40
1.0
 40
1.0
 10
2.83735
 20
1.49843
 30
0.0
 10
2.83735
 20
1.52012
 30
0.0
 10
2.82856
 20
1.53976
 30
0.0
 10
2.81435
 20
1.55399
 30
0.0
  0
SPLINE
  5
114
100
AcDbEntity
  8
0
100
AcDbSpline
210
0.0
220
0.0
230
1.0
 62
     190
 70
     0
 71
     3
 72
     8
 73
4
 40
0.0
 40
0.0
 40
0.0
 40
0.0
 40
1.0
 40
1.0
 40
1.0
 40
1.0
 10
2.81435
 20
1.55399
 30
0.0
 10
2.80012
 20
1.56825
 30
0.0
 10
2.78049
 20
1.57704
 30
0.0
 10
2.75879
 20
1.57704
 30
0.0
  0
LINE
  5
115
100
AcDbEntity
  8
0
100
AcDbLine
 62
     190
 10
2.75879
 20
1.57704
 30
0.0
 11
1.53879
 21
1.57704
 31
0.0
  0
LINE
  5
116
100
AcDbEntity
  8
0
100
AcDbLine
 62
     190
 10
1.53879
 20
1.57704
 30
0.0
 11
0.318739
 21
1.57704
 31
0.0
  0
SPLINE
  5
117
100
AcDbEntity
  8
0
100
AcDbSpline
210
0.0
220
0.0
230
1.0
 62
     190
 70
     0
 71
     3
 72
     8
 73
4
 40
0.0
 40
0.0
 40
0.0
 40
0.0
 40
1.0
 40
1.0
 40
1.0
 40
1.0
 10
0.318739
 20
1.57704
 30
0.0
 10
0.297037
 20
1.57704
 30
0.0
 10
0.277399
 20
1.58583
 30
0.0
 10
0.263183
 20
1.60004
 30
0.0
  0
SPLINE
  5
118
100
AcDbEntity
  8
0
100
AcDbSpline
210
0.0
220
0.0
230
1.0
 62
     190
 70
     0
 71
     3
 72
     8
 73
4
 40
0.0
 40
0.0
 40
0.0
 40
0.0
 40
1.0
 40
1.0
 40
1.0
 40
1.0
 10
0.263183
 20
1.60004
 30
0.0
 10
0.248969
 20
1.61426
 30
0.0
 10
0.240126
 20
1.6339
 30
0.0
 10
0.240126
 20
1.6556
 30
0.0
  0
LINE
  5
119
100
AcDbEntity
  8
0
100
AcDbLine
 62
     190
 10
0.240126
 20
1.6556
 30
0.0
 11
0.240126
 21
3.08604
 31
0.0
  0
LINE
  5
11a
100
AcDbEntity
  8
0
100
AcDbLine
 62
     190
 10
0.240126
 20
3.08604
 30
0.0
 11
0.240126
 21
4.51644
 31
0.0
  0
SPLINE
  5
11b
100
AcDbEntity
  8
0
100
AcDbSpline
210
0.0
220
0.0
230
1.0
 62
     190
 70
     0
 71
     3
 72
     8
 73
4
 40
0.0
 40
0.0
 40
0.0
 40
0.0
 40
1.0
 40
1.0
 40
1.0
 40
1.0
 10
0.240126
 20
4.51644
 30
0.0
 10
0.240126
 20
4.53429
 30
0.0
 10
0.246149
 20
4.55106
 30
0.0
 10
0.256511
 20
4.56451
 30
0.0
  0
SPLINE
  5
11c
100
AcDbEntity
  8
0
100
AcDbSpline
210
0.0
220
0.0
230
1.0
 62
     190
 70
     0
 71
     3
 72
     8
 73
4
 40
0.0
 40
0.0
 40
0.0
 40
0.0
 40
1.0
 40
1.0
 40
1.0
 40
1.0
 10
0.256511
 20
4.56451
 30
0.0
 10
0.266818
 20
4.57796
 30
0.0
 10
0.281467
 20
4.58811
 30
0.0
 10
0.298774
 20
4.59272
 30
0.0
  0
SPLINE
  5
11d
100
AcDbEntity
  8
0
100
AcDbSpline
210
0.0
220
0.0
230
1.0
 62
     190
 70
     0
 71
     3
 72
     8
 73
4
 40
0.0
 40
0.0
 40
0.0
 40
0.0
 40
1.0
 40
1.0
 40
1.0
 40
1.0
 10
0.298774
 20
4.59272
 30
0.0
 10
0.636285
 20
4.68251
 30
0.0
 10
0.968371
 20
4.76215
 30
0.0
 10
1.29226
 20
4.82801
 30
0.0
  0
SPLINE
  5
11e
100
AcDbEntity
  8
0
100
AcDbSpline
210
0.0
220
0.0
230
1.0
 62
     190
 70
     0
 71
     3
 72
     8
 73
4
 40
0.0
 40
0.0
 40
0.0
 40
0.0
 40
1.0
 40
1.0
 40
1.0
 40
1.0
 10
1.29226
 20
4.82801
 30
0.0
 10
1.59776
 20
4.89019
 30
0.0
 10
1.89594
 20
4.94015
 30
0.0
 10
2.18451
 20
4.97499
 30
0.0
  0
SPLINE
  5
11f
100
AcDbEntity
  8
0
100
AcDbSpline
210
0.0
220
0.0
230
1.0
 62
     190
 70
     0
 71
     3
 72
     8
 73
4
 40
0.0
 40
0.0
 40
0.0
 40
0.0
 40
1.0
 40
1.0
 40
1.0
 40
1.0
 10
2.18451
 20
4.97499
 30
0.0
 10
2.21425
 20
4.97857
 30
0.0
 10
2.2366
 20
5.00364
 30
0.0
 10
2.2366
 20
5.03358
 30
0.0
  0
LINE
  5
120
100
AcDbEntity
  8
0
100
AcDbLine
 62
     190
 10
2.2366
 20
5.03358
 30
0.0
 11
2.2366
 21
5.06662
 31
0.0
  0
LINE
  5
121
100
AcDbEntity
  8
0
100
AcDbLine
 62
     190
 10
2.2366
 20
5.06662
 30
0.0
 11
2.2366
 21
5.15213
 31
0.0
  0
SPLINE
  5
122
100
AcDbEntity
  8
0
100
AcDbSpline
210
0.0
220
0.0
230
1.0
 62
     190
 70
     0
 71
     3
 72
     8
 73
4
 40
0.0
 40
0.0
 40
0.0
 40
0.0
 40
1.0
 40
1.0
 40
1.0
 40
1.0
 10
2.2366
 20
5.15213
 30
0.0
 10
2.2366
 20
5.16986
 30
0.0
 10
2.22885
 20
5.1856
 30
0.0
 10
2.21664
 20
5.1964
 30
0.0
  0
SPLINE
  5
123
100
AcDbEntity
  8
0
100
AcDbSpline
210
0.0
220
0.0
230
1.0
 62
     190
 70
     0
 71
     3
 72
     8
 73
4
 40
0.0
 40
0.0
 40
0.0
 40
0.0
 40
1.0
 40
1.0
 40
1.0
 40
1.0
 10
2.21664
 20
5.1964
 30
0.0
 10
2.20449
 20
5.20719
 30
0.0
 10
2.18787
 20
5.21294
 30
0.0
 10
2.17019
 20
5.21083
 30
0.0
  0
SPLINE
  5
124
100
AcDbEntity
  8
0
100
AcDbSpline
210
0.0
220
0.0
230
1.0
 62
     190
 70
     0
 71
     3
 72
     8
 73
4
 40
0.0
 40
0.0
 40
0.0
 40
0.0
 40
1.0
 40
1.0
 40
1.0
 40
1.0
 10
2.17019
 20
5.21083
 30
0.0
 10
1.87858
 20
5.176
 30
0.0
 10
1.56808
 20
5.125
 30
0.0
 10
1.23682
 20
5.05751
 30
0.0
  0
SPLINE
  5
125
100
AcDbEntity
  8
0
100
AcDbSpline
210
0.0
220
0.0
230
1.0
 62
     190
 70
     0
 71
     3
 72
     8
 73
4
 40
0.0
 40
0.0
 40
0.0
 40
0.0
 40
1.0
 40
1.0
 40
1.0
 40
1.0
 10
1.23682
 20
5.05751
 30
0.0
 10
0.90549
 20
4.98996
 30
0.0
 10
0.55344
 20
4.90597
 30
0.0
 10
0.178765
 20
4.80512
 30
0.0
  0
LINE
  5
126
100
AcDbEntity
  8
0
100
AcDbLine
 62
     190
 10
0.178765
 20
4.80512
 30
0.0
 11
0.135091
 21
4.79335
 31
0.0
  0
LINE
  5
127
100
AcDbEntity
  8
0
100
AcDbLine
 62
     190
 10
0.135091
 20
4.79335
 30
0.0
 11
0.0913629
 21
4.78163
 31
0.0
  0
SPLINE
  5
128
100
AcDbEntity
  8
0
100
AcDbSpline
210
0.0
220
0.0
230
1.0
 62
     190
 70
     0
 71
     3
 72
     8
 73
4
 40
0.0
 40
0.0
 40
0.0
 40
0.0
 40
1.0
 40
1.0
 40
1.0
 40
1.0
 10
0.0913629
 20
4.78163
 30
0.0
 10
0.0655925
 20
4.77468
 30
0.0
 10
0.0437283
 20
4.7595
 30
0.0
 10
0.0283203
 20
4.73942
 30
0.0
  0
SPLINE
  5
129
100
AcDbEntity
  8
0
100
AcDbSpline
210
0.0
220
0.0
230
1.0
 62
     190
 70
     0
 71
     3
 72
     8
 73
4
 40
0.0
 40
0.0
 40
0.0
 40
0.0
 40
1.0
 40
1.0
 40
1.0
 40
1.0
 10
0.0283203
 20
4.73942
 30
0.0
 10
0.0129123
 20
4.71929
 30
0.0
 10
0.0039605
 20
4.69428
 30
0.0
 10
0.0039605
 20
4.66754
 30
0.0
  0
LINE
  5
12a
100
AcDbEntity
  8
0
100
AcDbLine
 62
     190
 10
0.0039605
 20
4.66754
 30
0.0
 11
0.0039605
 21
3.06321
 31
0.0
  0
LINE
  5
12b
100
AcDbEntity
  8
0
100
AcDbLine
 62
     190
 10
0.0039605
 20
3.06321
 30
0.0
 11
0.0039605
 21
1.45893
 31
0.0
  0
SPLINE
  5
12c
100
AcDbEntity
  8
0
100
AcDbSpline
210
0.0
220
0.0
230
1.0
 62
     190
 70
     0
 71
     3
 72
     8
 73
4
 40
0.0
 40
0.0
 40
0.0
 40
0.0
 40
1.0
 40
1.0
 40
1.0
 40
1.0
 10
0.0039605
 20
1.45893
 30
0.0
 10
0.0039605
 20
1.42632
 30
0.0
 10
0.0171442
 20
1.39675
 30
0.0
 10
0.03852
 20
1.37538
 30
0.0
  0
SPLINE
  5
12d
100
AcDbEntity
  8
0
100
AcDbSpline
210
0.0
220
0.0
230
1.0
 62
     190
 70
     0
 71
     3
 72
     8
 73
4
 40
0.0
 40
0.0
 40
0.0
 40
0.0
 40
1.0
 40
1.0
 40
1.0
 40
1.0
 10
0.03852
 20
1.37538
 30
0.0
 10
0.0598958
 20
1.354
 30
0.0
 10
0.0894097
 20
1.34082
 30
0.0
 10
0.12207
 20
1.34082
 30
0.0
  0
LINE
  5
12e
100
AcDbEntity
  8
0
100
AcDbLine
 62
     190
 10
0.12207
 20
1.34082
 30
0.0
 11
1.30257
 21
1.34082
 31
0.0
  0
LINE
  5
12f
100
AcDbEntity
  8
0
100
AcDbLine
 62
     190
 10
1.30257
 20
1.34082
 30
0.0
 11
2.48313
 21
1.34082
 31
0.0
  0
SPLINE
  5
130
100
AcDbEntity
  8
0
100
AcDbSpline
210
0.0
220
0.0
230
1.0
 62
     190
 70
     0
 71
     3
 72
     8
 73
4
 40
0.0
 40
0.0
 40
0.0
 40
0.0
 40
1.0
 40
1.0
 40
1.0
 40
1.0
 10
2.48313
 20
1.34082
 30
0.0
 10
2.51574
 20
1.34082
 30
0.0
 10
2.54525
 20
1.32758
 30
0.0
 10
2.56657
 20
1.30621
 30
0.0
  0
SPLINE
  5
131
100
AcDbEntity
  8
0
100
AcDbSpline
210
0.0
220
0.0
230
1.0
 62
     190
 70
     0
 71
     3
 72
     8
 73
4
 40
0.0
 40
0.0
 40
0.0
 40
0.0
 40
1.0
 40
1.0
 40
1.0
 40
1.0
 10
2.56657
 20
1.30621
 30
0.0
 10
2.58794
 20
1.28483
 30
0.0
 10
2.60118
 20
1.25532
 30
0.0
 10
2.60118
 20
1.22277
 30
0.0
  0
LINE
  5
132
100
AcDbEntity
  8
0
100
AcDbLine
 62
     190
 10
2.60118
 20
1.22277
 30
0.0
 11
2.60118
 21
0.974121
 31
0.0
  0
LINE
  5
133
100
AcDbEntity
  8
0
100
AcDbLine
 62
     190
 10
2.60118
 20
0.974121
 30
0.0
 11
2.60118
 21
0.725478
 31
0.0
  0
SPLINE
  5
134
100
AcDbEntity
  8
0
100
AcDbSpline
210
0.0
220
0.0
230
1.0
 62
     190
 70
     0
 71
     3
 72
     8
 73
4
 40
0.0
 40
0.0
 40
0.0
 40
0.0
 40
1.0
 40
1.0
 40
1.0
 40
1.0
 10
2.60118
 20
0.725478
 30
0.0
 10
2.60118
 20
0.696289
 30
0.0
 10
2.61182
 20
0.669271
 30
0.0
 10
2.62972
 20
0.648492
 30
0.0
  0
SPLINE
  5
135
100
AcDbEntity
  8
0
100
AcDbSpline
210
0.0
220
0.0
230
1.0
 62
     190
 70
     0
 71
     3
 72
     8
 73
4
 40
0.0
 40
0.0
 40
0.0
 40
0.0
 40
1.0
 40
1.0
 40
1.0
 40
1.0
 10
2.62972
 20
0.648492
 30
0.0
 10
2.64757
 20
0.627713
 30
0.0
 10
2.67269
 20
0.613064
 30
0.0
 10
2.70156
 20
0.608724
 30
0.0
  0
LINE
  5
136
100
AcDbEntity
  8
0
100
AcDbLine
 62
     190
 10
2.70156
 20
0.608724
 30
0.0
 11
2.75174
 21
0.601074
 31
0.0
  0
LINE
  5
137
100
AcDbEntity
  8
0
100
AcDbLine
 62
     190
 10
2.75174
 20
0.601074
 30
0.0
 11
2.80197
 21
0.593425
 31
0.0
  0
SPLINE
  5
138
100
AcDbEntity
  8
0
100
AcDbSpline
210
0.0
220
0.0
230
1.0
 62
     190
 70
     0
 71
     3
 72
     8
 73
4
 40
0.0
 40
0.0
 40
0.0
 40
0.0
 40
1.0
 40
1.0
 40
1.0
 40
1.0
 10
2.80197
 20
0.593425
 30
0.0
 10
2.86686
 20
0.583604
 30
0.0
 10
2.93218
 20
0.575032
 30
0.0
 10
2.99729
 20
0.567111
 30
0.0
  0
SPLINE
  5
139
100
AcDbEntity
  8
0
100
AcDbSpline
210
0.0
220
0.0
230
1.0
 62
     190
 70
     0
 71
     3
 72
     8
 73
4
 40
0.0
 40
0.0
 40
0.0
 40
0.0
 40
1.0
 40
1.0
 40
1.0
 40
1.0
 10
2.99729
 20
0.567111
 30
0.0
 10
3.06239
 20
0.55919
 30
0.0
 10
3.12722
 20
0.551975
 30
0.0
 10
3.19108
 20
0.544868
 30
0.0
  0
SPLINE
  5
13a
100
AcDbEntity
  8
0
100
AcDbSpline
210
0.0
220
0.0
230
1.0
 62
     190
 70
     0
 71
     3
 72
     8
 73
4
 40
0.0
 40
0.0
 40
0.0
 40
0.0
 40
1.0
 40
1.0
 40
1.0
 40
1.0
 10
3.19108
 20
0.544868
 30
0.0
 10
3.43599
 20
0.517524
 30
0.0
 10
3.68506
 20
0.489746
 30
0.0
 10
3.94982
 20
0.424425
 30
0.0
  0
SPLINE
  5
13b
100
AcDbEntity
  8
0
100
AcDbSpline
210
0.0
220
0.0
230
1.0
 62
     190
 70
     0
 71
     3
 72
     8
 73
4
 40
0.0
 40
0.0
 40
0.0
 40
0.0
 40
1.0
 40
1.0
 40
1.0
 40
1.0
 10
3.94982
 20
0.424425
 30
0.0
 10
4.21457
 20
0.359158
 30
0.0
 10
4.49496
 20
0.256293
 30
0.0
 10
4.80251
 20
0.0788303
 30
0.0
  0
LINE
  5
13c
100
AcDbEntity
  8
0
100
AcDbLine
 62
     190
 10
4.80251
 20
0.0788303
 30
0.0
 11
4.85368
 21
0.0492622
 31
0.0
  0
LINE
  5
13d
100
AcDbEntity
  8
0
100
AcDbLine
 62
     190
 10
4.85368
 20
0.0492622
 30
0.0
 11
4.90483
 21
0.0197483
 31
0.0
  0
SPLINE
  5
13e
100
AcDbEntity
  8
0
100
AcDbSpline
210
0.0
220
0.0
230
1.0
 62
     190
 70
     0
 71
     3
 72
     8
 73
4
 40
0.0
 40
0.0
 40
0.0
 40
0.0
 40
1.0
 40
1.0
 40
1.0
 40
1.0
 10
4.90483
 20
0.0197483
 30
0.0
 10
4.9139
 20
0.01454
 30
0.0
 10
4.9235
 20
0.0105794
 30
0.0
 10
4.93343
 20
0.00792101
 30
0.0
  0
SPLINE
  5
13f
100
AcDbEntity
  8
0
100
AcDbSpline
210
0.0
220
0.0
230
1.0
 62
     190
 70
     0
 71
     3
 72
     8
 73
4
 40
0.0
 40
0.0
 40
0.0
 40
0.0
 40
1.0
 40
1.0
 40
1.0
 40
1.0
 10
4.93343
 20
0.00792101
 30
0.0
 10
4.94336
 20
0.00526258
 30
0.0
 10
4.95361
 20
0.0039605
 30
0.0
 10
4.96386
 20
0.0039605
 30
0.0
  0
SPLINE
  5
140
100
AcDbEntity
  8
0
100
AcDbSpline
210
0.0
220
0.0
230
1.0
 62
     190
 70
     0
 71
     3
 72
     8
 73
4
 40
0.0
 40
0.0
 40
0.0
 40
0.0
 40
1.0
 40
1.0
 40
1.0
 40
1.0
 10
4.96386
 20
0.0039605
 30
0.0
 10
4.96903
 20
0.0039605
 30
0.0
 10
4.97412
 20
0.00428603
 30
0.0
 10
4.97922
 20
0.00493707
 30
0.0
  0
SPLINE
  5
141
100
AcDbEntity
  8
0
100
AcDbSpline
210
0.0
220
0.0
230
1.0
 62
     190
 70
     0
 71
     3
 72
     8
 73
4
 40
0.0
 40
0.0
 40
0.0
 40
0.0
 40
1.0
 40
1.0
 40
1.0
 40
1.0
 10
4.97922
 20
0.00493707
 30
0.0
 10
4.98432
 20
0.00558811
 30
0.0
 10
4.98942
 20
0.00661893
 30
0.0
 10
4.99447
 20
0.00797526
 30
0.0
  0
SPLINE
  5
142
100
AcDbEntity
  8
0
100
AcDbSpline
210
0.0
220
0.0
230
1.0
 62
     190
 70
     0
 71
     3
 72
     8
 73
4
 40
0.0
 40
0.0
 40
0.0
 40
0.0
 40
1.0
 40
1.0
 40
1.0
 40
1.0
 10
4.99447
 20
0.00797526
 30
0.0
 10
5.0096
 20
0.0120443
 30
0.0
 10
5.0236
 20
0.0189888
 30
0.0
 10
5.03581
 20
0.0283746
 30
0.0
  0
SPLINE
  5
143
100
AcDbEntity
  8
0
100
AcDbSpline
210
0.0
220
0.0
230
1.0
 62
     190
 70
     0
 71
     3
 72
     8
 73
4
 40
0.0
 40
0.0
 40
0.0
 40
0.0
 40
1.0
 40
1.0
 40
1.0
 40
1.0
 10
5.03581
 20
0.0283746
 30
0.0
 10
5.04796
 20
0.0377061
 30
0.0
 10
5.05832
 20
0.0494792
 30
0.0
 10
5.06619
 20
0.0630425
 30
0.0
  0
LINE
  5
144
100
AcDbEntity
  8
0
100
AcDbLine
 62
     190
 10
5.06619
 20
0.0630425
 30
0.0
 11
5.5479
 21
0.898221
 31
0.0
  0
LINE
  5
145
100
AcDbEntity
  8
0
100
AcDbLine
 62
     190
 10
5.5479
 20
0.898221
 30
0.0
 11
6.02962
 21
1.7334
 31
0.0
  0
SPLINE
  5
146
100
AcDbEntity
  8
0
100
AcDbSpline
210
0.0
220
0.0
230
1.0
 62
     190
 70
     0
 71
     3
 72
     8
 73
4
 40
0.0
 40
0.0
 40
0.0
 40
0.0
 40
1.0
 40
1.0
 40
1.0
 40
1.0
 10
6.02962
 20
1.7334
 30
0.0
 10
6.0459
 20
1.76167
 30
0.0
 10
6.04921
 20
1.79383
 30
0.0
 10
6.04139
 20
1.82303
 30
0.0
  0
LINE
  5
147
100
AcDbEntity
  8
0
100
AcDbLine
 62
     190
 10
6.04139
 20
1.82303
 30
0.0
 11
6.04139
 21
1.82303
 31
0.0
  0
LINE
  5
148
100
AcDbEntity
  8
0
100
AcDbLine
 62
     190
 10
4.97635
 20
2.79579
 30
0.0
 11
4.97635
 21
3.76844
 31
0.0
  0
LINE
  5
149
100
AcDbEntity
  8
0
100
AcDbLine
 62
     190
 10
4.97635
 20
3.76844
 30
0.0
 11
4.97635
 21
4.7411
 31
0.0
  0
SPLINE
  5
14a
100
AcDbEntity
  8
0
100
AcDbSpline
210
0.0
220
0.0
230
1.0
 62
     190
 70
     0
 71
     3
 72
     8
 73
4
 40
0.0
 40
0.0
 40
0.0
 40
0.0
 40
1.0
 40
1.0
 40
1.0
 40
1.0
 10
4.97635
 20
4.7411
 30
0.0
 10
4.97635
 20
4.76275
 30
0.0
 10
4.97043
 20
4.78358
 30
0.0
 10
4.95975
 20
4.80154
 30
0.0
  0
SPLINE
  5
14b
100
AcDbEntity
  8
0
100
AcDbSpline
210
0.0
220
0.0
230
1.0
 62
     190
 70
     0
 71
     3
 72
     8
 73
4
 40
0.0
 40
0.0
 40
0.0
 40
0.0
 40
1.0
 40
1.0
 40
1.0
 40
1.0
 10
4.95975
 20
4.80154
 30
0.0
 10
4.94906
 20
4.8195
 30
0.0
 10
4.9336
 20
4.83464
 30
0.0
 10
4.91456
 20
4.84494
 30
0.0
  0
LINE
  5
14c
100
AcDbEntity
  8
0
100
AcDbLine
 62
     190
 10
4.91456
 20
4.84494
 30
0.0
 11
4.88363
 21
4.86171
 31
0.0
  0
LINE
  5
14d
100
AcDbEntity
  8
0
100
AcDbLine
 62
     190
 10
4.88363
 20
4.86171
 30
0.0
 11
4.85271
 21
4.87847
 31
0.0
  0
SPLINE
  5
14e
100
AcDbEntity
  8
0
100
AcDbSpline
210
0.0
220
0.0
230
1.0
 62
     190
 70
     0
 71
     3
 72
     8
 73
4
 40
0.0
 40
0.0
 40
0.0
 40
0.0
 40
1.0
 40
1.0
 40
1.0
 40
1.0
 10
4.85271
 20
4.87847
 30
0.0
 10
4.70833
 20
4.95671
 30
0.0
 10
4.55458
 20
5.02289
 30
0.0
 10
4.39063
 20
5.07731
 30
0.0
  0
SPLINE
  5
14f
100
AcDbEntity
  8
0
100
AcDbSpline
210
0.0
220
0.0
230
1.0
 62
     190
 70
     0
 71
     3
 72
     8
 73
4
 40
0.0
 40
0.0
 40
0.0
 40
0.0
 40
1.0
 40
1.0
 40
1.0
 40
1.0
 10
4.39063
 20
5.07731
 30
0.0
 10
4.26779
 20
5.118
 30
0.0
 10
4.13926
 20
5.15213
 30
0.0
 10
4.00456
 20
5.17969
 30
0.0
  0
LINE
  5
150
100
AcDbEntity
  8
0
100
AcDbLine
 62
     190
 10
4.00456
 20
5.17969
 30
0.0
 11
3.93668
 21
5.19228
 31
0.0
  0
SPLINE
  5
151
100
AcDbEntity
  8
0
100
AcDbSpline
210
0.0
220
0.0
230
1.0
 62
     190
 70
     0
 71
     3
 72
     8
 73
4
 40
0.0
 40
0.0
 40
0.0
 40
0.0
 40
1.0
 40
1.0
 40
1.0
 40
1.0
 10
3.93668
 20
5.19228
 30
0.0
 10
3.90044
 20
5.199
 30
0.0
 10
3.86703
 20
5.17117
 30
0.0
 10
3.86703
 20
5.13433
 30
0.0
  0
LINE
  5
152
100
AcDbEntity
  8
0
100
AcDbLine
 62
     190
 10
3.86703
 20
5.13433
 30
0.0
 11
3.86703
 21
5.08501
 31
0.0
  0
LINE
  5
153
100
AcDbEntity
  8
0
100
AcDbLine
 62
     190
 10
3.86703
 20
5.08501
 30
0.0
 11
3.86703
 21
5.01378
 31
0.0
  0
SPLINE
  5
154
100
AcDbEntity
  8
0
100
AcDbSpline
210
0.0
220
0.0
230
1.0
 62
     190
 70
     0
 71
     3
 72
     8
 73
4
 40
0.0
 40
0.0
 40
0.0
 40
0.0
 40
1.0
 40
1.0
 40
1.0
 40
1.0
 10
3.86703
 20
5.01378
 30
0.0
 10
3.86703
 20
4.9854
 30
0.0
 10
3.88732
 20
4.96126
 30
0.0
 10
3.91521
 20
4.95589
 30
0.0
  0
SPLINE
  5
155
100
AcDbEntity
  8
0
100
AcDbSpline
210
0.0
220
0.0
230
1.0
 62
     190
 70
     0
 71
     3
 72
     8
 73
4
 40
0.0
 40
0.0
 40
0.0
 40
0.0
 40
1.0
 40
1.0
 40
1.0
 40
1.0
 10
3.91521
 20
4.95589
 30
0.0
 10
4.0491
 20
4.93012
 30
0.0
 10
4.17822
 20
4.89735
 30
0.0
 10
4.30214
 20
4.8571
 30
0.0
  0
SPLINE
  5
156
100
AcDbEntity
  8
0
100
AcDbSpline
210
0.0
220
0.0
230
1.0
 62
     190
 70
     0
 71
     3
 72
     8
 73
4
 40
0.0
 40
0.0
 40
0.0
 40
0.0
 40
1.0
 40
1.0
 40
1.0
 40
1.0
 10
4.30214
 20
4.8571
 30
0.0
 10
4.44092
 20
4.81207
 30
0.0
 10
4.57314
 20
4.7576
 30
0.0
 10
4.69824
 20
4.69293
 30
0.0
  0
SPLINE
  5
157
100
AcDbEntity
  8
0
100
AcDbSpline
210
0.0
220
0.0
230
1.0
 62
     190
 70
     0
 71
     3
 72
     8
 73
4
 40
0.0
 40
0.0
 40
0.0
 40
0.0
 40
1.0
 40
1.0
 40
1.0
 40
1.0
 10
4.69824
 20
4.69293
 30
0.0
 10
4.71121
 20
4.68625
 30
0.0
 10
4.72168
 20
4.67617
 30
0.0
 10
4.72894
 20
4.66407
 30
0.0
  0
SPLINE
  5
158
100
AcDbEntity
  8
0
100
AcDbSpline
210
0.0
220
0.0
230
1.0
 62
     190
 70
     0
 71
     3
 72
     8
 73
4
 40
0.0
 40
0.0
 40
0.0
 40
0.0
 40
1.0
 40
1.0
 40
1.0
 40
1.0
 10
4.72894
 20
4.66407
 30
0.0
 10
4.73617
 20
4.65196
 30
0.0
 10
4.74013
 20
4.63797
 30
0.0
 10
4.74013
 20
4.62337
 30
0.0
  0
LINE
  5
159
100
AcDbEntity
  8
0
100
AcDbLine
 62
     190
 10
4.74013
 20
4.62337
 30
0.0
 11
4.74013
 21
3.70958
 31
0.0
  0
LINE
  5
15a
100
AcDbEntity
  8
0
100
AcDbLine
 62
     190
 10
4.74013
 20
3.70958
 30
0.0
 11
4.74013
 21
2.79579
 31
0.0
  0
SPLINE
  5
15b
100
AcDbEntity
  8
0
100
AcDbSpline
210
0.0
220
0.0
230
1.0
 62
     190
 70
     0
 71
     3
 72
     8
 73
4
 40
0.0
 40
0.0
 40
0.0
 40
0.0
 40
1.0
 40
1.0
 40
1.0
 40
1.0
 10
4.74013
 20
2.79579
 30
0.0
 10
4.74013
 20
2.72922
 30
0.0
 10
4.75017
 20
2.66667
 30
0.0
 10
4.76958
 20
2.60688
 30
0.0
  0
SPLINE
  5
15c
100
AcDbEntity
  8
0
100
AcDbSpline
210
0.0
220
0.0
230
1.0
 62
     190
 70
     0
 71
     3
 72
     8
 73
4
 40
0.0
 40
0.0
 40
0.0
 40
0.0
 40
1.0
 40
1.0
 40
1.0
 40
1.0
 10
4.76958
 20
2.60688
 30
0.0
 10
4.78537
 20
2.55838
 30
0.0
 10
4.85118
 20
2.55149
 30
0.0
 10
4.87668
 20
2.59565
 30
0.0
  0
LINE
  5
15d
100
AcDbEntity
  8
0
100
AcDbLine
 62
     190
 10
4.87668
 20
2.59565
 30
0.0
 11
4.96869
 21
2.75499
 31
0.0
  0
SPLINE
  5
15e
100
AcDbEntity
  8
0
100
AcDbSpline
210
0.0
220
0.0
230
1.0
 62
     190
 70
     0
 71
     3
 72
     8
 73
4
 40
0.0
 40
0.0
 40
0.0
 40
0.0
 40
1.0
 40
1.0
 40
1.0
 40
1.0
 10
4.96869
 20
2.75499
 30
0.0
 10
4.97407
 20
2.76426
 30
0.0
 10
4.97689
 20
2.7749
 30
0.0
 10
4.97657
 20
2.78564
 30
0.0
  0
SPLINE
  5
15f
100
AcDbEntity
  8
0
100
AcDbSpline
210
0.0
220
0.0
230
1.0
 62
     190
 70
     0
 71
     3
 72
     8
 73
4
 40
0.0
 40
0.0
 40
0.0
 40
0.0
 40
1.0
 40
1.0
 40
1.0
 40
1.0
 10
4.97657
 20
2.78564
 30
0.0
 10
4.9764
 20
2.78901
 30
0.0
 10
4.97635
 20
2.79237
 30
0.0
 10
4.97635
 20
2.79579
 30
0.0
  0
LINE
  5
160
100
AcDbEntity
  8
0
100
AcDbLine
 62
     190
 10
4.97635
 20
2.79579
 30
0.0
 11
4.97635
 21
2.79579
 31
0.0
  0
SPLINE
  5
161
100
AcDbEntity
  8
0
100
AcDbSpline
210
0.0
220
0.0
230
1.0
 62
     152
 70
     0
 71
     3
 72
     8
 73
4
 40
0.0
 40
0.0
 40
0.0
 40
0.0
 40
1.0
 40
1.0
 40
1.0
 40
1.0
 10
0.223904
 20
1.49306
 30
0.0
 10
0.223904
 20
1.45654
 30
0.0
 10
0.194282
 20
1.42692
 30
0.0
 10
0.157715
 20
1.42692
 30
0.0
  0
SPLINE
  5
162
100
AcDbEntity
  8
0
100
AcDbSpline
210
0.0
220
0.0
230
1.0
 62
     152
 70
     0
 71
     3
 72
     8
 73
4
 40
0.0
 40
0.0
 40
0.0
 40
0.0
 40
1.0
 40
1.0
 40
1.0
 40
1.0
 10
0.157715
 20
1.42692
 30
0.0
 10
0.121202
 20
1.42692
 30
0.0
 10
0.0915799
 20
1.45654
 30
0.0
 10
0.0915799
 20
1.49306
 30
0.0
  0
SPLINE
  5
163
100
AcDbEntity
  8
0
100
AcDbSpline
210
0.0
220
0.0
230
1.0
 62
     152
 70
     0
 71
     3
 72
     8
 73
4
 40
0.0
 40
0.0
 40
0.0
 40
0.0
 40
1.0
 40
1.0
 40
1.0
 40
1.0
 10
0.0915799
 20
1.49306
 30
0.0
 10
0.0915799
 20
1.52957
 30
0.0
 10
0.121202
 20
1.55919
 30
0.0
 10
0.157715
 20
1.55919
 30
0.0
  0
SPLINE
  5
164
100
AcDbEntity
  8
0
100
AcDbSpline
210
0.0
220
0.0
230
1.0
 62
     152
 70
     0
 71
     3
 72
     8
 73
4
 40
0.0
 40
0.0
 40
0.0
 40
0.0
 40
1.0
 40
1.0
 40
1.0
 40
1.0
 10
0.157715
 20
1.55919
 30
0.0
 10
0.194282
 20
1.55919
 30
0.0
 10
0.223904
 20
1.52957
 30
0.0
 10
0.223904
 20
1.49306
 30
0.0
  0
LINE
  5
165
100
AcDbEntity
  8
0
100
AcDbLine
 62
     152
 10
0.223904
 20
1.49306
 30
0.0
 11
0.223904
 21
1.49306
 31
0.0
  0
SPLINE
  5
166
100
AcDbEntity
  8
0
100
AcDbSpline
210
0.0
220
0.0
230
1.0
 62
     152
 70
     0
 71
     3
 72
     8
 73
4
 40
0.0
 40
0.0
 40
0.0
 40
0.0
 40
1.0
 40
1.0
 40
1.0
 40
1.0
 10
2.81332
 20
0.750271
 30
0.0
 10
2.81332
 20
0.713758
 30
0.0
 10
2.78369
 20
0.684136
 30
0.0
 10
2.74713
 20
0.684136
 30
0.0
  0
SPLINE
  5
167
100
AcDbEntity
  8
0
100
AcDbSpline
210
0.0
220
0.0
230
1.0
 62
     152
 70
     0
 71
     3
 72
     8
 73
4
 40
0.0
 40
0.0
 40
0.0
 40
0.0
 40
1.0
 40
1.0
 40
1.0
 40
1.0
 10
2.74713
 20
0.684136
 30
0.0
 10
2.71061
 20
0.684136
 30
0.0
 10
2.68099
 20
0.713758
 30
0.0
 10
2.68099
 20
0.750271
 30
0.0
  0
SPLINE
  5
168
100
AcDbEntity
  8
0
100
AcDbSpline
210
0.0
220
0.0
230
1.0
 62
     152
 70
     0
 71
     3
 72
     8
 73
4
 40
0.0
 40
0.0
 40
0.0
 40
0.0
 40
1.0
 40
1.0
 40
1.0
 40
1.0
 10
2.68099
 20
0.750271
 30
0.0
 10
2.68099
 20
0.786783
 30
0.0
 10
2.71061
 20
0.816407
 30
0.0
 10
2.74713
 20
0.816407
 30
0.0
  0
SPLINE
  5
169
100
AcDbEntity
  8
0
100
AcDbSpline
210
0.0
220
0.0
230
1.0
 62
     152
 70
     0
 71
     3
 72
     8
 73
4
 40
0.0
 40
0.0
 40
0.0
 40
0.0
 40
1.0
 40
1.0
 40
1.0
 40
1.0
 10
2.74713
 20
0.816407
 30
0.0
 10
2.78369
 20
0.816407
 30
0.0
 10
2.81332
 20
0.786783
 30
0.0
 10
2.81332
 20
0.750271
 30
0.0
  0
LINE
  5
16a
100
AcDbEntity
  8
0
100
AcDbLine
 62
     152
 10
2.81332
 20
0.750271
 30
0.0
 11
2.81332
 21
0.750271
 31
0.0
  0
SPLINE
  5
16b
100
AcDbEntity
  8
0
100
AcDbSpline
210
0.0
220
0.0
230
1.0
 62
     152
 70
     0
 71
     3
 72
     8
 73
4
 40
0.0
 40
0.0
 40
0.0
 40
0.0
 40
1.0
 40
1.0
 40
1.0
 40
1.0
 10
5.01904
 20
0.169271
 30
0.0
 10
5.01904
 20
0.132758
 30
0.0
 10
4.98942
 20
0.103136
 30
0.0
 10
4.95285
 20
0.103136
 30
0.0
  0
SPLINE
  5
16c
100
AcDbEntity
  8
0
100
AcDbSpline
210
0.0
220
0.0
230
1.0
 62
     152
 70
     0
 71
     3
 72
     8
 73
4
 40
0.0
 40
0.0
 40
0.0
 40
0.0
 40
1.0
 40
1.0
 40
1.0
 40
1.0
 10
4.95285
 20
0.103136
 30
0.0
 10
4.91635
 20
0.103136
 30
0.0
 10
4.88672
 20
0.132758
 30
0.0
 10
4.88672
 20
0.169271
 30
0.0
  0
SPLINE
  5
16d
100
AcDbEntity
  8
0
100
AcDbSpline
210
0.0
220
0.0
230
1.0
 62
     152
 70
     0
 71
     3
 72
     8
 73
4
 40
0.0
 40
0.0
 40
0.0
 40
0.0
 40
1.0
 40
1.0
 40
1.0
 40
1.0
 10
4.88672
 20
0.169271
 30
0.0
 10
4.88672
 20
0.205783
 30
0.0
 10
4.91635
 20
0.235406
 30
0.0
 10
4.95285
 20
0.235406
 30
0.0
  0
SPLINE
  5
16e
100
AcDbEntity
  8
0
100
AcDbSpline
210
0.0
220
0.0
230
1.0
 62
     152
 70
     0
 71
     3
 72
     8
 73
4
 40
0.0
 40
0.0
 40
0.0
 40
0.0
 40
1.0
 40
1.0
 40
1.0
 40
1.0
 10
4.95285
 20
0.235406
 30
0.0
 10
4.98942
 20
0.235406
 30
0.0
 10
5.01904
 20
0.205783
 30
0.0
 10
5.01904
 20
0.169271
 30
0.0
  0
LINE
  5
16f
100
AcDbEntity
  8
0
100
AcDbLine
 62
     152
 10
5.01904
 20
0.169271
 30
0.0
 11
5.01904
 21
0.169271
 31
0.0
  0
SPLINE
  5
170
100
AcDbEntity
  8
0
100
AcDbSpline
210
0.0
220
0.0
230
1.0
 62
     152
 70
     0
 71
     3
 72
     8
 73
4
 40
0.0
 40
0.0
 40
0.0
 40
0.0
 40
1.0
 40
1.0
 40
1.0
 40
1.0
 10
5.94581
 20
1.77919
 30
0.0
 10
5.94581
 20
1.74268
 30
0.0
 10
5.91618
 20
1.71306
 30
0.0
 10
5.87967
 20
1.71306
 30
0.0
  0
SPLINE
  5
171
100
AcDbEntity
  8
0
100
AcDbSpline
210
0.0
220
0.0
230
1.0
 62
     152
 70
     0
 71
     3
 72
     8
 73
4
 40
0.0
 40
0.0
 40
0.0
 40
0.0
 40
1.0
 40
1.0
 40
1.0
 40
1.0
 10
5.87967
 20
1.71306
 30
0.0
 10
5.84315
 20
1.71306
 30
0.0
 10
5.81353
 20
1.74268
 30
0.0
 10
5.81353
 20
1.77919
 30
0.0
  0
SPLINE
  5
172
100
AcDbEntity
  8
0
100
AcDbSpline
210
0.0
220
0.0
230
1.0
 62
     152
 70
     0
 71
     3
 72
     8
 73
4
 40
0.0
 40
0.0
 40
0.0
 40
0.0
 40
1.0
 40
1.0
 40
1.0
 40
1.0
 10
5.81353
 20
1.77919
 30
0.0
 10
5.81353
 20
1.81575
 30
0.0
 10
5.84315
 20
1.84538
 30
0.0
 10
5.87967
 20
1.84538
 30
0.0
  0
SPLINE
  5
173
100
AcDbEntity
  8
0
100
AcDbSpline
210
0.0
220
0.0
230
1.0
 62
     152
 70
     0
 71
     3
 72
     8
 73
4
 40
0.0
 40
0.0
 40
0.0
 40
0.0
 40
1.0
 40
1.0
 40
1.0
 40
1.0
 10
5.87967
 20
1.84538
 30
0.0
 10
5.91618
 20
1.84538
 30
0.0
 10
5.94581
 20
1.81575
 30
0.0
 10
5.94581
 20
1.77919
 30
0.0
  0
LINE
  5
174
100
AcDbEntity
  8
0
100
AcDbLine
 62
     152
 10
5.94581
 20
1.77919
 30
0.0
 11
5.94581
 21
1.77919
 31
0.0
  0
SPLINE
  5
175
100
AcDbEntity
  8
0
100
AcDbSpline
210
0.0
220
0.0
230
1.0
 62
     152
 70
     0
 71
     3
 72
     8
 73
4
 40
0.0
 40
0.0
 40
0.0
 40
0.0
 40
1.0
 40
1.0
 40
1.0
 40
1.0
 10
4.90707
 20
4.73133
 30
0.0
 10
4.90707
 20
4.69482
 30
0.0
 10
4.87744
 20
4.66521
 30
0.0
 10
4.84088
 20
4.66521
 30
0.0
  0
SPLINE
  5
176
100
AcDbEntity
  8
0
100
AcDbSpline
210
0.0
220
0.0
230
1.0
 62
     152
 70
     0
 71
     3
 72
     8
 73
4
 40
0.0
 40
0.0
 40
0.0
 40
0.0
 40
1.0
 40
1.0
 40
1.0
 40
1.0
 10
4.84088
 20
4.66521
 30
0.0
 10
4.80436
 20
4.66521
 30
0.0
 10
4.77474
 20
4.69482
 30
0.0
 10
4.77474
 20
4.73133
 30
0.0
  0
SPLINE
  5
177
100
AcDbEntity
  8
0
100
AcDbSpline
210
0.0
220
0.0
230
1.0
 62
     152
 70
     0
 71
     3
 72
     8
 73
4
 40
0.0
 40
0.0
 40
0.0
 40
0.0
 40
1.0
 40
1.0
 40
1.0
 40
1.0
 10
4.77474
 20
4.73133
 30
0.0
 10
4.77474
 20
4.76785
 30
0.0
 10
4.80436
 20
4.79747
 30
0.0
 10
4.84088
 20
4.79747
 30
0.0
  0
SPLINE
  5
178
100
AcDbEntity
  8
0
100
AcDbSpline
210
0.0
220
0.0
230
1.0
 62
     152
 70
     0
 71
     3
 72
     8
 73
4
 40
0.0
 40
0.0
 40
0.0
 40
0.0
 40
1.0
 40
1.0
 40
1.0
 40
1.0
 10
4.84088
 20
4.79747
 30
0.0
 10
4.87744
 20
4.79747
 30
0.0
 10
4.90707
 20
4.76785
 30
0.0
 10
4.90707
 20
4.73133
 30
0.0
  0
LINE
  5
179
100
AcDbEntity
  8
0
100
AcDbLine
 62
     152
 10
4.90707
 20
4.73133
 30
0.0
 11
4.90707
 21
4.73133
 31
0.0
  0
SPLINE
  5
17a
100
AcDbEntity
  8
0
100
AcDbSpline
210
0.0
220
0.0
230
1.0
 62
     152
 70
     0
 71
     3
 72
     8
 73
4
 40
0.0
 40
0.0
 40
0.0
 40
0.0
 40
1.0
 40
1.0
 40
1.0
 40
1.0
 10
4.09771
 20
5.0536
 30
0.0
 10
4.09771
 20
5.01708
 30
0.0
 10
4.06808
 20
4.98747
 30
0.0
 10
4.03153
 20
4.98747
 30
0.0
  0
SPLINE
  5
17b
100
AcDbEntity
  8
0
100
AcDbSpline
210
0.0
220
0.0
230
1.0
 62
     152
 70
     0
 71
     3
 72
     8
 73
4
 40
0.0
 40
0.0
 40
0.0
 40
0.0
 40
1.0
 40
1.0
 40
1.0
 40
1.0
 10
4.03153
 20
4.98747
 30
0.0
 10
3.99501
 20
4.98747
 30
0.0
 10
3.96539
 20
5.01708
 30
0.0
 10
3.96539
 20
5.0536
 30
0.0
  0
SPLINE
  5
17c
100
AcDbEntity
  8
0
100
AcDbSpline
210
0.0
220
0.0
230
1.0
 62
     152
 70
     0
 71
     3
 72
     8
 73
4
 40
0.0
 40
0.0
 40
0.0
 40
0.0
 40
1.0
 40
1.0
 40
1.0
 40
1.0
 10
3.96539
 20
5.0536
 30
0.0
 10
3.96539
 20
5.09011
 30
0.0
 10
3.99501
 20
5.11974
 30
0.0
 10
4.03153
 20
5.11974
 30
0.0
  0
SPLINE
  5
17d
100
AcDbEntity
  8
0
100
AcDbSpline
210
0.0
220
0.0
230
1.0
 62
     152
 70
     0
 71
     3
 72
     8
 73
4
 40
0.0
 40
0.0
 40
0.0
 40
0.0
 40
1.0
 40
1.0
 40
1.0
 40
1.0
 10
4.03153
 20
5.11974
 30
0.0
 10
4.06808
 20
5.11974
 30
0.0
 10
4.09771
 20
5.09011
 30
0.0
 10
4.09771
 20
5.0536
 30
0.0
  0
LINE
  5
17e
100
AcDbEntity
  8
0
100
AcDbLine
 62
     152
 10
4.09771
 20
5.0536
 30
0.0
 11
4.09771
 21
5.0536
 31
0.0
  0
SPLINE
  5
17f
100
AcDbEntity
  8
0
100
AcDbSpline
210
0.0
220
0.0
230
1.0
 62
     152
 70
     0
 71
     3
 72
     8
 73
4
 40
0.0
 40
0.0
 40
0.0
 40
0.0
 40
1.0
 40
1.0
 40
1.0
 40
1.0
 10
2.1339
 20
5.0784
 30
0.0
 10
2.1339
 20
5.04189
 30
0.0
 10
2.10428
 20
5.01226
 30
0.0
 10
2.06776
 20
5.01226
 30
0.0
  0
SPLINE
  5
180
100
AcDbEntity
  8
0
100
AcDbSpline
210
0.0
220
0.0
230
1.0
 62
     152
 70
     0
 71
     3
 72
     8
 73
4
 40
0.0
 40
0.0
 40
0.0
 40
0.0
 40
1.0
 40
1.0
 40
1.0
 40
1.0
 10
2.06776
 20
5.01226
 30
0.0
 10
2.03125
 20
5.01226
 30
0.0
 10
2.00163
 20
5.04189
 30
0.0
 10
2.00163
 20
5.0784
 30
0.0
  0
SPLINE
  5
181
100
AcDbEntity
  8
0
100
AcDbSpline
210
0.0
220
0.0
230
1.0
 62
     152
 70
     0
 71
     3
 72
     8
 73
4
 40
0.0
 40
0.0
 40
0.0
 40
0.0
 40
1.0
 40
1.0
 40
1.0
 40
1.0
 10
2.00163
 20
5.0784
 30
0.0
 10
2.00163
 20
5.1149
 30
0.0
 10
2.03125
 20
5.14453
 30
0.0
 10
2.06776
 20
5.14453
 30
0.0
  0
SPLINE
  5
182
100
AcDbEntity
  8
0
100
AcDbSpline
210
0.0
220
0.0
230
1.0
 62
     152
 70
     0
 71
     3
 72
     8
 73
4
 40
0.0
 40
0.0
 40
0.0
 40
0.0
 40
1.0
 40
1.0
 40
1.0
 40
1.0
 10
2.06776
 20
5.14453
 30
0.0
 10
2.10428
 20
5.14453
 30
0.0
 10
2.1339
 20
5.1149
 30
0.0
 10
2.1339
 20
5.0784
 30
0.0
  0
LINE
  5
183
100
AcDbEntity
  8
0
100
AcDbLine
 62
     152
 10
2.1339
 20
5.0784
 30
0.0
 11
2.1339
 21
5.0784
 31
0.0
  0
SPLINE
  5
184
100
AcDbEntity
  8
0
100
AcDbSpline
210
0.0
220
0.0
230
1.0
 62
     152
 70
     0
 71
     3
 72
     8
 73
4
 40
0.0
 40
0.0
 40
0.0
 40
0.0
 40
1.0
 40
1.0
 40
1.0
 40
1.0
 10
0.216092
 20
4.65365
 30
0.0
 10
0.216092
 20
4.61714
 30
0.0
 10
0.186469
 20
4.58751
 30
0.0
 10
0.149903
 20
4.58751
 30
0.0
  0
SPLINE
  5
185
100
AcDbEntity
  8
0
100
AcDbSpline
210
0.0
220
0.0
230
1.0
 62
     152
 70
     0
 71
     3
 72
     8
 73
4
 40
0.0
 40
0.0
 40
0.0
 40
0.0
 40
1.0
 40
1.0
 40
1.0
 40
1.0
 10
0.149903
 20
4.58751
 30
0.0
 10
0.11339
 20
4.58751
 30
0.0
 10
0.0837674
 20
4.61714
 30
0.0
 10
0.0837674
 20
4.65365
 30
0.0
  0
SPLINE
  5
186
100
AcDbEntity
  8
0
100
AcDbSpline
210
0.0
220
0.0
230
1.0
 62
     152
 70
     0
 71
     3
 72
     8
 73
4
 40
0.0
 40
0.0
 40
0.0
 40
0.0
 40
1.0
 40
1.0
 40
1.0
 40
1.0
 10
0.0837674
 20
4.65365
 30
0.0
 10
0.0837674
 20
4.69015
 30
0.0
 10
0.11339
 20
4.71978
 30
0.0
 10
0.149903
 20
4.71978
 30
0.0
  0
SPLINE
  5
187
100
AcDbEntity
  8
0
100
AcDbSpline
210
0.0
220
0.0
230
1.0
 62
     152
 70
     0
 71
     3
 72
     8
 73
4
 40
0.0
 40
0.0
 40
0.0
 40
0.0
 40
1.0
 40
1.0
 40
1.0
 40
1.0
 10
0.149903
 20
4.71978
 30
0.0
 10
0.186469
 20
4.71978
 30
0.0
 10
0.216092
 20
4.69015
 30
0.0
 10
0.216092
 20
4.65365
 30
0.0
  0
LINE
  5
188
100
AcDbEntity
  8
0
100
AcDbLine
 62
     152
 10
0.216092
 20
4.65365
 30
0.0
 11
0.216092
 21
4.65365
 31
0.0
  0
SPLINE
  5
189
100
AcDbEntity
  8
0
100
AcDbSpline
210
0.0
220
0.0
230
1.0
 62
     152
 70
     0
 71
     3
 72
     8
 73
4
 40
0.0
 40
0.0
 40
0.0
 40
0.0
 40
1.0
 40
1.0
 40
1.0
 40
1.0
 10
5.40392
 20
2.15132
 30
0.0
 10
5.40392
 20
2.11481
 30
0.0
 10
5.37429
 20
2.08518
 30
0.0
 10
5.33778
 20
2.08518
 30
0.0
  0
SPLINE
  5
18a
100
AcDbEntity
  8
0
100
AcDbSpline
210
0.0
220
0.0
230
1.0
 62
     152
 70
     0
 71
     3
 72
     8
 73
4
 40
0.0
 40
0.0
 40
0.0
 40
0.0
 40
1.0
 40
1.0
 40
1.0
 40
1.0
 10
5.33778
 20
2.08518
 30
0.0
 10
5.30126
 20
2.08518
 30
0.0
 10
5.27165
 20
2.11481
 30
0.0
 10
5.27165
 20
2.15132
 30
0.0
  0
SPLINE
  5
18b
100
AcDbEntity
  8
0
100
AcDbSpline
210
0.0
220
0.0
230
1.0
 62
     152
 70
     0
 71
     3
 72
     8
 73
4
 40
0.0
 40
0.0
 40
0.0
 40
0.0
 40
1.0
 40
1.0
 40
1.0
 40
1.0
 10
5.27165
 20
2.15132
 30
0.0
 10
5.27165
 20
2.18787
 30
0.0
 10
5.30126
 20
2.21744
 30
0.0
 10
5.33778
 20
2.21744
 30
0.0
  0
SPLINE
  5
18c
100
AcDbEntity
  8
0
100
AcDbSpline
210
0.0
220
0.0
230
1.0
 62
     152
 70
     0
 71
     3
 72
     8
 73
4
 40
0.0
 40
0.0
 40
0.0
 40
0.0
 40
1.0
 40
1.0
 40
1.0
 40
1.0
 10
5.33778
 20
2.21744
 30
0.0
 10
5.37429
 20
2.21744
 30
0.0
 10
5.40392
 20
2.18787
 30
0.0
 10
5.40392
 20
2.15132
 30
0.0
  0
LINE
  5
18d
100
AcDbEntity
  8
0
100
AcDbLine
 62
     152
 10
5.40392
 20
2.15132
 30
0.0
 11
5.40392
 21
2.15132
 31
0.0
  0
SPLINE
  5
18e
100
AcDbEntity
  8
0
100
AcDbSpline
210
0.0
220
0.0
230
1.0
 62
     152
 70
     0
 71
     3
 72
     8
 73
4
 40
0.0
 40
0.0
 40
0.0
 40
0.0
 40
1.0
 40
1.0
 40
1.0
 40
1.0
 10
4.92443
 20
2.84229
 30
0.0
 10
4.92443
 20
2.80578
 30
0.0
 10
4.89481
 20
2.77615
 30
0.0
 10
4.85824
 20
2.77615
 30
0.0
  0
SPLINE
  5
18f
100
AcDbEntity
  8
0
100
AcDbSpline
210
0.0
220
0.0
230
1.0
 62
     152
 70
     0
 71
     3
 72
     8
 73
4
 40
0.0
 40
0.0
 40
0.0
 40
0.0
 40
1.0
 40
1.0
 40
1.0
 40
1.0
 10
4.85824
 20
2.77615
 30
0.0
 10
4.82172
 20
2.77615
 30
0.0
 10
4.7921
 20
2.80578
 30
0.0
 10
4.7921
 20
2.84229
 30
0.0
  0
SPLINE
  5
190
100
AcDbEntity
  8
0
100
AcDbSpline
210
0.0
220
0.0
230
1.0
 62
     152
 70
     0
 71
     3
 72
     8
 73
4
 40
0.0
 40
0.0
 40
0.0
 40
0.0
 40
1.0
 40
1.0
 40
1.0
 40
1.0
 10
4.7921
 20
2.84229
 30
0.0
 10
4.7921
 20
2.87879
 30
0.0
 10
4.82172
 20
2.90842
 30
0.0
 10
4.85824
 20
2.90842
 30
0.0
  0
SPLINE
  5
191
100
AcDbEntity
  8
0
100
AcDbSpline
210
0.0
220
0.0
230
1.0
 62
     152
 70
     0
 71
     3
 72
     8
 73
4
 40
0.0
 40
0.0
 40
0.0
 40
0.0
 40
1.0
 40
1.0
 40
1.0
 40
1.0
 10
4.85824
 20
2.90842
 30
0.0
 10
4.89481
 20
2.90842
 30
0.0
 10
4.92443
 20
2.87879
 30
0.0
 10
4.92443
 20
2.84229
 30
0.0
  0
LINE
  5
192
100
AcDbEntity
  8
0
100
AcDbLine
 62
     152
 10
4.92443
 20
2.84229
 30
0.0
 11
4.92443
 21
2.84229
 31
0.0
  0
ENDSEC
  0
SECTION
  2
OBJECTS
  0
DICTIONARY
  5
C
330
0
100
AcDbDictionary
  3
ACAD_GROUP
350
D
  3
ACAD_LAYOUT
350
1A
  3
ACAD_MLINESTYLE
350
17
  3
ACAD_PLOTSETTINGS
350
19
  3
ACAD_PLOTSTYLENAME
350
E
  3
ACDBHEADERROUNDTRIPXREC
350
2F
  0
DICTIONARY
  5
52
330
1F
100
AcDbDictionary
280
     1
  3
ACAD_LAYOUTSELFREF
360
53
  0
DICTIONARY
  5
50
330
1B
100
AcDbDictionary
280
     1
  3
ACAD_LAYOUTSELFREF
360
51
  0
DICTIONARY
  5
D
102
{ACAD_REACTORS
330
C
102
}
330
C
100
AcDbDictionary
  0
DICTIONARY
  5
1A
102
{ACAD_REACTORS
330
C
102
}
330
C
100
AcDbDictionary
  0
DICTIONARY
  5
17
102
{ACAD_REACTORS
330
C
102
}
330
C
100
AcDbDictionary
  3
STANDARD
350
18
  0
DICTIONARY
  5
19
102
{ACAD_REACTORS
330
C
102
}
330
C
100
AcDbDictionary
  0
ACDBDICTIONARYWDFLT
  5
E
102
{ACAD_REACTORS
330
C
102
}
330
C
100
AcDbDictionary
281
     1
  3
Normal
350
F
100
AcDbDictionaryWithDefault
340
F
  0
DICTIONARY
  5
2F
102
{ACAD_REACTORS
330
C
102
}
330
C
100
AcDbDictionary
  3
CEPSNTYPE
350
39
  3
DIMSTYLEDATA
350
3D
  3
FINGERPRINTGUID
350
3A
  3
HYPERLINKBASE
350
32
  3
INSUNITS
350
38
  3
LAYOUTDICT
350
34
  3
LWETCUNION
350
37
  3
PLOTSETDICT
350
35
  3
PLOTSTYLNAMDICT
350
36
  3
PSVPSCALE
350
3C
  3
PUCSBASE
350
40
  3
PUCSORGBACK
350
46
  3
PUCSORGBOTTOM
350
42
  3
PUCSORGFRONT
350
45
  3
PUCSORGLEFT
350
43
  3
PUCSORGRIGHT
350
44
  3
PUCSORGTOP
350
41
  3
PUCSORTHOREF
350
3E
  3
PUCSORTHOVIEW
350
3F
  3
STYLESHEET
350
33
  3
TSTACKALIGN
350
30
  3
TSTACKSIZE
350
31
  3
UCSBASE
350
49
  3
UCSORGBACK
350
4F
  3
UCSORGBOTTOM
350
4B
  3
UCSORGFRONT
350
4E
  3
UCSORGLEFT
350
4C
  3
UCSORGRIGHT
350
4D
  3
UCSORGTOP
350
4A
  3
UCSORTHOREF
350
47
  3
UCSORTHOVIEW
350
48
  3
VERSIONGUID
350
3B
  0
XRECORD
  5
53
102
{ACAD_REACTORS
330
52
102
}
330
52
100
AcDbXrecord
340
1F
  0
XRECORD
  5
51
102
{ACAD_REACTORS
330
50
102
}
330
50
100
AcDbXrecord
340
1B
  0
MLINESTYLE
  5
18
102
{ACAD_REACTORS
330
17
102
}
330
17
100
AcDbMlineStyle
  2
STANDARD
 70
     0
  3

 62
   256
 51
90.0
 52
90.0
 71
     2
 49
0.5
 62
   256
  6
BYLAYER
 49
-0.5
 62
   256
  6
BYLAYER
  0
ACDBPLACEHOLDER
  5
F
102
{ACAD_REACTORS
330
E
102
}
330
E
100
AcDbPlaceHolder
280
     0
  0
XRECORD
  5
39
102
{ACAD_REACTORS
330
2F
102
}
330
2F
100
AcDbXrecord
 90
        0
  0
XRECORD
  5
3D
102
{ACAD_REACTORS
330
2F
102
}
330
2F
100
AcDbXrecord
1000
DSTYLE
1002
{
1070
   278
 70
    44
1002
}
  0
XRECORD
  5
3A
102
{ACAD_REACTORS
330
2F
102
}
330
2F
100
AcDbXrecord
  1
{705446A6-11D0-4548-8F8C-A97DCA50327D}
  0
XRECORD
  5
32
102
{ACAD_REACTORS
330
2F
102
}
330
2F
100
AcDbXrecord
  1

  0
XRECORD
  5
38
102
{ACAD_REACTORS
330
2F
102
}
330
2F
100
AcDbXrecord
 90
        4
  0
XRECORD
  5
34
102
{ACAD_REACTORS
330
2F
102
}
330
2F
100
AcDbXrecord
340
1A
  0
XRECORD
  5
37
102
{ACAD_REACTORS
330
2F
102
}
330
2F
100
AcDbXrecord
 90
    10781
  0
XRECORD
  5
35
102
{ACAD_REACTORS
330
2F
102
}
330
2F
100
AcDbXrecord
340
19
  0
XRECORD
  5
36
102
{ACAD_REACTORS
330
2F
102
}
330
2F
100
AcDbXrecord
340
E
  0
XRECORD
  5
3C
102
{ACAD_REACTORS
330
2F
102
}
330
2F
100
AcDbXrecord
 40
0.0
  0
XRECORD
  5
40
102
{ACAD_REACTORS
330
2F
102
}
330
2F
100
AcDbXrecord
340
0
  0
XRECORD
  5
46
102
{ACAD_REACTORS
330
2F
102
}
330
2F
100
AcDbXrecord
 10
0.0
 20
0.0
 30
0.0
  0
XRECORD
  5
42
102
{ACAD_REACTORS
330
2F
102
}
330
2F
100
AcDbXrecord
 10
0.0
 20
0.0
 30
0.0
  0
XRECORD
  5
45
102
{ACAD_REACTORS
330
2F
102
}
330
2F
100
AcDbXrecord
 10
0.0
 20
0.0
 30
0.0
  0
XRECORD
  5
43
102
{ACAD_REACTORS
330
2F
102
}
330
2F
100
AcDbXrecord
 10
0.0
 20
0.0
 30
0.0
  0
XRECORD
  5
44
102
{ACAD_REACTORS
330
2F
102
}
330
2F
100
AcDbXrecord
 10
0.0
 20
0.0
 30
0.0
  0
XRECORD
  5
41
102
{ACAD_REACTORS
330
2F
102
}
330
2F
100
AcDbXrecord
 10
0.0
 20
0.0
 30
0.0
  0
XRECORD
  5
3E
102
{ACAD_REACTORS
330
2F
102
}
330
2F
100
AcDbXrecord
340
0
  0
XRECORD
  5
3F
102
{ACAD_REACTORS
330
2F
102
}
330
2F
100
AcDbXrecord
 70
     0
  0
XRECORD
  5
33
102
{ACAD_REACTORS
330
2F
102
}
330
2F
100
AcDbXrecord
  1

  0
XRECORD
  5
30
102
{ACAD_REACTORS
330
2F
102
}
330
2F
100
AcDbXrecord
 90
        1
  0
XRECORD
  5
31
102
{ACAD_REACTORS
330
2F
102
}
330
2F
100
AcDbXrecord
 90
       70
  0
XRECORD
  5
49
102
{ACAD_REACTORS
330
2F
102
}
330
2F
100
AcDbXrecord
340
0
  0
XRECORD
  5
4F
102
{ACAD_REACTORS
330
2F
102
}
330
2F
100
AcDbXrecord
 10
0.0
 20
0.0
 30
0.0
  0
XRECORD
  5
4B
102
{ACAD_REACTORS
330
2F
102
}
330
2F
100
AcDbXrecord
 10
0.0
 20
0.0
 30
0.0
  0
XRECORD
  5
4E
102
{ACAD_REACTORS
330
2F
102
}
330
2F
100
AcDbXrecord
 10
0.0
 20
0.0
 30
0.0
  0
XRECORD
  5
4C
102
{ACAD_REACTORS
330
2F
102
}
330
2F
100
AcDbXrecord
 10
0.0
 20
0.0
 30
0.0
  0
XRECORD
  5
4D
102
{ACAD_REACTORS
330
2F
102
}
330
2F
100
AcDbXrecord
 10
0.0
 20
0.0
 30
0.0
  0
XRECORD
  5
4A
102
{ACAD_REACTORS
330
2F
102
}
330
2F
100
AcDbXrecord
 10
0.0
 20
0.0
 30
0.0
  0
XRECORD
  5
47
102
{ACAD_REACTORS
330
2F
102
}
330
2F
100
AcDbXrecord
340
0
  0
XRECORD
  5
48
102
{ACAD_REACTORS
330
2F
102
}
330
2F
100
AcDbXrecord
 70
     0
  0
XRECORD
  5
3B
102
{ACAD_REACTORS
330
2F
102
}
330
2F
100
AcDbXrecord
  1
{33328E3A-B6B8-4979-86B7-D70DEC2867C2}
  0
ENDSEC
  0
EOF
