0
SECTION
2
HEADER
9
$INSUNITS
70
4
9
$ACADVER
1
AC1014
9
$HANDSEED
5
FFFF
0
ENDSEC
0
SECTION
2
TABLES
0
TABLE
2
VPORT
5
8
100
AcDbSymbolTable
0
ENDTAB
0
TABLE
2
LTYPE
5
5
100
AcDbSymbolTable
0
LTYPE
5
14
100
AcDbSymbolTableRecord
100
AcDbLinetypeTableRecord
2
BYBLOCK
70
0
0
LTYPE
5
15
100
AcDbSymbolTableRecord
100
AcDbLinetypeTableRecord
2
BYLAYER
70
0
0
ENDTAB
0
TABLE
2
LAYER
5
2
100
AcDbSymbolTable
70
2
0
LAYER
5
50
100
AcDbSymbolTableRecord
100
AcDbLayerTableRecord
2
0
70
0
6
CONTINUOUS
0
ENDTAB
0
TABLE
2
STYLE
5
3
100
AcDbSymbolTable
70
1
0
STYLE
5
11
100
AcDbSymbolTableRecord
100
AcDbTextStyleTableRecord
2
STANDARD
70
0
0
ENDTAB
0
TABLE
2
VIEW
5
6
100
AcDbSymbolTable
70
0
0
ENDTAB
0
TABLE
2
UCS
5
7
100
AcDbSymbolTable
70
0
0
ENDTAB
0
TABLE
2
APPID
5
9
100
AcDbSymbolTable
70
2
0
APPID
5
12
100
AcDbSymbolTableRecord
100
AcDbRegAppTableRecord
2
ACAD
70
0
0
ENDTAB
0
TABLE
2
DIMSTYLE
5
A
100
AcDbSymbolTable
70
1
0
ENDTAB
0
TABLE
2
BLOCK_RECORD
5
1
100
AcDbSymbolTable
70
1
0
BLOCK_RECORD
5
1F
100
AcDbSymbolTableRecord
100
AcDbBlockTableRecord
2
*MODEL_SPACE
0
BLOCK_RECORD
5
1B
100
AcDbSymbolTableRecord
100
AcDbBlockTableRecord
2
*PAPER_SPACE
0
ENDTAB
0
ENDSEC
0
SECTION
2
BLOCKS
0
BLOCK
5
20
100
AcDbEntity
100
AcDbBlockBegin
2
*MODEL_SPACE
0
ENDBLK
5
21
100
AcDbEntity
100
AcDbBlockEnd
0
BLOCK
5
1C
100
AcDbEntity
100
AcDbBlockBegin
2
*PAPER_SPACE
0
ENDBLK
5
1D
100
AcDbEntity
100
AcDbBlockEnd
0
ENDSEC
0
SECTION
2
ENTITIES
0
SPLINE
5
100
100
AcDbEntity
8
0
100
AcDbSpline
70
0
71
3
72
14
73
10
74
0
42
0.000000001
43
0.0000000001
44
0.0000000001
40
0
40
0
40
0
40
0
40
0.039064447338693138
40
0.039064447338693138
40
0.078128894677384819
40
0.078128894677384819
40
0.11313889371155504
40
0.11313889371155504
40
0.14814889274572463
40
0.14814889274572463
40
0.14814889274572463
40
0.14814889274572463
10
-91.835442521710675
20
9.3093027839666185
30
0
10
-91.705796824507715
20
9.2971416283261821
30
0
10
-91.579765954952862
20
9.2597740524066481
30
0
10
-91.349121670608483
20
9.1388326776076525
30
0
10
-91.246713340888164
20
9.0564151441894065
30
0
10
-91.087943076946587
20
8.8673148209815373
30
0
10
-91.02912412073897
20
8.765490073483063
30
0
10
-90.949263875085379
20
8.546177743326993
30
0
10
-90.928835541212507
20
8.4303734602125111
30
0
10
-90.928835541212507
20
8.3136734634319467
30
0
0
SPLINE
5
101
100
AcDbEntity
8
0
100
AcDbSpline
70
0
71
3
72
11
73
7
74
0
42
0.000000001
43
0.0000000001
44
0.0000000001
40
-2.3173733823905427
40
-2.3173733823905427
40
-2.3173733823905427
40
-2.3173733823905427
40
-2
40
-2
40
-2
40
-1
40
-1
40
-1
40
-1
10
-91.835442521710675
20
9.3093027839666185
30
0
10
-102.82870389860932
20
10.340503706826187
30
0
10
-112.79641694097683
20
12.89096533647067
30
0
10
-121.4320632413159
20
17.345800427065406
30
0
10
-122.10201014492888
20
17.691403161504983
30
0
10
-122.52883482754928
20
18.37587876449232
30
0
10
-122.52883480005119
20
19.129715685658315
30
0
0
LINE
5
102
100
AcDbEntity
8
0
100
AcDbLine
10
-122.52883480005119
20
19.129715685658315
30
0
11
-122.5288331067409
21
65.550746145282076
31
0
0
SPLINE
5
103
100
AcDbEntity
8
0
100
AcDbSpline
70
0
71
3
72
8
73
4
74
0
42
0.000000001
43
0.0000000001
44
0.0000000001
40
-15
40
-15
40
-15
40
-15
40
-14.767200182900151
40
-14.767200182900151
40
-14.767200182900151
40
-14.767200182900151
10
-122.5288331067409
20
65.550746145282076
30
0
10
-122.52883230124036
20
67.893080035997798
30
0
10
-123.03434202594656
20
70.057201192637407
30
0
10
-124.00476771874688
20
72.112671995728178
30
0
0
SPLINE
5
104
100
AcDbEntity
8
0
100
AcDbSpline
70
0
71
3
72
18
73
14
74
0
42
0.000000001
43
0.0000000001
44
0.0000000001
40
0
40
0
40
0
40
0
40
0.039064447338693783
40
0.039064447338693783
40
0.078128894677387123
40
0.078128894677387123
40
0.11719334201608024
40
0.11719334201608024
40
0.15625778935477308
40
0.15625778935477308
40
0.18740227761471764
40
0.18740227761471764
40
0.21854676587466199
40
0.21854676587466199
40
0.21854676587466199
40
0.21854676587466199
10
-125.77628316385702
20
72.183649179011368
30
0
10
-125.71144832265375
20
72.296575455297699
30
0
10
-125.62517632500442
20
72.395758408633682
30
0
10
-125.41947000092324
20
72.555472247332844
30
0
10
-125.30200233906828
20
72.6144761813473
30
0
10
-125.05106182063065
20
72.684135769669723
30
0
10
-124.91998809217739
20
72.694125440345928
30
0
10
-124.66138919108319
20
72.663299957513061
30
0
10
-124.53633636488402
20
72.622779512421062
30
0
10
-124.33186694777146
20
72.508927863830948
30
0
10
-124.24958023812937
20
72.444605883871006
30
0
10
-124.10776092815901
20
72.292956723905093
30
0
10
-124.04908939592788
20
72.206550294773123
30
0
10
-124.00476771874686
20
72.112671995728178
30
0
0
LINE
5
105
100
AcDbEntity
8
0
100
AcDbLine
10
-125.77628316385702
20
72.183649179011368
30
0
11
-130.39581493409949
21
64.137566065081387
31
0
0
ARC
5
106
100
AcDbEntity
8
0
100
AcDbCircle
10
-129.52858436528683
20
63.639659306223706
30
0
40
0.99999999999965505
210
0
220
0
230
1
100
AcDbArc
50
150.13839135884751
51
180
0
LINE
5
107
100
AcDbEntity
8
0
100
AcDbLine
10
-130.52858436528649
20
63.639659306223621
30
0
11
-130.52858436528649
21
16.139363332821279
31
0
0
SPLINE
5
108
100
AcDbEntity
8
0
100
AcDbSpline
70
0
71
3
72
8
73
4
74
0
42
0.000000001
43
0.0000000001
44
0.0000000001
40
-17
40
-17
40
-17
40
-17
40
-16
40
-16
40
-16
40
-16
10
-130.52858436528649
20
16.139363332821276
30
0
10
-130.52858436528649
20
14.302955184408859
30
0
10
-129.52571706953029
20
12.618648001670206
30
0
10
-127.91100081559358
20
11.74342149364249
30
0
0
LINE
5
109
100
AcDbEntity
8
0
100
AcDbLine
10
-127.91100081559357
20
11.743421493642492
30
0
11
-126.34038178386828
21
10.892310654011506
31
0
0
SPLINE
5
110
100
AcDbEntity
8
0
100
AcDbSpline
70
0
71
3
72
8
73
4
74
0
42
0.000000001
43
0.0000000001
44
0.0000000001
40
-15
40
-15
40
-15
40
-15
40
-14.227398590386553
40
-14.227398590386553
40
-14.227398590386553
40
-14.227398590386553
10
-126.34038178386828
20
10.892310654011506
30
0
10
-116.62789092672355
20
5.6289604086125529
30
0
10
-105.32054193453831
20
2.4553462689813559
30
0
10
-92.016528655830498
20
1.2841639724688803
30
0
0
SPLINE
5
111
100
AcDbEntity
8
0
100
AcDbSpline
70
0
71
3
72
16
73
12
74
0
42
0.000000001
43
0.0000000001
44
0.0000000001
40
0
40
0
40
0
40
0
40
0.03906444733869395
40
0.03906444733869395
40
0.0781288946773884
40
0.0781288946773884
40
0.11719334201608106
40
0.11719334201608106
40
0.14174136425715414
40
0.14174136425715414
40
0.16628938649822489
40
0.16628938649822489
40
0.16628938649822489
40
0.16628938649822489
10
-90.928835541212493
20
2.2803115105618059
30
0
10
-90.928835541212493
20
2.1500966860994932
30
0
10
-90.954269391977107
20
2.0211267863316014
30
0
10
-91.05314160464701
20
1.7801954940494169
30
0
10
-91.125634694309653
20
1.6705375360070449
30
0
10
-91.308574003007564
20
1.4851816314015305
30
0
10
-91.417271222542084
20
1.411255788313186
30
0
10
-91.612363964551889
20
1.328186856602811
30
0
10
-91.691300934872515
20
1.3054920778967147
30
0
10
-91.852932189023164
20
1.279844471306131
30
0
10
-91.935017149428845
20
1.2769883307087448
30
0
10
-92.016528655830498
20
1.2841639724688478
30
0
0
LINE
5
112
100
AcDbEntity
8
0
100
AcDbLine
10
-90.928835541212493
20
2.2803115105618059
30
0
11
-90.928835541212521
21
8.3136734634319467
31
0
0
SPLINE
5
113
100
AcDbEntity
8
0
100
AcDbSpline
70
2
71
3
72
17
73
13
74
0
42
0.000000001
43
0.0000000001
44
0.0000000001
40
0
40
0
40
0
40
0
40
1
40
1
40
1
40
2
40
2
40
2
40
3
40
3
40
3
40
4
40
4
40
4
40
4
10
-98.548414161864486
20
6.8603213822437015
30
0
10
-98.548414161864486
20
7.7715746506436512
30
0
10
-97.809697430676422
20
8.5102913818313795
30
0
10
-96.898444162276803
20
8.5102913818313795
30
0
10
-95.987190893877198
20
8.5102913818313795
30
0
10
-95.248474162688481
20
7.7715746506436512
30
0
10
-95.248474162688481
20
6.8603213822437015
30
0
10
-95.248474162688481
20
5.9490681138437402
30
0
10
-95.987190893877198
20
5.21035138265505
30
0
10
-96.898444162276803
20
5.21035138265505
30
0
10
-97.809697430676422
20
5.21035138265505
30
0
10
-98.548414161864486
20
5.9490681138437402
30
0
10
-98.548414161864486
20
6.8603213822437015
30
0
0
SPLINE
5
114
100
AcDbEntity
8
0
100
AcDbSpline
70
2
71
3
72
17
73
13
74
0
42
0.000000001
43
0.0000000001
44
0.0000000001
40
0
40
0
40
0
40
0
40
1
40
1
40
1
40
2
40
2
40
2
40
3
40
3
40
3
40
4
40
4
40
4
40
4
10
-126.73771506501909
20
16.38758246253353
30
0
10
-126.73771506501909
20
17.298835730933494
30
0
10
-125.99899833383168
20
18.037552462121539
30
0
10
-125.08774506543141
20
18.037552462121539
30
0
10
-124.17649179703106
20
18.037552462121539
30
0
10
-123.43777506584372
20
17.298835730933494
30
0
10
-123.43777506584372
20
16.38758246253353
30
0
10
-123.43777506584372
20
15.476329194133566
30
0
10
-124.17649179703106
20
14.737612462945201
30
0
10
-125.08774506543141
20
14.737612462945201
30
0
10
-125.99899833383168
20
14.737612462945201
30
0
10
-126.73771506501909
20
15.476329194133566
30
0
10
-126.73771506501909
20
16.38758246253353
30
0
0
SPLINE
5
115
100
AcDbEntity
8
0
100
AcDbSpline
70
2
71
3
72
17
73
13
74
0
42
0.000000001
43
0.0000000001
44
0.0000000001
40
0
40
0
40
0
40
0
40
1
40
1
40
1
40
2
40
2
40
2
40
3
40
3
40
3
40
4
40
4
40
4
40
4
10
-127.17868727537768
20
60.618271870766556
30
0
10
-127.17868727537768
20
61.529525139166523
30
0
10
-126.4399705441903
20
62.268241870354558
30
0
10
-125.52871727579002
20
62.268241870354558
30
0
10
-124.6174640073898
20
62.268241870354558
30
0
10
-123.87874727620242
20
61.529525139166523
30
0
10
-123.87874727620242
20
60.618271870766556
30
0
10
-123.87874727620242
20
59.707018602366929
30
0
10
-124.6174640073898
20
58.968301871178568
30
0
10
-125.52871727579002
20
58.968301871178568
30
0
10
-126.4399705441903
20
58.968301871178568
30
0
10
-127.17868727537768
20
59.707018602366929
30
0
10
-127.17868727537768
20
60.618271870766556
30
0
0
SPLINE
5
116
100
AcDbEntity
8
0
100
AcDbSpline
70
2
71
3
72
17
73
13
74
0
42
0.000000001
43
0.0000000001
44
0.0000000001
40
0
40
0
40
0
40
0
40
1
40
1
40
1
40
2
40
2
40
2
40
3
40
3
40
3
40
4
40
4
40
4
40
4
10
-7.587020650361989
20
18.360933156484638
30
0
10
-7.587020650361989
20
19.272186424884595
30
0
10
-6.8483039191742705
20
20.01090315607264
30
0
10
-5.9370506507746317
20
20.01090315607264
30
0
10
-5.0257973823750017
20
20.01090315607264
30
0
10
-4.2870806511872717
20
19.272186424884595
30
0
10
-4.2870806511872717
20
18.360933156484638
30
0
10
-4.2870806511872717
20
17.449679888084681
30
0
10
-5.0257973823750017
20
16.710963156896309
30
0
10
-5.9370506507746317
20
16.710963156896309
30
0
10
-6.8483039191742705
20
16.710963156896309
30
0
10
-7.587020650361989
20
17.449679888084681
30
0
10
-7.587020650361989
20
18.360933156484638
30
0
0
LINE
5
117
100
AcDbEntity
8
0
100
AcDbLine
10
-148.02185388918565
20
94.11209241653863
30
0
11
-128.53143505352429
21
127.90434074292122
31
0
0
LINE
5
118
100
AcDbEntity
8
0
100
AcDbLine
10
-123.11267182373768
20
136.29378631710563
30
0
11
-125.71130734826158
21
137.79343638183482
31
0
0
LINE
5
119
100
AcDbEntity
8
0
100
AcDbLine
10
-8.2288358617921116
20
95.010566941537022
30
0
11
-8.2288371355281331
21
21.84595404113983
31
0
0
SPLINE
5
120
100
AcDbEntity
8
0
100
AcDbSpline
70
0
71
3
72
11
73
7
74
0
42
0.000000001
43
0.0000000001
44
0.0000000001
40
-14.300043471440706
40
-14.300043471440706
40
-14.300043471440706
40
-14.300043471440706
40
-14
40
-14
40
-14
40
-13
40
-13
40
-13
40
-13
10
-135.13513729561456
20
83.736302391468598
30
0
10
-138.58002390440197
20
86.184506542903534
30
0
10
-142.6618788873574
20
88.684105452834757
30
0
10
-147.29379169387408
20
91.384028053575292
30
0
10
-148.24522537352098
20
91.93861476582299
30
0
10
-148.57207430607539
20
93.158127028798376
30
0
10
-148.02185388918568
20
94.112092416538644
30
0
0
SPLINE
5
121
100
AcDbEntity
8
0
100
AcDbSpline
70
2
71
3
72
17
73
13
74
0
42
0.000000001
43
0.0000000001
44
0.0000000001
40
0
40
0
40
0
40
0
40
1
40
1
40
1
40
2
40
2
40
2
40
3
40
3
40
3
40
4
40
4
40
4
40
4
10
-153.12255304942207
20
91.371234057148939
30
0
10
-153.12255304942207
20
92.282487325548885
30
0
10
-152.38383631823464
20
93.021204056736934
30
0
10
-151.47258304983436
20
93.021204056736934
30
0
10
-150.56132978143418
20
93.021204056736934
30
0
10
-149.82261305024667
20
92.282487325548885
30
0
10
-149.82261305024667
20
91.371234057148939
30
0
10
-149.82261305024667
20
90.459980788748965
30
0
10
-150.56132978143418
20
89.72126405756093
30
0
10
-151.47258304983436
20
89.72126405756093
30
0
10
-152.38383631823464
20
89.72126405756093
30
0
10
-153.12255304942207
20
90.459980788748965
30
0
10
-153.12255304942207
20
91.371234057148939
30
0
0
LINE
5
122
100
AcDbEntity
8
0
100
AcDbLine
10
-72.202274159761274
20
97.006996596347534
30
0
11
-10.225265481608279
21
97.006996596347534
31
0
0
LINE
5
123
100
AcDbEntity
8
0
100
AcDbLine
10
-66.198316369216258
20
107.50692380335094
30
0
11
-66.198316369216258
21
118.13641056209634
31
0
0
LINE
5
124
100
AcDbEntity
8
0
100
AcDbLine
10
-77.928835544462203
20
7.7942270698406668
30
0
11
-77.928835544462203
21
1.7934059075757436
31
0
0
LINE
5
125
100
AcDbEntity
8
0
100
AcDbLine
10
-155.18237667683141
20
86.705254157193693
30
0
11
-152.5854637000501
21
85.205948602012981
31
0
0
SPLINE
5
126
100
AcDbEntity
8
0
100
AcDbSpline
70
0
71
3
72
8
73
4
74
0
42
0.000000001
43
0.0000000001
44
0.0000000001
40
-13.953254494689492
40
-13.953254494689492
40
-13.953254494689492
40
-13.953254494689492
40
-13
40
-13
40
-13
40
-13
10
-76.911075706437686
20
0.79356362593661312
30
0
10
-57.496497040525433
20
1.1384177881911444
30
0
10
-34.306604868079837
20
5.0041621509015757
30
0
10
-6.1499575517630696
20
12.581785479978027
30
0
0
LINE
5
127
100
AcDbEntity
8
0
100
AcDbLine
10
-5.2289112737815282
20
104.50692380335093
30
0
11
-63.198316369216258
21
104.50692380335093
31
0
0
SPLINE
5
128
100
AcDbEntity
8
0
100
AcDbSpline
70
2
71
3
72
17
73
13
74
0
42
0.000000001
43
0.0000000001
44
0.0000000001
40
0
40
0
40
0
40
0
40
1
40
1
40
1
40
2
40
2
40
2
40
3
40
3
40
3
40
4
40
4
40
4
40
4
10
-129.5819858976414
20
132.26405812800886
30
0
10
-129.5819858976414
20
133.17531139640914
30
0
10
-128.84326916645398
20
133.91402812759654
30
0
10
-127.93200936772703
20
133.91402812759654
30
0
10
-127.0207626296534
20
133.91402812759654
30
0
10
-126.28204589846602
20
133.17531139640914
30
0
10
-126.28204589846602
20
132.26405812800886
30
0
10
-126.28204589846602
20
131.35280485960851
30
0
10
-127.0207626296534
20
130.61408812842126
30
0
10
-127.93200936772703
20
130.61408812842126
30
0
10
-128.84326916645398
20
130.61408812842126
30
0
10
-129.5819858976414
20
131.35280485960851
30
0
10
-129.5819858976414
20
132.26405812800886
30
0
0
LINE
5
129
100
AcDbEntity
8
0
100
AcDbLine
10
-74.19827890218393
20
113.82526636242302
30
0
11
-74.198278841800686
21
99.00300127052104
31
0
0
SPLINE
5
130
100
AcDbEntity
8
0
100
AcDbSpline
70
0
71
3
72
11
73
7
74
0
42
0.000000001
43
0.0000000001
44
0.0000000001
40
-4
40
-4
40
-4
40
-4
40
-3
40
-3
40
-3
40
-2.455297936987245
40
-2.455297936987245
40
-2.455297936987245
40
-2.455297936987245
10
-8.2288371355281349
20
21.845954041139827
30
0
10
-8.2288371514348864
20
20.93850515539987
30
0
10
-8.8402839660734926
20
20.142038417460221
30
0
10
-9.7172051154467081
20
19.908644377233937
30
0
10
-33.722611562219754
20
13.519565037670425
30
0
10
-56.649127100854848
20
9.1657220698122757
30
0
10
-76.947142767686643
20
8.7940594785861581
30
0
0
SPLINE
5
131
100
AcDbEntity
8
0
100
AcDbSpline
70
0
71
3
72
17
73
13
74
0
42
0.000000001
43
0.0000000001
44
0.0000000001
40
0
40
0
40
0
40
0
40
1
40
1
40
1
40
2
40
2
40
2
40
3
40
3
40
3
40
4
40
4
40
4
40
4
10
-7.7854581503123814
20
98.639930403134542
30
0
10
-7.7854581503123814
20
99.551179460370719
30
0
10
-7.0467414191246629
20
100.28989619155811
30
0
10
-6.1354864553433286
20
100.28989619155811
30
0
10
-5.224234882325387
20
100.28989619155811
30
0
10
-4.4855181511376614
20
99.551179460370719
30
0
10
-4.4855181511376614
20
98.639930403134542
30
0
10
-4.4855181511376614
20
97.72867292357013
30
0
10
-5.224234882325387
20
96.989956192382735
30
0
10
-6.1354864553433286
20
96.989956192382735
30
0
10
-7.0467414191246629
20
96.989956192382735
30
0
10
-7.7854581503123814
20
97.72867292357013
30
0
10
-7.7854581503123814
20
98.639930403134542
30
0
0
SPLINE
5
132
100
AcDbEntity
8
0
100
AcDbSpline
70
0
71
3
72
8
73
4
74
0
42
0.000000001
43
0.0000000001
44
0.0000000001
40
-19
40
-19
40
-19
40
-19
40
-18.633951184225964
40
-18.633951184225964
40
-18.633951184225964
40
-18.633951184225964
10
-152.5854637000501
20
85.205948602012981
30
0
10
-147.11505460150539
20
82.047717073763067
30
0
10
-142.69407950517294
20
79.356593079092178
30
0
10
-139.28723987273787
20
76.92511955521428
30
0
0
SPLINE
5
133
100
AcDbEntity
8
0
100
AcDbSpline
70
2
71
3
72
17
73
13
74
0
42
0.000000001
43
0.0000000001
44
0.0000000001
40
0
40
0
40
0
40
0
40
1
40
1
40
1
40
2
40
2
40
2
40
3
40
3
40
3
40
4
40
4
40
4
40
4
10
-73.579153435736529
20
5.9608741865075672
30
0
10
-73.579153435736529
20
6.8721274549075284
30
0
10
-72.840436704548495
20
7.6108441860952469
30
0
10
-71.929183436149486
20
7.6108441860952469
30
0
10
-71.017930167749839
20
7.6108441860952469
30
0
10
-70.279213436562429
20
6.8721274549075284
30
0
10
-70.279213436562429
20
5.9608741865075672
30
0
10
-70.279213436562429
20
5.0496209181076086
30
0
10
-71.017930167749839
20
4.3109041869195686
30
0
10
-71.929183436149486
20
4.3109041869195686
30
0
10
-72.840436704548495
20
4.3109041869195686
30
0
10
-73.579153435736529
20
5.0496209181076086
30
0
10
-73.579153435736529
20
5.9608741865075672
30
0
0
SPLINE
5
134
100
AcDbEntity
8
0
100
AcDbSpline
70
0
71
3
72
16
73
12
74
0
42
0.000000001
43
0.0000000001
44
0.0000000001
40
0
40
0
40
0
40
0
40
0.039064447338691799
40
0.039064447338691799
40
0.078128894677382404
40
0.078128894677382404
40
0.11719334201607426
40
0.11719334201607426
40
0.14216593497397231
40
0.14216593497397231
40
0.16713852793187217
40
0.16713852793187217
40
0.16713852793187217
40
0.16713852793187217
10
-137.84029012030342
20
77.239077038834537
30
0
10
-137.90539753910588
20
77.126307696694766
30
0
10
-137.99190885563544
20
77.027333417595742
30
0
10
-138.19800035895489
20
76.868116916257051
30
0
10
-138.31561019864444
20
76.809396890549905
30
0
10
-138.56671824365421
20
76.74034363740158
30
0
10
-138.69781571919967
20
76.73067059669745
30
0
10
-138.90971033253035
20
76.756448081635625
30
0
10
-138.99076552807927
20
76.776779107741874
30
0
10
-139.14595531733542
20
76.837053778497264
30
0
10
-139.21948443879211
20
76.876762261795079
30
0
10
-139.28723987273787
20
76.925119555214309
30
0
0
LINE
5
135
100
AcDbEntity
8
0
100
AcDbLine
10
-137.84029012030342
20
77.239077038834537
30
0
11
-134.84840105899752
21
82.421180206254064
31
0
0
SPLINE
5
136
100
AcDbEntity
8
0
100
AcDbSpline
70
0
71
3
72
8
73
4
74
0
42
0.000000001
43
0.0000000001
44
0.0000000001
40
-6
40
-6
40
-6
40
-6
40
-5
40
-5
40
-5
40
-5
10
-66.198316369216258
20
118.13641056209634
30
0
10
-66.198316369216258
20
120.62687008838344
30
0
10
-67.985459652189618
20
122.70598521373172
30
0
10
-70.447841650271954
20
123.07977807388134
30
0
0
SPLINE
5
137
100
AcDbEntity
8
0
100
AcDbSpline
70
0
71
3
72
14
73
10
74
0
42
0.000000001
43
0.0000000001
44
0.0000000001
40
0
40
0
40
0
40
0
40
0.039064447338691882
40
0.039064447338691882
40
0.078128894677385347
40
0.078128894677385347
40
0.11310220914352384
40
0.11310220914352384
40
0.14807552360966178
40
0.14807552360966178
40
0.14807552360966178
40
0.14807552360966178
10
-135.13513729561456
20
83.736302391468598
30
0
10
-135.0289963099228
20
83.660870358046907
30
0
10
-134.93860364339182
20
83.565427801248191
30
0
10
-134.79949081295157
20
83.34526599155835
30
0
10
-134.7521006435237
20
83.222651605565289
30
0
10
-134.70934998668835
20
82.979590010864101
30
0
10
-134.70938783726899
20
82.862122798249885
30
0
10
-134.74992418066392
20
82.632518226654753
30
0
10
-134.79011219567087
20
82.522139465464832
30
0
10
-134.84840105899752
20
82.42118020625405
30
0
0
LINE
5
138
100
AcDbEntity
8
0
100
AcDbLine
10
-132.54224267641496
20
135.96133460277906
30
0
11
-157.01344492724158
21
93.533433408958842
31
0
0
SPLINE
5
139
100
AcDbEntity
8
0
100
AcDbSpline
70
0
71
3
72
14
73
10
74
0
42
0.000000001
43
0.0000000001
44
0.0000000001
40
-12
40
-12
40
-12
40
-12
40
-11
40
-11
40
-11
40
-10
40
-10
40
-10
40
-9
40
-9
40
-9
40
-9
10
-128.53143505352429
20
127.90434074292122
30
0
10
-127.98811284565318
20
128.84634610075582
30
0
10
-126.78980259746821
20
129.17673093330114
30
0
10
-125.83737170277678
20
128.65189904917654
30
0
10
-106.46178947803492
20
117.97508944367041
30
0
10
-90.670963888813091
20
117.84689959571122
30
0
10
-75.934303405964428
20
115.80832786300004
30
0
10
-74.941132653747843
20
115.67093921761563
30
0
10
-74.198278906134874
20
114.82789479955203
30
0
10
-74.19827890218393
20
113.82526636242302
30
0
0
ARC
5
140
100
AcDbEntity
8
0
100
AcDbCircle
10
-63.198316369216258
20
107.50692380335094
30
0
40
2.9999999999999982
210
0
220
0
230
1
100
AcDbArc
50
180
51
270
0
SPLINE
5
141
100
AcDbEntity
8
0
100
AcDbSpline
70
0
71
3
72
14
73
10
74
0
42
0.000000001
43
0.0000000001
44
0.0000000001
40
0
40
0
40
0
40
0
40
0.039064447338693312
40
0.039064447338693312
40
0.078128894677386665
40
0.078128894677386665
40
0.1171933420160802
40
0.1171933420160802
40
0.15573443825380986
40
0.15573443825380986
40
0.15573443825380986
40
0.15573443825380986
10
-77.928835544462203
20
7.7942270698406668
30
0
10
-77.928835544462203
20
7.9244418943029782
30
0
10
-77.903401693697575
20
8.0534117940708665
30
0
10
-77.804529481027686
20
8.2943430863530452
30
0
10
-77.732036391365057
20
8.4040010443954181
30
0
10
-77.549097082667132
20
8.5893569490009334
30
0
10
-77.440399863132612
20
8.6632827920892694
30
0
10
-77.202391837481287
20
8.764624708890862
30
0
10
-77.07559155797685
20
8.7917075437457068
30
0
10
-76.947142767686643
20
8.7940594785861705
30
0
0
SPLINE
5
142
100
AcDbEntity
8
0
100
AcDbSpline
70
2
71
3
72
17
73
13
74
0
42
0.000000001
43
0.0000000001
44
0.0000000001
40
0
40
0
40
0
40
0
40
1
40
1
40
1
40
2
40
2
40
2
40
3
40
3
40
3
40
4
40
4
40
4
40
4
10
-73.556465078313749
20
117.50641056225342
30
0
10
-73.556465078313749
20
118.41766383065371
30
0
10
-72.817748347126354
20
119.15638056184115
30
0
10
-71.906495078726721
20
119.15638056184115
30
0
10
-70.995241810327087
20
119.15638056184115
30
0
10
-70.256525079139678
20
118.41766383065371
30
0
10
-70.256525079139678
20
117.50641056225342
30
0
10
-70.256525079139678
20
116.59515729385312
30
0
10
-70.995241810327087
20
115.85644056266572
30
0
10
-71.906495078726721
20
115.85644056266572
30
0
10
-72.817748347126354
20
115.85644056266572
30
0
10
-73.556465078313749
20
116.59515729385312
30
0
10
-73.556465078313749
20
117.50641056225342
30
0
0
SPLINE
5
143
100
AcDbEntity
8
0
100
AcDbSpline
70
0
71
3
72
8
73
4
74
0
42
0.000000001
43
0.0000000001
44
0.0000000001
40
-12
40
-12
40
-12
40
-12
40
-11
40
-11
40
-11
40
-11
10
-3.9294212567452913
20
13.179337291894617
30
0
10
-1.7505706170990298
20
13.765864798258409
30
0
10
-0.22887194126417043
20
15.751273326407889
30
0
10
-0.22887194126417043
20
18.007638614472267
30
0
0
SPLINE
5
144
100
AcDbEntity
8
0
100
AcDbSpline
70
0
71
3
72
8
73
4
74
0
42
0.000000001
43
0.0000000001
44
0.0000000001
40
-10
40
-10
40
-10
40
-10
40
-9
40
-9
40
-9
40
-9
10
-0.22887194126417043
20
99.507056725607853
30
0
10
-0.22887194126417043
20
102.26416664245335
30
0
10
-2.4719736117103386
20
104.50692380335093
30
0
10
-5.2289112737815273
20
104.50692380335093
30
0
0
SPLINE
5
145
100
AcDbEntity
8
0
100
AcDbSpline
70
0
71
3
72
8
73
4
74
0
42
0.000000001
43
0.0000000001
44
0.0000000001
40
-21
40
-21
40
-21
40
-21
40
-20
40
-20
40
-20
40
-20
10
-157.01344492724158
20
93.533433408958842
30
0
10
-158.39010508314752
20
91.146154492454997
30
0
10
-157.56879431946393
20
88.082947841745082
30
0
10
-155.18237667683141
20
86.705254157193679
30
0
0
SPLINE
5
146
100
AcDbEntity
8
0
100
AcDbSpline
70
0
71
3
72
8
73
4
74
0
42
0.000000001
43
0.0000000001
44
0.0000000001
40
-6
40
-6
40
-6
40
-6
40
-5
40
-5
40
-5
40
-5
10
-10.225265481608281
20
97.006996596347534
30
0
10
-9.1226678348066841
20
97.006996596347534
30
0
10
-8.2288358424647807
20
96.113164588338208
30
0
10
-8.2288358617921116
20
95.010566941537022
30
0
0
LINE
5
147
100
AcDbEntity
8
0
100
AcDbLine
10
-70.447841650271954
20
123.07977807388134
30
0
11
-72.999107111873684
21
123.46700680642344
31
0
0
LINE
5
148
100
AcDbEntity
8
0
100
AcDbLine
10
-6.149957551763066
20
12.581785479978027
30
0
11
-3.9294212567452913
21
13.179337291894608
31
0
0
SPLINE
5
149
100
AcDbEntity
8
0
100
AcDbSpline
70
0
71
3
72
16
73
12
74
0
42
0.000000001
43
0.0000000001
44
0.0000000001
40
0
40
0
40
0
40
0
40
0.039064447338693034
40
0.039064447338693034
40
0.078128894677385402
40
0.078128894677385402
40
0.11719334201607824
40
0.11719334201607824
40
0.13822776222248429
40
0.13822776222248429
40
0.15926218242889009
40
0.15926218242889009
40
0.15926218242889009
40
0.15926218242889009
10
-76.911075706437686
20
0.79356362593661312
30
0
10
-77.041269993631317
20
0.79125103174576861
30
0
10
-77.170671253547937
20
0.81439038659522123
30
0
10
-77.413320501023748
20
0.90896810457582344
30
0
10
-77.524248629523029
20
0.97950225317424056
30
0
10
-77.712824272589884
20
1.1591208181415673
30
0
10
-77.788668901228078
20
1.2664879831297091
30
0
10
-77.870410623581279
20
1.4493820038876075
30
0
10
-77.892208495667319
20
1.5162261232961647
30
0
10
-77.921461430571895
20
1.6533704615205651
30
0
10
-77.928835544462217
20
1.723291173554391
30
0
10
-77.928835544462217
20
1.7934059075757436
30
0
0
ELLIPSE
5
150
100
AcDbEntity
8
0
100
AcDbEllipse
10
-128.124452161119
20
133.8240398175771
30
0
11
-4.6834684998770264
21
1.1229304061656062
31
0.0
40
0.96107521203052115
41
4.4128542359653853
42
4.9568903184883029
0
ELLIPSE
5
151
100
AcDbEntity
8
0
100
AcDbEllipse
10
-128.17681622795351
20
133.67860169510271
30
0
11
-4.855389726916278
21
0.68811601861204708
31
0.0
40
0.97516790717339608
41
4.8567100255351985
42
5.1245003191500169
0
SPLINE
5
152
100
AcDbEntity
8
0
100
AcDbSpline
70
0
71
3
72
8
73
4
74
0
42
0.000000001
43
0.0000000001
44
0.0000000001
40
-8
40
-8
40
-8
40
-8
40
-7
40
-7
40
-7
40
-7
10
-74.198278841800686
20
99.00300127052104
30
0
10
-74.1982788374564
20
97.900638327111551
30
0
10
-73.304637103170791
20
97.006996596347534
30
0
10
-72.202274159761274
20
97.006996596347534
30
0
0
LINE
5
153
100
AcDbEntity
8
0
100
AcDbLine
10
-0.22887194126417085
20
18.007638614472267
30
0
11
-0.22887194126417043
21
99.507056725607853
31
0
0
SPLINE
5
154
100
AcDbEntity
8
0
100
AcDbSpline
70
2
71
3
72
17
73
13
74
0
42
0.000000001
43
0.0000000001
44
0.0000000001
40
0
40
0
40
0
40
0
40
1
40
1
40
1
40
2
40
2
40
2
40
3
40
3
40
3
40
4
40
4
40
4
40
4
10
-142.51864659214658
20
83.984433579816596
30
0
10
-142.51864659214658
20
84.895686848216556
30
0
10
-141.7799298609593
20
85.634403579404619
30
0
10
-140.86867659255898
20
85.634403579404619
30
0
10
-139.95742332415867
20
85.634403579404619
30
0
10
-139.2187065929713
20
84.895686848216556
30
0
10
-139.2187065929713
20
83.984433579816596
30
0
10
-139.2187065929713
20
83.07318031141665
30
0
10
-139.95742332415867
20
82.334463580228601
30
0
10
-140.86867659255898
20
82.334463580228601
30
0
10
-141.7799298609593
20
82.334463580228601
30
0
10
-142.51864659214658
20
83.07318031141665
30
0
10
-142.51864659214658
20
83.984433579816596
30
0
0
ELLIPSE
5
155
100
AcDbEntity
8
0
100
AcDbEllipse
10
-127.58854257570343
20
132.65797067200225
30
0
11
3.6808064971017123
21
-4.7641914111013346
31
0.0
40
0.90536206757274018
41
2.7802509291159532
42
3.4977283547225082
0
SPLINE
5
156
100
AcDbEntity
8
0
100
AcDbSpline
70
0
71
3
72
11
73
7
74
0
42
0.000000001
43
0.0000000001
44
0.0000000001
40
-4
40
-4
40
-4
40
-4
40
-3
40
-3
40
-3
40
-2
40
-2
40
-2
40
-2
10
-72.999107111873684
20
123.46700680642344
30
0
10
-76.338782675274899
20
123.97309133320661
30
0
10
-79.705157191257925
20
124.34861359088316
30
0
10
-82.961289726570698
20
124.71171980524412
30
0
10
-95.198439125195193
20
126.07634023899963
30
0
10
-107.85193235272649
20
127.48708872816141
30
0
10
-123.11267182373768
20
136.29378631710563
30
0
0
ENDSEC
0
SECTION
2
OBJECTS
0
DICTIONARY
5
C
100
AcDbDictionary
3
ACAD_GROUP
350
D
3
ACAD_MLINESTYLE
350
17
0
DICTIONARY
5
D
100
AcDbDictionary
0
DICTIONARY
5
1A
330
C
100
AcDbDictionary
0
DICTIONARY
5
17
100
AcDbDictionary
0
ENDSEC
0
EOF
