0
SECTION
2
HEADER
9
$INSUNITS
70
4
9
$ACADVER
1
AC1014
9
$HANDSEED
5
FFFF
0
ENDSEC
0
SECTION
2
TABLES
0
TABLE
2
VPORT
5
8
100
AcDbSymbolTable
0
ENDTAB
0
TABLE
2
LTYPE
5
5
100
AcDbSymbolTable
0
LTYPE
5
14
100
AcDbSymbolTableRecord
100
AcDbLinetypeTableRecord
2
BYBLOCK
70
0
0
LTYPE
5
15
100
AcDbSymbolTableRecord
100
AcDbLinetypeTableRecord
2
BYLAYER
70
0
0
ENDTAB
0
TABLE
2
LAYER
5
2
100
AcDbSymbolTable
70
2
0
LAYER
5
50
100
AcDbSymbolTableRecord
100
AcDbLayerTableRecord
2
0
70
0
6
CONTINUOUS
0
ENDTAB
0
TABLE
2
STYLE
5
3
100
AcDbSymbolTable
70
1
0
STYLE
5
11
100
AcDbSymbolTableRecord
100
AcDbTextStyleTableRecord
2
STANDARD
70
0
0
ENDTAB
0
TABLE
2
VIEW
5
6
100
AcDbSymbolTable
70
0
0
ENDTAB
0
TABLE
2
UCS
5
7
100
AcDbSymbolTable
70
0
0
ENDTAB
0
TABLE
2
APPID
5
9
100
AcDbSymbolTable
70
2
0
APPID
5
12
100
AcDbSymbolTableRecord
100
AcDbRegAppTableRecord
2
ACAD
70
0
0
ENDTAB
0
TABLE
2
DIMSTYLE
5
A
100
AcDbSymbolTable
70
1
0
ENDTAB
0
TABLE
2
BLOCK_RECORD
5
1
100
AcDbSymbolTable
70
1
0
BLOCK_RECORD
5
1F
100
AcDbSymbolTableRecord
100
AcDbBlockTableRecord
2
*MODEL_SPACE
0
BLOCK_RECORD
5
1B
100
AcDbSymbolTableRecord
100
AcDbBlockTableRecord
2
*PAPER_SPACE
0
ENDTAB
0
ENDSEC
0
SECTION
2
BLOCKS
0
BLOCK
5
20
100
AcDbEntity
100
AcDbBlockBegin
2
*MODEL_SPACE
0
ENDBLK
5
21
100
AcDbEntity
100
AcDbBlockEnd
0
BLOCK
5
1C
100
AcDbEntity
100
AcDbBlockBegin
2
*PAPER_SPACE
0
ENDBLK
5
1D
100
AcDbEntity
100
AcDbBlockEnd
0
ENDSEC
0
SECTION
2
ENTITIES
0
SPLINE
5
100
100
AcDbEntity
8
0
100
AcDbSpline
70
2
71
3
72
17
73
13
74
0
42
0.000000001
43
0.0000000001
44
0.0000000001
40
0
40
0
40
0
40
0
40
1
40
1
40
1
40
2
40
2
40
2
40
3
40
3
40
3
40
4
40
4
40
4
40
4
10
-151.479588117275
20
-44.875445881436924
30
0
10
-151.479588117275
20
-44.295546894291682
30
0
10
-151.00948710468253
20
-43.825445881699174
30
0
10
-150.42958811753726
20
-43.825445881699174
30
0
10
-149.84968913039211
20
-43.825445881699174
30
0
10
-149.3795881177995
20
-44.295546894291682
30
0
10
-149.3795881177995
20
-44.875445881436924
30
0
10
-149.3795881177995
20
-45.455344868582152
30
0
10
-149.84968913039211
20
-45.925445881174639
30
0
10
-150.42958811753726
20
-45.925445881174639
30
0
10
-151.00948710468253
20
-45.925445881174639
30
0
10
-151.479588117275
20
-45.455344868582152
30
0
10
-151.479588117275
20
-44.875445881436924
30
0
0
SPLINE
5
101
100
AcDbEntity
8
0
100
AcDbSpline
70
2
71
3
72
17
73
13
74
0
42
0.000000001
43
0.0000000001
44
0.0000000001
40
0
40
0
40
0
40
0
40
1
40
1
40
1
40
2
40
2
40
2
40
3
40
3
40
3
40
4
40
4
40
4
40
4
10
-71.936188503589477
20
-130.28580575207823
30
0
10
-71.936188503589477
20
-129.70590676493308
30
0
10
-71.466087490996841
20
-129.23580575234055
30
0
10
-70.88618850385231
20
-129.23580575234055
30
0
10
-70.306289516707096
20
-129.23580575234055
30
0
10
-69.836188504114602
20
-129.70590676493308
30
0
10
-69.836188504114602
20
-130.28580575207823
30
0
10
-69.836188504114602
20
-130.86570473922359
30
0
10
-70.306289516707096
20
-131.33580575181605
30
0
10
-70.88618850385231
20
-131.33580575181605
30
0
10
-71.466087490996841
20
-131.33580575181605
30
0
10
-71.936188503589477
20
-130.86570473922359
30
0
10
-71.936188503589477
20
-130.28580575207823
30
0
0
LWPOLYLINE
5
102
100
AcDbEntity
8
0
100
AcDbPolyline
90
12
70
1
43
0.0
10
-90.321682322491554
20
-26.275999703448633
10
-91.121685329014568
20
-26.275999703448633
10
-91.121685329014568
20
-38.926000514055026
10
-90.321682322491554
20
-38.926000514055026
10
-90.321682322491554
20
-39.525998954250241
10
-76.471684631494767
20
-39.525998954250241
10
-76.471684631494767
20
-38.926000514055026
10
-75.67168925436583
20
-38.926000514055026
10
-75.67168925436583
20
-26.275999703448633
10
-76.471684631494767
20
-26.275999703448633
10
-76.471684631494767
20
-25.676001263253426
10
-90.321682322491554
20
-25.676001263253426
0
LWPOLYLINE
5
103
100
AcDbEntity
8
0
100
AcDbPolyline
90
12
70
1
43
0.0
10
-80.796688964581591
20
-106.63799657858505
10
-80.796688964581591
20
-107.23799692612894
10
-81.5966843417105
20
-107.23799692612894
10
-81.5966843417105
20
-119.88799582938665
10
-80.796688964581591
20
-119.88799582938665
10
-80.796688964581591
20
-120.48799522325635
10
-66.946683644190657
20
-120.48799522325635
10
-66.946683644190657
20
-119.88799582938665
10
-66.146688267061649
20
-119.88799582938665
10
-66.146688267061649
20
-107.23799692612894
10
-66.946683644190657
20
-107.23799692612894
10
-66.946683644190657
20
-106.63799657858505
0
LWPOLYLINE
5
104
100
AcDbEntity
8
0
100
AcDbPolyline
90
12
70
1
43
0.0
10
-104.24668458688416
20
-102.47599615779075
10
-105.04668759340717
20
-102.47599615779075
10
-105.04668759340717
20
-101.87599581024655
10
-118.89668528440396
20
-101.87599581024655
10
-118.89668528440396
20
-102.47599615779075
10
-119.69668066153282
20
-102.47599615779075
10
-119.69668066153282
20
-115.12599601472266
10
-118.89668528440396
20
-115.12599601472266
10
-118.89668528440396
20
-115.72599540859203
10
-105.04668759340717
20
-115.72599540859203
10
-105.04668759340717
20
-115.12599601472266
10
-104.24668458688416
20
-115.12599601472266
0
LWPOLYLINE
5
105
100
AcDbEntity
8
0
100
AcDbPolyline
90
12
70
1
43
0.0
10
-28.846689231716702
20
-112.74499563055335
10
-28.046688132542528
20
-112.74499563055335
10
-28.046688132542528
20
-100.09499577362124
10
-28.846689231716702
20
-100.09499577362124
10
-28.846689231716702
20
-99.494997333425943
10
-42.696688830061795
20
-99.494997333425943
10
-42.696688830061795
20
-100.09499577362124
10
-43.496688021888055
20
-100.09499577362124
10
-43.496688021888055
20
-112.74499563055335
10
-42.696688830061795
20
-112.74499563055335
10
-42.696688830061795
20
-113.34499597809696
10
-28.846689231716702
20
-113.34499597809696
0
LWPOLYLINE
5
106
100
AcDbEntity
8
0
100
AcDbPolyline
90
12
70
1
43
0.0
10
-99.846683309795665
20
-80.006999472938958
10
-85.996685618798878
20
-80.006999472938958
10
-85.996685618798878
20
-79.406997218046982
10
-85.196682612275865
20
-79.406997218046982
10
-85.196682612275865
20
-66.757000222137322
10
-85.996685618798878
20
-66.757000222137322
10
-85.996685618798878
20
-66.156997967245402
10
-99.846683309795665
20
-66.156997967245402
10
-99.846683309795665
20
-66.757000222137322
10
-100.64668631631868
20
-66.757000222137322
10
-100.64668631631868
20
-79.406997218046982
10
-99.846683309795665
20
-79.406997218046982
0
SPLINE
5
107
100
AcDbEntity
8
0
100
AcDbSpline
70
2
71
3
72
17
73
13
74
0
42
0.000000001
43
0.0000000001
44
0.0000000001
40
0
40
0
40
0
40
0
40
1
40
1
40
1
40
2
40
2
40
2
40
3
40
3
40
3
40
4
40
4
40
4
40
4
10
-125.53572234323063
20
-75.628408067819322
30
0
10
-125.53572234323063
20
-75.04850908067408
30
0
10
-125.06562133063809
20
-74.578408068081529
30
0
10
-124.48572234349285
20
-74.578408068081529
30
0
10
-123.90582335634761
20
-74.578408068081529
30
0
10
-123.43572234375507
20
-75.04850908067408
30
0
10
-123.43572234375507
20
-75.628408067819322
30
0
10
-123.43572234375507
20
-76.20830705496418
30
0
10
-123.90582335634761
20
-76.678408067557029
30
0
10
-124.48572234349285
20
-76.678408067557029
30
0
10
-125.06562133063809
20
-76.678408067557029
30
0
10
-125.53572234323063
20
-76.20830705496418
30
0
10
-125.53572234323063
20
-75.628408067819322
30
0
0
SPLINE
5
108
100
AcDbEntity
8
0
100
AcDbSpline
70
2
71
3
72
17
73
13
74
0
42
0.000000001
43
0.0000000001
44
0.0000000001
40
0
40
0
40
0
40
0
40
1
40
1
40
1
40
2
40
2
40
2
40
3
40
3
40
3
40
4
40
4
40
4
40
4
10
-96.90544922971732
20
-129.38635855634217
30
0
10
-96.90544922971732
20
-128.80645956919696
30
0
10
-96.435348217124854
20
-128.33635855660444
30
0
10
-95.855449229979612
20
-128.33635855660444
30
0
10
-95.27555024283437
20
-128.33635855660444
30
0
10
-94.805449230241905
20
-128.80645956919696
30
0
10
-94.805449230241905
20
-129.38635855634217
30
0
10
-94.805449230241905
20
-129.96625754348736
30
0
10
-95.27555024283437
20
-130.43635855607994
30
0
10
-95.855449229979612
20
-130.43635855607994
30
0
10
-96.435348217124854
20
-130.43635855607994
30
0
10
-96.90544922971732
20
-129.96625754348736
30
0
10
-96.90544922971732
20
-129.38635855634217
30
0
0
LWPOLYLINE
5
109
100
AcDbEntity
8
0
100
AcDbPolyline
90
12
70
1
43
0.0
10
-42.696688830061795
20
-42.944997479190583
10
-43.496688021888055
20
-42.944997479190583
10
-43.496688021888055
20
-55.594998289796955
10
-42.696688830061795
20
-55.594998289796955
10
-42.696688830061795
20
-56.194996729992177
10
-28.846689231716702
20
-56.194996729992177
10
-28.846689231716702
20
-55.594998289796955
10
-28.046688132542528
20
-55.594998289796955
10
-28.046688132542528
20
-42.944997479190583
10
-28.846689231716702
20
-42.944997479190583
10
-28.846689231716702
20
-42.344999038995354
10
-42.696688830061795
20
-42.344999038995354
0
SPLINE
5
110
100
AcDbEntity
8
0
100
AcDbSpline
70
2
71
3
72
17
73
13
74
0
42
0.000000001
43
0.0000000001
44
0.0000000001
40
0
40
0
40
0
40
0
40
1
40
1
40
1
40
2
40
2
40
2
40
3
40
3
40
3
40
4
40
4
40
4
40
4
10
-71.913500146167308
20
-18.740269376332414
30
0
10
-71.913500146167308
20
-18.160370389187182
30
0
10
-71.443399133574815
20
-17.690269376594681
30
0
10
-70.863500146429459
20
-17.690269376594681
30
0
10
-70.283601159284245
20
-17.690269376594681
30
0
10
-69.81350014669178
20
-18.160370389187182
30
0
10
-69.81350014669178
20
-18.740269376332414
30
0
10
-69.81350014669178
20
-19.320168363477652
30
0
10
-70.283601159284245
20
-19.790269376070153
30
0
10
-70.863500146429459
20
-19.790269376070153
30
0
10
-71.443399133574815
20
-19.790269376070153
30
0
10
-71.913500146167308
20
-19.320168363477652
30
0
10
-71.913500146167308
20
-18.740269376332414
30
0
0
LWPOLYLINE
5
111
100
AcDbEntity
8
0
100
AcDbPolyline
90
12
70
1
43
0.0
10
-61.746686989973263
20
-47.106999807333878
10
-61.746686989973263
20
-47.706998247529093
10
-62.546686181799629
20
-47.706998247529093
10
-62.546686181799629
20
-60.356999058135479
10
-61.746686989973263
20
-60.356999058135479
10
-61.746686989973263
20
-60.956997498330679
10
-47.89668929897644
20
-60.956997498330679
10
-47.89668929897644
20
-60.356999058135479
10
-47.096686292453498
20
-60.356999058135479
10
-47.096686292453498
20
-47.706998247529093
10
-47.89668929897644
20
-47.706998247529093
10
-47.89668929897644
20
-47.106999807333878
0
LWPOLYLINE
5
112
100
AcDbEntity
8
0
100
AcDbPolyline
90
12
70
1
43
0.0
10
-109.37168429709978
20
-37.145002384778032
10
-95.521686606102989
20
-37.145002384778032
10
-95.521686606102989
20
-36.545003944582817
10
-94.721683599579976
20
-36.545003944582817
10
-94.721683599579976
20
-23.895003133976431
10
-95.521686606102989
20
-23.895003133976431
10
-95.521686606102989
20
-23.295004693781209
10
-109.37168429709978
20
-23.295004693781209
10
-109.37168429709978
20
-23.895003133976431
10
-110.17168730362279
20
-23.895003133976431
10
-110.17168730362279
20
-36.545003944582817
10
-109.37168429709978
20
-36.545003944582817
0
LWPOLYLINE
5
113
100
AcDbEntity
8
0
100
AcDbPolyline
90
12
70
1
43
0.0
10
-66.146688267061649
20
-62.737995627607702
10
-66.146688267061649
20
-50.088002446395393
10
-66.946683644190657
20
-50.088002446395393
10
-66.946683644190657
20
-49.48799637680608
10
-80.796688964581591
20
-49.48799637680608
10
-80.796688964581591
20
-50.088002446395393
10
-81.5966843417105
20
-50.088002446395393
10
-81.5966843417105
20
-62.737995627607702
10
-80.796688964581591
20
-62.737995627607702
10
-80.796688964581591
20
-63.338001697197001
10
-66.946683644190657
20
-63.338001697197001
10
-66.946683644190657
20
-62.737995627607702
0
SPLINE
5
114
100
AcDbEntity
8
0
100
AcDbSpline
70
2
71
3
72
17
73
13
74
0
42
0.000000001
43
0.0000000001
44
0.0000000001
40
0
40
0
40
0
40
0
40
1
40
1
40
1
40
2
40
2
40
2
40
3
40
3
40
3
40
4
40
4
40
4
40
4
10
-127.93902096549431
20
-3.9826218105769851
30
0
10
-127.93902096549431
20
-3.4027228234317564
30
0
10
-127.46891995290163
20
-2.9326218108392466
30
0
10
-126.88901681001859
20
-2.9326218108392466
30
0
10
-126.30912197861136
20
-2.9326218108392466
30
0
10
-125.83902096601875
20
-3.4027228234317564
30
0
10
-125.83902096601875
20
-3.9826218105769851
30
0
10
-125.83902096601875
20
-4.5625207977222138
30
0
10
-126.30912197861136
20
-5.0326218103147236
30
0
10
-126.88901681001859
20
-5.0326218103147236
30
0
10
-127.46891995290163
20
-5.0326218103147236
30
0
10
-127.93902096549431
20
-4.5625207977222138
30
0
10
-127.93902096549431
20
-3.9826218105769851
30
0
0
SPLINE
5
115
100
AcDbEntity
8
0
100
AcDbSpline
70
2
71
3
72
17
73
13
74
0
42
0.000000001
43
0.0000000001
44
0.0000000001
40
0
40
0
40
0
40
0
40
1
40
1
40
1
40
2
40
2
40
2
40
3
40
3
40
3
40
4
40
4
40
4
40
4
10
-140.87568165999954
20
-52.262246358769247
30
0
10
-140.87568165999954
20
-51.682347371623692
30
0
10
-140.40558064740694
20
-51.212246359031532
30
0
10
-139.82568166026175
20
-51.212246359031532
30
0
10
-139.24578267311665
20
-51.212246359031532
30
0
10
-138.77568166052413
20
-51.682347371623692
30
0
10
-138.77568166052413
20
-52.262246358769247
30
0
10
-138.77568166052413
20
-52.842145345914169
30
0
10
-139.24578267311665
20
-53.312246358506684
30
0
10
-139.82568166026175
20
-53.312246358506684
30
0
10
-140.40558064740694
20
-53.312246358506684
30
0
10
-140.87568165999954
20
-52.842145345914169
30
0
10
-140.87568165999954
20
-52.262246358769247
30
0
0
SPLINE
5
116
100
AcDbEntity
8
0
100
AcDbSpline
70
0
71
3
72
17
73
13
74
0
42
0.000000001
43
0.0000000001
44
0.0000000001
40
0
40
0
40
0
40
0
40
1
40
1
40
1
40
2
40
2
40
2
40
3
40
3
40
3
40
4
40
4
40
4
40
4
10
-6.1424932181655834
20
-37.606751066735178
30
0
10
-6.1424932181655834
20
-37.026854759470169
30
0
10
-5.6723922055730824
20
-36.556753746877646
30
0
10
-5.0924921395289857
20
-36.556753746877646
30
0
10
-4.5125942312825629
20
-36.556753746877646
30
0
10
-4.042493218690062
20
-37.026854759470169
30
0
10
-4.042493218690062
20
-37.606751066735178
30
0
10
-4.042493218690062
20
-38.186652733760631
30
0
10
-4.5125942312825629
20
-38.656753746353154
30
0
10
-5.0924921395289857
20
-38.656753746353154
30
0
10
-5.6723922055730824
20
-38.656753746353154
30
0
10
-6.1424932181655834
20
-38.186652733760631
30
0
10
-6.1424932181655834
20
-37.606751066735178
30
0
0
LWPOLYLINE
5
117
100
AcDbEntity
8
0
100
AcDbPolyline
90
12
70
1
43
0.0
10
-8.9966899726310601
20
-55.594998289796955
10
-8.9966899726310601
20
-42.944997479190583
10
-9.7966901181312949
20
-42.944997479190583
10
-9.7966901181312949
20
-42.344999038995354
10
-23.646688762802555
20
-42.344999038995354
10
-23.646688762802555
20
-42.944997479190583
10
-24.446689861976587
20
-42.944997479190583
10
-24.446689861976587
20
-55.594998289796955
10
-23.646688762802555
20
-55.594998289796955
10
-23.646688762802555
20
-56.194996729992177
10
-9.7966901181312949
20
-56.194996729992177
10
-9.7966901181312949
20
-55.594998289796955
0
LWPOLYLINE
5
118
100
AcDbEntity
8
0
100
AcDbPolyline
90
12
70
1
43
0.0
10
-104.24668458688416
20
-77.0259968338774
10
-104.24668458688416
20
-64.37599983796774
10
-105.04668759340717
20
-64.37599983796774
10
-105.04668759340717
20
-63.775997583075807
10
-118.89668528440396
20
-63.775997583075807
10
-118.89668528440396
20
-64.37599983796774
10
-119.69668066153282
20
-64.37599983796774
10
-119.69668066153282
20
-77.0259968338774
10
-118.89668528440396
20
-77.0259968338774
10
-118.89668528440396
20
-77.625999088769362
10
-105.04668759340717
20
-77.625999088769362
10
-105.04668759340717
20
-77.0259968338774
0
SPLINE
5
119
100
AcDbEntity
8
0
100
AcDbSpline
70
2
71
3
72
17
73
13
74
0
42
0.000000001
43
0.0000000001
44
0.0000000001
40
0
40
0
40
0
40
0
40
1
40
1
40
1
40
2
40
2
40
2
40
3
40
3
40
3
40
4
40
4
40
4
40
4
10
-5.9440557182151821
20
-117.88574678210125
30
0
10
-5.9440557182151821
20
-117.30584779495594
30
0
10
-5.4739547056226456
20
-116.83574678236346
30
0
10
-4.8940557184774747
20
-116.83574678236346
30
0
10
-4.3141567313321616
20
-116.83574678236346
30
0
10
-3.8440557187396607
20
-117.30584779495594
30
0
10
-3.8440557187396607
20
-117.88574678210125
30
0
10
-3.8440557187396607
20
-118.46564576924646
30
0
10
-4.3141567313321616
20
-118.93574678183896
30
0
10
-4.8940557184774747
20
-118.93574678183896
30
0
10
-5.4739547056226456
20
-118.93574678183896
30
0
10
-5.9440557182151821
20
-118.46564576924646
30
0
10
-5.9440557182151821
20
-117.88574678210125
30
0
0
LWPOLYLINE
5
120
100
AcDbEntity
8
0
100
AcDbPolyline
90
12
70
1
43
0.0
10
-119.69668066153282
20
-57.976002488663255
10
-118.89668528440396
20
-57.976002488663255
10
-118.89668528440396
20
-58.576000928859116
10
-105.04668759340717
20
-58.576000928859116
10
-105.04668759340717
20
-57.976002488663255
10
-104.24668458688416
20
-57.976002488663255
10
-104.24668458688416
20
-45.326001678057523
10
-105.04668759340717
20
-45.326001678057523
10
-105.04668759340717
20
-44.726003237861676
10
-118.89668528440396
20
-44.726003237861676
10
-118.89668528440396
20
-45.326001678057523
10
-119.69668066153282
20
-45.326001678057523
0
LWPOLYLINE
5
121
100
AcDbEntity
8
0
100
AcDbPolyline
90
12
70
1
43
0.0
10
-100.64668631631868
20
-85.806998382048249
10
-100.64668631631868
20
-98.456997285306258
10
-99.846683309795665
20
-98.456997285306258
10
-99.846683309795665
20
-99.056995725501466
10
-85.996685618798878
20
-99.056995725501466
10
-85.996685618798878
20
-98.456997285306258
10
-85.196682612275865
20
-98.456997285306258
10
-85.196682612275865
20
-85.806998382048249
10
-85.996685618798878
20
-85.806998382048249
10
-85.996685618798878
20
-85.206996127156245
10
-99.846683309795665
20
-85.206996127156245
10
-99.846683309795665
20
-85.806998382048249
0
LWPOLYLINE
5
122
100
AcDbEntity
8
0
100
AcDbPolyline
90
12
70
1
43
0.0
10
-62.546686181799629
20
-98.456997285306258
10
-61.746686989973263
20
-98.456997285306258
10
-61.746686989973263
20
-99.056995725501466
10
-47.89668929897644
20
-99.056995725501466
10
-47.89668929897644
20
-98.456997285306258
10
-47.096686292453498
20
-98.456997285306258
10
-47.096686292453498
20
-85.806998382048249
10
-47.89668929897644
20
-85.806998382048249
10
-47.89668929897644
20
-85.206996127156245
10
-61.746686989973263
20
-85.206996127156245
10
-61.746686989973263
20
-85.806998382048249
10
-62.546686181799629
20
-85.806998382048249
0
LWPOLYLINE
5
123
100
AcDbEntity
8
0
100
AcDbPolyline
90
12
70
1
43
0.0
10
-42.696688830061795
20
-61.39500101360359
10
-42.696688830061795
20
-61.994999453798805
10
-43.496688021888055
20
-61.994999453798805
10
-43.496688021888055
20
-74.644996449708145
10
-42.696688830061795
20
-74.644996449708145
10
-42.696688830061795
20
-75.244998704600391
10
-28.846689231716702
20
-75.244998704600391
10
-28.846689231716702
20
-74.644996449708145
10
-28.046688132542528
20
-74.644996449708145
10
-28.046688132542528
20
-61.994999453798805
10
-28.846689231716702
20
-61.994999453798805
10
-28.846689231716702
20
-61.39500101360359
0
LWPOLYLINE
5
124
100
AcDbEntity
8
0
100
AcDbPolyline
90
12
70
1
43
0.0
10
-105.04668759340717
20
-96.075994993788242
10
-104.24668458688416
20
-96.075994993788242
10
-104.24668458688416
20
-83.42599799787925
10
-105.04668759340717
20
-83.42599799787925
10
-105.04668759340717
20
-82.825995742986649
10
-118.89668528440396
20
-82.825995742986649
10
-118.89668528440396
20
-83.42599799787925
10
-119.69668066153282
20
-83.42599799787925
10
-119.69668066153282
20
-96.075994993788242
10
-118.89668528440396
20
-96.075994993788242
10
-118.89668528440396
20
-96.675997248680844
10
-105.04668759340717
20
-96.675997248680844
0
LWPOLYLINE
5
125
100
AcDbEntity
8
0
100
AcDbPolyline
90
12
70
1
43
0.0
10
-62.546686181799629
20
-79.406997218046982
10
-61.746686989973263
20
-79.406997218046982
10
-61.746686989973263
20
-80.006999472938958
10
-47.89668929897644
20
-80.006999472938958
10
-47.89668929897644
20
-79.406997218046982
10
-47.096686292453498
20
-79.406997218046982
10
-47.096686292453498
20
-66.757000222137322
10
-47.89668929897644
20
-66.757000222137322
10
-47.89668929897644
20
-66.156997967245402
10
-61.746686989973263
20
-66.156997967245402
10
-61.746686989973263
20
-66.757000222137322
10
-62.546686181799629
20
-66.757000222137322
0
LWPOLYLINE
5
126
100
AcDbEntity
8
0
100
AcDbPolyline
90
12
70
1
43
0.0
10
-100.64668631631868
20
-104.85699654195976
10
-100.64668631631868
20
-117.50699544521777
10
-99.846683309795665
20
-117.50699544521777
10
-99.846683309795665
20
-118.10699579276134
10
-85.996685618798878
20
-118.10699579276134
10
-85.996685618798878
20
-117.50699544521777
10
-85.196682612275865
20
-117.50699544521777
10
-85.196682612275865
20
-104.85699654195976
10
-85.996685618798878
20
-104.85699654195976
10
-85.996685618798878
20
-104.25699619441616
10
-99.846683309795665
20
-104.25699619441616
10
-99.846683309795665
20
-104.85699654195976
0
LWPOLYLINE
5
127
100
AcDbEntity
8
0
100
AcDbPolyline
90
12
70
1
43
0.0
10
-9.7966901181312949
20
-99.494997333425943
10
-23.646688762802555
20
-99.494997333425943
10
-23.646688762802555
20
-100.09499577362124
10
-24.446689861976587
20
-100.09499577362124
10
-24.446689861976587
20
-112.74499563055335
10
-23.646688762802555
20
-112.74499563055335
10
-23.646688762802555
20
-113.34499597809696
10
-9.7966901181312949
20
-113.34499597809696
10
-9.7966901181312949
20
-112.74499563055335
10
-8.9966899726310601
20
-112.74499563055335
10
-8.9966899726310601
20
-100.09499577362124
10
-9.7966901181312949
20
-100.09499577362124
0
SPLINE
5
128
100
AcDbEntity
8
0
100
AcDbSpline
70
2
71
3
72
17
73
13
74
0
42
0.000000001
43
0.0000000001
44
0.0000000001
40
0
40
0
40
0
40
0
40
1
40
1
40
1
40
2
40
2
40
2
40
3
40
3
40
3
40
4
40
4
40
4
40
4
10
-125.09475013287194
20
-119.85909747605234
30
0
10
-125.09475013287194
20
-119.27919848890703
30
0
10
-124.62464912027947
20
-118.80909747631455
30
0
10
-124.04475013313416
20
-118.80909747631455
30
0
10
-123.46485114598899
20
-118.80909747631455
30
0
10
-122.99475013339652
20
-119.27919848890703
30
0
10
-122.99475013339652
20
-119.85909747605234
30
0
10
-122.99475013339652
20
-120.43899646319755
30
0
10
-123.46485114598899
20
-120.90909747579005
30
0
10
-124.04475013313416
20
-120.90909747579005
30
0
10
-124.62464912027947
20
-120.90909747579005
30
0
10
-125.09475013287194
20
-120.43899646319755
30
0
10
-125.09475013287194
20
-119.85909747605234
30
0
0
LWPOLYLINE
5
129
100
AcDbEntity
8
0
100
AcDbPolyline
90
12
70
1
43
0.0
10
-8.9966899726310601
20
-74.644996449708145
10
-8.9966899726310601
20
-61.994999453798805
10
-9.7966901181312949
20
-61.994999453798805
10
-9.7966901181312949
20
-61.39500101360359
10
-23.646688762802555
20
-61.39500101360359
10
-23.646688762802555
20
-61.994999453798805
10
-24.446689861976587
20
-61.994999453798805
10
-24.446689861976587
20
-74.644996449708145
10
-23.646688762802555
20
-74.644996449708145
10
-23.646688762802555
20
-75.244998704600391
10
-9.7966901181312949
20
-75.244998704600391
10
-9.7966901181312949
20
-74.644996449708145
0
LWPOLYLINE
5
130
100
AcDbEntity
8
0
100
AcDbPolyline
90
12
70
1
43
0.0
10
-23.646688762802555
20
-93.694998424316026
10
-23.646688762802555
20
-94.294996864511958
10
-9.7966901181312949
20
-94.294996864511958
10
-9.7966901181312949
20
-93.694998424316026
10
-8.9966899726310601
20
-93.694998424316026
10
-8.9966899726310601
20
-81.044997613710308
10
-9.7966901181312949
20
-81.044997613710308
10
-9.7966901181312949
20
-80.444999173514461
10
-23.646688762802555
20
-80.444999173514461
10
-23.646688762802555
20
-81.044997613710308
10
-24.446689861976587
20
-81.044997613710308
10
-24.446689861976587
20
-93.694998424316026
0
LWPOLYLINE
5
131
100
AcDbEntity
8
0
100
AcDbPolyline
90
12
70
1
43
0.0
10
-66.946683644190657
20
-69.137996791609538
10
-66.946683644190657
20
-68.537998351414302
10
-80.796688964581591
20
-68.537998351414302
10
-80.796688964581591
20
-69.137996791609538
10
-81.5966843417105
20
-69.137996791609538
10
-81.5966843417105
20
-81.787997602215938
10
-80.796688964581591
20
-81.787997602215938
10
-80.796688964581591
20
-82.38799604241116
10
-66.946683644190657
20
-82.38799604241116
10
-66.946683644190657
20
-81.787997602215938
10
-66.146688267061649
20
-81.787997602215938
10
-66.146688267061649
20
-69.137996791609538
0
LWPOLYLINE
5
132
100
AcDbEntity
8
0
100
AcDbPolyline
90
12
70
1
43
0.0
10
-28.846689231716702
20
-94.294996864511958
10
-28.846689231716702
20
-93.694998424316026
10
-28.046688132542528
20
-93.694998424316026
10
-28.046688132542528
20
-81.044997613710308
10
-28.846689231716702
20
-81.044997613710308
10
-28.846689231716702
20
-80.444999173514461
10
-42.696688830061795
20
-80.444999173514461
10
-42.696688830061795
20
-81.044997613710308
10
-43.496688021888055
20
-81.044997613710308
10
-43.496688021888055
20
-93.694998424316026
10
-42.696688830061795
20
-93.694998424316026
10
-42.696688830061795
20
-94.294996864511958
0
LWPOLYLINE
5
133
100
AcDbEntity
8
0
100
AcDbPolyline
90
12
70
1
43
0.0
10
-80.796688964581591
20
-101.43799610967106
10
-66.946683644190657
20
-101.43799610967106
10
-66.946683644190657
20
-100.83799576212746
10
-66.146688267061649
20
-100.83799576212746
10
-66.146688267061649
20
-88.187998766217746
10
-66.946683644190657
20
-88.187998766217746
10
-66.946683644190657
20
-87.587996511325841
10
-80.796688964581591
20
-87.587996511325841
10
-80.796688964581591
20
-88.187998766217746
10
-81.5966843417105
20
-88.187998766217746
10
-81.5966843417105
20
-100.83799576212746
10
-80.796688964581591
20
-100.83799576212746
0
LWPOLYLINE
5
134
100
AcDbEntity
8
0
100
AcDbPolyline
90
12
70
1
43
0.0
10
-47.89668929897644
20
-104.85699654195976
10
-47.89668929897644
20
-104.25699619441616
10
-61.746686989973263
20
-104.25699619441616
10
-61.746686989973263
20
-104.85699654195976
10
-62.546686181799629
20
-104.85699654195976
10
-62.546686181799629
20
-117.50699544521777
10
-61.746686989973263
20
-117.50699544521777
10
-61.746686989973263
20
-118.10699579276134
10
-47.89668929897644
20
-118.10699579276134
10
-47.89668929897644
20
-117.50699544521777
10
-47.096686292453498
20
-117.50699544521777
10
-47.096686292453498
20
-104.85699654195976
0
LWPOLYLINE
5
135
100
AcDbEntity
8
0
100
AcDbPolyline
90
12
70
1
43
0.0
10
-99.846683309795665
20
-47.106999807333878
10
-99.846683309795665
20
-47.706998247529093
10
-100.64668631631868
20
-47.706998247529093
10
-100.64668631631868
20
-60.356999058135479
10
-99.846683309795665
20
-60.356999058135479
10
-99.846683309795665
20
-60.956997498330679
10
-85.996685618798878
20
-60.956997498330679
10
-85.996685618798878
20
-60.356999058135479
10
-85.196682612275865
20
-60.356999058135479
10
-85.196682612275865
20
-47.706998247529093
10
-85.996685618798878
20
-47.706998247529093
10
-85.996685618798878
20
-47.106999807333878
0
LWPOLYLINE
5
136
100
AcDbEntity
8
0
100
AcDbPolyline
90
34
70
1
43
0.0
10
-113.04649811494194
20
-21.408998257500613
10
-114.90333998595126
20
-20.336949138031208
10
-114.38834127459991
20
-19.44494932135968
10
-114.74826762542143
20
-19.237145468058774
10
-114.90771095084817
20
-19.145096823062246
10
-114.50200789376652
20
-18.442405003305208
10
-125.46998613538214
20
-12.110039587407826
10
-125.87566766061713
20
-12.81273140716487
10
-126.39505886871213
20
-12.512857377020662
10
-126.39529571902671
20
-12.512728185939963
10
-126.91029274660167
20
-13.404730400359615
10
-129.07511520057136
20
-12.154869334167891
10
-132.57511871519119
20
-18.217052085814235
10
-130.41029223561077
20
-19.466915476193808
10
-133.32028215392725
20
-24.507172627385792
10
-133.32004530361274
20
-24.507301818466498
10
-138.81336740601128
20
-34.022012977839111
10
-140.97843081169168
20
-32.772012798085598
10
-144.47843432631169
20
-38.834195549731881
10
-142.3133709206312
20
-40.084195729485344
10
-142.8344946963079
20
-40.986808412925186
10
-142.83186781100034
20
-40.988315642199979
10
-142.8344946963079
20
-40.992858861871149
10
-142.31775190536717
20
-41.291204130893782
10
-142.72080654529469
20
-41.989352730979668
10
-131.75284983552581
20
-48.321718146877039
10
-131.34975213190478
20
-47.623569546791174
10
-130.84005025486206
20
-47.917866828618649
10
-130.83742336955459
20
-47.913323608947778
10
-130.8277771021958
20
-47.918900357264192
10
-130.30664181451144
20
-47.016285340128753
10
-128.45274980651135
20
-48.086633443702304
10
-124.95274811196538
20
-42.024449641235961
10
-116.54649980948797
20
-27.471182059967276
0
ELLIPSE
5
137
100
AcDbEntity
8
0
100
AcDbEllipse
10
-127.17795495123774
20
-2.7878574498279374
30
0
11
-2.1833992100267801
21
-2.0713655452873296
31
0.0
40
0.99674414978736658
41
3.4286372994735022
42
3.9516559548937464
0
ELLIPSE
5
138
100
AcDbEntity
8
0
100
AcDbEllipse
10
-127.09375919574732
20
-3.165663966712966
30
0
11
0.64960315672794144
21
-3.3266848353220846
31
0.0
40
0.94005872954640612
41
2.9600524577599225
42
3.2066467903699927
0
ELLIPSE
5
139
100
AcDbEntity
8
0
100
AcDbEllipse
10
-127.17782045246295
20
-2.7666578930302554
30
0
11
-2.5708320715485651
21
-1.5290885891875796
31
0.0
40
0.99646690518594161
41
4.4370892665488784
42
5.2251145285206571
0
LINE
5
140
100
AcDbEntity
8
0
100
AcDbLine
10
-129.76670922458572
20
-1.2844230265293035
30
0
11
-154.23791147541232
21
-43.712496475123679
31
0
0
SPLINE
5
141
100
AcDbEntity
8
0
100
AcDbSpline
70
0
71
3
72
8
73
4
74
0
42
0.000000001
43
0.0000000001
44
0.0000000001
40
-21
40
-21
40
-21
40
-21
40
-20
40
-20
40
-20
40
-20
10
-154.23791147541232
20
-43.712496475123679
30
0
10
-155.06546534236961
20
-45.147306088891348
30
0
10
-154.57361361024533
20
-46.981298281122683
30
0
10
-153.13915946215914
20
-47.809468147462624
30
0
0
LINE
5
142
100
AcDbEntity
8
0
100
AcDbLine
10
-153.13915946215914
20
-47.809468147462624
30
0
11
-150.54235754838493
21
-49.308709581363523
31
0
0
SPLINE
5
143
100
AcDbEntity
8
0
100
AcDbSpline
70
0
71
3
72
8
73
4
74
0
42
0.000000001
43
0.0000000001
44
0.0000000001
40
-19
40
-19
40
-19
40
-19
40
-18
40
-18
40
-18
40
-18
10
-150.54235754838493
20
-49.308709581363523
30
0
10
-134.59845564264862
20
-58.513660208402563
30
0
10
-127.4857115038018
20
-63.786034339028923
30
0
10
-127.4857115038018
20
-70.695862353794496
30
0
0
LINE
5
144
100
AcDbEntity
8
0
100
AcDbLine
10
-127.4857115038018
20
-70.695862353794496
30
0
11
-127.4857115038018
21
-120.10736839422967
31
0
0
SPLINE
5
145
100
AcDbEntity
8
0
100
AcDbSpline
70
0
71
3
72
8
73
4
74
0
42
0.000000001
43
0.0000000001
44
0.0000000001
40
-17
40
-17
40
-17
40
-17
40
-16
40
-16
40
-16
40
-16
10
-127.4857115038018
20
-120.10736839422967
30
0
10
-127.4857115038018
20
-121.20810991827025
30
0
10
-126.88287303130942
20
-122.22044611559224
30
0
10
-125.91509247207632
20
-122.74488170927185
30
0
0
LINE
5
146
100
AcDbEntity
8
0
100
AcDbLine
10
-125.91509247207632
20
-122.74488170927185
30
0
11
-124.344473440351
21
-123.59599254890284
31
0
0
SPLINE
5
147
100
AcDbEntity
8
0
100
AcDbSpline
70
0
71
3
72
11
73
7
74
0
42
0.000000001
43
0.0000000001
44
0.0000000001
40
-15
40
-15
40
-15
40
-15
40
-14
40
-14
40
-14
40
-13
40
-13
40
-13
40
-13
10
-124.344473440351
20
-123.59599254890284
30
0
10
-112.0733878314396
20
-130.24588810930635
30
0
10
-97.141827234043987
20
-133.47842120311626
30
0
10
-78.697130515564879
20
-133.47842120311626
30
0
10
-58.89368813770318
20
-133.47842120311626
30
0
10
-34.992132425362676
20
-129.63662297273984
30
0
10
-5.6266552734159347
20
-121.73357392957675
30
0
0
LINE
5
148
100
AcDbEntity
8
0
100
AcDbLine
10
-5.6266552734159392
20
-121.73357392957676
30
0
11
-3.4062912331722828
21
-121.13602211766015
31
0
0
SPLINE
5
149
100
AcDbEntity
8
0
100
AcDbSpline
70
0
71
3
72
8
73
4
74
0
42
0.000000001
43
0.0000000001
44
0.0000000001
40
-12
40
-12
40
-12
40
-12
40
-11
40
-11
40
-11
40
-11
10
-3.4062912331722828
20
-121.13602211766015
30
0
10
-2.0963090220838154
20
-120.78347531469146
30
0
10
-1.1859271929288084
20
-119.59569645732284
30
0
10
-1.1859271929288084
20
-118.23910416718896
30
0
0
LINE
5
150
100
AcDbEntity
8
0
100
AcDbLine
10
-1.1859271929288087
20
-118.23910416718896
30
0
11
-1.1859271929288084
21
-36.739623212978017
31
0
0
SPLINE
5
151
100
AcDbEntity
8
0
100
AcDbSpline
70
0
71
3
72
8
73
4
74
0
42
0.000000001
43
0.0000000001
44
0.0000000001
40
-10
40
-10
40
-10
40
-10
40
-9
40
-9
40
-9
40
-9
10
-1.1859271929288084
20
-36.739623212978017
30
0
10
-1.1859271929288084
20
-35.082774956572997
30
0
10
-2.5290680850800129
20
-33.739634064422447
30
0
10
-4.1859163414843792
20
-33.739634064422447
30
0
0
LINE
5
152
100
AcDbEntity
8
0
100
AcDbLine
10
-4.1859163414843792
20
-33.739634064422447
30
0
11
-64.156731801390805
21
-33.739634064422447
31
0
0
SPLINE
5
153
100
AcDbEntity
8
0
100
AcDbSpline
70
0
71
3
72
8
73
4
74
0
42
0.000000001
43
0.0000000001
44
0.0000000001
40
-8
40
-8
40
-8
40
-8
40
-7
40
-7
40
-7
40
-7
10
-64.156731801390805
20
-33.739634064422447
30
0
10
-65.812834843929977
20
-33.739634064422447
30
0
10
-67.155371620880857
20
-32.39709728747215
30
0
10
-67.155371620880857
20
-30.740994244932381
30
0
0
LINE
5
154
100
AcDbEntity
8
0
100
AcDbLine
10
-67.155371620880857
20
-30.740994244932381
30
0
11
-67.155371620880857
21
-18.110269376489512
31
0
0
SPLINE
5
155
100
AcDbEntity
8
0
100
AcDbSpline
70
0
71
3
72
8
73
4
74
0
42
0.000000001
43
0.0000000001
44
0.0000000001
40
-6
40
-6
40
-6
40
-6
40
-5
40
-5
40
-5
40
-5
10
-67.155371620880857
20
-18.110269376489512
30
0
10
-67.155371620880857
20
-16.627422015276029
30
0
10
-68.2388136912612
20
-15.367063721889448
30
0
10
-69.704859357272824
20
-15.144473511353596
30
0
0
LINE
5
156
100
AcDbEntity
8
0
100
AcDbLine
10
-69.704859357272824
20
-15.144473511353596
30
0
11
-72.255835486793245
21
-14.757157940695858
31
0
0
SPLINE
5
157
100
AcDbEntity
8
0
100
AcDbSpline
70
0
71
3
72
11
73
7
74
0
42
0.000000001
43
0.0000000001
44
0.0000000001
40
-4
40
-4
40
-4
40
-4
40
-3
40
-3
40
-3
40
-2
40
-2
40
-2
40
-2
10
-72.255835486793245
20
-14.757157940695858
30
0
10
-75.551586082757495
20
-14.257619095334618
30
0
10
-78.895738717039166
20
-13.88450132552132
30
0
10
-82.139469924426507
20
-13.522780228330831
30
0
10
-94.580909547539918
20
-12.13538685219266
30
0
10
-107.44610783042624
20
-10.700902516362696
30
0
10
-123.0694436012601
20
-1.6850876314638619
30
0
0
LINE
5
158
100
AcDbEntity
8
0
100
AcDbLine
10
-123.06944360126009
20
-1.6850876314638621
30
0
11
-125.66842363533247
21
-0.1850930571861093
31
0
0
ENDSEC
0
SECTION
2
OBJECTS
0
DICTIONARY
5
C
100
AcDbDictionary
3
ACAD_GROUP
350
D
3
ACAD_MLINESTYLE
350
17
0
DICTIONARY
5
D
100
AcDbDictionary
0
DICTIONARY
5
1A
330
C
100
AcDbDictionary
0
DICTIONARY
5
17
100
AcDbDictionary
0
ENDSEC
0
EOF
