0
SECTION
2
HEADER
9
$INSUNITS
70
4
9
$ACADVER
1
AC1014
9
$HANDSEED
5
FFFF
0
ENDSEC
0
SECTION
2
TABLES
0
TABLE
2
VPORT
5
8
100
AcDbSymbolTable
0
ENDTAB
0
TABLE
2
LTYPE
5
5
100
AcDbSymbolTable
70
2
0
LTYPE
5
14
100
AcDbSymbolTableRecord
100
AcDbLinetypeTableRecord
2
BYBLOCK
70
0
0
LTYPE
5
15
100
AcDbSymbolTableRecord
100
AcDbLinetypeTableRecord
2
BYLAYER
70
0
0
ENDTAB
0
TABLE
2
LAYER
5
2
100
AcDbSymbolTable
70
3
0
LAYER
5
50
100
AcDbSymbolTableRecord
100
AcDbLayerTableRecord
2
0
70
0
6
CONTINUOUS
0
LAYER
5
51
100
AcDbSymbolTableRecord
100
AcDbLayerTableRecord
2
CUTOUTS
70
0
62
1
6
CONTINUOUS
0
LAYER
5
52
100
AcDbSymbolTableRecord
100
AcDbLayerTableRecord
2
PERIMETER
70
0
62
5
6
CONTINUOUS
0
ENDTAB
0
TABLE
2
STYLE
5
3
100
AcDbSymbolTable
70
1
0
STYLE
5
11
100
AcDbSymbolTableRecord
100
AcDbTextStyleTableRecord
2
STANDARD
70
0
0
ENDTAB
0
TABLE
2
VIEW
5
6
100
AcDbSymbolTable
0
ENDTAB
0
TABLE
2
UCS
5
7
100
AcDbSymbolTable
0
ENDTAB
0
TABLE
2
APPID
5
9
100
AcDbSymbolTable
70
1
0
APPID
5
12
100
AcDbSymbolTableRecord
100
AcDbRegAppTableRecord
2
ACAD
70
0
0
ENDTAB
0
TABLE
2
DIMSTYLE
5
A
100
AcDbSymbolTable
0
ENDTAB
0
TABLE
2
BLOCK_RECORD
5
1
100
AcDbSymbolTable
70
2
0
BLOCK_RECORD
5
1F
100
AcDbSymbolTableRecord
100
AcDbBlockTableRecord
2
*MODEL_SPACE
0
BLOCK_RECORD
5
1B
100
AcDbSymbolTableRecord
100
AcDbBlockTableRecord
2
*PAPER_SPACE
0
ENDTAB
0
ENDSEC
0
SECTION
2
BLOCKS
0
BLOCK
5
20
100
AcDbEntity
100
AcDbBlockBegin
2
*MODEL_SPACE
0
ENDBLK
5
21
100
AcDbEntity
100
AcDbBlockEnd
0
BLOCK
5
1C
100
AcDbEntity
100
AcDbBlockBegin
2
*PAPER_SPACE
0
ENDBLK
5
1D
100
AcDbEntity
100
AcDbBlockEnd
0
ENDSEC
0
SECTION
2
ENTITIES
0
LINE
5
100
100
AcDbEntity
8
CUTOUTS
100
AcDbLine
10
-35.429006354306402
20
-5.2359113912015154
30
0
11
-49.27900635084378
21
-5.2359113912015154
31
0
0
LINE
5
101
100
AcDbEntity
8
CUTOUTS
100
AcDbLine
10
-49.27900635084378
20
-5.2359113912015154
30
0
11
-49.27900635084378
21
8.6140886053355281
31
0
0
LINE
5
102
100
AcDbEntity
8
CUTOUTS
100
AcDbLine
10
-49.27900635084378
20
8.6140886053355281
30
0
11
-35.429006354306402
21
8.6140886053355281
31
0
0
LINE
5
103
100
AcDbEntity
8
CUTOUTS
100
AcDbLine
10
-35.429006354306402
20
8.6140886053355281
30
0
11
-35.429006354306402
21
-5.2359113912015154
31
0
0
LINE
5
104
100
AcDbEntity
8
CUTOUTS
100
AcDbLine
10
-54.479006349543859
20
27.664088600572985
30
0
11
-54.479006349543859
21
13.814088604035586
31
0
0
LINE
5
105
100
AcDbEntity
8
CUTOUTS
100
AcDbLine
10
-54.479006349543859
20
13.814088604035586
30
0
11
-68.329006346081243
21
13.814088604035586
31
0
0
LINE
5
106
100
AcDbEntity
8
CUTOUTS
100
AcDbLine
10
-68.329006346081243
20
13.814088604035586
30
0
11
-68.329006346081243
21
27.664088600572985
31
0
0
LINE
5
107
100
AcDbEntity
8
CUTOUTS
100
AcDbLine
10
-68.329006346081243
20
27.664088600572985
30
0
11
-54.479006349543859
21
27.664088600572985
31
0
0
SPLINE
5
108
100
AcDbEntity
8
CUTOUTS
100
AcDbSpline
70
0
71
3
72
17
73
13
74
0
42
0.000000001
43
0.0000000001
44
0.0000000001
40
0
40
0
40
0
40
0
40
1
40
1
40
1
40
2
40
2
40
2
40
3
40
3
40
3
40
4
40
4
40
4
40
4
10
49.813324694600645
20
-62.648286255918478
30
0
10
49.813324694548633
20
-63.228185243063706
30
0
10
49.343223681913216
20
-63.698286255613894
30
0
10
48.763320539030637
20
-63.698286255562522
30
0
10
48.183425707623336
20
-63.698286255509927
30
0
10
47.713324695072508
20
-63.228185242875057
30
0
10
47.713324695125088
20
-62.648286255729829
30
0
10
47.7133246951771
20
-62.068387268584587
30
0
10
48.183425707811985
20
-61.598286256034442
30
0
10
48.763320539219322
20
-61.598286256087071
30
0
10
49.343223682101829
20
-61.598286256138394
30
0
10
49.81332469465319
20
-62.068387268773236
30
0
10
49.813324694600645
20
-62.648286255918478
30
0
0
SPLINE
5
109
100
AcDbEntity
8
CUTOUTS
100
AcDbSpline
70
0
71
3
72
17
73
13
74
0
42
0.000000001
43
0.0000000001
44
0.0000000001
40
0
40
0
40
0
40
0
40
1
40
1
40
1
40
2
40
2
40
2
40
3
40
3
40
3
40
4
40
4
40
4
40
4
10
-6.212196123401208
20
-47.890638685132117
30
0
10
-6.2121961234531842
20
-48.470537672277416
30
0
10
-6.682297136088069
20
-48.940638684828187
30
0
10
-7.2621961232332932
20
-48.940638684776218
30
0
10
-7.8420951103784997
20
-48.940638684723595
30
0
10
-8.3121961229286878
20
-48.470537672089279
30
0
10
-8.3121961228766938
20
-47.890638684944108
30
0
10
-8.3121961228246821
20
-47.310739697798908
30
0
10
-7.8420951101898684
20
-46.840638685248095
30
0
10
-7.2621961230445908
20
-46.840638685300711
30
0
10
-6.6822971358994021
20
-46.840638685352701
30
0
10
-6.2121961233493028
20
-47.310739697986918
30
0
10
-6.212196123401208
20
-47.890638685132117
30
0
0
SPLINE
5
10A
100
AcDbEntity
8
CUTOUTS
100
AcDbSpline
70
0
71
3
72
17
73
13
74
0
42
0.000000001
43
0.0000000001
44
0.0000000001
40
0
40
0
40
0
40
0
40
1
40
1
40
1
40
2
40
2
40
2
40
3
40
3
40
3
40
4
40
4
40
4
40
4
10
-6.1895077559627953
20
63.654897690611193
30
0
10
-6.1895077560148071
20
63.074998703465909
30
0
10
-6.6596087686496919
20
62.604897690915763
30
0
10
-7.2395077557941878
20
62.604897690967775
30
0
10
-7.8194067429395187
20
62.604897691019715
30
0
10
-8.2895077554897068
20
63.074998703654558
30
0
10
-8.289507755437695
20
63.654897690799771
30
0
10
-8.2895077553856833
20
64.234796677945084
30
0
10
-7.8194067427507985
20
64.704897690495201
30
0
10
-7.239507755605592
20
64.70489769044319
30
0
10
-6.6596087684610072
20
64.70489769039132
30
0
10
-6.1895077559107836
20
64.234796677756393
30
0
10
-6.1895077559627953
20
63.654897690611193
30
0
0
LINE
5
10B
100
AcDbEntity
8
CUTOUTS
100
AcDbLine
10
-49.27900635084378
20
46.714088595810622
30
0
11
-35.429006354306402
21
46.714088595810622
31
0
0
LINE
5
10C
100
AcDbEntity
8
CUTOUTS
100
AcDbLine
10
-35.429006354306402
20
46.714088595810622
30
0
11
-35.429006354306402
21
32.864088599273074
31
0
0
LINE
5
10D
100
AcDbEntity
8
CUTOUTS
100
AcDbLine
10
-35.429006354306402
20
32.864088599273074
30
0
11
-49.27900635084378
21
32.864088599273074
31
0
0
LINE
5
10E
100
AcDbEntity
8
CUTOUTS
100
AcDbLine
10
-49.27900635084378
20
32.864088599273074
30
0
11
-49.27900635084378
21
46.714088595810622
31
0
0
SPLINE
5
10F
100
AcDbEntity
8
CUTOUTS
100
AcDbSpline
70
0
71
3
72
17
73
13
74
0
42
0.000000001
43
0.0000000001
44
0.0000000001
40
0
40
0
40
0
40
0
40
1
40
1
40
1
40
2
40
2
40
2
40
3
40
3
40
3
40
4
40
4
40
4
40
4
10
47.410026078770613
20
8.9975000015396844
30
0
10
47.410026078717998
20
8.4176010143939095
30
0
10
46.939925066083219
20
7.9475000018436681
30
0
10
46.360026078937906
20
7.9475000018956798
30
0
10
45.7801270917927
20
7.9475000019476916
30
0
10
45.310026079242512
20
8.4176010145825231
30
0
10
45.310026079294488
20
8.9975000017284046
30
0
10
45.310026079346464
20
9.5773989888730071
30
0
10
45.780127091981313
20
10.047500001423195
30
0
10
46.360026079126627
20
10.047500001371183
30
0
10
46.939925066271833
20
10.047500001319172
30
0
10
47.410026078822021
20
9.577398988684287
30
0
10
47.410026078770613
20
8.9975000015396844
30
0
0
SPLINE
5
110
100
AcDbEntity
8
CUTOUTS
100
AcDbSpline
70
0
71
3
72
17
73
13
74
0
42
0.000000001
43
0.0000000001
44
0.0000000001
40
0
40
0
40
0
40
0
40
1
40
1
40
1
40
2
40
2
40
2
40
3
40
3
40
3
40
4
40
4
40
4
40
4
10
-72.181640542450367
20
51.254838726559498
30
0
10
-72.18164054250235
20
50.674939739414256
30
0
10
-72.651741555137207
20
50.20483872686421
30
0
10
-73.231640542282463
20
50.204838726916122
30
0
10
-73.811539529427662
20
50.204838726968134
30
0
10
-74.281640541977822
20
50.674939739602976
30
0
10
-74.281640541925839
20
51.254838726748218
30
0
10
-74.281640541873884
20
51.834737713893432
30
0
10
-73.811539529238999
20
52.304838726443577
30
0
10
-73.231640542093771
20
52.304838726391566
30
0
10
-72.651741554948543
20
52.304838726339597
30
0
10
-72.181640542398384
20
51.834737713704783
30
0
10
-72.181640542450367
20
51.254838726559498
30
0
0
SPLINE
5
111
100
AcDbEntity
8
CUTOUTS
100
AcDbSpline
70
0
71
3
72
17
73
13
74
0
42
0.000000001
43
0.0000000001
44
0.0000000001
40
0
40
0
40
0
40
0
40
1
40
1
40
1
40
2
40
2
40
2
40
3
40
3
40
3
40
4
40
4
40
4
40
4
10
-71.983203049708834
20
-29.024156988824394
30
0
10
-71.983203049760803
20
-29.604053296089479
30
0
10
-72.453304062395659
20
-30.074154308639596
30
0
10
-73.033204128439763
20
-30.07415430858698
30
0
10
-73.613102036686129
20
-30.074154308535697
30
0
10
-74.083203049236289
20
-29.60405329590083
30
0
10
-74.08320304918432
20
-29.024156988635816
30
0
10
-74.083203049132337
20
-28.44425532161031
30
0
10
-73.613102036497494
20
-27.974154309060193
30
0
10
-73.0332041282511
20
-27.974154309111494
30
0
10
-72.453304062206996
20
-27.97415430916411
30
0
10
-71.983203049656851
20
-28.444255321799012
30
0
10
-71.983203049708834
20
-29.024156988824394
30
0
0
LINE
5
112
100
AcDbEntity
8
CUTOUTS
100
AcDbLine
10
-54.479006349543859
20
8.6140886053355281
30
0
11
-54.479006349543859
21
-5.2359113912015154
31
0
0
LINE
5
113
100
AcDbEntity
8
CUTOUTS
100
AcDbLine
10
-54.479006349543859
20
-5.2359113912015154
30
0
11
-68.329006346081243
21
-5.2359113912015154
31
0
0
LINE
5
114
100
AcDbEntity
8
CUTOUTS
100
AcDbLine
10
-68.329006346081243
20
-5.2359113912015154
30
0
11
-68.329006346081243
21
8.6140886053355281
31
0
0
LINE
5
115
100
AcDbEntity
8
CUTOUTS
100
AcDbLine
10
-68.329006346081243
20
8.6140886053355281
30
0
11
-54.479006349543859
21
8.6140886053355281
31
0
0
LINE
5
116
100
AcDbEntity
8
CUTOUTS
100
AcDbLine
10
-49.27900635084378
20
13.814088604035586
30
0
11
-49.27900635084378
21
27.664088600572985
31
0
0
LINE
5
117
100
AcDbEntity
8
CUTOUTS
100
AcDbLine
10
-49.27900635084378
20
27.664088600572985
30
0
11
-35.429006354306402
21
27.664088600572985
31
0
0
LINE
5
118
100
AcDbEntity
8
CUTOUTS
100
AcDbLine
10
-35.429006354306402
20
27.664088600572985
30
0
11
-35.429006354306402
21
13.814088604035586
31
0
0
LINE
5
119
100
AcDbEntity
8
CUTOUTS
100
AcDbLine
10
-35.429006354306402
20
13.814088604035586
30
0
11
-49.27900635084378
21
13.814088604035586
31
0
0
LINE
5
11A
100
AcDbEntity
8
CUTOUTS
100
AcDbLine
10
-54.479006349543859
20
-24.28591138643899
30
0
11
-68.329006346081243
21
-24.28591138643899
31
0
0
LINE
5
11B
100
AcDbEntity
8
CUTOUTS
100
AcDbLine
10
-68.329006346081243
20
-24.28591138643899
30
0
11
-68.329006346081243
21
-10.435911389901626
31
0
0
LINE
5
11C
100
AcDbEntity
8
CUTOUTS
100
AcDbLine
10
-68.329006346081243
20
-10.435911389901626
30
0
11
-54.479006349543859
21
-10.435911389901626
31
0
0
LINE
5
11D
100
AcDbEntity
8
CUTOUTS
100
AcDbLine
10
-54.479006349543859
20
-10.435911389901626
30
0
11
-54.479006349543859
21
-24.28591138643899
31
0
0
LINE
5
11E
100
AcDbEntity
8
CUTOUTS
100
AcDbLine
10
-54.479006349543859
20
46.714088595810622
30
0
11
-54.479006349543859
21
32.864088599273074
31
0
0
LINE
5
11F
100
AcDbEntity
8
CUTOUTS
100
AcDbLine
10
-54.479006349543859
20
32.864088599273074
30
0
11
-68.329006346081243
21
32.864088599273074
31
0
0
LINE
5
120
100
AcDbEntity
8
CUTOUTS
100
AcDbLine
10
-68.329006346081243
20
32.864088599273074
30
0
11
-68.329006346081243
21
46.714088595810622
31
0
0
LINE
5
121
100
AcDbEntity
8
CUTOUTS
100
AcDbLine
10
-68.329006346081243
20
46.714088595810622
30
0
11
-54.479006349543859
21
46.714088595810622
31
0
0
SPLINE
5
122
100
AcDbEntity
8
CUTOUTS
100
AcDbSpline
70
0
71
3
72
17
73
13
74
0
42
0.000000001
43
0.0000000001
44
0.0000000001
40
0
40
0
40
0
40
0
40
1
40
1
40
1
40
2
40
2
40
2
40
3
40
3
40
3
40
4
40
4
40
4
40
4
10
18.779752970084267
20
62.755450492632875
30
0
10
18.779752970031616
20
62.175551505487704
30
0
10
18.309651957396802
20
61.705450492937587
30
0
10
17.729752970251631
20
61.705450492989456
30
0
10
17.149853983106283
20
61.705450493041468
30
0
10
16.679752970556201
20
62.175551505676424
30
0
10
16.679752970608781
20
62.755450492821595
30
0
10
16.679752970660118
20
63.335349479966808
30
0
10
17.149853983295003
20
63.805450492516997
30
0
10
17.729752970440209
20
63.805450492465013
30
0
10
18.309651957585523
20
63.805450492413044
30
0
10
18.77975297013564
20
63.33534947977823
30
0
10
18.779752970084267
20
62.755450492632875
30
0
0
SPLINE
5
123
100
AcDbEntity
8
CUTOUTS
100
AcDbSpline
70
0
71
3
72
17
73
13
74
0
42
0.000000001
43
0.0000000001
44
0.0000000001
40
0
40
0
40
0
40
0
40
1
40
1
40
1
40
2
40
2
40
2
40
3
40
3
40
3
40
4
40
4
40
4
40
4
10
73.35389185005323
20
-21.755462187172299
30
0
10
73.353891850000508
20
-22.335361174317487
30
0
10
72.883790837367016
20
-22.805462186867693
30
0
10
72.303891850221092
20
-22.80546218681641
30
0
10
71.723992863076489
20
-22.805462186763705
30
0
10
71.253891850525136
20
-22.335361174128909
30
0
10
71.253891850577745
20
-21.755462186983614
30
0
10
71.253891850629728
20
-21.17556319983839
30
0
10
71.723992863264471
20
-20.705462187288184
30
0
10
72.303891850409144
20
-20.705462187340888
30
0
10
72.883790837555026
20
-20.705462187392225
30
0
10
73.353891850105214
20
-21.17556320002711
30
0
10
73.35389185005323
20
-21.755462187172299
30
0
0
SPLINE
5
124
100
AcDbEntity
8
CUTOUTS
100
AcDbSpline
70
0
71
3
72
17
73
13
74
0
42
0.000000001
43
0.0000000001
44
0.0000000001
40
0
40
0
40
0
40
0
40
1
40
1
40
1
40
2
40
2
40
2
40
3
40
3
40
3
40
4
40
4
40
4
40
4
10
62.749985393440582
20
-14.3686617088877
30
0
10
62.74998539338921
20
-14.948560696033617
30
0
10
62.279884380754396
20
-15.418661708583699
30
0
10
61.699985393609225
20
-15.418661708531687
30
0
10
61.120086406463948
20
-15.418661708479107
30
0
10
60.649985393913759
20
-14.948560695845483
30
0
10
60.649985393965771
20
-14.368661708699708
30
0
10
60.649985394017747
20
-13.788762721555106
30
0
10
61.120086406652597
20
-13.318661709004314
30
0
10
61.699985393797768
20
-13.318661709056201
30
0
10
62.279884380943152
20
-13.318661709108923
30
0
10
62.749985393493233
20
-13.788762721743097
30
0
10
62.749985393440582
20
-14.3686617088877
30
0
0
LINE
5
125
100
AcDbEntity
8
CUTOUTS
100
AcDbLine
10
-16.379006354306391
20
-19.523411386438987
30
0
11
-30.22900635084379
21
-19.523411386438987
31
0
0
LINE
5
126
100
AcDbEntity
8
CUTOUTS
100
AcDbLine
10
-30.22900635084379
20
-19.523411386438987
30
0
11
-30.22900635084379
21
-5.6734113899016236
31
0
0
LINE
5
127
100
AcDbEntity
8
CUTOUTS
100
AcDbLine
10
-30.22900635084379
20
-5.6734113899016236
30
0
11
-16.379006354306391
21
-5.6734113899016236
31
0
0
LINE
5
128
100
AcDbEntity
8
CUTOUTS
100
AcDbLine
10
-16.379006354306391
20
-5.6734113899016236
30
0
11
-16.379006354306391
21
-19.523411386438987
31
0
0
LINE
5
129
100
AcDbEntity
8
CUTOUTS
100
AcDbLine
10
-30.22900635084379
20
37.626588599273077
30
0
11
-30.22900635084379
21
51.476588595810625
31
0
0
LINE
5
12A
100
AcDbEntity
8
CUTOUTS
100
AcDbLine
10
-30.22900635084379
20
51.476588595810625
30
0
11
-16.379006354306391
21
51.476588595810625
31
0
0
LINE
5
12B
100
AcDbEntity
8
CUTOUTS
100
AcDbLine
10
-16.379006354306391
20
51.476588595810625
30
0
11
-16.379006354306391
21
37.626588599273077
31
0
0
LINE
5
12C
100
AcDbEntity
8
CUTOUTS
100
AcDbLine
10
-16.379006354306391
20
37.626588599273077
30
0
11
-30.22900635084379
21
37.626588599273077
31
0
0
LINE
5
12D
100
AcDbEntity
8
CUTOUTS
100
AcDbLine
10
-16.379006354306391
20
13.376588605335531
30
0
11
-16.379006354306391
21
-0.47341139120151254
31
0
0
LINE
5
12E
100
AcDbEntity
8
CUTOUTS
100
AcDbLine
10
-16.379006354306391
20
-0.47341139120151254
30
0
11
-30.22900635084379
21
-0.47341139120151254
31
0
0
LINE
5
12F
100
AcDbEntity
8
CUTOUTS
100
AcDbLine
10
-30.22900635084379
20
-0.47341139120151254
30
0
11
-30.22900635084379
21
13.376588605335531
31
0
0
LINE
5
130
100
AcDbEntity
8
CUTOUTS
100
AcDbLine
10
-30.22900635084379
20
13.376588605335531
30
0
11
-16.379006354306391
21
13.376588605335531
31
0
0
LINE
5
131
100
AcDbEntity
8
CUTOUTS
100
AcDbLine
10
2.6709936456936045
20
34.807838600572993
30
0
11
2.6709936456936045
21
20.95783860403559
31
0
0
LINE
5
132
100
AcDbEntity
8
CUTOUTS
100
AcDbLine
10
2.6709936456936045
20
20.95783860403559
30
0
11
-11.179006350843776
21
20.95783860403559
31
0
0
LINE
5
133
100
AcDbEntity
8
CUTOUTS
100
AcDbLine
10
-11.179006350843776
20
20.95783860403559
30
0
11
-11.179006350843776
21
34.807838600572993
31
0
0
LINE
5
134
100
AcDbEntity
8
CUTOUTS
100
AcDbLine
10
-11.179006350843776
20
34.807838600572993
30
0
11
2.6709936456936045
21
34.807838600572993
31
0
0
LINE
5
135
100
AcDbEntity
8
CUTOUTS
100
AcDbLine
10
-16.379006354306391
20
18.576588604035589
30
0
11
-30.22900635084379
21
18.576588604035589
31
0
0
LINE
5
136
100
AcDbEntity
8
CUTOUTS
100
AcDbLine
10
-30.22900635084379
20
18.576588604035589
30
0
11
-30.22900635084379
21
32.426588600572984
31
0
0
LINE
5
137
100
AcDbEntity
8
CUTOUTS
100
AcDbLine
10
-30.22900635084379
20
32.426588600572984
30
0
11
-16.379006354306391
21
32.426588600572984
31
0
0
LINE
5
138
100
AcDbEntity
8
CUTOUTS
100
AcDbLine
10
-16.379006354306391
20
32.426588600572984
30
0
11
-16.379006354306391
21
18.576588604035589
31
0
0
SPLINE
5
139
100
AcDbEntity
8
CUTOUTS
100
AcDbSpline
70
0
71
3
72
17
73
13
74
0
42
0.000000001
43
0.0000000001
44
0.0000000001
40
0
40
0
40
0
40
0
40
1
40
1
40
1
40
2
40
2
40
2
40
3
40
3
40
3
40
4
40
4
40
4
40
4
10
46.969053872382929
20
53.22818940981216
30
0
10
46.969053872330882
20
52.648290422667031
30
0
10
46.498952859696743
20
52.178189410116161
30
0
10
45.919053872551395
20
52.178189410168784
30
0
10
45.339154885406224
20
52.178189410220796
30
0
10
44.869053872856
20
52.64829042285497
30
0
10
44.869053872908012
20
53.228189410000283
30
0
10
44.869053872960023
20
53.808088397145482
30
0
10
45.339154885594198
20
54.27818940969631
30
0
10
45.919053872739475
20
54.278189409644298
30
0
10
46.498952859884717
20
54.278189409591718
30
0
10
46.969053872435474
20
53.808088396957515
30
0
10
46.969053872382929
20
53.22818940981216
30
0
0
LINE
5
13A
100
AcDbEntity
8
CUTOUTS
100
AcDbLine
10
-35.429006354306402
20
-24.28591138643899
30
0
11
-49.27900635084378
21
-24.28591138643899
31
0
0
LINE
5
13B
100
AcDbEntity
8
CUTOUTS
100
AcDbLine
10
-49.27900635084378
20
-24.28591138643899
30
0
11
-49.27900635084378
21
-10.435911389901626
31
0
0
LINE
5
13C
100
AcDbEntity
8
CUTOUTS
100
AcDbLine
10
-49.27900635084378
20
-10.435911389901626
30
0
11
-35.429006354306402
21
-10.435911389901626
31
0
0
LINE
5
13D
100
AcDbEntity
8
CUTOUTS
100
AcDbLine
10
-35.429006354306402
20
-10.435911389901626
30
0
11
-35.429006354306402
21
-24.28591138643899
31
0
0
LINE
5
13E
100
AcDbEntity
8
CUTOUTS
100
AcDbLine
10
2.6709936456936045
20
40.007838599273086
30
0
11
-11.179006350843776
21
40.007838599273086
31
0
0
LINE
5
13F
100
AcDbEntity
8
CUTOUTS
100
AcDbLine
10
-11.179006350843776
20
40.007838599273086
30
0
11
-11.179006350843776
21
53.85783859581062
31
0
0
LINE
5
140
100
AcDbEntity
8
CUTOUTS
100
AcDbLine
10
-11.179006350843776
20
53.85783859581062
30
0
11
2.6709936456936045
21
53.85783859581062
31
0
0
LINE
5
141
100
AcDbEntity
8
CUTOUTS
100
AcDbLine
10
2.6709936456936045
20
53.85783859581062
30
0
11
2.6709936456936045
21
40.007838599273086
31
0
0
LINE
5
142
100
AcDbEntity
8
CUTOUTS
100
AcDbLine
10
2.6709936456936045
20
-3.2921613899016222
30
0
11
2.6709936456936045
21
-17.142161386438985
31
0
0
LINE
5
143
100
AcDbEntity
8
CUTOUTS
100
AcDbLine
10
2.6709936456936045
20
-17.142161386438985
30
0
11
-11.179006350843776
21
-17.142161386438985
31
0
0
LINE
5
144
100
AcDbEntity
8
CUTOUTS
100
AcDbLine
10
-11.179006350843776
20
-17.142161386438985
30
0
11
-11.179006350843776
21
-3.2921613899016222
31
0
0
LINE
5
145
100
AcDbEntity
8
CUTOUTS
100
AcDbLine
10
-11.179006350843776
20
-3.2921613899016222
30
0
11
2.6709936456936045
21
-3.2921613899016222
31
0
0
LINE
5
146
100
AcDbEntity
8
CUTOUTS
100
AcDbLine
10
7.8709936491562171
20
-0.47341139120151254
30
0
11
7.8709936491562171
21
13.376588605335531
31
0
0
LINE
5
147
100
AcDbEntity
8
CUTOUTS
100
AcDbLine
10
7.8709936491562171
20
13.376588605335531
30
0
11
21.720993645693596
21
13.376588605335531
31
0
0
LINE
5
148
100
AcDbEntity
8
CUTOUTS
100
AcDbLine
10
21.720993645693596
20
13.376588605335531
30
0
11
21.720993645693596
21
-0.47341139120151254
31
0
0
LINE
5
149
100
AcDbEntity
8
CUTOUTS
100
AcDbLine
10
21.720993645693596
20
-0.47341139120151254
30
0
11
7.8709936491562171
21
-0.47341139120151254
31
0
0
LINE
5
14A
100
AcDbEntity
8
CUTOUTS
100
AcDbLine
10
7.8709936491562171
20
32.426588600572984
30
0
11
21.720993645693596
21
32.426588600572984
31
0
0
LINE
5
14B
100
AcDbEntity
8
CUTOUTS
100
AcDbLine
10
21.720993645693596
20
32.426588600572984
30
0
11
21.720993645693596
21
18.576588604035589
31
0
0
LINE
5
14C
100
AcDbEntity
8
CUTOUTS
100
AcDbLine
10
21.720993645693596
20
18.576588604035589
30
0
11
7.8709936491562171
21
18.576588604035589
31
0
0
LINE
5
14D
100
AcDbEntity
8
CUTOUTS
100
AcDbLine
10
7.8709936491562171
20
18.576588604035589
30
0
11
7.8709936491562171
21
32.426588600572984
31
0
0
LINE
5
14E
100
AcDbEntity
8
CUTOUTS
100
AcDbLine
10
21.720993645693596
20
37.626588599273077
30
0
11
7.8709936491562171
21
37.626588599273077
31
0
0
LINE
5
14F
100
AcDbEntity
8
CUTOUTS
100
AcDbLine
10
7.8709936491562171
20
37.626588599273077
30
0
11
7.8709936491562171
21
51.476588595810625
31
0
0
LINE
5
150
100
AcDbEntity
8
CUTOUTS
100
AcDbLine
10
7.8709936491562171
20
51.476588595810625
30
0
11
21.720993645693596
21
51.476588595810625
31
0
0
LINE
5
151
100
AcDbEntity
8
CUTOUTS
100
AcDbLine
10
21.720993645693596
20
51.476588595810625
30
0
11
21.720993645693596
21
37.626588599273077
31
0
0
LINE
5
152
100
AcDbEntity
8
CUTOUTS
100
AcDbLine
10
26.920993649156244
20
-2.854661391201514
30
0
11
26.920993649156244
21
10.99533860533553
31
0
0
LINE
5
153
100
AcDbEntity
8
CUTOUTS
100
AcDbLine
10
26.920993649156244
20
10.99533860533553
30
0
11
40.770993645693608
21
10.99533860533553
31
0
0
LINE
5
154
100
AcDbEntity
8
CUTOUTS
100
AcDbLine
10
40.770993645693608
20
10.99533860533553
30
0
11
40.770993645693608
21
-2.854661391201514
31
0
0
LINE
5
155
100
AcDbEntity
8
CUTOUTS
100
AcDbLine
10
40.770993645693608
20
-2.854661391201514
30
0
11
26.920993649156244
21
-2.854661391201514
31
0
0
LINE
5
156
100
AcDbEntity
8
CUTOUTS
100
AcDbLine
10
55.183785800924319
20
-42.135825857377696
30
0
11
48.258776620073618
21
-54.130272399220857
31
0
0
LINE
5
157
100
AcDbEntity
8
CUTOUTS
100
AcDbLine
10
48.258776620073618
20
-54.130272399220857
30
0
11
36.264332179250196
21
-47.205264431396614
31
0
0
LINE
5
158
100
AcDbEntity
8
CUTOUTS
100
AcDbLine
10
36.264332179250196
20
-47.205264431396614
30
0
11
43.189341360100933
21
-35.210817889553461
31
0
0
LINE
5
159
100
AcDbEntity
8
CUTOUTS
100
AcDbLine
10
43.189341360100933
20
-35.210817889553461
30
0
11
55.183785800924319
21
-42.135825857377696
31
0
0
LINE
5
15A
100
AcDbEntity
8
CUTOUTS
100
AcDbLine
10
52.714353987913583
20
-18.7130412381374
30
0
11
64.708798428737012
21
-25.638049205961604
31
0
0
LINE
5
15B
100
AcDbEntity
8
CUTOUTS
100
AcDbLine
10
64.708798428737012
20
-25.638049205961604
30
0
11
57.78378924788634
21
-37.632495747804796
31
0
0
LINE
5
15C
100
AcDbEntity
8
CUTOUTS
100
AcDbLine
10
57.78378924788634
20
-37.632495747804796
30
0
11
45.789344807062918
21
-30.707487779980589
31
0
0
LINE
5
15D
100
AcDbEntity
8
CUTOUTS
100
AcDbLine
10
45.789344807062918
20
-30.707487779980589
30
0
11
52.714353987913583
21
-18.7130412381374
31
0
0
LINE
5
15E
100
AcDbEntity
8
CUTOUTS
100
AcDbLine
10
17.395993649156239
20
-29.48591138990162
30
0
11
31.245993645693602
21
-29.48591138990162
31
0
0
LINE
5
15F
100
AcDbEntity
8
CUTOUTS
100
AcDbLine
10
31.245993645693602
20
-29.48591138990162
30
0
11
31.245993645693602
21
-43.33591138643898
31
0
0
LINE
5
160
100
AcDbEntity
8
CUTOUTS
100
AcDbLine
10
31.245993645693602
20
-43.33591138643898
30
0
11
17.395993649156239
21
-43.33591138643898
31
0
0
LINE
5
161
100
AcDbEntity
8
CUTOUTS
100
AcDbLine
10
17.395993649156239
20
-43.33591138643898
30
0
11
17.395993649156239
21
-29.48591138990162
31
0
0
LINE
5
162
100
AcDbEntity
8
CUTOUTS
100
AcDbLine
10
-1.6540063508437886
20
-40.954661386438985
30
0
11
-1.6540063508437886
21
-27.104661389901619
31
0
0
LINE
5
163
100
AcDbEntity
8
CUTOUTS
100
AcDbLine
10
-1.6540063508437886
20
-27.104661389901619
30
0
11
12.195993645693592
21
-27.104661389901619
31
0
0
LINE
5
164
100
AcDbEntity
8
CUTOUTS
100
AcDbLine
10
12.195993645693592
20
-27.104661389901619
30
0
11
12.195993645693592
21
-40.954661386438985
31
0
0
LINE
5
165
100
AcDbEntity
8
CUTOUTS
100
AcDbLine
10
12.195993645693592
20
-40.954661386438985
30
0
11
-1.6540063508437886
21
-40.954661386438985
31
0
0
LINE
5
166
100
AcDbEntity
8
CUTOUTS
100
AcDbLine
10
26.920993649156244
20
-8.0546613899016251
30
0
11
40.770993645693608
21
-8.0546613899016251
31
0
0
LINE
5
167
100
AcDbEntity
8
CUTOUTS
100
AcDbLine
10
40.770993645693608
20
-8.0546613899016251
30
0
11
40.770993645693608
21
-21.904661386438988
31
0
0
LINE
5
168
100
AcDbEntity
8
CUTOUTS
100
AcDbLine
10
40.770993645693608
20
-21.904661386438988
30
0
11
26.920993649156244
21
-21.904661386438988
31
0
0
LINE
5
169
100
AcDbEntity
8
CUTOUTS
100
AcDbLine
10
26.920993649156244
20
-21.904661386438988
30
0
11
26.920993649156244
21
-8.0546613899016251
31
0
0
LINE
5
16A
100
AcDbEntity
8
CUTOUTS
100
AcDbLine
10
26.920993649156244
20
35.245338599273083
30
0
11
26.920993649156244
21
49.095338595810617
31
0
0
LINE
5
16B
100
AcDbEntity
8
CUTOUTS
100
AcDbLine
10
26.920993649156244
20
49.095338595810617
30
0
11
40.770993645693608
21
49.095338595810617
31
0
0
LINE
5
16C
100
AcDbEntity
8
CUTOUTS
100
AcDbLine
10
40.770993645693608
20
49.095338595810617
30
0
11
40.770993645693608
21
35.245338599273083
31
0
0
LINE
5
16D
100
AcDbEntity
8
CUTOUTS
100
AcDbLine
10
40.770993645693608
20
35.245338599273083
30
0
11
26.920993649156244
21
35.245338599273083
31
0
0
LINE
5
16E
100
AcDbEntity
8
CUTOUTS
100
AcDbLine
10
40.770993645693608
20
16.195338604035587
30
0
11
26.920993649156244
21
16.195338604035587
31
0
0
LINE
5
16F
100
AcDbEntity
8
CUTOUTS
100
AcDbLine
10
26.920993649156244
20
16.195338604035587
30
0
11
26.920993649156244
21
30.045338600572986
31
0
0
LINE
5
170
100
AcDbEntity
8
CUTOUTS
100
AcDbLine
10
26.920993649156244
20
30.045338600572986
30
0
11
40.770993645693608
21
30.045338600572986
31
0
0
LINE
5
171
100
AcDbEntity
8
CUTOUTS
100
AcDbLine
10
40.770993645693608
20
30.045338600572986
30
0
11
40.770993645693608
21
16.195338604035587
31
0
0
LINE
5
172
100
AcDbEntity
8
CUTOUTS
100
AcDbLine
10
2.6709936456936045
20
1.9078386087984889
30
0
11
-11.179006350843776
21
1.9078386087984889
31
0
0
LINE
5
173
100
AcDbEntity
8
CUTOUTS
100
AcDbLine
10
-11.179006350843776
20
1.9078386087984889
30
0
11
-11.179006350843776
21
15.757838605335532
31
0
0
LINE
5
174
100
AcDbEntity
8
CUTOUTS
100
AcDbLine
10
-11.179006350843776
20
15.757838605335532
30
0
11
2.6709936456936045
21
15.757838605335532
31
0
0
LINE
5
175
100
AcDbEntity
8
CUTOUTS
100
AcDbLine
10
2.6709936456936045
20
15.757838605335532
30
0
11
2.6709936456936045
21
1.9078386087984889
31
0
0
LINE
5
176
100
AcDbEntity
8
CUTOUTS
100
AcDbLine
10
21.720993645693596
20
-5.6734113899016236
30
0
11
21.720993645693596
21
-19.523411386438987
31
0
0
LINE
5
177
100
AcDbEntity
8
CUTOUTS
100
AcDbLine
10
21.720993645693596
20
-19.523411386438987
30
0
11
7.8709936491562171
21
-19.523411386438987
31
0
0
LINE
5
178
100
AcDbEntity
8
CUTOUTS
100
AcDbLine
10
7.8709936491562171
20
-19.523411386438987
30
0
11
7.8709936491562171
21
-5.6734113899016236
31
0
0
LINE
5
179
100
AcDbEntity
8
CUTOUTS
100
AcDbLine
10
7.8709936491562171
20
-5.6734113899016236
30
0
11
21.720993645693596
21
-5.6734113899016236
31
0
0
LINE
5
17A
100
AcDbEntity
8
PERIMETER
100
AcDbLine
10
49.360015238898399
20
4.0649542873394928
30
0
11
49.360015243335098
21
53.476460327774959
31
0
0
SPLINE
5
17B
100
AcDbEntity
8
PERIMETER
100
AcDbSpline
70
0
71
3
72
8
73
4
74
0
42
0.000000001
43
0.0000000001
44
0.0000000001
40
0
40
0
40
0
40
0
40
1
40
1
40
1
40
1
10
49.360015243335098
20
53.476460327774959
30
0
10
49.360015243433899
20
54.577201851815161
30
0
10
48.757176771032611
20
55.589538049191049
30
0
10
47.789396211846487
20
56.11397364295803
30
0
0
LINE
5
17C
100
AcDbEntity
8
PERIMETER
100
AcDbLine
10
47.789396211846487
20
56.11397364295803
30
0
11
46.21877718019747
21
56.965084482730092
31
0
0
SPLINE
5
17D
100
AcDbEntity
8
PERIMETER
100
AcDbSpline
70
0
71
3
72
11
73
7
74
0
42
0.000000001
43
0.0000000001
44
0.0000000001
40
0
40
0
40
0
40
0
40
1
40
1
40
1
40
2
40
2
40
2
40
2
10
46.21877718019747
20
56.965084482730092
30
0
10
33.947691571883503
20
63.614980044235395
30
0
10
19.016130974778001
20
66.847513139385896
30
0
10
0.57143425629891276
20
66.8475131410421
30
0
10
-19.232008121562167
20
66.847513142820191
30
0
10
-43.133563834248008
20
63.005714914590399
30
0
10
-72.49904098690449
20
55.102665874064002
30
0
0
LINE
5
17E
100
AcDbEntity
8
PERIMETER
100
AcDbLine
10
-72.49904098690449
20
55.102665874064002
30
0
11
-74.71940502720193
21
54.505114062346905
31
0
0
SPLINE
5
17F
100
AcDbEntity
8
PERIMETER
100
AcDbSpline
70
0
71
3
72
8
73
4
74
0
42
0.000000001
43
0.0000000001
44
0.0000000001
40
0
40
0
40
0
40
0
40
1
40
1
40
1
40
1
10
-74.71940502720193
20
54.505114062346905
30
0
10
-76.029387238321874
20
54.152567259495413
30
0
10
-76.939769067583399
20
52.964788402208583
30
0
10
-76.939769067705313
20
51.608196112075021
30
0
0
LINE
5
180
100
AcDbEntity
8
PERIMETER
100
AcDbLine
10
-76.939769067705313
20
51.608196112075021
30
0
11
-76.939769075023264
21
-29.891284842136319
31
0
0
SPLINE
5
181
100
AcDbEntity
8
PERIMETER
100
AcDbSpline
70
0
71
3
72
8
73
4
74
0
42
0.000000001
43
0.0000000001
44
0.0000000001
40
0
40
0
40
0
40
0
40
1
40
1
40
1
40
1
10
-76.939769075023264
20
-29.891284842136319
30
0
10
-76.939769075172123
20
-31.548133098541307
30
0
10
-75.596628183141604
20
-32.891273990812486
30
0
10
-73.939779926737245
20
-32.891273990961395
30
0
0
LINE
5
182
100
AcDbEntity
8
PERIMETER
100
AcDbLine
10
-73.939779926737245
20
-32.891273990961395
30
0
11
-13.968964466830771
21
-32.891273996346499
31
0
0
SPLINE
5
183
100
AcDbEntity
8
PERIMETER
100
AcDbSpline
70
0
71
3
72
8
73
4
74
0
42
0.000000001
43
0.0000000001
44
0.0000000001
40
0
40
0
40
0
40
0
40
1
40
1
40
1
40
1
10
-13.968964466830771
20
-32.891273996346499
30
0
10
-12.312861424291581
20
-32.891273996494718
30
0
10
-10.970324647461274
20
-34.233810773565608
30
0
10
-10.970324647610168
20
-35.889913816105391
30
0
0
LINE
5
184
100
AcDbEntity
8
PERIMETER
100
AcDbLine
10
-10.970324647610168
20
-35.889913816105391
30
0
11
-10.970324648744088
21
-48.520638684548331
31
0
0
SPLINE
5
185
100
AcDbEntity
8
PERIMETER
100
AcDbSpline
70
0
71
3
72
8
73
4
74
0
42
0.000000001
43
0.0000000001
44
0.0000000001
40
0
40
0
40
0
40
0
40
1
40
1
40
1
40
1
10
-10.970324648744088
20
-48.520638684548331
30
0
10
-10.970324648876906
20
-50.003486045761804
30
0
10
-9.8868825786102921
20
-51.263844339245921
30
0
10
-8.4208369126185989
20
-51.486434549912694
30
0
0
LINE
5
186
100
AcDbEntity
8
PERIMETER
100
AcDbLine
10
-8.4208369126185989
20
-51.486434549912694
30
0
11
-5.8698607831326921
21
-51.873750120799485
31
0
0
SPLINE
5
187
100
AcDbEntity
8
PERIMETER
100
AcDbSpline
70
0
71
3
72
11
73
7
74
0
42
0.000000001
43
0.0000000001
44
0.0000000001
40
0
40
0
40
0
40
0
40
1
40
1
40
1
40
2
40
2
40
2
40
2
10
-5.8698607831326921
20
-51.873750120799485
30
0
10
-2.5741101872132521
20
-52.37328896645721
30
0
10
0.77004244703480218
20
-52.746406736570478
30
0
10
4.0137736543888902
20
-53.108127834052624
30
0
10
16.455213277378647
20
-54.495521211308038
30
0
10
29.32041156013576
20
-55.930005548293025
30
0
10
44.943747330159709
20
-64.945820434594594
30
0
0
LINE
5
188
100
AcDbEntity
8
PERIMETER
100
AcDbLine
10
44.943747330159695
20
-64.945820434594594
30
0
11
47.542727364097502
21
-66.445815009105317
31
0
0
SPLINE
5
189
100
AcDbEntity
8
PERIMETER
100
AcDbSpline
70
0
71
3
72
8
73
4
74
0
42
0.000000001
43
0.0000000001
44
0.0000000001
40
0
40
0
40
0
40
0
40
1
40
1
40
1
40
1
10
47.542727364097502
20
-66.445815009105317
30
0
10
47.998314698791738
20
-66.708965892854849
30
0
10
48.515487572894614
20
-66.847496462903493
30
0
10
49.0423774287908
20
-66.847513142820191
30
0
0
SPLINE
5
18A
100
AcDbEntity
8
PERIMETER
100
AcDbSpline
70
0
71
3
72
8
73
4
74
0
42
0.000000001
43
0.0000000001
44
0.0000000001
40
0
40
0
40
0
40
0
40
1
40
1
40
1
40
1
10
49.0423774287908
20
-66.847513142820191
30
0
10
49.30518301129564
20
-66.847511932720835
30
0
10
49.566228416791461
20
-66.813145582819374
30
0
10
49.819590970272223
20
-66.745193806978875
30
0
0
SPLINE
5
18B
100
AcDbEntity
8
PERIMETER
100
AcDbSpline
70
0
71
3
72
8
73
4
74
0
42
0.000000001
43
0.0000000001
44
0.0000000001
40
0
40
0
40
0
40
0
40
1
40
1
40
1
40
1
10
49.819590970272223
20
-66.745193806978875
30
0
10
50.588223111521209
20
-66.538909528982387
30
0
10
51.243738616424508
20
-66.035525199606369
30
0
10
51.641012953449497
20
-65.346485040130432
30
0
0
LINE
5
18C
100
AcDbEntity
8
PERIMETER
100
AcDbLine
10
51.641012953449518
20
-65.346485040130432
30
0
11
76.112215208085857
21
-22.918411593733214
31
0
0
SPLINE
5
18D
100
AcDbEntity
8
PERIMETER
100
AcDbSpline
70
0
71
3
72
8
73
4
74
0
42
0.000000001
43
0.0000000001
44
0.0000000001
40
0
40
0
40
0
40
0
40
1
40
1
40
1
40
1
10
76.112215208085857
20
-22.918411593733214
30
0
10
76.939769075172123
20
-21.483601980039708
30
0
10
76.447917343212708
20
-19.649609787764692
30
0
10
75.013463195200998
20
-18.821439921295511
30
0
0
LINE
5
18E
100
AcDbEntity
8
PERIMETER
100
AcDbLine
10
75.013463195200998
20
-18.821439921295511
30
0
11
72.416661281560849
21
-17.322198487162321
31
0
0
SPLINE
5
18F
100
AcDbEntity
8
PERIMETER
100
AcDbSpline
70
0
71
3
72
8
73
4
74
0
42
0.000000001
43
0.0000000001
44
0.0000000001
40
0
40
0
40
0
40
0
40
1
40
1
40
1
40
1
10
72.416661281560849
20
-17.322198487162321
30
0
10
56.472759376651076
20
-8.1172478586909946
30
0
10
49.360015238277882
20
-2.8448737274260871
30
0
10
49.360015238898399
20
4.0649542873394928
30
0
0
ENDSEC
0
SECTION
2
OBJECTS
0
DICTIONARY
5
C
100
AcDbDictionary
3
ACAD_GROUP
350
D
3
ACAD_MLINESTYLE
350
17
0
DICTIONARY
5
D
100
AcDbDictionary
0
DICTIONARY
5
1A
330
C
100
AcDbDictionary
0
DICTIONARY
5
17
100
AcDbDictionary
0
ENDSEC
0
EOF
